<?xml version="1.0" encoding="UTF-8"?><svg id="ekstra_tomater" xmlns="http://www.w3.org/2000/svg" width="135" height="115" viewBox="0 0 135 115"><defs><style>.cls-1{fill:#d94e8f;}.cls-2{fill:#1f3006;}.cls-3{fill:#0d0d0d;}.cls-4{fill:#542b2b;}.cls-5{fill:#5c7346;}.cls-6{fill:#313a26;opacity:.89;}</style></defs><path class="cls-5" d="m128.99,71.97c-8.37,27.84-35.67,26.32-56.37,32.64-20.69,6.32-77.71-13.6-69.89-37.73C10.54,42.74,41.58,19.51,60.31,10.3c19.72-9.69,78.05,30.5,68.68,61.67Z"/><path class="cls-2" d="m73.52,22.42c2.47,1.16,5.74,1.6,7.86,3.37,5.5,4.59,9.32,9.8,14.72,14.88-3.73-7.11-.09-4.26-5.63-13.87-5.55-9.6-15.62-15.3-28.57-12.39-.16-.19.23.25.16.39-7.96-5.8-1.69-5.62,1.13-12.81-.67.01-1.33.15-1.99.1-1.97,5.62-9.16,9.04-9.58,12.73-4.41.93-10.85,2.97-12.66,7.54-2.66,6.7,1.97,8.13.87,13.14,2.28-2.69-.26-9.48,1.84-13.79.94-1.93,4.67-3.7,7.04-3.71-6.88,4.91-4.57,7.18-3.21,14.45,1.52,8.15-1.52,11.08-3.96,17.58,5.44-5.69,8.48-12.26,9.61-19.75.75-4.92,1.37-5.37,4.23-8.31,1.36,3.17,2.06,4.66,3.18,8.25,2.33,7.44,3.57,16.44,3.95,24.54,1.15-8.08,1.1-16.98-.07-24.61-.53-3.45-.97-3.96-.7-6.82,9.09,1.95,11.83,8.29,14.38,15.67,2.71,7.86,5.94,7.88,8.68,14.39-1.27-5.63-3.09-9.68-4.54-15.33-1.34-5.21-3.9-10.95-6.74-15.65Z"/><path class="cls-1" d="m24.73,53.46c-.32.74-1.28.99-1.94.95-.66-.04-1.31-.43-.98-1.18.33-.75,1.29-1,1.95-.96s1.28.45.96,1.19Z"/><path class="cls-3" d="m43.78,55.82c-.37,1.76-2.01,3.6-3.56,3.97s-2.74-.4-2.27-2.1c.46-1.7,2.22-3.16,3.68-3.72,1.46-.56,2.53.1,2.15,1.85Z"/><path class="cls-3" d="m54.25,80.7c.12,1.91-1.35,3.2-2.81,3.46-1.46.26-3.44-.02-3.54-1.89s1.32-2.33,2.67-2.92c1.35-.6,3.55-.55,3.67,1.36Z"/><path class="cls-3" d="m75.29,92.93c.48,2.85-1.23,5.33-3.6,5.55-2.37.22-4.84-1.58-5.54-4.07s1.08-4.67,3.55-5.17c2.47-.5,5.11.84,5.59,3.69Z"/><path class="cls-4" d="m40.82,45.47c-.17,1.41-2.66,2.42-3.72,2.79s-2.81-.21-2.2-1.57c.61-1.35,2.71-1.92,3.77-2.06,1.06-.14,2.32-.57,2.15.84Z"/><path class="cls-1" d="m14.65,64.79c-.29,1.62,1.42,2.37,2.72,2.34s3.12-.73,3.42-2.36-1.27-2.28-2.57-2.27c-1.31,0-3.28.66-3.57,2.29Z"/><path class="cls-1" d="m10.91,78.6c.17.79.93,1.3,1.64,1.31s1.23-.5,1.05-1.29c-.18-.79-.93-1.3-1.65-1.31-.71,0-1.22.5-1.04,1.29Z"/><path class="cls-3" d="m129,61c4.29,20.09-22.6,22.75-34,30-10.71,6.81-25.1,11.48-34.86,13.47-15.68,3.2,26.2.14,41.86-7.47,14.2-6.9,28.73-7.27,27-36Z"/><path class="cls-6" d="m29.74,91.6c-.61.11-1.27.07-2.11-.57-6.36-4.9-19.91-18.62-19.43-27.44.53-9.85,12.75-21.64,20.01-23.89,1.29-.4.4-1.76.78-1.71,1.93.29,3.37,4.35,1.65,5.54-6.23,4.29-15.96,16.13-14.61,23.39,1.66,8.89,5.88,10.58,10.4,15.62,1.86,2.08,3.34,2.87,4.9,4.9,1.55,2.03.46,3.8-1.59,4.16-.1.11,0,0,0,0Z"/></svg>