<?xml version="1.0" encoding="UTF-8"?><svg id="green_tomat" xmlns="http://www.w3.org/2000/svg" width="2156" height="362" viewBox="0 0 2156 362"><defs><style>.cls-1{fill:#333a2c;}</style></defs><path class="cls-1" d="m1529.75,211.71c10.35-25.11,34.55-38.8,55.9-32.62,6.05-7.67,12.5-15.05,19.33-22.11-1.48-5.29-2.28-10.84-2.28-16.57,0-35.51,30.31-64.3,67.69-64.3,13.91,0,26.83,3.99,37.58,10.82,19.27-8.08,39.6-14.36,60.74-18.66,8.97-9.52,21.47-15.43,35.3-15.43,10.25,0,19.77,3.25,27.67,8.8,1.18-.01,2.35-.04,3.53-.04.97,0,1.93.02,2.9.03,13.13-19.93,37.23-33.29,64.8-33.29,20.98,0,39.96,7.75,53.62,20.23,3.85-.42,7.76-.64,11.72-.64,25.3,0,48.62,8.79,67.3,23.58,37.75,1.6,74.33,11.47,82.9,35.12,4.41,12.17,6.81,28.19,5.89,45.77,19.06,13.97,31.68,38.2,31.68,65.76,0,22.49-8.41,42.75-21.85,57.05,6.57,23.24,10.08,47.62,10.08,72.77h-308.87s-309.18,0-309.18,0c0-27.05,4.05-53.22,11.61-78.03-13-13.75-16.83-36.93-8.04-58.26Z"/><path class="cls-1" d="m690.58,207.66c-11.42-28.44-38.1-43.95-61.64-36.95-6.67-8.68-13.79-17.04-21.32-25.04,1.63-5.99,2.51-12.27,2.51-18.76,0-40.22-33.42-72.82-74.65-72.82-15.33,0-29.58,4.52-41.44,12.25-21.25-9.15-43.67-16.26-66.98-21.13-9.9-10.78-23.68-17.48-38.92-17.48-11.31,0-21.81,3.68-30.51,9.97-1.3-.01-2.59-.05-3.89-.05-1.07,0-2.13.03-3.19.04C336.08,15.13,309.51,0,279.11,0c-23.14,0-44.06,8.77-59.13,22.91-4.25-.48-8.56-.72-12.92-.72-27.89,0-53.61,9.95-74.22,26.71-41.63,1.81-81.97,12.99-91.42,39.78-4.86,13.78-7.51,31.93-6.49,51.83C13.91,156.34,0,183.77,0,214.98c0,25.47,9.27,48.42,24.1,64.61-7.25,26.32-11.12,53.93-11.12,82.41h681.54c0-30.63-4.47-60.27-12.81-88.37,14.34-15.57,18.56-41.82,8.87-65.98Z"/></svg>