<?xml version="1.0" encoding="UTF-8"?><svg id="busk" xmlns="http://www.w3.org/2000/svg" width="975" height="948.58" xmlns:xlink="http://www.w3.org/1999/xlink" viewBox="0 0 975 948.58"><defs><style>.cls-1{fill:#027333;}.cls-2{fill:#001300;}.cls-3{fill:#fff;}.cls-4{fill:#ffb2d3;}.cls-5{fill:#9e0d45;}.cls-6{fill:#9e0f44;}.cls-7{fill:#dce8ef;}.cls-8{fill:#d9ecfb;}.cls-9{fill:#754c24;}.cls-10{fill:#313a26;}.cls-11{opacity:.79;}</style></defs><path class="cls-8" d="m850.04,945.37c-386.41-74.48-456.03-46.96-633.56-7.77-117.97,26.04-155.56-46.89-114.45-78.35,117.28-89.76-257.19-561.9-23.73-775.84C173.37-3.71,164.87,46.24,239.71,29.33c340.5-76.93,177.12,24.96,512.12-2.39,165.91-13.55,221.9,4.41,202.71,46.21-70.01,152.49-52.35,351.75,8.25,642.98,9.65,46.35,52.74,261.14-112.76,229.24Z"/><path class="cls-9" d="m884.27,810.9c13.99-62.45-40.14-115.04-117.56-132.38-77.42-17.34-148.8,7.14-162.79,69.6-13.99,62.45,38.79,121.09,116.2,138.43,77.42,17.34,150.16-13.19,164.14-75.64Zm-140.84-28.43l20.27-90.49c70.05,15.69,117.76,68.94,106.56,118.95-11.2,50-77.06,77.82-147.12,62.14l20.29-90.59Z"/><image width="451" height="80" transform="translate(96.98 818.2)" xlink:href="taber1.png"/><path class="cls-6" d="m703.99,629.73c12.56-5.13,37.93-8.2,40.27-24.02,2.5-16.85-38.62-3.49-45.95-2.05-.12.02,11.66-6.89,12.64-7.65,2.26-1.75,9.93-9.11,10.09-9.35,4.52-6.45,17.32-18.28,9.54-24.52-5.32-4.27-14.82,7.72-21.73,13.47-2.7,2.24-17.13,17.66-26.72,15.35-1.83-.44-13.16.31-15.64.03-21.88-2.51-40.12-1.86-62.58-7.9-15.43-104.43-66.62-191.06-202.12-200.14-68.05-4.56-117.86,21.35-162.38,61.41,30.62-31.48,92.83-49.64,127.26-55,158.66-24.69,275.88,132.19,152.8,223.73-99.15,73.75,13.99,128.72-178.15,124.46-79.33-1.76-72.36-34.29-107.66-71-22.05-22.93-1.96-50.49-6.17-75.2,5.57.28-1.59,1.83-1.77,2.87-19.04,112.51,47.26,180.45,178.42,167.07,131.16-13.38,76.03-135.9,175.75-153.65.33-.06,5.94-1.11,3.07-.72,24.18,13.59,46.22,19.75,67.84,37.65,7.56,8.51,14.96,16.19,26.92,18.6,13.13,2.64,24.17-3.76,35.32-12.05,18.98-14.12,9.51-19.76-9.04-21.4Z"/><path class="cls-6" d="m223.12,490.52c-.13-1.58-.07-3.49.1-5.13-1.9,25.92,7.08,51.92,10.65,77.42-2.64-24.27-8.8-47.89-10.75-72.29Z"/><path class="cls-4" d="m233.74,666.47c35.16,36.96,28.13,69.24,107.57,71.06,192.4,4.39,78.7-50.78,178.06-124.45,123.34-91.45,6.08-248.49-152.87-223.69-34.5,5.38-96.6,23.07-126.55,55.36-9.09,9.8-16.61,26.35-16.67,40.59,0,1.47-.33,3.75-.19,5.27,2.07,23.37,8.11,49.37,10.72,71.6,1.31,11.16-5.96,20.2-5.31,28.64,1.99,25.99-16.71,52.55,5.25,75.64Z"/><path class="cls-2" d="m365.59,584.42c-4.11,6.33-1.72-6.24,3.22-8.46,7.87-3.54,14.89,7.04,13.49,12.59-2.09,8.33-4.33,7.13-4.23,2.05.18-9.95-8.16-12.84-12.48-6.19Z"/><path d="m443.21,510.8c-9.4,18.07-18.1,51.65-8.16,67.67,9.94,16.02,32.86-7.27,44.48-20.16,11.61-12.89,33.11-36.77,14.51-57.52-18.61-20.74-41.42-8.06-50.82,10.01Z"/><path class="cls-3" d="m449.62,513.41c12.95-11.57,29.46-3.12,33.35,13.95,3.89,17.07-8.73,34.04-21.82,45.09-13.09,11.05-22.42,8.45-24.01-8.5-1.59-16.95-.47-38.97,12.48-50.53Z"/><path class="cls-2" d="m447.61,530.82c6.53-6.44,15.4-2.73,17.45,6.57,2.04,9.3-4.33,20.64-11.46,26.78-7.13,6.15-13.57,3.84-14.63-5.1-1.06-8.95,2.12-21.8,8.64-28.24Z"/><path class="cls-3" d="m446.26,555.25c2.91-2.55,6.48-2.54,6.8,1.65.32,4.18-2.72,9.17-5.63,11.78s-6.14,2.63-6.55-1.54c-.42-4.17,2.47-9.33,5.38-11.88Z"/><path class="cls-3" d="m459.34,549.03c1.79-1.5,3.3-4.41,2.93-6.81-.37-2.41-2.18-2.68-3.98-1.19s-3.39,4.46-3.05,6.93c.34,2.47,2.3,2.58,4.09,1.08Z"/><path d="m337.2,510.09c4.48,20.2.37,52.94-18.61,60.03s-27.03-28.66-34.71-43.31c-7.68-14.65-21.46-53.45,6.97-59.31,28.43-5.85,41.87,22.39,46.35,42.59Z"/><path class="cls-3" d="m330.59,507.9c-7.14-16.13-27.21-23.4-38.95-9.5-11.74,13.9-1.4,36.54,4.81,50.55,6.22,14,14.63,22.4,27.23,8.89,12.61-13.51,14.04-33.8,6.9-49.93Z"/><path class="cls-2" d="m328.16,524.87c-3.96-8.26-13.2-13.28-19.61-5.7-6.41,7.57-3.6,20.38-.26,28.49,3.34,8.12,9.53,12.31,16.37,5.38,6.84-6.93,7.47-19.91,3.51-28.17Z"/><path class="cls-3" d="m322.8,542.01c-1.38-3.49-4.97-6.42-7.68-3.14-2.71,3.27-1.63,9.12-.31,12.49,1.32,3.37,4.21,6.21,6.95,2.98,2.73-3.22,2.42-8.83,1.04-12.33Z"/><path class="cls-3" d="m309.91,532.53c-1.11-1.87-2.21-5.38-.39-7.31,1.82-1.93,3.79-.32,4.94,1.74,1.15,2.06,1.56,5.34-.22,7.28-1.78,1.95-3.22.16-4.32-1.71Z"/><g class="cls-11"><path class="cls-10" d="m364.22,421.09c8.64-17.31,8.68-36.06,30.25-42.29,23.17-6.7,34.26,8.93,51.52,21.11-17.41-2.65-29.38-10.48-47.11-5.14-15.85,4.77-21.15,18.81-34.66,26.33Z"/><path class="cls-10" d="m382.77,349.49c13.79-11.22,19.58-19.1,34.84-3.79,16.39,16.44,21.63,38.47,30.8,58.8-18.01-14.22-29.39-39.19-42.83-56.1-12.01-15.11-7.78,7.57-22.81,1.09Z"/><path class="cls-10" d="m449.01,400.76c-5.95,13.49-5.34,11.71-8.37,28.63-3.26,18.18-24.21,36.29-25.85,59.98-7.07-19.26-12.31-56.63,2.29-71.48,13.04-13.27,18.09-9.24,31.94-17.14Z"/><path class="cls-10" d="m448.02,404.65c4.41,9.08,8.23,19.35,8.83,29.31.65,10.7-2.47,20-6,29.75-3.78-10.09-7.05-20.6-7.69-31.34-.58-9.6,2.02-18.72,4.86-27.72Z"/><path class="cls-10" d="m447.48,409.67c9.18,13.7,19.48,28.88,25.32,44.1,6.27,16.36,2.22,29.05-.22,45.38-5.14-15.07-6.01-27.21-13.6-42.26-6.79-13.44-11.24-31.34-11.5-47.23Z"/><path class="cls-10" d="m440.28,405.81c19.44-1.3,36.84,5.29,52.04,18.57,16.33,14.27,4.09,37.41,21.46,50.01-13.57-5.59-30.14-20.4-37.18-30.89-11.76-17.5-14.97-39.44-36.31-37.69Z"/><path class="cls-10" d="m446.8,407.25c-.64-.03-.83-.18-.64-.8,2.76-8.82,9.5-17.97,15.84-24.04,6.85-6.56,14.85-11.74,23.93-11.9.37,0,.39.28.43.39.39,1.15,1.08,2.85,1.46,3.78.38.93-.36,1.27-.89,1.53-6.11,2.98-11.43,3.84-17.12,8.4-7.39,5.92-13.9,15.04-20.16,22.54-.81.04-2.21.13-2.85.1Z"/></g><path class="cls-1" d="m355.98,404.45c8.25-15.88,6.82-31.05,27.76-35.37,22.51-4.64,34.66,9.76,52.02,21.28-15.65-3.08-30.83-10.67-46.82-7.14-14.29,3.15-20.44,15.41-32.97,21.23Z"/><path class="cls-1" d="m370.62,341.75c14.48-9.72,18.97-14.66,33.88-.79,16.01,14.89,23.79,34.84,33.75,53.59-17.74-13.53-31.48-36.29-45.34-52.06-12.39-14.09-7.72,5.97-22.28-.74Z"/><path class="cls-1" d="m438.7,391.35c-5.57,11.51-4.12,9.7-6.76,24.3-2.84,15.69-20.67,30.22-21.99,50.53-7.6-16.05-15.17-49.4-1.41-61.81,12.31-11.1,17.26-7.09,30.16-13.02Z"/><path class="cls-1" d="m437.91,394.68c4.56,7.87,9.27,16.99,10.34,25.83,1.16,9.5-.54,17.52-3.67,26.17-4.13-8.99-8.47-18.72-9.8-28.32-1.19-8.58.86-15.75,3.12-23.68Z"/><path class="cls-1" d="m437.64,399.06c9.54,12.25,20.89,25.89,27.3,39.73,6.88,14.87,4.1,25.79,2.98,41.03-6.07-13.58-7.84-25.39-15.92-38.72-7.22-11.91-13.22-27.43-14.36-42.04Z"/><path class="cls-1" d="m430.47,395.15c19.42.18,35.58,6.61,51.02,18.73,16.59,13.02,6.63,33.61,23.4,45.73-13.17-5.94-29.46-19.91-37.08-29.83-12.72-16.56-16.77-34.61-37.34-34.63Z"/><path class="cls-1" d="m436.87,396.88c-.6-.06-.84-.21-.67-.75,2.39-7.66,7.87-15.23,13.73-20.32,6.34-5.5,14.13-9.27,22.23-8.8.33.02.39.27.43.37.42,1.06,1.16,2.59,1.56,3.42.4.84-.3,1.09-.79,1.28-5.57,2.14-10.64,2.47-15.8,6.24-6.7,4.9-12.15,12.48-17.95,18.66-.75-.02-2.16-.06-2.75-.12Z"/><path class="cls-7" d="m307.38,551.16c-3.74,8.94-2.39,15.13-6,24.71-3.87,10.29-9.99,20.56-24.58,12.95-14.59-7.61-11.72-18.02-3.91-28.1,6.98-9.01,23.29-11.76,34.49-9.56Z"/><path class="cls-7" d="m448.65,579.73c3.13,8.13,1.7,13.7,4.68,22.41,3.21,9.35,8.46,18.73,22.03,12.1,13.57-6.63,11.29-16.07,4.48-25.3-6.09-8.25-20.9-11.01-31.19-9.21Z"/><path class="cls-7" d="m259.64,553.78c-8.44,2.17-13.81.11-22.8,2.07-9.66,2.11-19.58,6.25-14.56,20.49,5.02,14.25,14.66,13.06,24.62,7.36,8.9-5.09,13.34-19.49,12.74-29.93Z"/><path class="cls-7" d="m255.74,590.23c-4.73,2.72-8.11,2.41-13.19,5.1-5.46,2.89-10.85,7.02-6.38,14.56,4.47,7.54,10.01,5.2,15.26.15,4.69-4.52,5.77-13.76,4.31-19.81Z"/><path class="cls-7" d="m494.68,610.59c-1.81,5.15-4.56,7.12-6.65,12.48-2.24,5.75-3.63,12.4,4.68,15.19,8.31,2.79,10.98-2.6,11.65-9.86.6-6.49-4.62-14.19-9.68-17.81Z"/><path class="cls-3" d="m303.23,552.35c-3.54,2.09-6.11,1.88-9.92,3.95-4.09,2.22-8.11,5.38-4.57,11.06,3.54,5.68,7.71,3.87,11.6,0,3.48-3.45,4.12-10.45,2.89-15.02Z"/><path class="cls-3" d="m454.19,581.56c-1.32,3.9-3.4,5.42-4.93,9.47-1.64,4.36-2.62,9.37,3.77,11.36,6.39,1.98,8.36-2.11,8.79-7.57.38-4.88-3.71-10.61-7.62-13.26Z"/><path class="cls-5" d="m258.77,769.4c2.01-34.66-53.51-122.33-22.95-106.46,35.4,18.38,251.05,28.63,249.81-17.14,12.75,7.19-8.38,35.42-10.76,53.24-2.07,15.47-8.78,41.35-11.46,58.1-.67,4.18,2.33,5.47,4.26,4.77,35.37-12.8,78.12-29.92,96.19,11.63,13.21,34.52-7.38,64.79-35.68,85.2-27.1,19.55-74.77,20.85-92.12,3.49-24.74-24.77-36.05-39.73-28.42-67.15.77-2.76,1.36-2.46.01-3.98-12.61-14.22-37.38-28.07-51.45-40.64-48.47,36.02-51.6,130.53-121.17,126.63-163.11-9.13-32.94-124.81,23.73-107.68Z"/><path class="cls-3" d="m260.51,547.67c-9.15,3.18-15.25,1.44-25.04,4.45-10.51,3.23-21.14,8.69-14.45,23.72,6.69,15.04,17.25,12.82,27.81,5.65,9.43-6.41,13.19-22.52,11.68-33.82Z"/></svg>