<?xml version="1.0" encoding="UTF-8"?><svg xmlns="http://www.w3.org/2000/svg" width="1923.5" height="1080" xmlns:xlink="http://www.w3.org/1999/xlink" viewBox="0 0 1923.5 1080"><defs><style>.cls-1{fill:url(#linear-gradient);}.cls-2{fill:#027333;}.cls-3{fill:#676d5e;}.cls-4{fill:#001300;}.cls-5{fill:#f27d72;}.cls-6{fill:#fff;}.cls-7{fill:#f2aa52;}.cls-8{fill:#f2d338;}.cls-9{fill:#ffb2d3;}.cls-10{fill:#9e0d45;}.cls-11{fill:#9e0f44;}.cls-12{fill:#b6c19f;}.cls-13{fill:#5c7346;}.cls-14{fill:#5f6b4b;}.cls-15{fill:#757a68;}.cls-16{fill:#754c24;}.cls-17{fill:#72756d;}.cls-18{fill:#313a26;}.cls-19{fill:#7b8c61;}.cls-20{opacity:.79;}</style><linearGradient id="linear-gradient" x1="958.06" y1="-5" x2="958.06" y2="1085" gradientUnits="userSpaceOnUse"><stop offset="0" stop-color="#89abd9"/><stop offset=".76" stop-color="#d9ecfb"/><stop offset="1" stop-color="#89abd9"/></linearGradient></defs><g id="baggrund"><rect class="cls-1" x="-8.94" y="-5" width="1934" height="1090"/></g><g id="graes"><path class="cls-8" d="m1898.94,963.59s25.87-19.96-11.45-52.23c67.33,28.64,24.62,46.1,11.45,52.23Z"/><path class="cls-8" d="m1886.09,959.6s7.28-14.92-60.74-26.26c58.76,14.66,48.92,26.9,56.29,34.52l4.45-8.26Z"/><path class="cls-8" d="m1883.82,948.53s20.91-10.15-38.55-27.77c14.9,7.78,32.64,17.83,38.55,27.77Z"/><path class="cls-15" d="m1734.79,946.35s29.76-28.79-13.17-75.35c77.45,41.32,28.32,66.5,13.17,75.35Z"/><path class="cls-15" d="m1720.01,940.59s8.37-21.52-69.87-37.88c67.59,21.15,56.28,38.8,64.75,49.8l5.12-11.92Z"/><path class="cls-15" d="m1773.88,944.65s-15.16-21.42,35.46-31.38c-10.36,7.34-26.05,17.36-35.46,31.38Z"/><path class="cls-15" d="m1789.01,945.18s-.97-14.59,30.9-17.99c6.37-1.52-9.3,8.59-30.9,17.99Z"/><path class="cls-15" d="m1717.4,924.62s24.06-14.65-44.35-40.06c17.14,11.22,37.54,25.72,44.35,40.06Z"/><path class="cls-15" d="m1773.29,918.64s3.33-35.8,58.25-41.2c-31.63,15.21-39.94,23.54-58.25,41.2Z"/><path class="cls-19" d="m1587.23,984.07s21.86-19.55-9.67-51.17c56.89,28.06,20.8,45.16,9.67,51.17Z"/><path class="cls-19" d="m1576.37,980.17s6.15-14.62-51.32-25.72c49.64,14.36,41.33,26.35,47.55,33.82l3.76-8.09Z"/><path class="cls-19" d="m1615.94,982.92s-11.14-14.55,26.05-21.31c-7.61,4.98-19.13,11.79-26.05,21.31Z"/><path class="cls-19" d="m1627.05,983.28s-.72-9.91,22.69-12.22c4.68-1.03-6.83,5.83-22.69,12.22Z"/><path class="cls-19" d="m1574.46,969.32s17.67-9.95-32.57-27.2c12.59,7.62,27.57,17.47,32.57,27.2Z"/><path class="cls-19" d="m1615.51,965.26s2.45-24.31,42.78-27.98c-23.23,10.33-29.34,15.99-42.78,27.98Z"/><path class="cls-3" d="m1619.78,987.97s21.86-42.17-9.67-110.37c56.89,60.53,20.8,97.41,9.67,110.37Z"/><path class="cls-3" d="m1608.92,979.54s6.15-31.53-51.32-55.48c49.64,30.98,41.33,56.84,47.55,72.94l3.76-17.46Z"/><path class="cls-3" d="m1648.49,985.49s-11.14-31.38,26.05-45.97c-7.61,10.75-19.13,25.43-26.05,45.97Z"/><path class="cls-3" d="m1659.6,986.26s-.72-21.37,22.69-26.36c4.68-2.23-6.83,12.58-22.69,26.36Z"/><path class="cls-3" d="m1607,956.14s17.67-21.46-32.57-58.68c12.59,16.43,27.57,37.68,32.57,58.68Z"/><path class="cls-3" d="m1648.06,947.38s2.45-52.45,42.78-60.35c-23.23,22.27-29.34,34.49-42.78,60.35Z"/><path class="cls-8" d="m1754.41,952.93s21.86-12.78-9.67-33.45c56.89,18.34,20.8,29.52,9.67,33.45Z"/><path class="cls-8" d="m1743.56,950.38s6.15-9.55-51.32-16.81c49.64,9.39,41.33,17.23,47.55,22.1l3.76-5.29Z"/><path class="cls-8" d="m1783.13,952.18s-11.14-9.51,26.05-13.93c-7.61,3.26-19.13,7.71-26.05,13.93Z"/><path class="cls-8" d="m1794.24,952.41s-.72-6.48,22.69-7.99c4.68-.67-6.83,3.81-22.69,7.99Z"/><path class="cls-8" d="m1741.64,943.29s17.67-6.5-32.57-17.78c12.59,4.98,27.57,11.42,32.57,17.78Z"/><path class="cls-8" d="m1782.69,940.63s2.45-15.89,42.78-18.29c-23.23,6.75-29.34,10.45-42.78,18.29Z"/></g><g id="ekstra_tomater"><path class="cls-7" d="m1588.97,928.26c8.07,30.16,28.4,51.7,54.47,51.93,3.21.03,24.55,1.14,39.35-15.24,2.08-2.3,14.07-15.57,11.75-31.19-2.26-15.22-15.95-18.2-16.81-34.72-.45-8.59,3.14-9.87,1.89-18.65-2.03-14.21-13.16-22.93-13.92-23.51-17.33-13.18-41.19-3.53-43.06-2.74-25.44,10.73-41.48,44.95-33.68,74.11Z"/><g class="cls-20"><path class="cls-18" d="m1651.63,894.44c-.1.04-.2.08-.3.12.1-.04.2-.09.3-.12Z"/><path class="cls-18" d="m1671.72,891.67c-1.28-6.13-10.25-8.73-14.81-11.11,0,0,2.38.29,6.78-1.14s6.88,5.32,11.19,11.64c3.93,5.76-3.73,9.64-.14,13.48.08-.16.2-.29.37-.37,5.4-1.65,11.77-2.09,11.95-8.9.06-.22.36.32.57.4.11-.11.23-.23.34-.34.24,0,.59-.23.59.13-1.1,6.73-7.27,7.78-12.61,10.08.06.04.11.08.17.11,4.14,1.31,1.46,1.39-1.2.97-1.1,1.66,0,0,7.24,1.12,7.24,1.12,8.05,8.32,9.59,9.92,1.54,1.6,1.34,5.12-2.63,7.68l-.4.42s.4-.42,1.66-4.12-5.81-7.83-12.92-12.05c1.11,1.09,4.21,6.64,4.94,12.5.73,5.86-7.95,10.27-13.24,10.64,0,0,4.17-7.79,6.05-10.5,1.88-2.71-.62-13.03-1.06-13.59s-2.16-.87-3.44-.11c-2.78.99-6.79,6.32-8.34,6.98-1.55.66-8.96.84-12.06.28-.14-.5,4.02-6.53,9.88-7.53,13.16-2.25,11.37-6.21,11.37-6.21l-2.21-2.2s-.68-1.09-4.85-.17c-1.36.3-7.06-7.52-12.84-5.26,8.47-3.62,13.3,2.95,16.27,1.85-.96-1.92-.18-1.56-3.54-4.9-3.36-3.34-3.61-3.98-2.87-2.67.74,1.31-5.73-4.75-1.73-4.37s9.1,6.98,13.89,13.94c.9-.6-.65-.48-1.93-6.61Z"/></g><path class="cls-6" d="m1648.55,970.43c-2.87,4.16,14.02.63,23.49-3.25,7.09-2.9,15.39-11.07,17.22-17.27,1.67-5.68.01-5.48-4.16-4.86-1.9.28-4.45,7.4-7.65,11.37-2.33,2.89-11.21,8.02-16.66,8.43-5.79.43-8.12-.4-12.25,5.58Z"/><path class="cls-12" d="m.06,1079c.72.69,1298.87,1.66,1932.27-.12,0,0,.15-62.61.15-62.61-211.54,42.84-127.48-115.62-319.76-43.1-26.89,9.85-54.49,11.62-82.78,7.57-36.82-56.41-61.75-118.43-158.51-40.7-33.95,27.29-89.45,14.67-124.37-13-16.8-14.59-52.85-17.05-53.14-38.42-.5-36.77-169.94-105.6-212.46-92.52-5.6,1.72-12.61-1.27-15.59-6.32-19.04-32.23-76.14-60.27-76.14-60.27-66.4-23.7-451.38-147.08-512.33-78.04-47.67,5.87-44.31-21.27-20.24-38.2,13.8-9.9,7.81-31.35-9.16-32.64-21.06-.19-39.15,15.47-60.78,8.33-81.69-40.45-72.05,5.86-143.81,11.46-51.41,7.78-96,35.18-143.33,60.57-.88.44,0,418,0,418Z"/><path class="cls-13" d="m1379.1,1047.63c-21.43,13.99-45.62,16-61.66,1.87-1.98-1.74-15.6-12.75-15.67-30.84,0-2.55-.06-17.2,9.9-25.46,9.71-8.05,19.69-2.37,29.26-11.98,4.97-4.99,3.48-7.74,9.05-12.41,9.02-7.56,20.58-6.79,21.36-6.73,17.78,1.45,27.06,20.39,27.77,21.9,9.65,20.47.71,50.13-20.02,63.65Z"/><g class="cls-20"><path class="cls-18" d="m1358.19,991.65c.04.08.08.16.11.24-.04-.08-.07-.16-.11-.24Z"/><path class="cls-18" d="m1347.45,978.96c4.13-3.04,11.03.28,15.12,1.33,0,0-1.61-1.13-3.51-4.41-1.9-3.28-7.11-.52-13.2.98-5.55,1.36-3,7.92-7.29,8.3.04-.14.04-.28-.02-.42-2.39-3.96-6.03-7.72-2.42-11.97.08-.17-.4,0-.57-.07,0-.13-.02-.26-.02-.39-.15-.13-.23-.47-.43-.24-3.01,4.71.18,8.72,2.18,13.05-.06,0-.11-.01-.17-.02-3.25-1.47-1.65.05.21,1.25-.24,1.62,0,0-5.03-3.28-5.03-3.28-9.46.67-11.28.81s-3.62,2.39-2.6,6.12v.48s0-.48,1.25-3.42c1.25-2.94,7.83-1.6,14.48-.28-1.27.06-6.2,1.75-9.85,4.92s-.77,10.62,2.26,13.74c0,0,1.72-7.04,2.06-9.72.34-2.68,7.51-7.61,8.09-7.71s1.79.65,2.16,1.82c1.16,2.12.69,7.57,1.27,8.83s5.01,5.41,7.2,6.78c.35-.23,1.12-6.19-1.9-10-6.8-8.58-3.53-10.01-3.53-10.01l2.55-.13s1.01-.29,3.05,2.55c.67.93,8.42-.72,10.71,3.82-3.18-6.85-9.73-5.48-10.94-7.78,1.64-.64.97-.85,4.85-1.05,3.88-.2,4.38-.45,3.21-.06-1.17.39,6.09.24,3.45-1.72-2.65-1.96-9.37-.72-16.1.9-.22-.86.66.06,4.8-2.98Z"/></g><path class="cls-6" d="m1326.26,1049c.27,4.13-10.14-5.45-15.17-12.15-3.77-5.02-6.19-14.25-4.87-19.39,1.21-4.7,2.29-3.86,4.97-1.68,1.22.99.03,7.07.61,11.22.43,3.02,4.52,10.35,8.19,12.93,3.9,2.74,5.88,3.13,6.28,9.07Z"/><path class="cls-5" d="m1816.19,1028.37c-12.26,26.46-53.35,27.7-82.74,7.88-29.39-19.82-44.84-61.11-24.46-81.97,43.72-44.72,54.45-7.86,77.27,1.81,23.22,9.84,58.52,10.57,29.92,72.27Z"/><path class="cls-5" d="m1739.66,1040.8c-28.56-14.81-45.72-40.05-40.17-66.34.68-3.24,4.31-24.96,24.07-36.21,2.78-1.58,18.79-10.7,33.99-4.9,14.82,5.65,14.77,20.09,31.21,24.62,8.54,2.35,10.63-.97,19.18,2.24,13.85,5.2,20.16,18.33,20.57,19.23,9.41,20.36-5.59,42.23-6.8,43.94-16.44,23.22-54.43,31.77-82.05,17.44Z"/><g class="cls-20"><path class="cls-18" d="m1789.07,985.43c-.06.09-.12.18-.19.27.07-.09.13-.18.19-.27Z"/><path class="cls-18" d="m1796.31,965.83c5.88,2.65,6.51,12.25,7.89,17.37,0,0,.24-2.46,2.65-6.57,2.41-4.11-3.83-8.11-9.23-13.84-4.92-5.23-10.53,1.62-13.59-2.85.17-.04.33-.14.45-.29,2.86-5.07,4.72-11.37,11.61-10.05.23-.01-.24-.43-.28-.66.14-.09.28-.18.42-.27.05-.25.37-.54,0-.62-7.01-.39-9.44,5.59-12.94,10.45-.03-.07-.05-.13-.08-.2-.4-4.46-1.08-1.77-1.24,1-1.92.73,0,0,.48-7.54s-6.59-9.94-7.86-11.85c-1.27-1.91-4.86-2.49-8.31.94l-.51.31s.51-.31,4.51-.76c4-.45,6.59,7.59,9.26,15.67-.85-1.36-5.75-5.71-11.48-7.74-5.73-2.03-12.1,5.72-13.65,10.96,0,0,8.77-2.47,11.91-3.75s12.97,3.51,13.44,4.09.4,2.36-.65,3.49c-1.61,2.58-7.87,5.43-8.88,6.85-1.01,1.41-2.83,8.83-2.96,12.08.47.25,7.46-2.6,9.77-8.27,5.19-12.74,8.77-10.06,8.77-10.06l1.72,2.71s.94.92-.9,4.92c-.6,1.3,6,8.78,2.44,14.08,5.53-7.71-.02-14.04,1.75-16.78,1.72,1.4,1.53.53,4.14,4.65,2.62,4.12,3.2,4.52,2.05,3.48-1.15-1.04,3.51,6.82,4.01,2.71.51-4.11-5-10.71-10.94-17.07.8-.77.34.76,6.22,3.41Z"/></g><path class="cls-6" d="m1706.55,985.94c-4.35,2.85-.31-14.46,3.92-24.12,3.16-7.24,11.78-15.59,18.21-17.32,5.89-1.58,5.65.12,4.91,4.4-.34,1.95-7.73,4.4-11.9,7.61-3.04,2.33-8.54,11.35-9.09,16.95-.59,5.96.21,8.37-6.05,12.48Z"/><path class="cls-11" d="m1556.75,1011.95c-22.92,3.17-43.25-6.57-50.49-27.99-.89-2.64-7.45-19.87-.21-37.41,1.02-2.47,6.88-16.67,18.25-19.85,11.08-3.1,16.84,7.22,28.43,2.54,6.02-2.43,5.93-5.81,12.31-7.63,10.32-2.96,19.34,3.38,19.94,3.82,13.76,10,13.61,32.81,13.58,34.61-.47,24.47-19.63,48.84-41.79,51.91Z"/><g class="cls-20"><path class="cls-18" d="m1563.92,947.68c0,.1,0,.19,0,.28,0-.1,0-.19,0-.28Z"/><path class="cls-18" d="m1560.37,930.21c4.56-.94,8.79,5.6,11.66,8.59,0,0-.84-1.87-1.06-5.96s-5.53-3.94-11.04-5.43c-5.02-1.36-5.61,6.22-9.23,4.51.09-.11.14-.26.15-.42-.33-4.99-1.76-10.38,2.87-12.75.13-.12-.32-.19-.43-.34.05-.13.09-.26.14-.39-.07-.2,0-.56-.25-.44-4.32,3.1-3.37,8.52-3.5,13.68-.04-.03-.08-.07-.12-.1-2.03-2.99-1.35-.75-.34,1.31-.85,1.45,0,0-2.74-5.6-2.74-5.6-7.91-3.92-9.43-4.67s-3.89.56-4.56,4.67l-.18.47s.18-.47,2.38-2.71c2.2-2.24,6.96,2.24,11.79,6.73-1.05-.56-5.71-1.31-9.93,0-4.22,1.31-4.9,9.9-3.72,14.39,0,0,4.22-5.98,5.58-8.41s9.12-3.74,9.63-3.55,1.18,1.49,1.01,2.8c.08,2.61-2.5,7.66-2.53,9.15s1.86,7.66,3.08,10.04c.38-.05,3.4-5.45,2.49-10.6-2.03-11.58,1.18-11.4,1.18-11.4l2.11,1.1s.93.2,1.44,3.94c.17,1.22,7.09,3.37,7.1,8.87.19-8.16-5.64-10.01-5.69-12.81,1.58.17,1.12-.36,4.33,1.33,3.21,1.68,3.72,1.68,2.61,1.49-1.1-.19,4.82,3.18,3.47,0-1.35-3.18-7.27-5.23-13.35-6.91.17-.93.51.38,5.07-.56Z"/></g><path class="cls-6" d="m1515.06,987.74c-1.44,4.13-5.98-10.17-7.34-19.09-1.02-6.68.75-16.78,3.88-21.12,2.87-3.96,3.41-2.63,4.68.78.58,1.55-2.83,6.86-4.02,11.15-.87,3.12-.52,12.2,1.39,16.46,2.04,4.53,3.49,5.87,1.41,11.81Z"/><path class="cls-5" d="m1468.85,1042.06c-17.98,10.36-42.39-5.76-51.36-29.34-8.97-23.58-1.03-53.93,19.38-57.7,43.77-8.09,34.89,17.75,44.2,32.73,9.47,15.25,29.7,30.14-12.23,54.31Z"/><path class="cls-5" d="m1419.24,1017.91c-10.54-20.33-10.17-42.04,3.83-55.06,1.73-1.6,12.74-12.75,28.85-11.2,2.27.22,15.31,1.48,21.78,11.08,6.3,9.36.36,17.74,8.06,27.11,4,4.87,6.58,3.79,10.24,9.17,5.93,8.7,4.21,18.93,4.08,19.62-2.87,15.7-20.56,22.27-21.97,22.77-19.08,6.76-44.69-3.84-54.88-23.5Z"/><g class="cls-20"><path class="cls-18" d="m1470.68,1005.96c-.07.03-.15.05-.22.08.08-.02.15-.05.22-.08Z"/><path class="cls-18" d="m1482.93,997.53c2.34,3.95-1.23,9.8-2.53,13.34,0,0,1.15-1.33,4.24-2.74s1.1-6.29.31-11.84c-.72-5.06-6.79-3.37-6.74-7.23.12.05.25.06.38.02,3.74-1.78,7.41-4.68,10.87-1.09.14.09.04-.35.11-.5.12,0,.24,0,.35.01.13-.12.44-.17.26-.36-3.92-3.1-7.78-.62-11.81.77.01-.05.02-.1.04-.15,1.6-2.76.1-1.47-1.13.07-1.42-.36,0,0,3.37-4.19,3.37-4.19.25-8.48.29-10.11s-1.8-3.44-5.22-2.86l-.43-.03s.43.03,2.93,1.41c2.51,1.38.72,7.12-1.04,12.91.06-1.14-1-5.68-3.5-9.21s-9.38-1.63-12.43.78c0,0,6.11,2.16,8.47,2.7,2.35.54,6.11,7.36,6.14,7.89s-.74,1.54-1.81,1.76c-1.99.84-6.8-.07-7.97.34s-5.27,3.98-6.67,5.81c.17.34,5.41,1.55,9.07-.8,8.24-5.29,9.23-2.25,9.23-2.25l-.11,2.28s.17.92-2.54,2.49c-.88.51-.11,7.56-4.35,9.19,6.38-2.22,5.75-8.17,7.9-9.04.43,1.52.67.94.5,4.41-.17,3.47.01,3.94-.23,2.86-.24-1.08-.76,5.4,1.22,3.22,1.98-2.18,1.48-8.28.64-14.41.78-.12-.11.58,2.22,4.54Z"/></g><path class="cls-6" d="m1422.47,972.43c-3.7-.12,5.75-8.54,12.17-12.42,4.81-2.91,13.24-4.24,17.69-2.61,4.08,1.49,3.23,2.38,1.05,4.57-.99,1-6.3-.61-10.04-.45-2.72.11-9.62,3.1-12.24,6.13-2.78,3.22-3.31,4.96-8.64,4.78Z"/><path class="cls-11" d="m488.19,203.37c1.91,3.2,2.47,6.69,1.72,10.44-.75,3.76-2.16,7.23-4.22,10.4-6.18.57-12.62,1.74-19.3,3.53-6.68,1.79-13.85,5.22-21.42,10.35-14.43,9.77-23.16,21.17-26.12,33.53-2.97,12.39.32,24.55,9.47,36.51,9.45,12.36,20.43,18.66,32.74,19.32,12.34.66,25.01-3.66,38.53-12.77,7-4.72,12.53-9.41,16.58-14.21,4.05-4.79,7.58-9.62,10.61-14.51,3.54.11,6.87.99,10.01,2.6,3.13,1.62,5.64,4.04,7.55,7.24,1.66,2.79,2.34,5.91,2.08,9.38-.26,3.47-2,7.3-5.18,11.55-2.38,3.38-5.93,7.36-10.6,12-4.68,4.64-10.94,9.57-18.77,14.92-10.5,7.18-21.04,12.86-31.8,17.06-10.77,4.21-21.36,6.52-31.9,6.87-10.54.36-20.85-1.55-30.97-5.86-10.11-4.3-19.61-11.47-28.34-21.69-8.21-9.6-13.5-19.8-15.64-30.7-2.15-10.88-1.67-21.87,1.54-32.86,3.21-10.98,8.83-21.72,16.89-32.01,8.05-10.28,18.06-19.61,29.92-27.77,16.86-11.59,31.48-18.07,43.36-19.93,11.9-1.84,19.63.49,23.27,6.6Z"/><path class="cls-11" d="m572.24,165.58c10.01-4.76,19.54-8.14,28.48-10.19,8.94-2.05,17.03-2.58,24.2-1.67,7.18.92,13.36,3.35,18.54,7.24,5.19,3.89,9.08,9.34,11.76,16.29,6.59,17.08,13.17,34.17,19.76,51.25,1.52,3.93,1.53,7.53.08,10.79-1.45,3.27-3.5,6.38-6.12,9.36-4.23,5.02-9.86,9.89-16.89,14.69-7.03,4.8-15.33,9.4-24.9,13.93-17.3,8.19-32.28,12.42-45.48,12.28-13.18-.13-23.11-5.65-29.6-17.07-5.52-9.71-6.2-19.14-1.76-28.25,4.42-9.08,13.99-18.41,28.79-27.4,11.58-7.02,23.31-13.77,35.17-20.27-.36-.81-.72-1.63-1.08-2.44-2.1-4.74-6.07-7.16-11.95-7.16-5.88,0-13.45,2.14-22.6,6.55-7.09,3.43-13.69,7.54-19.76,12.3-6.07,4.76-11.26,9.45-15.61,14.02-2.8.04-5.62-.68-8.45-2.17-2.84-1.49-5.01-3.57-6.51-6.26-3.46-6.22-1.69-13.08,5.51-20.44,4.61-4.49,10.38-9.02,17.32-13.53,6.93-4.51,13.98-8.46,21.11-11.85Zm43.17,86.85c3.82-1.8,7.44-3.89,10.9-6.26,3.45-2.37,5.92-4.49,7.4-6.38-3.02-6.82-6.03-13.63-9.05-20.45-7.16,3.79-14.28,7.68-21.34,11.66-5.5,3.15-9.55,6.45-12.16,9.83-2.61,3.38-3.06,6.74-1.38,10.07,1.75,3.47,4.7,5.43,8.82,5.91,4.12.49,9.7-1,16.81-4.37Z"/><path class="cls-11" d="m749.22,196.72c3.85,1.02,8.68.72,14.55-.84,2.75-.73,5.61-1.76,8.6-3.11,2.99-1.34,5.49-2.67,7.52-4,2.05,1.17,3.87,2.65,5.46,4.43,1.59,1.79,2.7,4.02,3.34,6.7,1.31,5.52-.11,10.63-4.16,15.38-4.05,4.76-12.07,8.63-24.08,11.98-14.83,4.15-27.19,4.78-37.44,1.56-10.23-3.21-17.76-11.35-22.35-24.68-11.82-34.4-23.64-68.8-35.47-103.2,2.09-1.23,4.9-2.74,8.42-4.51,3.52-1.77,7.45-3.35,11.79-4.73,9.09-2.89,16.05-3.66,20.79-2.45,4.75,1.22,8.03,5.04,9.87,11.42,1.46,5.06,2.93,10.12,4.39,15.17,13.86-4.01,27.79-7.7,41.79-11.07,1.39,1.33,2.89,3.1,4.48,5.3,1.59,2.21,2.7,4.65,3.33,7.33,1.19,5.05.6,9.01-1.73,11.9-2.33,2.9-5.74,4.9-10.26,6.04-9.91,2.52-19.79,5.2-29.64,8.04,4.37,15.1,8.74,30.19,13.11,45.29,1.26,4.36,3.83,7.03,7.68,8.04Z"/><path class="cls-11" d="m874.97,108.09c-10.87,1.32-19.76,5.4-26.46,12.07-6.72,6.68-9.08,15.42-7.31,26.12,1.77,10.72,6.58,18.11,14.25,22.35,7.68,4.24,16.66,5.66,27.15,4.38,5.99-.73,11.2-1.99,15.67-3.84,4.46-1.84,8.24-3.62,11.33-5.36,3.4,1.81,6.08,3.82,8.06,6.02,1.98,2.2,3.08,5,3.35,8.39.48,6.15-2.84,11.34-9.8,15.7-6.97,4.38-16.82,7.23-29.65,8.86-10.85,1.38-20.9,1.56-30.27.47-9.37-1.09-17.72-3.53-25.09-7.4-7.37-3.86-13.63-9.15-18.75-15.94-5.12-6.79-8.83-15.14-10.99-25.12-2.23-10.29-2.15-19.68.41-28.16,2.56-8.48,6.98-15.99,13.3-22.47,6.32-6.47,14.23-11.85,23.69-16.01,9.46-4.15,19.74-6.98,30.73-8.39,14.31-1.84,25.83-.96,34.37,2.3,8.54,3.28,12.99,8.07,13.48,14.2.23,2.91-.42,5.64-1.93,8.2-1.52,2.56-3.39,4.84-5.64,6.83-3.75-1.29-8.16-2.33-13.22-3.12-5.07-.78-10.63-.81-16.66-.08Z"/><path class="cls-11" d="m982.04,193.46c-3.28.43-6.93.68-10.94.76-8.21.17-14.17-.77-17.93-2.97-3.76-2.19-5.82-6.67-6.15-13.47-2.29-47.49-4.58-94.98-6.88-142.48,2.36-.6,5.48-1.23,9.37-1.87,3.89-.64,8.22-1.03,13-1.15,9.78-.25,16.81.91,21.04,3.32,4.24,2.41,6.33,7.04,6.32,13.84-.01,9.31-.02,18.63-.03,27.94,4.36-1.61,9.31-2.91,14.85-3.88,5.54-.96,11.55-1.34,18.02-1.12,20.04.71,35.52,5.77,46.07,14.53,10.56,8.78,14.83,21.11,13.23,36.73-2.46,24.26-4.92,48.51-7.39,72.77-1.87.3-4.46.49-7.77.59-3.31.1-6.97-.01-10.97-.33-8.19-.65-14.03-2.18-17.55-4.73-3.52-2.55-5.13-7.22-4.78-14.01.96-18.52,1.92-37.05,2.88-55.57.38-7.28-1.59-12.58-5.99-15.86-4.39-3.27-10.16-5.04-17.24-5.23-4.66-.12-8.92.33-12.77,1.34-3.85,1.01-7.4,2.24-10.61,3.7-.03,28.59-.06,57.19-.1,85.78-1.83.48-4.39.93-7.67,1.36Z"/><path class="cls-11" d="m1274.68,234.53c-6.71,1.07-14.46,1.1-23.28.19-8.83-.91-18.21-2.84-28.27-5.73-9.52-2.74-17.94-5.95-25.33-9.74-7.38-3.79-13.45-8.26-18.25-13.51-4.8-5.24-8.19-11.19-10.14-17.9-1.96-6.7-2.11-14.34-.35-22.91,4.74-23.09,9.49-46.18,14.23-69.27,2.34-.02,5.41.12,9.19.44,3.78.32,7.92.98,12.41,2,9.19,2.1,15.47,4.91,18.82,8.25,3.36,3.35,4.16,8.33,2.46,14.92-4.59,17.81-9.18,35.61-13.77,53.42-1.82,7.06-.98,12.66,2.45,16.84,3.43,4.18,8.95,7.31,16.61,9.51,4.74,1.37,8.8,2.2,12.2,2.47,3.4.27,6.04.29,7.92.02,8.72-27.83,17.44-55.66,26.16-83.49,2.15.16,5.1.58,8.85,1.28,3.75.7,7.83,1.78,12.22,3.27,8.98,3.03,15.03,6.49,18.16,10.21,3.13,3.72,3.49,8.78,1.13,15.16-8.86,24.02-17.73,48.03-26.59,72.05-2.64,7.15-8.3,11.25-16.85,12.52Z"/><path class="cls-11" d="m1371.78,287.49c-4.33-2.2-8.17-4.51-11.53-6.96-3.37-2.45-6.33-4.9-8.89-7.36-6.18,13.12-12.37,26.23-18.55,39.35-1.81-.32-4.26-.93-7.35-1.82-3.09-.89-6.41-2.13-9.95-3.7-7.25-3.22-12.04-6.56-14.36-10.17-2.32-3.61-2.21-8.55.37-14.84,15.25-37.09,30.51-74.17,45.76-111.26,1.6-3.89,3.96-6.65,7.11-8.24,3.14-1.59,7.05-2.54,11.75-2.83,7-.35,15.48.56,25.4,2.87,9.91,2.31,20.38,6.16,31.28,11.61,11.09,5.55,20.65,11.92,28.64,18.94,7.98,7.03,13.92,14.66,17.82,22.74,3.89,8.08,5.54,16.54,4.98,25.29-.56,8.76-3.7,17.68-9.31,26.78-5.35,8.7-11.67,15.41-18.84,20.24-7.18,4.84-14.82,7.9-22.93,9.26-8.11,1.36-16.48,1.15-25.18-.58-8.71-1.73-17.4-4.85-26.22-9.32Zm7.36-29.22c9.32,4.64,17.7,5.95,25.39,3.8,7.66-2.15,14.24-8.05,19.6-17.87,5.51-10.09,6.93-18.75,4.1-25.96-2.82-7.2-8.99-13.28-18.45-18.02-4.27-2.14-8.19-3.55-11.73-4.28-3.55-.73-6.88-1.19-9.96-1.39-8.11,17.22-16.22,34.45-24.34,51.67,1.89,2.33,4.07,4.48,6.53,6.48,2.46,2,5.41,3.85,8.87,5.57Z"/><path class="cls-11" d="m1512.74,352.47c3.52-4.64,8.18-7.12,14.01-7.32,5.83-.2,11.86,2.14,17.98,7.07,6.12,4.94,9.72,10.36,10.79,16.12,1.06,5.77-.34,10.86-4.13,15.29-3.79,4.43-8.61,6.65-14.4,6.75-5.8.09-11.57-2.23-17.41-6.94-5.84-4.71-9.31-9.83-10.42-15.5-1.11-5.66.05-10.83,3.58-15.47Zm122.37-72.13c-2.94,3.46-7.15,8.17-12.64,14.13-5.49,5.96-11.47,12.26-17.93,18.89-6.46,6.63-12.92,13.21-19.38,19.74-6.46,6.53-12.13,12.08-17.02,16.64-1.89-.31-4.38-1.34-7.49-3.05-3.11-1.72-5.61-3.33-7.53-4.87-3.98-3.21-6.92-6.41-8.81-9.64-1.89-3.23-2-6.43-.31-9.63,2.41-4.48,6.11-10.48,11.09-17.99,4.97-7.52,10.29-15.43,15.96-23.74,5.67-8.31,11.28-16.31,16.85-23.97,5.57-7.67,10.17-13.89,13.8-18.66,4.07,1.07,8.31,2.81,12.71,5.23,4.39,2.42,8.49,5.15,12.26,8.2,12.96,10.49,15.67,20.26,8.43,28.74Z"/><path class="cls-9" d="m477.04,196.71c1.91,3.2,2.47,6.69,1.72,10.44-.75,3.76-2.16,7.23-4.22,10.4-6.18.57-12.62,1.74-19.3,3.53-6.68,1.79-13.85,5.22-21.42,10.35-14.43,9.77-23.16,21.17-26.12,33.53-2.97,12.39.32,24.55,9.47,36.51,9.45,12.36,20.43,18.66,32.74,19.32,12.34.66,25.01-3.66,38.53-12.77,7-4.72,12.53-9.41,16.58-14.21,4.05-4.79,7.58-9.62,10.61-14.51,3.54.11,6.87.99,10.01,2.6,3.13,1.62,5.64,4.04,7.55,7.24,1.66,2.79,2.34,5.91,2.08,9.38-.26,3.47-2,7.3-5.18,11.55-2.38,3.38-5.93,7.36-10.6,12-4.68,4.64-10.94,9.57-18.77,14.92-10.5,7.18-21.04,12.86-31.8,17.06-10.77,4.21-21.36,6.52-31.9,6.87-10.54.36-20.85-1.55-30.97-5.86-10.11-4.31-19.61-11.47-28.34-21.69-8.21-9.6-13.5-19.8-15.64-30.7-2.15-10.88-1.67-21.87,1.54-32.86,3.21-10.98,8.83-21.72,16.89-32.01,8.05-10.28,18.06-19.61,29.92-27.77,16.86-11.59,31.48-18.07,43.36-19.93,11.9-1.84,19.63.49,23.27,6.6Z"/><path class="cls-9" d="m561.08,158.91c10.01-4.76,19.54-8.14,28.48-10.19,8.94-2.05,17.03-2.58,24.2-1.67,7.18.92,13.36,3.35,18.54,7.24,5.19,3.89,9.08,9.34,11.76,16.29,6.59,17.08,13.17,34.17,19.76,51.25,1.52,3.93,1.53,7.53.08,10.79-1.45,3.27-3.5,6.38-6.12,9.36-4.23,5.02-9.86,9.89-16.89,14.69-7.03,4.8-15.33,9.4-24.9,13.93-17.3,8.19-32.28,12.42-45.48,12.28-13.18-.13-23.11-5.65-29.6-17.07-5.52-9.71-6.2-19.14-1.76-28.25,4.42-9.08,13.99-18.41,28.79-27.4,11.58-7.02,23.31-13.77,35.17-20.27-.36-.81-.72-1.63-1.08-2.44-2.09-4.74-6.07-7.16-11.95-7.16-5.88,0-13.45,2.14-22.6,6.55-7.09,3.43-13.69,7.54-19.76,12.3-6.07,4.76-11.26,9.45-15.61,14.02-2.8.04-5.62-.68-8.45-2.17-2.84-1.49-5.01-3.57-6.51-6.26-3.46-6.22-1.69-13.08,5.51-20.44,4.61-4.49,10.38-9.02,17.32-13.53,6.93-4.51,13.98-8.46,21.11-11.85Zm43.17,86.85c3.81-1.8,7.44-3.89,10.9-6.26,3.45-2.37,5.92-4.49,7.4-6.38-3.02-6.82-6.03-13.63-9.05-20.45-7.16,3.79-14.28,7.68-21.34,11.66-5.5,3.15-9.55,6.45-12.16,9.83-2.61,3.38-3.06,6.74-1.38,10.07,1.75,3.47,4.7,5.43,8.82,5.91,4.12.49,9.7-1,16.81-4.37Z"/><path class="cls-9" d="m738.07,190.05c3.85,1.02,8.68.72,14.55-.84,2.75-.73,5.61-1.76,8.6-3.11,2.98-1.34,5.49-2.67,7.52-4,2.05,1.17,3.87,2.65,5.46,4.43,1.59,1.79,2.7,4.02,3.34,6.7,1.31,5.52-.11,10.63-4.16,15.38-4.05,4.76-12.07,8.63-24.08,11.98-14.83,4.15-27.19,4.78-37.44,1.56-10.23-3.21-17.76-11.35-22.35-24.68-11.82-34.4-23.64-68.8-35.47-103.2,2.09-1.23,4.9-2.74,8.42-4.51,3.52-1.77,7.45-3.35,11.79-4.73,9.09-2.89,16.05-3.66,20.79-2.45,4.75,1.22,8.03,5.04,9.87,11.42,1.46,5.06,2.93,10.12,4.39,15.17,13.86-4.01,27.79-7.7,41.79-11.07,1.39,1.33,2.89,3.1,4.48,5.3,1.59,2.21,2.7,4.65,3.33,7.33,1.19,5.05.6,9.01-1.73,11.9-2.33,2.9-5.74,4.9-10.26,6.04-9.91,2.52-19.79,5.2-29.64,8.04,4.37,15.1,8.74,30.19,13.11,45.29,1.26,4.36,3.83,7.03,7.68,8.04Z"/><path class="cls-9" d="m863.82,101.43c-10.87,1.32-19.76,5.4-26.46,12.07-6.72,6.68-9.08,15.42-7.31,26.12,1.77,10.72,6.58,18.11,14.25,22.35,7.68,4.24,16.66,5.66,27.15,4.38,5.99-.73,11.2-1.99,15.67-3.84,4.46-1.84,8.24-3.62,11.33-5.36,3.4,1.81,6.08,3.82,8.06,6.02,1.97,2.2,3.08,5,3.35,8.39.48,6.15-2.84,11.34-9.8,15.71-6.97,4.38-16.82,7.23-29.65,8.86-10.85,1.38-20.9,1.56-30.27.47-9.37-1.09-17.72-3.53-25.09-7.4-7.37-3.86-13.63-9.15-18.75-15.94-5.12-6.79-8.83-15.14-10.99-25.12-2.23-10.29-2.15-19.68.41-28.16,2.56-8.48,6.98-15.99,13.3-22.47,6.32-6.47,14.23-11.85,23.69-16.01,9.46-4.15,19.74-6.98,30.73-8.39,14.31-1.84,25.83-.96,34.37,2.3,8.54,3.28,12.99,8.07,13.48,14.2.23,2.91-.42,5.64-1.93,8.2-1.51,2.56-3.39,4.84-5.64,6.83-3.75-1.29-8.16-2.33-13.22-3.12-5.06-.78-10.63-.81-16.66-.08Z"/><path class="cls-9" d="m970.89,186.8c-3.28.43-6.93.68-10.94.76-8.21.17-14.17-.77-17.93-2.97-3.76-2.19-5.82-6.67-6.15-13.47-2.29-47.49-4.58-94.98-6.88-142.48,2.36-.6,5.48-1.23,9.37-1.87,3.89-.64,8.22-1.03,13-1.15,9.78-.25,16.81.91,21.04,3.32,4.24,2.41,6.33,7.04,6.32,13.84-.01,9.31-.02,18.63-.03,27.94,4.36-1.61,9.31-2.91,14.85-3.88,5.54-.96,11.55-1.34,18.02-1.12,20.04.71,35.52,5.77,46.07,14.53,10.56,8.78,14.83,21.11,13.23,36.73-2.46,24.26-4.92,48.51-7.39,72.77-1.87.3-4.46.49-7.77.59-3.31.1-6.97-.01-10.97-.33-8.19-.65-14.03-2.18-17.55-4.73-3.52-2.55-5.13-7.22-4.78-14.01.96-18.52,1.92-37.05,2.88-55.57.38-7.28-1.59-12.58-5.99-15.86-4.39-3.27-10.16-5.04-17.24-5.23-4.66-.12-8.92.33-12.77,1.34-3.85,1.01-7.4,2.24-10.61,3.69-.03,28.59-.06,57.19-.1,85.78-1.83.48-4.39.93-7.67,1.36Z"/><path class="cls-9" d="m1263.52,227.87c-6.71,1.07-14.46,1.1-23.28.19-8.83-.91-18.21-2.84-28.27-5.73-9.52-2.74-17.95-5.95-25.33-9.74-7.38-3.79-13.45-8.26-18.25-13.51-4.8-5.24-8.19-11.19-10.14-17.9-1.96-6.7-2.11-14.34-.35-22.91,4.74-23.09,9.49-46.18,14.23-69.27,2.34-.02,5.41.12,9.19.44,3.78.32,7.92.98,12.41,2,9.19,2.1,15.47,4.91,18.82,8.25,3.36,3.35,4.16,8.33,2.46,14.92-4.59,17.81-9.18,35.61-13.77,53.42-1.82,7.06-.98,12.66,2.45,16.84,3.43,4.18,8.95,7.31,16.61,9.51,4.74,1.37,8.8,2.2,12.2,2.47,3.4.27,6.04.29,7.92.02,8.72-27.83,17.44-55.66,26.16-83.49,2.15.16,5.1.58,8.85,1.28,3.75.7,7.83,1.78,12.22,3.27,8.98,3.03,15.03,6.49,18.16,10.21,3.13,3.72,3.49,8.78,1.13,15.16-8.86,24.02-17.73,48.03-26.59,72.05-2.64,7.15-8.3,11.25-16.85,12.52Z"/><path class="cls-9" d="m1360.63,280.83c-4.33-2.2-8.17-4.51-11.53-6.96-3.37-2.45-6.33-4.9-8.89-7.36-6.18,13.12-12.37,26.23-18.55,39.35-1.81-.32-4.26-.93-7.35-1.82-3.09-.89-6.41-2.13-9.95-3.7-7.25-3.22-12.04-6.56-14.36-10.17-2.32-3.61-2.21-8.55.37-14.84,15.25-37.09,30.51-74.17,45.76-111.26,1.6-3.89,3.96-6.65,7.11-8.24,3.14-1.59,7.05-2.54,11.75-2.83,7-.35,15.48.56,25.4,2.87,9.91,2.31,20.38,6.16,31.28,11.61,11.09,5.55,20.65,11.92,28.64,18.94,7.98,7.03,13.92,14.66,17.82,22.74,3.89,8.08,5.54,16.54,4.98,25.29-.55,8.76-3.7,17.68-9.31,26.78-5.35,8.7-11.67,15.41-18.84,20.24-7.18,4.84-14.82,7.9-22.93,9.26-8.11,1.36-16.48,1.15-25.18-.58-8.71-1.73-17.41-4.85-26.22-9.32Zm7.36-29.22c9.32,4.64,17.71,5.95,25.39,3.8,7.66-2.15,14.24-8.05,19.6-17.87,5.51-10.09,6.93-18.75,4.1-25.96-2.82-7.2-8.99-13.28-18.45-18.02-4.27-2.14-8.19-3.55-11.73-4.28-3.56-.73-6.88-1.19-9.96-1.39-8.11,17.22-16.22,34.45-24.34,51.67,1.89,2.33,4.07,4.48,6.53,6.48,2.46,2,5.41,3.85,8.87,5.57Z"/><path class="cls-9" d="m1501.59,345.81c3.53-4.64,8.18-7.12,14.01-7.32,5.83-.2,11.86,2.14,17.98,7.07,6.12,4.94,9.72,10.36,10.79,16.12,1.07,5.77-.34,10.86-4.13,15.29-3.79,4.43-8.61,6.65-14.4,6.75-5.8.09-11.57-2.23-17.41-6.94-5.84-4.71-9.31-9.83-10.42-15.5-1.11-5.66.05-10.83,3.58-15.47Zm122.37-72.13c-2.94,3.46-7.15,8.17-12.64,14.13-5.49,5.96-11.47,12.25-17.93,18.89-6.46,6.63-12.92,13.21-19.38,19.74-6.46,6.53-12.13,12.08-17.02,16.64-1.89-.31-4.38-1.34-7.49-3.05-3.11-1.72-5.61-3.33-7.53-4.87-3.98-3.21-6.92-6.41-8.81-9.64-1.89-3.23-2-6.43-.31-9.63,2.41-4.48,6.11-10.48,11.09-17.99,4.97-7.52,10.29-15.43,15.96-23.74,5.67-8.31,11.28-16.31,16.85-23.97,5.57-7.67,10.17-13.89,13.8-18.66,4.07,1.07,8.31,2.81,12.71,5.23,4.39,2.42,8.49,5.15,12.26,8.2,12.96,10.49,15.67,20.26,8.43,28.74Z"/><path class="cls-13" d="m1809.36,1079.54c-36.06-11.05-61.1-36.66-60.12-68.38.12-3.91-.18-29.9,20.33-47.22,2.89-2.44,19.5-16.46,38.26-13.01,18.29,3.37,21.22,20.14,41.14,21.86,10.35.89,12.08-3.42,22.63-1.53,17.08,3.05,27.08,16.94,27.74,17.89,15.08,21.61,2.26,50.23,1.22,52.47-14.21,30.49-56.34,48.59-91.21,37.9Z"/><g class="cls-20"><path class="cls-18" d="m1853.35,1002.37c-.06.12-.11.23-.16.35.06-.12.11-.24.16-.35Z"/><path class="cls-18" d="m1857.67,978.06c7.34,1.81,10.05,12.82,12.7,18.47,0,0-.23-2.91,1.71-8.2,1.94-5.29-6.1-8.59-13.53-14.09-6.77-5.01-11.83,4.14-16.3-.38.19-.09.36-.23.46-.43,2.26-6.5,3.1-14.22,11.34-14.17.27-.06-.37-.45-.46-.71.14-.13.28-.27.42-.4,0-.3.31-.71-.13-.72-8.18,1.06-9.75,8.52-12.8,14.92-.04-.07-.09-.14-.13-.21-1.38-5.09-1.61-1.83-1.23,1.42-2.06,1.26,0,0-1-8.85-1-8.85-9.67-10.13-11.53-12.07s-6.13-1.85-9.41,2.88l-.53.47s.53-.47,5.06-1.85c4.52-1.38,9.18,7.39,13.93,16.2-1.26-1.39-7.82-5.39-14.87-6.52-7.04-1.13-12.8,9.25-13.5,15.67,0,0,9.62-4.75,12.98-6.92s15.72,1.29,16.37,1.85.94,2.66-.03,4.19c-1.33,3.34-7.97,8-8.85,9.86s-1.45,10.86-.93,14.66c.59.19,8.09-4.63,9.58-11.7,3.36-15.91,8.06-13.57,8.06-13.57l2.55,2.77s1.28.87-.03,5.9c-.43,1.64,8.74,8.9,5.73,15.82,4.79-10.15-2.92-16.3-1.44-19.86,2.27,1.25,1.87.29,5.75,4.51,3.88,4.22,4.63,4.56,3.09,3.6-1.55-.96,5.46,7.16,5.2,2.28s-7.99-11.36-16.17-17.46c.77-1.06.55.81,7.9,2.62Z"/></g><path class="cls-6" d="m1758.73,994.05c-5.8,2.03,3.88-16.61,11.52-26.45,5.73-7.37,17.99-14.48,25.84-14.64,7.18-.15,6.41,1.73,4.31,6.41-.95,2.13-10.1,2.85-15.8,5.33-4.15,1.81-13.06,10.55-15.33,16.8-2.41,6.64-2.2,9.62-10.55,12.55Z"/><path class="cls-16" d="m1425,969.1c16.08-85.36-54.96-153.27-154.82-172.08-99.86-18.81-190.74,18.61-206.82,103.96-16.08,85.36,53.4,161.53,153.27,180.34,99.86,18.81,192.3-26.87,208.37-112.23Zm-181.58-30.01l23.3-123.68c90.37,17.02,153.19,86.22,140.31,154.56-12.87,68.34-96.56,109.94-186.93,92.92l23.32-123.8Z"/><path class="cls-11" d="m1440.17,938.39c-10.49,1.04-19.79-2.16-23.11-9.21-.41-.87-3.41-6.54-.1-12.31.47-.81,3.15-5.49,8.35-6.53,5.07-1.02,7.71,2.38,13.01.84,2.76-.8,2.71-1.91,5.63-2.51,4.72-.97,8.85,1.11,9.13,1.26,6.3,3.29,6.23,10.8,6.21,11.39-.21,8.05-8.98,16.08-19.13,17.09Z"/><g class="cls-20"><path class="cls-18" d="m1443.45,917.23s0,.06,0,.09c0-.03,0-.06,0-.09Z"/><path class="cls-18" d="m1441.83,911.49c2.09-.31,4.02,1.84,5.33,2.83,0,0-.39-.61-.48-1.96s-2.53-1.3-5.05-1.79c-2.3-.45-2.57,2.05-4.22,1.48.04-.04.07-.08.07-.14-.15-1.64-.8-3.42,1.31-4.2.06-.04-.15-.06-.2-.11.02-.04.04-.09.06-.13-.03-.07,0-.19-.11-.15-1.98,1.02-1.54,2.81-1.6,4.5-.02-.01-.04-.02-.06-.03-.93-.98-.62-.25-.15.43-.39.48,0,0-1.25-1.84s-3.62-1.29-4.31-1.54-1.78.18-2.09,1.54l-.08.15s.08-.15,1.09-.89,3.19.74,5.4,2.21c-.48-.18-2.61-.43-4.55,0s-2.24,3.26-1.7,4.73c0,0,1.93-1.97,2.55-2.77s4.17-1.23,4.41-1.17.54.49.46.92c.04.86-1.14,2.52-1.16,3.01s.85,2.52,1.41,3.3c.17-.02,1.55-1.79,1.14-3.49-.93-3.81.54-3.75.54-3.75l.97.36s.43.07.66,1.3c.08.4,3.24,1.11,3.25,2.92.09-2.69-2.58-3.29-2.6-4.22.72.06.51-.12,1.98.44,1.47.55,1.7.55,1.2.49-.5-.06,2.21,1.05,1.59,0-.62-1.05-3.33-1.72-6.11-2.28.08-.31.23.13,2.32-.18Z"/></g><path class="cls-6" d="m1421.09,930.42c-.66,1.36-2.74-3.35-3.36-6.28-.47-2.2.34-5.52,1.78-6.95,1.31-1.3,1.56-.87,2.14.26.27.51-1.29,2.26-1.84,3.67-.4,1.03-.24,4.02.64,5.42.93,1.49,1.59,1.93.64,3.89Z"/><path class="cls-7" d="m1342.97,967.82c-14.52-6.41-24.17-19.4-23-34.48.14-1.86.65-14.25,9.49-21.86,1.24-1.07,8.4-7.23,16.01-4.99,7.42,2.18,8.21,10.27,16.34,11.72,4.23.75,5.04-1.25,9.32-.01,6.93,1.99,10.69,8.93,10.94,9.4,5.66,10.78-.29,24.01-.78,25.04-6.57,14.08-24.29,21.37-38.33,15.18Z"/><g class="cls-20"><path class="cls-18" d="m1362.8,933.56c-.03.05-.05.11-.08.16.03-.05.05-.11.08-.16Z"/><path class="cls-18" d="m1365.16,922.11c2.97,1.09,3.81,6.43,4.76,9.2,0,0-.02-1.39.9-3.85.92-2.46-2.29-4.29-5.21-7.14-2.65-2.6-4.95,1.6-6.67-.7.08-.03.15-.1.2-.19,1.08-3.03,1.62-6.68,5-6.39.11-.02-.14-.23-.17-.35.06-.06.12-.12.18-.18.01-.14.14-.33-.04-.35-3.38.25-4.21,3.75-5.61,6.71-.02-.03-.03-.07-.05-.1-.44-2.47-.62-.92-.54.64-.88.54,0,0-.2-4.25-.2-4.25-3.72-5.13-4.44-6.11s-2.47-1.07-3.93,1.08l-.23.21s.23-.21,2.12-.72c1.89-.51,3.59,3.81,5.32,8.16-.48-.7-3.08-2.82-5.94-3.58-2.86-.76-5.47,4-5.92,7.04,0,0,4.06-1.96,5.49-2.89s6.41,1.11,6.67,1.4.32,1.3-.11,2c-.63,1.55-3.46,3.56-3.87,4.42s-.86,5.13-.74,6.96c.24.11,3.43-1.95,4.21-5.27,1.76-7.47,3.64-6.21,3.64-6.21l.98,1.4s.5.45-.15,2.81c-.21.77,3.37,4.52,1.97,7.72,2.21-4.68-.8-7.86-.11-9.51.9.67.76.2,2.25,2.33,1.49,2.14,1.79,2.32,1.18,1.81-.61-.51,2.07,3.58,2.08,1.25.01-2.33-3-5.66-6.21-8.83.34-.48.21.4,3.17,1.5Z"/></g><path class="cls-6" d="m1325.05,930.95c-2.2,1.42.38-8.14,2.77-13.39,1.79-3.93,6.24-8.26,9.4-8.95,2.89-.64,2.71.31,2.2,2.68-.23,1.08-3.88,2.14-6,3.77-1.55,1.18-4.52,6.01-4.99,9.14-.5,3.32-.2,4.71-3.37,6.75Z"/></g><g id="stilk"><path class="cls-11" d="m1128.45,766.18c8.01-7.92,39.34-28.48,30.42-42.51-9.5-14.94-47.92,17.58-59.61,25.38-.19.12,9.88-14.3,9.78-14.2,0-.28,4.29-13.21,4.29-13.54-.04-8.96,2.92-24.32-8.99-25.21-8.14-.61-9.82,11.92-14.75,22.36-1.92,4.07-5.47,23.92-19.56,28.4-2.68.85-14.31,7.37-16.96,8.32-23.31,8.46-32.76,19.42-54,16.24-17.39-91.45-149.27-178.75-303.58-200.92-77.49-11.14-151.3-1.47-210,22.85,64.93-23.96,139.39-20.34,175.32-20.66,165.54-1.46,387.54,163.32,272.95,291.27-92.31,103.08-252.44,80.12-386.43,49.13-55.32-12.8-121.62-54.76-157.87-103.51-22.65-30.46-33.29-59.29-28.04-89.18-.22.98-.45,1.96-.64,2.94-21.12,106.39,97.51,207.6,275.63,235.59s338.07-38.74,362.07-144.5c.08-.34.15-.69.22-1.04,26.85-2,43.34-11.64,80.94-6.08,12.75,4.16,31.11,3.86,45.47.61,15.77-3.56,24.22-14.57,32.91-29.31,14.79-25.11-12.15-19.07-29.56-12.43Z"/><path class="cls-11" d="m425.26,627.9c1.67-1.44,3.37-2.84,5.09-4.21-26.17,18.85-46.4,41.6-58.67,67.18,10.33-19.95,27.84-40.7,53.58-62.98Z"/><path class="cls-9" d="m389.46,809.58c36.25,48.75,102.55,90.72,157.87,103.51,133.98,30.99,294.11,53.96,386.43-49.13,114.59-127.96-107.41-292.74-272.95-291.27-35.92.32-110.39-3.31-175.32,20.66-19.71,7.28-38.54,17.1-55.15,30.35-1.72,1.37-3.42,2.76-5.09,4.21-25.74,22.28-43.25,43.03-53.58,62.98-5.19,10.01-8.55,19.82-10.26,29.52-5.25,29.89,5.39,58.72,28.04,89.18Z"/><path class="cls-4" d="m651.23,718.97c-4.71,5.53-3.2-7.11,5.74-8.34,14.24-1.95,21.04,10.35,18.85,15.95-3.28,8.38-6.31,6.64-6,.34.61-12.34-13.65-13.77-18.6-7.96Z"/><ellipse cx="775.7" cy="736.64" rx="54.44" ry="46.02" transform="translate(-284.91 876.14) rotate(-51.01)"/><ellipse class="cls-6" cx="769.68" cy="743.87" rx="36" ry="40" transform="translate(-271.03 493.5) rotate(-30.5)"/><ellipse class="cls-4" cx="757.48" cy="746.85" rx="20.47" ry="22.52" transform="translate(-274.23 487.72) rotate(-30.5)"/><ellipse class="cls-6" cx="755.56" cy="762.02" rx="9.37" ry="9.29" transform="translate(-282.19 488.85) rotate(-30.5)"/><circle class="cls-6" cx="767.27" cy="744.71" r="5.5"/><ellipse cx="547.29" cy="686.53" rx="54.44" ry="46.02" transform="translate(-166.43 1197.86) rotate(-87.06)"/><ellipse class="cls-6" cx="546.93" cy="695.93" rx="40" ry="36" transform="translate(-184.62 197.64) rotate(-17.58)"/><ellipse class="cls-4" cx="554.02" cy="706.3" rx="22.52" ry="20.47" transform="translate(-187.42 200.27) rotate(-17.58)"/><ellipse class="cls-6" cx="552.07" cy="716.81" rx="9.29" ry="9.37" transform="translate(-190.68 200.17) rotate(-17.58)"/><circle class="cls-6" cx="548.16" cy="698.17" r="5.5"/><g class="cls-20"><path class="cls-18" d="m647.11,605.06c13.55-16.81,18.01-35.58,43.76-39.53,27.66-4.24,40.44,12.97,61.41,26.84-22.92-3.45-33.54-13.34-58.43-9.28-22.24,3.63-27.52,16.69-46.74,21.97Z"/><path class="cls-18" d="m682.28,536.21c14.9-9.22,25.28-21.06,41.64-2.94,17.58,19.46,21.69,42.36,30.72,64.04-18.38-13.58-34.2-44.88-45.52-62.16-10.12-15.44-12.7,9.48-26.85,1.07Z"/><path class="cls-18" d="m755.5,593.71c-9.1,13.76-7.82,8.27-11.94,27.73-4.43,20.9-35.8,33.32-40.27,62.1-5.7-21.47-9.64-62.02,11.89-75.07,19.25-11.66,19.45-8.57,40.31-14.75Z"/><path class="cls-18" d="m754.21,597.27s8.96,16.6,9.13,30.45c.19,14.87-9.1,31.06-9.1,31.06,0,0-8.77-18.21-8.53-32.84.22-13.07,8.5-28.67,8.5-28.67Z"/><path class="cls-18" d="m753.02,602.43c10.36,14.12,22.47,29.43,29.88,45.06,7.96,16.79,2.17,31.13-1.11,47.41-7.83-16.24-6.1-27.66-16.67-43.1-9.44-13.8-13.3-33-12.1-49.36Z"/><path class="cls-18" d="m744.6,598.36c20.3-4.12,44.89,7.75,62.86,16.16,19.3,9.03,3.76,43.06,23.88,47.87-10.98-2.62-30.63-9.31-44.66-26.76-23.41-29.12-20.16-41.71-42.07-37.27Z"/><path class="cls-18" d="m752.39,599.95c-.58,0-.87-.35-.69-.83,2.52-6.91,14.1-20.03,21.25-25.34,7.73-5.74,23.43-13.58,29.41-12.11.24.06.4.2.45.4.5,2.02.96,3.28,1.29,4.03.22.5-.41,1.27-1.27,1.58-9.96,3.54-14.14,4.58-20.73,8.51-8.55,5.11-25.89,24.05-26.07,23.8l-3.62-.05Z"/></g><path class="cls-2" d="m639.91,586.18c11.94-13.99,14.98-30.31,39.53-32.11,26.37-1.93,39.83,14.16,60.96,27.82-22.32-4.56-33.21-14.03-56.92-12.07-21.19,1.75-25.41,12.97-43.57,16.37Z"/><path class="cls-2" d="m669.21,527.54c13.74-7.18,22.95-16.98,39.93.14,18.24,18.4,23.72,38.94,33.87,58.73-18.61-13.23-35.95-42-48.01-58.04-10.78-14.34-11.61,7.56-25.8-.83Z"/><path class="cls-2" d="m743.6,583.29c-7.85,11.58-6.99,6.81-9.66,23.76-2.87,18.21-32.27,27.14-34.66,52.33-6.93-19.39-13.43-55.55,6.45-65.69,17.77-9.06,18.17-6.3,37.86-10.4Z"/><path class="cls-2" d="m742.59,586.36s9.74,15.29,10.83,27.56c1.17,13.18-6.7,26.9-6.7,26.9,0,0-9.67-16.71-10.41-29.65-.66-11.56,6.28-24.82,6.28-24.82Z"/><path class="cls-2" d="m741.79,590.85c10.92,13.19,23.61,27.54,31.79,41.87,8.79,15.39,4.17,27.71,2.09,41.9-8.63-14.89-7.72-24.9-18.93-39.27-10.02-12.84-15.02-30.1-14.95-44.51Z"/><path class="cls-2" d="m733.41,586.69c19.28-2.31,43.77,9.83,61.64,18.46,19.2,9.27,6.49,38.37,26.2,43.96-10.76-3.05-30.14-10.26-44.82-26.64-24.5-27.33-22.2-38.27-43.02-35.78Z"/><path class="cls-2" d="m741.01,588.61c-.56-.04-.86-.36-.72-.78,1.97-5.95,12.25-16.81,18.78-21.04,7.06-4.57,21.67-10.47,27.53-8.78.24.07.4.21.46.38.62,1.82,1.14,2.97,1.51,3.66.24.46-.31,1.1-1.12,1.31-9.36,2.48-13.32,3.12-19.41,6.17-7.9,3.96-23.34,19.59-23.53,19.36l-3.49-.28Z"/></g><g id="ben"><path class="cls-10" d="m554.06,806c-20.99,26.34-16.05,63.4-35.74,77.15-22.42,9.21-51.45,2.51-83.43-11.78-14.92-8.51-31.5-16.88-43.26-29.9-.1-.11-.22-.04-.28-.14-6.88-11.38-39.34-50.19-30.43-64.4,7.74-12.33,23.17-31.63,31.89-44.8,2.18-3.29.39-5.62-1.36-5.82-32.12-3.67-71.61-6.7-68.87-49.56,3.65-34.87,31.43-52.18,61.18-57.92,28.49-5.49,65.44,13.04,71.78,34.99,9.05,31.31,11.73,48.72-5.02,68.95-1.69,2.04-2.02,1.54-1.59,3.39,3.98,17.31,17.39,39.33,23.14,55.84,51.38-10.73,91.39-89.99,143-58,121,75-24.51,119.96-61,82Z"/></g><g id="busk"><path class="cls-14" d="m-4.22,936.42c-1.64-32.47-16.21-112.53,26.25-120.23,29.36-11.21,27.74,46,60.19,29.19,32.45-16.81-11.46-23.68,1.2-66.93,30.02-102.59,53.31-65.92,97.47.88,17.14,25.93-20.06,51.65,11.47,68.45,30.42,16.22,12.81-82.99,41.6-82.34,30.35-4.75,35.75,53.34,54.43,10.79,14.68-33.44,2.26,48.48,25.2,25.18,49.85-50.65,108.94-16.57,92.19,41.51-1.01,3.5,13.19-17.2,16.67-17.52,33-7.72,28.36,24.95,50.67,24.18,67.64,18.47,4.8-32.14,83.93-30.3,8.04,2.79,19.86,10.97,36.08,34.91,16.69,26.41,24.11-1.6,84.37-27.21,60.27-25.61,48.21,21.61,97.36,23.21,49.14,1.6,20.4,22.41,43.58,24.01,23.18,1.6,15.76,9.6,31.77,9.2,16.01-.4,18.3,8.4,36.4,0,18.1-8.4,3.22-5.2,25.48,7.6,28.58,18.61,101.53,26.79,100.99,138.45-.25,52.24-64.7,41.21-64.71,41.25-1.48,19.46-896.87,7.9-950.11,7.9-12.72,0-1.16-116.43-2.46-142.17Z"/><path class="cls-17" d="m183.16,871.25s12.37-51.32-45.56-84.65c85.09,8.12,54.5,65.6,45.56,84.65Z"/><path class="cls-17" d="m167.89,872.3s-2.63-30.8-77.03-8.06c67.47-11.08,65.82,16.61,78.07,25.38l-1.04-17.32Z"/><path class="cls-17" d="m215.84,847.87s-22.72-17.84,16.07-57.59c-5.53,14.59-14.39,35.36-16.07,57.59Z"/><path class="cls-17" d="m229.03,840.26s-7.47-17.25,18.25-38.78c4.76-5.33-4.06,15.54-18.25,38.78Z"/><path class="cls-17" d="m158.38,854.26s13.92-30.97-56.18-24.64c19.78,4.32,43.83,10.88,56.18,24.64Z"/><path class="cls-17" d="m203.5,816.49s-13.44-45.46,31.11-81.98c-20.15,35.78-23.47,50.48-31.11,81.98Z"/><path class="cls-17" d="m1101.25,1051.21s12.37-51.32-45.56-84.65c85.09,8.12,54.5,65.6,45.56,84.65Z"/><path class="cls-17" d="m1085.98,1052.25s-2.63-30.8-77.03-8.06c67.47-11.08,65.82,16.61,78.07,25.38l-1.04-17.32Z"/><path class="cls-17" d="m1133.93,1027.82s-22.72-17.84,16.07-57.59c-5.53,14.59-14.39,35.36-16.07,57.59Z"/><path class="cls-17" d="m1147.12,1020.21s-7.47-17.25,18.25-38.78c4.76-5.33-4.06,15.54-18.25,38.78Z"/><path class="cls-17" d="m1076.47,1034.21s13.92-30.97-56.18-24.64c19.78,4.32,43.83,10.88,56.18,24.64Z"/><path class="cls-17" d="m1121.59,996.44s-13.44-45.46,31.11-81.98c-20.15,35.78-23.47,50.48-31.11,81.98Z"/><path class="cls-17" d="m88.25,734.21s12.37-51.32-45.56-84.65c85.09,8.12,54.5,65.6,45.56,84.65Z"/><path class="cls-17" d="m72.98,735.25s-2.63-30.8-77.03-8.06c67.47-11.08,65.82,16.61,78.07,25.38l-1.04-17.32Z"/><path class="cls-17" d="m120.93,710.82s-22.72-17.84,16.07-57.59c-5.53,14.59-14.39,35.36-16.07,57.59Z"/><path class="cls-17" d="m134.12,703.21s-7.47-17.25,18.25-38.78c4.76-5.33-4.06,15.54-18.25,38.78Z"/><path class="cls-17" d="m63.47,717.21s13.92-30.97-56.18-24.64c19.78,4.32,43.83,10.88,56.18,24.64Z"/><path class="cls-17" d="m108.59,679.44s-13.44-45.46,31.11-81.98c-20.15,35.78-23.47,50.48-31.11,81.98Z"/><path class="cls-17" d="m382.25,1047.21s12.37-51.32-45.56-84.65c85.09,8.12,54.5,65.6,45.56,84.65Z"/><path class="cls-17" d="m366.98,1048.25s-2.63-30.8-77.03-8.06c67.47-11.08,65.82,16.61,78.07,25.38l-1.04-17.32Z"/><path class="cls-17" d="m414.93,1023.82s-22.72-17.84,16.07-57.59c-5.53,14.59-14.39,35.36-16.07,57.59Z"/><path class="cls-17" d="m428.12,1016.21s-7.47-17.25,18.25-38.78c4.76-5.33-4.06,15.54-18.25,38.78Z"/><path class="cls-17" d="m357.47,1030.21s13.92-30.97-56.18-24.64c19.78,4.32,43.83,10.88,56.18,24.64Z"/><path class="cls-17" d="m402.59,992.44s-13.44-45.46,31.11-81.98c-20.15,35.78-23.47,50.48-31.11,81.98Z"/><path class="cls-17" d="m1530.25,1060.21s12.37-51.32-45.56-84.65c85.09,8.12,54.5,65.6,45.56,84.65Z"/><path class="cls-17" d="m1514.98,1061.25s-2.63-30.8-77.03-8.06c67.47-11.08,65.82,16.61,78.07,25.38l-1.04-17.32Z"/><path class="cls-17" d="m1562.93,1036.82s-22.72-17.84,16.07-57.59c-5.53,14.59-14.39,35.36-16.07,57.59Z"/><path class="cls-17" d="m1576.12,1029.21s-7.47-17.25,18.25-38.78c4.76-5.33-4.06,15.54-18.25,38.78Z"/><path class="cls-17" d="m1505.47,1043.21s13.92-30.97-56.18-24.64c19.78,4.32,43.83,10.88,56.18,24.64Z"/><path class="cls-17" d="m1550.59,1005.44s-13.44-45.46,31.11-81.98c-20.15,35.78-23.47,50.48-31.11,81.98Z"/><path class="cls-11" d="m1419.18,791.28c-35.62,4.34-67.21-8.98-78.47-38.28-1.39-3.61-11.58-27.18-.33-51.16,1.58-3.37,10.69-22.8,28.35-27.14,17.21-4.24,26.17,9.88,44.18,3.48,9.36-3.32,9.21-7.94,19.12-10.44,16.04-4.04,30.05,4.62,30.99,5.22,21.39,13.67,21.15,44.87,21.1,47.33-.73,33.46-30.5,66.8-64.95,70.99Z"/><g class="cls-20"><path class="cls-18" d="m1430.32,703.38c0,.13,0,.26,0,.39,0-.13,0-.26,0-.39Z"/><path class="cls-18" d="m1424.8,679.5c7.08-1.29,13.65,7.66,18.12,11.75,0,0-1.31-2.55-1.65-8.15-.33-5.6-8.59-5.39-17.16-7.43-7.81-1.86-8.72,8.5-14.34,6.16.13-.15.22-.35.24-.58-.52-6.83-2.73-14.2,4.46-17.44.21-.16-.49-.27-.67-.46.07-.18.14-.36.22-.54-.11-.27,0-.77-.39-.61-6.72,4.24-5.24,11.66-5.45,18.71-.06-.05-.13-.09-.19-.14-3.15-4.09-2.1-1.02-.53,1.79-1.32,1.98,0,0-4.26-7.66-4.26-7.66-12.28-5.37-14.65-6.39-2.36-1.02-6.04.77-7.09,6.39l-.28.64s.28-.64,3.69-3.71c3.41-3.07,10.82,3.07,18.32,9.2-1.63-.77-8.87-1.79-15.44,0s-7.61,13.54-5.78,19.67c0,0,6.56-8.18,8.66-11.5s14.18-5.11,14.96-4.85,1.84,2.04,1.58,3.83c.12,3.57-3.88,10.47-3.94,12.52-.05,2.04,2.89,10.47,4.79,13.73.59-.07,5.28-7.45,3.88-14.49-3.15-15.84,1.84-15.58,1.84-15.58l3.28,1.51s1.44.28,2.23,5.39c.26,1.67,11.01,4.61,11.03,12.13.3-11.16-8.77-13.68-8.84-17.52,2.46.23,1.74-.49,6.73,1.81s5.78,2.3,4.06,2.04c-1.71-.26,7.49,4.34,5.4,0-2.09-4.34-11.3-7.15-20.75-9.45.26-1.28.79.52,7.88-.77Z"/></g><path class="cls-6" d="m1354.4,758.17c-2.24,5.64-9.3-13.9-11.41-26.11-1.59-9.14,1.17-22.95,6.04-28.88,4.46-5.42,5.29-3.6,7.28,1.06.9,2.12-4.4,9.38-6.25,15.25-1.35,4.27-.82,16.68,2.17,22.52,3.17,6.2,5.42,8.02,2.19,16.15Z"/><path class="cls-7" d="m1177.89,723.26c-27.43,14.92-57.04,15.01-75.17-3.73-2.23-2.31-17.73-17.02-16.05-39.03.24-3.1,1.6-20.92,14.52-30,12.59-8.85,24.18-.97,36.75-11.72,6.53-5.59,4.99-9.08,12.22-14.21,11.7-8.32,25.69-6.25,26.64-6.1,21.49,3.49,30.92,27.43,31.64,29.34,9.74,25.84-4.02,61.03-30.54,75.46Z"/><g class="cls-20"><path class="cls-18" d="m1159.26,654.54c.04.1.08.2.11.3-.04-.1-.07-.2-.11-.3Z"/><path class="cls-18" d="m1147.43,638.07c5.32-3.29,13.39,1.42,18.25,3.09,0,0-1.85-1.53-3.84-5.7-2-4.17-8.6-1.32-16.15-.1-6.88,1.12-4.42,9.34-9.68,9.38.06-.16.07-.34.01-.52-2.52-5.05-6.58-9.97-1.78-14.8.12-.19-.48-.04-.68-.14,0-.16,0-.32,0-.48-.17-.17-.24-.59-.5-.34-4.12,5.43-.63,10.62,1.38,16.09-.07-.01-.13-.03-.2-.05-3.81-2.1-2.01-.1.13,1.54-.45,1.94,0,0-5.8-4.48-5.8-4.48-11.58-.1-13.8-.12s-4.64,2.55-3.75,7.19l-.03.58s.03-.58,1.84-4.04c1.81-3.46,9.68-1.18,17.63,1.07-1.55-.06-7.72,1.52-12.46,5.03-4.75,3.51-1.97,12.84,1.4,16.93,0,0,2.78-8.39,3.45-11.62.67-3.22,9.87-8.53,10.59-8.59s2.11.97,2.45,2.42c1.2,2.7.1,9.28.68,10.86s5.56,7.07,8.1,8.94c.45-.24,1.96-7.42-1.34-12.35-7.43-11.09-3.32-12.52-3.32-12.52l3.11.09s1.25-.26,3.47,3.4c.72,1.19,10.32-.06,12.65,5.69-3.2-8.63-11.3-7.61-12.54-10.52,2.06-.62,1.26-.94,5.99-.8s5.37-.12,3.91.24c-1.46.36,7.39.88,4.36-1.76-3.03-2.64-11.33-1.79-19.67-.48-.18-1.06.8.14,6.12-3.15Z"/></g><path class="cls-6" d="m1106.28,709.11c-1.04,4.94-10.11-9.73-13.82-19.27-2.78-7.14-2.58-18.78.66-24.38,2.97-5.12,3.96-3.78,6.39-.34,1.1,1.57-2.3,8.32-2.97,13.38-.49,3.68,1.9,13.65,5.36,17.88,3.68,4.5,5.88,5.61,4.38,12.72Z"/><path class="cls-5" d="m1227.74,532.14c-12.26,26.46-53.35,27.7-82.74,7.88-29.39-19.82-44.84-61.11-24.46-81.97,43.72-44.72,54.45-7.86,77.27,1.81,23.22,9.84,58.52,10.57,29.92,72.27Z"/><path class="cls-5" d="m1151.21,544.56c-28.56-14.81-45.72-40.05-40.17-66.34.68-3.24,4.31-24.96,24.07-36.21,2.78-1.58,18.79-10.7,33.99-4.9,14.82,5.65,14.77,20.09,31.21,24.62,8.54,2.35,10.63-.97,19.18,2.24,13.85,5.2,20.16,18.33,20.57,19.23,9.41,20.36-5.59,42.23-6.8,43.94-16.44,23.22-54.43,31.77-82.05,17.44Z"/><g class="cls-20"><path class="cls-18" d="m1200.62,489.19c-.06.09-.12.18-.19.27.07-.09.13-.18.19-.27Z"/><path class="cls-18" d="m1207.86,469.59c5.88,2.65,6.51,12.25,7.89,17.37,0,0,.24-2.46,2.65-6.57,2.41-4.11-3.83-8.11-9.23-13.84-4.92-5.23-10.53,1.62-13.59-2.85.17-.04.33-.14.45-.29,2.86-5.07,4.72-11.37,11.61-10.05.23-.01-.24-.43-.28-.66.14-.09.28-.18.42-.27.05-.25.37-.54,0-.62-7.01-.39-9.44,5.59-12.94,10.45-.03-.07-.05-.13-.08-.2-.4-4.46-1.08-1.77-1.24,1-1.92.73,0,0,.48-7.54.48-7.54-6.59-9.94-7.86-11.85s-4.86-2.49-8.31.94l-.51.31s.51-.31,4.51-.76c4-.45,6.59,7.59,9.26,15.67-.85-1.36-5.75-5.71-11.48-7.74-5.73-2.03-12.1,5.72-13.65,10.96,0,0,8.77-2.47,11.91-3.75s12.97,3.51,13.44,4.09.4,2.36-.65,3.49c-1.61,2.58-7.87,5.43-8.88,6.85-1.01,1.41-2.83,8.83-2.96,12.08.47.25,7.46-2.6,9.77-8.27,5.19-12.74,8.77-10.06,8.77-10.06l1.72,2.71s.94.92-.9,4.92c-.6,1.3,6,8.78,2.44,14.08,5.53-7.71-.02-14.04,1.75-16.78,1.72,1.4,1.53.53,4.14,4.65s3.2,4.52,2.05,3.48c-1.15-1.04,3.51,6.82,4.01,2.71.51-4.11-5-10.71-10.94-17.07.8-.77.34.76,6.22,3.41Z"/></g><path class="cls-6" d="m1118.1,489.71c-4.35,2.85-.31-14.46,3.92-24.12,3.16-7.24,11.78-15.59,18.21-17.32,5.89-1.58,5.65.12,4.91,4.4-.34,1.95-7.73,4.4-11.9,7.61-3.04,2.33-8.54,11.35-9.09,16.95-.59,5.96.21,8.37-6.05,12.48Z"/><path class="cls-13" d="m1294.82,608.38c-27.44,3.17-51.77-6.56-60.44-27.93-1.07-2.64-8.92-19.83-.25-37.33,1.22-2.46,8.23-16.63,21.84-19.81,13.26-3.09,20.16,7.21,34.03,2.54,7.21-2.43,7.1-5.8,14.73-7.62,12.35-2.95,23.15,3.37,23.87,3.81,16.47,9.97,16.29,32.74,16.25,34.54-.56,24.42-23.49,48.74-50.03,51.8Z"/><g class="cls-20"><path class="cls-18" d="m1301.63,544.24c0,.1,0,.19,0,.28,0-.1,0-.19,0-.28Z"/><path class="cls-18" d="m1297.38,526.81c5.46-.94,10.52,5.59,13.95,8.58,0,0-1.01-1.86-1.27-5.95s-6.62-3.93-13.22-5.42c-6.01-1.36-6.72,6.2-11.04,4.5.1-.11.17-.26.18-.42-.4-4.98-2.1-10.36,3.44-12.73.16-.12-.38-.19-.51-.34.06-.13.11-.26.17-.39-.08-.2,0-.56-.3-.44-5.18,3.09-4.04,8.51-4.19,13.65-.05-.03-.1-.07-.15-.1-2.43-2.98-1.62-.75-.4,1.31-1.01,1.44,0,0-3.28-5.59-3.28-5.59-9.46-3.92-11.28-4.66-1.82-.75-4.65.56-5.46,4.66l-.22.47s.22-.47,2.85-2.71,8.33,2.24,14.11,6.71c-1.26-.56-6.83-1.31-11.89,0s-5.86,9.88-4.45,14.36c0,0,5.06-5.97,6.67-8.39,1.62-2.42,10.92-3.73,11.53-3.54s1.42,1.49,1.21,2.8c.09,2.61-2.99,7.64-3.03,9.14-.04,1.49,2.22,7.64,3.69,10.02.45-.05,4.06-5.43,2.99-10.58-2.43-11.56,1.42-11.37,1.42-11.37l2.53,1.1s1.11.2,1.72,3.93c.2,1.22,8.48,3.37,8.5,8.85.23-8.14-6.75-9.98-6.81-12.78,1.89.17,1.34-.35,5.18,1.32,3.84,1.68,4.45,1.68,3.13,1.49-1.32-.19,5.77,3.17,4.16,0-1.61-3.17-8.7-5.22-15.98-6.9.2-.93.61.38,6.07-.56Z"/></g><path class="cls-6" d="m1243.14,584.22c-1.73,4.12-7.16-10.15-8.79-19.05-1.22-6.67.9-16.75,4.65-21.07,3.43-3.96,4.08-2.62,5.61.78.7,1.55-3.39,6.84-4.82,11.13-1.04,3.12-.63,12.17,1.67,16.43,2.44,4.52,4.17,5.86,1.68,11.79Z"/><path class="cls-11" d="m1303.88,770.19c-6.79,8.13-16.7,11.05-25.79,5.96-1.12-.63-8.68-4.5-11.66-12.71-.42-1.16-2.83-7.81.04-12.39,2.8-4.46,7.95-2.71,10.43-7.87,1.29-2.68.21-3.81,1.81-6.39,2.58-4.18,7.6-4.79,7.94-4.83,7.76-.82,14.77,7.02,15.32,7.65,7.42,8.5,8.47,22.72,1.91,30.58Z"/><g class="cls-20"><path class="cls-18" d="m1286.41,746.03s.06.06.09.1c-.03-.03-.06-.07-.09-.1Z"/><path class="cls-18" d="m1279.8,741.16c1.25-1.72,4.71-.79,6.61-.65,0,0-.86-.38-2.21-1.71s-3.09.35-5.43,1.54c-2.12,1.08.02,3.85-1.73,4.38,0-.07-.03-.13-.08-.19-1.66-1.6-3.81-3.01-2.98-5.24,0-.08-.17.03-.25.02-.02-.06-.05-.12-.07-.18-.09-.05-.17-.19-.22-.07-.51,2.39,1.5,3.95,3.05,5.75-.02,0-.05,0-.07,0-1.61-.4-.69.16.29.55.16.75,0,0-2.66-1.07s-3.89,1.09-4.64,1.3c-.75.21-1.14,1.39-.1,3l.08.22s-.08-.22-.03-1.66,3.05-1.37,6.08-1.33c-.53.13-2.34,1.31-3.37,3.05s1.41,4.89,3.19,6.06c0,0-.42-3.34-.71-4.59s1.94-4.08,2.17-4.17.86.15,1.21.65c.84.87,1.52,3.38,1.98,3.91s3,2.05,4.15,2.48c.11-.13-.54-2.9-2.44-4.39-4.27-3.33-3.13-4.26-3.13-4.26l1.06-.27s.38-.22,1.71.9c.43.37,3.45-1.03,5.15.85-2.46-2.85-5.01-1.68-5.9-2.63.59-.43.27-.47,1.88-.88,1.61-.41,1.78-.57,1.35-.29-.43.28,2.62-.4,1.18-1.07-1.44-.67-4.08.45-6.67,1.74-.23-.37.29-.03,1.54-1.75Z"/></g><path class="cls-6" d="m1282.25,774.74c.79,1.85-5.18-1.63-8.4-4.26-2.42-1.97-4.94-5.96-5.22-8.41-.26-2.23.34-1.94,1.83-1.17.68.35,1.16,3.21,2.09,5.05.67,1.33,3.6,4.33,5.57,5.19,2.09.92,3,.93,4.13,3.6Z"/><path class="cls-7" d="m1523.52,788.96c-14.52-6.41-24.17-19.4-23-34.48.14-1.86.65-14.25,9.49-21.86,1.24-1.07,8.4-7.23,16.01-4.99,7.42,2.18,8.21,10.27,16.34,11.72,4.23.75,5.04-1.25,9.32-.01,6.93,1.99,10.69,8.93,10.94,9.4,5.66,10.78-.29,24.01-.78,25.04-6.57,14.08-24.29,21.37-38.33,15.18Z"/><g class="cls-20"><path class="cls-18" d="m1543.35,754.7c-.03.05-.05.11-.08.16.03-.05.05-.11.08-.16Z"/><path class="cls-18" d="m1545.71,743.25c2.97,1.09,3.81,6.43,4.76,9.2,0,0-.02-1.39.9-3.85.92-2.46-2.29-4.29-5.21-7.14-2.65-2.6-4.95,1.6-6.67-.7.08-.03.15-.1.2-.19,1.08-3.03,1.62-6.68,5-6.39.11-.02-.14-.23-.17-.35.06-.06.12-.12.18-.18.01-.14.14-.33-.04-.35-3.38.25-4.21,3.75-5.61,6.71-.02-.03-.03-.07-.05-.1-.44-2.47-.62-.92-.54.64-.88.54,0,0-.2-4.25-.2-4.25-3.72-5.13-4.44-6.11s-2.47-1.07-3.93,1.08l-.23.21s.23-.21,2.12-.72c1.89-.51,3.59,3.81,5.32,8.16-.48-.7-3.08-2.82-5.94-3.58-2.86-.76-5.47,4-5.92,7.04,0,0,4.06-1.96,5.49-2.89s6.41,1.11,6.67,1.4.32,1.3-.11,2c-.63,1.55-3.46,3.56-3.87,4.42s-.86,5.13-.74,6.96c.24.11,3.43-1.95,4.21-5.27,1.76-7.47,3.64-6.21,3.64-6.21l.98,1.4s.5.45-.15,2.81c-.21.77,3.37,4.52,1.97,7.72,2.21-4.68-.8-7.86-.11-9.51.9.67.76.2,2.25,2.33,1.49,2.14,1.79,2.32,1.18,1.81-.61-.51,2.07,3.58,2.08,1.25.01-2.33-3-5.66-6.21-8.83.34-.48.21.4,3.17,1.5Z"/></g><path class="cls-6" d="m1505.6,752.09c-2.2,1.42.38-8.14,2.77-13.39,1.79-3.93,6.24-8.26,9.4-8.95,2.89-.64,2.71.31,2.2,2.68-.23,1.08-3.88,2.14-6,3.77-1.55,1.18-4.52,6.01-4.99,9.14-.5,3.32-.2,4.71-3.37,6.75Z"/></g></svg>