<?xml version="1.0" encoding="UTF-8"?><svg id="ekstra_tomater" xmlns="http://www.w3.org/2000/svg" width="975" height="948.58" xmlns:xlink="http://www.w3.org/1999/xlink" viewBox="0 0 975 948.58"><defs><style>.cls-1{fill:none;}.cls-2{fill:#027333;}.cls-3{fill:#f27d72;}.cls-4{fill:#f0f0f0;}.cls-5{fill:#fff;}.cls-6{fill:#f2aa52;}.cls-7{fill:#ffd2d3;}.cls-8{fill:#ffb2d3;}.cls-9{fill:#ff1d25;}.cls-10{fill:#ff7fb6;}.cls-11{fill:#9e0f44;}.cls-12{fill:#323f25;}.cls-13{fill:#cb242b;}.cls-14{fill:#d9ecfb;}.cls-15{fill:#231f20;}.cls-16{fill:#313a26;}.cls-17{opacity:.62;}.cls-18{opacity:.79;}</style></defs><path class="cls-14" d="m847.04,945.37c-386.41-74.48-456.03-46.96-633.56-7.77-117.97,26.04-155.56-46.89-114.45-78.35,117.28-89.76-257.19-561.9-23.73-775.84C170.37-3.71,161.87,46.24,236.71,29.33c340.5-76.93,177.12,24.96,512.12-2.39,165.91-13.55,221.9,4.41,202.71,46.21-70.01,152.49-52.35,351.75,8.25,642.98,9.65,46.35,52.74,261.14-112.76,229.24Z"/><path class="cls-6" d="m780.97,386.43c-30.89,4.52-58.71-5.63-69.25-29.48-1.3-2.94-10.76-22.1-1.57-42.16,1.29-2.82,8.73-19.08,23.99-23.13,14.87-3.95,23.02,7.45,38.53,1.7,8.06-2.99,7.82-6.79,16.38-9.11,13.86-3.76,26.27,3.01,27.1,3.48,18.96,10.7,19.54,36.43,19.55,38.46.21,27.6-24.87,55.87-54.74,60.24Z"/><path class="cls-16" d="m787.24,315.52c0,.11,0,.21,0,.32,0-.11,0-.21,0-.32Z"/><path class="cls-16" d="m781.83,295.97c6.13-1.25,12.07,5.96,16.06,9.21,0,0-1.21-2.07-1.64-6.68-.43-4.61-7.61-4.21-15.12-5.67-6.84-1.33-7.37,7.24-12.32,5.46.11-.13.18-.3.19-.48-.62-5.61-2.73-11.63,3.45-14.5.18-.14-.44-.21-.59-.36.06-.15.12-.3.17-.45-.1-.22-.02-.64-.35-.49-5.74,3.67-4.27,9.75-4.27,15.57-.06-.04-.11-.07-.17-.11-2.84-3.29-1.85-.79-.41,1.49-1.09,1.66,0,0-3.9-6.21-3.9-6.21-10.83-4.1-12.91-4.88-2.08-.78-5.24.79-6.01,5.45l-.23.54s.23-.54,3.12-3.15c2.89-2.62,9.49,2.24,16.18,7.1-1.44-.59-7.77-1.24-13.43.41-5.67,1.65-6.29,11.36-4.53,16.37,0,0,5.51-6.91,7.25-9.71,1.74-2.79,12.21-4.59,12.9-4.4s1.65,1.64,1.47,3.12c.19,2.94-3.12,8.74-3.11,10.42s2.78,8.56,4.51,11.19c.51-.07,4.41-6.28,3.01-12.05-3.14-12.97,1.21-12.9,1.21-12.9l2.89,1.16s1.26.19,2.08,4.38c.27,1.37,9.7,3.51,9.91,9.71-.02-9.21-7.97-11.05-8.13-14.21,2.14.13,1.5-.45,5.9,1.32s5.08,1.74,3.59,1.58c-1.5-.17,6.63,3.38,4.7-.14-1.93-3.52-10.01-5.6-18.29-7.24.2-1.06.7.41,6.84-.84Z"/><path class="cls-5" d="m718.66,348.41c-2.68,4.28-6.13-12.63-6.31-22.86-.14-7.66,4.07-18.51,9.05-22.65,4.55-3.78,5.03-2.18,6.11,1.89.49,1.85-5.03,7.01-7.41,11.53-1.73,3.29-2.93,13.46-1.15,18.63,1.89,5.49,3.58,7.29-.28,13.45Z"/><path class="cls-3" d="m774.8,472.3c-20.65,20.59-59.64,7.56-80.36-21.2-20.73-28.75-20.95-72.84,5.38-85.35,56.48-26.85,53.81,11.44,71.88,28.4,18.39,17.26,51.26,30.14,3.1,78.15Z"/><path class="cls-13" d="m698.7,457.51c-21.68-23.77-29.06-53.37-14.76-76.12,1.76-2.8,12.67-21.93,35.1-25.66,3.16-.52,21.33-3.55,33.59,7.15,11.95,10.42,6.92,23.95,20.77,33.88,7.2,5.16,10.31,2.76,17.23,8.73,11.2,9.66,12.58,24.16,12.66,25.15,1.79,22.36-19.84,37.69-21.57,38.87-23.46,16.1-62.06,10.99-83.02-11.99Z"/><path class="cls-16" d="m764.19,422.64c-.09.06-.18.13-.27.19.09-.06.18-.12.27-.19Z"/><path class="cls-16" d="m777.76,406.75c4.6,4.52,1.88,13.74,1.4,19.02,0,0,1.07-2.22,4.76-5.25,3.68-3.02-.79-8.93-3.88-16.18-2.81-6.61-10.44-2.12-11.77-7.37.18.02.36-.01.52-.11,4.44-3.77,8.36-9.04,14.37-5.42.22.07-.07-.49-.03-.72.16-.03.32-.07.48-.11.13-.21.53-.38.21-.58-6.45-2.78-10.79,1.98-15.76,5.33,0-.07,0-.14,0-.21,1.17-4.32-.4-2.04-1.51.51-2.05.03,0,0,3.05-6.9,3.05-6.9-2.74-11.61-3.28-13.83s-3.7-4.01-8.12-1.99l-.59.11s.59-.11,4.49.85c3.9.96,3.56,9.4,3.27,17.9-.33-1.57-3.42-7.34-8.1-11.23-4.68-3.89-13.33,1.19-16.59,5.57,0,0,9.08.71,12.47.59s10.96,7.78,11.2,8.48-.45,2.35-1.82,3.05c-2.4,1.86-9.26,2.38-10.7,3.35-1.44.98-5.71,7.31-6.95,10.31.36.39,7.9.14,12.03-4.38,9.27-10.16,11.71-6.41,11.71-6.41l.68,3.14s.56,1.19-2.55,4.3c-1.01,1.01,2.59,10.31-2.58,14.06,7.85-5.33,4.84-13.18,7.44-15.14,1.13,1.9,1.25,1.03,2.28,5.8,1.03,4.77,1.44,5.35.72,3.97-.72-1.37.93,7.61,2.83,3.93,1.9-3.68-.99-11.78-4.37-19.8,1.02-.44.06.83,4.66,5.35Z"/><path class="cls-5" d="m686.58,394.6c-5.07,1.17,4.71-13.67,12.01-21.28,5.47-5.69,16.44-10.56,23.08-9.96,6.07.55,5.26,2.06,3.09,5.82-.99,1.71-8.77,1.46-13.8,3.03-3.66,1.14-11.93,7.7-14.39,12.76-2.61,5.39-2.69,7.93-9.99,9.62Z"/><path class="cls-11" d="m665.98,312.03c-9.18,5.28-19.49,4.6-26.26-3.32-.83-.98-6.59-7.22-6.54-15.95,0-1.23.04-8.3,4.32-11.61,4.17-3.22,8.39.2,12.5-3.78,2.14-2.07,1.51-3.5,3.9-5.37,3.87-3.03,8.79-1.87,9.12-1.78,7.56,1.92,11.44,11.69,11.73,12.47,4.02,10.54.1,24.24-8.78,29.35Z"/><path class="cls-16" d="m657.93,283.32s.03.08.05.12c-.01-.04-.03-.08-.05-.12Z"/><path class="cls-16" d="m653.41,276.47c1.77-1.18,4.69.89,6.43,1.68,0,0-.68-.65-1.48-2.37s-3.03-.74-5.62-.43c-2.37.28-1.31,3.62-3.14,3.51.02-.06.02-.13,0-.21-1-2.08-2.54-4.14-.98-5.94.04-.07-.17-.03-.24-.07,0-.06,0-.13,0-.19-.06-.07-.1-.24-.18-.15-1.3,2.06.04,4.22.87,6.45-.02,0-.05-.01-.07-.02-1.38-.93-.7-.09.08.62-.11.76,0,0-2.13-1.93s-4.03-.32-4.81-.38c-.77-.06-1.55.9-1.13,2.78v.23s0-.23.55-1.57,3.34-.23,6.16.86c-.54-.06-2.65.42-4.21,1.7-1.57,1.28-.37,5.07.9,6.79,0,0,.76-3.28.92-4.55s3.23-3.16,3.47-3.17.76.44.91,1.02c.48,1.1.26,3.7.5,4.35s2.11,2.96,3.04,3.76c.15-.09.5-2.91-.77-4.96-2.86-4.6-1.46-5.07-1.46-5.07l1.09.11s.43-.07,1.29,1.44c.28.49,3.59.23,4.54,2.58-1.33-3.52-4.12-3.31-4.62-4.5.7-.2.41-.34,2.07-.17,1.65.17,1.87.08,1.37.19-.5.11,2.59.53,1.47-.59-1.12-1.13-3.99-.99-6.86-.67-.09-.43.28.08,2.05-1.11Z"/><path class="cls-5" d="m644.11,308.82c.1,2.01-4.29-3.32-6.41-6.9-1.59-2.68-2.58-7.3-1.99-9.69.53-2.19.99-1.71,2.12-.47.51.56-.02,3.42.22,5.46.17,1.48,1.88,5.31,3.43,6.8,1.65,1.59,2.49,1.91,2.63,4.81Z"/><path class="cls-6" d="m640.59,774.48c-11.41-11.03-15.98-26.55-9.66-40.3.78-1.69,5.54-13.15,16.46-17.23,1.54-.57,10.38-3.88,16.75.85,6.21,4.61,4.16,12.47,11.29,16.64,3.7,2.17,5.16.57,8.75,3.21,5.81,4.27,6.95,12.07,7.02,12.6,1.59,12.07-8.57,22.42-9.38,23.23-11.03,10.94-30.18,11.66-41.21,1Z"/><path class="cls-16" d="m671.04,749.19s-.08.09-.13.13c.04-.04.09-.08.13-.13Z"/><path class="cls-16" d="m677.21,739.26c2.41,2.05,1.36,7.35,1.29,10.28,0,0,.46-1.31,2.17-3.3,1.72-1.99-.67-4.81-2.42-8.5-1.59-3.36-5.2-.21-6.02-2.96.09,0,.18-.04.25-.11,2.06-2.47,3.83-5.71,6.9-4.27.11.02-.05-.26-.04-.39.08-.03.16-.07.23-.1.06-.13.25-.26.09-.34-3.26-.94-5.24,2.06-7.58,4.35,0-.04,0-.08,0-.12.44-2.47-.26-1.08-.73.41-1.01.2,0,0,1.28-4.06,1.28-4.06-1.72-6.1-2.05-7.27s-1.94-1.86-4.06-.35l-.29.12s.29-.12,2.24.05c1.95.17,2.05,4.82,2.17,9.5-.21-.83-1.91-3.71-4.34-5.41-2.42-1.7-6.52,1.86-7.99,4.56,0,0,4.49-.44,6.15-.81s5.64,3.26,5.77,3.62-.14,1.33-.8,1.83c-1.12,1.24-4.48,2.14-5.16,2.81s-2.58,4.52-3.1,6.27c.19.18,3.89-.64,5.78-3.49,4.24-6.4,5.56-4.57,5.56-4.57l.43,1.65s.32.6-1.12,2.59c-.47.65,1.6,5.4-.82,7.92,3.69-3.63,1.96-7.65,3.18-8.96.62.94.65.45,1.3,2.96.66,2.52.88,2.79.48,2.11-.4-.69.7,4.08,1.52,1.89.82-2.19-.86-6.35-2.77-10.43.49-.34.05.45,2.46,2.5Z"/><path class="cls-5" d="m636.52,733.69c-2.55.57,3.17-7.51,7.23-11.6,3.04-3.07,8.71-5.59,11.91-5.15,2.93.4,2.44,1.23,1.14,3.28-.59.93-4.38.67-6.94,1.46-1.86.57-6.32,4.08-7.84,6.85-1.62,2.94-1.82,4.35-5.5,5.17Z"/><path class="cls-3" d="m868.58,799.76c10.58,27.17-17,57.65-51.66,65.1s-75.13-10.03-76.04-39.17c-1.94-62.5,32.07-44.69,54.86-54.44,23.19-9.92,48.18-34.85,72.84,28.51Z"/><path class="cls-13" d="m824.5,863.53c-30.47,10.32-60.55,5.2-75.66-17.02-1.86-2.74-15.01-20.4-9.43-42.44.79-3.1,5.31-20.96,20.02-27.9,14.34-6.76,24.72,3.27,39.37-5.44,7.62-4.53,6.66-8.33,14.91-12.28,13.35-6.38,27.18-1.83,28.12-1.5,21.2,7.33,26.57,33.29,26.96,35.35,5.34,27.94-14.82,61.25-44.29,71.23Z"/><path class="cls-16" d="m818.83,789.56c.02.11.04.21.06.32-.02-.11-.04-.22-.06-.32Z"/><path class="cls-16" d="m809.72,770.75c5.98-2.4,13.34,3.79,17.99,6.35,0,0-1.61-1.88-2.9-6.46-1.29-4.59-8.5-2.86-16.38-2.94-7.18-.07-6.13,8.71-11.48,7.82.09-.15.13-.33.11-.52-1.67-5.57-4.93-11.28.8-15.33.15-.18-.48-.13-.67-.26.03-.16.06-.33.09-.49-.14-.21-.14-.64-.45-.43-5.14,4.79-2.51,10.67-1.43,16.57-.06-.03-.13-.05-.19-.08-3.49-2.8-2.02-.45-.14,1.58-.8,1.89,0,0-5.1-5.57-5.1-5.57-11.73-2.14-13.99-2.55s-5.16,1.77-5.08,6.64l-.13.59s.13-.59,2.58-3.78,10.04.51,17.71,4.19c-1.57-.33-8.1.19-13.54,2.91-5.44,2.72-4.26,12.69-1.55,17.43,0,0,4.3-8.03,5.55-11.19,1.25-3.16,11.52-6.92,12.26-6.85s1.98,1.35,2.07,2.89c.74,2.95-1.54,9.44-1.22,11.14.32,1.71,4.4,8.16,6.65,10.5.5-.17,3.3-7.18.81-12.77-5.59-12.57-1.17-13.29-1.17-13.29l3.15.63s1.32-.04,2.92,4.06c.52,1.34,10.48,1.76,11.85,8-1.73-9.33-10.13-9.72-10.88-12.89,2.2-.27,1.44-.73,6.23.24,4.79.97,5.48.82,3.93.93-1.55.11,7.35,2.2,4.73-1.02-2.61-3.21-11.19-3.81-19.89-3.94,0-1.11.79.28,6.77-2.12Z"/><path class="cls-5" d="m762.01,849.39c-.96,5.11-10.64-9.8-14.67-19.54-3.02-7.29-3.08-19.29.14-25.13,2.94-5.34,4-3.99,6.57-.49,1.17,1.59-2.18,8.62-2.76,13.85-.42,3.81,2.26,14.02,5.92,18.3,3.89,4.55,6.18,5.65,4.8,13.01Z"/><path class="cls-3" d="m801.16,729.88c-20.65,20.59-59.64,7.56-80.36-21.2s-20.95-72.84,5.38-85.35c56.48-26.85,53.81,11.44,71.88,28.4,18.39,17.26,51.26,30.14,3.1,78.15Z"/><path class="cls-13" d="m725.05,715.1c-21.68-23.77-29.06-53.37-14.76-76.12,1.76-2.8,12.67-21.93,35.1-25.66,3.16-.52,21.33-3.55,33.59,7.15,11.95,10.42,6.92,23.95,20.77,33.88,7.2,5.16,10.31,2.76,17.23,8.73,11.2,9.66,12.58,24.16,12.66,25.15,1.79,22.36-19.84,37.69-21.57,38.87-23.46,16.1-62.06,10.99-83.02-11.99Z"/><path class="cls-16" d="m790.55,680.22c-.09.06-.18.13-.27.19.09-.06.18-.12.27-.19Z"/><path class="cls-16" d="m804.12,664.34c4.6,4.52,1.88,13.74,1.4,19.02,0,0,1.07-2.22,4.76-5.25,3.68-3.02-.79-8.93-3.88-16.18-2.81-6.61-10.44-2.12-11.77-7.37.18.02.36-.01.52-.11,4.44-3.77,8.36-9.04,14.37-5.42.22.07-.07-.49-.03-.72.16-.03.32-.07.48-.11.13-.21.53-.38.21-.58-6.45-2.78-10.79,1.98-15.76,5.33,0-.07,0-.14,0-.21,1.17-4.32-.4-2.04-1.51.51-2.05.03,0,0,3.05-6.9,3.05-6.9-2.74-11.61-3.28-13.83s-3.7-4.01-8.12-1.99l-.59.11s.59-.11,4.49.85c3.9.96,3.56,9.4,3.27,17.9-.33-1.57-3.42-7.34-8.1-11.23-4.68-3.89-13.33,1.19-16.59,5.57,0,0,9.08.71,12.47.59s10.96,7.78,11.2,8.48-.45,2.35-1.82,3.05c-2.4,1.86-9.26,2.38-10.7,3.35-1.44.98-5.71,7.31-6.95,10.31.36.39,7.9.14,12.03-4.38,9.27-10.16,11.71-6.41,11.71-6.41l.68,3.14s.56,1.19-2.55,4.3c-1.01,1.01,2.59,10.31-2.58,14.06,7.85-5.33,4.84-13.18,7.44-15.14,1.13,1.9,1.25,1.03,2.28,5.8,1.03,4.77,1.44,5.35.72,3.97-.72-1.37.93,7.61,2.83,3.93,1.9-3.68-.99-11.78-4.37-19.8,1.02-.44.06.83,4.66,5.35Z"/><path class="cls-5" d="m712.94,652.19c-5.07,1.17,4.71-13.67,12.01-21.28,5.47-5.69,16.44-10.56,23.08-9.96,6.07.55,5.26,2.06,3.09,5.82-.99,1.71-8.77,1.46-13.8,3.03-3.66,1.14-11.93,7.7-14.39,12.76-2.61,5.39-2.69,7.93-9.99,9.62Z"/><path class="cls-11" d="m789.88,601.62c-34.93-8.24-59.96-31.65-60.4-63.03-.05-3.87-1.47-29.5,17.37-48.11,2.65-2.62,17.91-17.69,35.99-15.67,17.62,1.97,21.14,18.31,40.25,18.53,9.93.12,11.39-4.27,21.55-3.19,16.45,1.75,26.6,14.72,27.28,15.61,15.35,20.22,4.34,49.4,3.44,51.7-12.25,31.15-51.71,52.13-85.48,44.16Z"/><path class="cls-16" d="m830.72,523c-.05.12-.09.24-.14.36.05-.12.1-.24.14-.36Z"/><path class="cls-16" d="m833.79,498.68c7.09,1.24,10.16,11.91,12.94,17.29,0,0-.35-2.85,1.27-8.22,1.62-5.37-6.2-8.03-13.53-12.9-6.68-4.44-11.12,4.96-15.58.83.18-.1.33-.25.42-.46,1.87-6.58,2.35-14.27,10.22-14.82.25-.08-.37-.42-.47-.67.13-.14.26-.29.39-.43,0-.29.27-.72-.15-.7-7.77,1.65-8.95,9.13-11.58,15.67-.04-.07-.09-.13-.13-.2-1.54-4.92-1.62-1.68-1.11,1.5-1.92,1.4,0,0-1.34-8.66-1.34-8.66-9.67-9.28-11.54-11.05-1.86-1.78-5.93-1.37-8.86,3.54l-.49.5s.49-.5,4.75-2.2c4.26-1.7,9.09,6.62,14.02,14.96-1.26-1.28-7.71-4.74-14.48-5.33s-11.82,10.07-12.22,16.46c0,0,8.98-5.4,12.1-7.79,3.12-2.39,15.07.11,15.72.62s1.02,2.55.15,4.14c-1.12,3.4-7.26,8.49-8.02,10.38-.76,1.9-.91,10.83-.25,14.53.58.14,7.53-5.16,8.65-12.26,2.52-15.95,7.11-13.99,7.11-13.99l2.56,2.55s1.26.76.23,5.83c-.33,1.65,8.74,8.13,6.16,15.19,4.14-10.37-3.5-15.87-2.24-19.49,2.23,1.07,1.8.15,5.69,4.03s4.63,4.15,3.11,3.32c-1.52-.83,5.53,6.66,5.06,1.86-.46-4.8-8.13-10.62-16.2-16.04.69-1.11.56.76,7.66,2Z"/><path class="cls-5" d="m740.53,548.17c-4.06,4.52-3.92-16.26-1.69-28.44,1.67-9.12,9.03-21.13,15.64-25.01,6.05-3.55,6.21-1.55,6.46,3.51.12,2.3-7.37,7.28-11.14,12.15-2.75,3.54-6.53,15.37-5.75,21.87.83,6.91,2.31,9.4-3.53,15.91Z"/><image width="451" height="80" transform="translate(85.99 794.86)" xlink:href="vinder1.png"/><path class="cls-11" d="m803.61,561.12c11.85-24.58-12.48-17.02-28.01-9.57,6.81-7.99,34.17-29.48,25-42-9.76-13.33-42.8,19.86-53,28-.16.13,8.09-14.1,8-14-.02-.27,3.02-12.69,3-13-.66-8.4,1-23-10-23-7.52,0-8.2,11.87-12,22-1.48,3.95-3.37,22.81-16,28-2.41.99-12.64,7.91-15,9-22.06,10.14-29.63,21.82-52.1,18.65-8.39.84-9.45,5.92-11.39,12.22-1.32,4.29-.81,14.46-1.71,17.53-1.33,4.5,3.85,11.81,5.15,11.77,34-1.1,47.06-16.16,88.06-13.16,12,3,28.84,1.42,41.81-2.63,14.24-4.45,21.24-15.37,28.2-29.8Z"/><path class="cls-11" d="m343.11,824.7c-4.62,1.96-6.69,7.76-3.52,21.88,2.11,9.38,12.11,14.63,24.29,14.47,12.71-.17,20.77-8.86,22.05-17.47,1.73-11.72-6.09-15.12-22.05-17.48-1-.15-2.01-.31-3.02-.5l35.32-36.98-66.11-20.5,13.04,56.59Z"/><path class="cls-11" d="m414.5,830.92c-.19.9-.21,1.86-.02,2.86,1.89,10.03,14.56,17.08,22.77,17.35,22.62.75,62.27-8.1,22.13-28.39-2.44-1.24-15.18-6.02-21.5-4.85-2.94.55-8.23,1.76-13.06,3.82,14.09-18.76,7.73-29.03,23.13-56.02-27.39,2.4-34.84,7.3-61.64-1.07,8.55,33.02,11.52,38.63,28.18,66.3Z"/><path class="cls-1" d="m406.01,784.55c-48.65,0-98.93-19.49-140.31-54.85-48.38-41.34-78.12-98.15-81.6-155.84-5.3-87.88,30.7-156.49,96.31-183.53,17.46-7.2,35.83-6.51,57.11-5.72,15.46.58,32.99,1.23,52.02-1.42,7.6-1.06,14.57-2.09,21.31-3.09,38.12-5.64,63.3-9.36,103.83-3,32,5.03,63.97,25.56,90,57.82,28.97,35.89,48.82,83.89,57.41,138.82,6.04,38.6-4.26,76.4-29.78,109.3-41.62,53.66-121.77,92.24-209.17,100.68-5.67.55-11.39.82-17.13.82Zm-87.26-399.41c-13.56,0-26,1.19-37.97,6.12-65.19,26.87-92.63,95-95.69,182.54-1.71,48.97,29.66,108.39,81.26,155.14,44.89,40.68,103.17,58.98,156.7,53.8,87.13-8.41,167.02-46.84,208.47-100.29,25.35-32.68,35.58-70.21,29.58-108.53-8.56-54.75-28.34-102.59-57.2-138.34-25.88-32.07-57.63-52.47-89.38-57.46-40.38-6.34-65.5-2.63-103.53,3-6.74,1-13.72,2.03-21.32,3.09-19.11,2.66-36.68,2-52.19,1.42-6.49-.24-12.71-.48-18.72-.48Z"/><path class="cls-9" d="m392.59,793.1c-48.65,0-98.93-19.49-140.31-54.85-48.38-41.34-78.12-98.14-81.6-155.84-5.3-87.88,30.7-156.49,96.31-183.53,17.46-7.2,35.83-6.51,57.11-5.72,15.46.58,32.99,1.23,52.01-1.42,7.6-1.06,14.57-2.09,21.31-3.09,38.12-5.64,63.3-9.36,103.83-3,32,5.03,63.97,25.56,90,57.82,28.97,35.89,48.82,83.89,57.41,138.82,6.04,38.6-4.26,76.4-29.78,109.3-41.62,53.66-121.77,92.24-209.17,100.68-5.67.55-11.39.82-17.13.82Zm-87.26-399.41c-13.56,0-26.01,1.19-37.97,6.12-65.19,26.87-100.96,95.11-95.69,182.54,3.46,57.42,33.08,113.97,81.25,155.14,46.06,39.36,103.17,58.97,156.7,53.8,87.13-8.41,167.02-46.84,208.47-100.29,25.35-32.68,35.58-70.21,29.58-108.53-8.56-54.75-28.34-102.59-57.2-138.34-25.88-32.07-57.62-52.47-89.38-57.46-40.38-6.34-65.5-2.63-103.53,3-6.75,1-13.72,2.03-21.32,3.09-19.11,2.66-36.69,2-52.19,1.42-6.49-.24-12.71-.48-18.72-.48Z"/><path class="cls-12" d="m625.62,650.02c21.69,35.37-194.03,235.54-384.03,107.54-110.21-74.25-107.43-266.9-36-319,170-124-36.15,62.85,26.25,150.43,29.34,41.18,41.68,56.56,60.55,73.03,5.94,5.19,30.61,26.25,68.9,43.82,6.53,3,50.79,22.96,93.5,25.88,96.5,6.59,170.24-82.64,170.82-81.69Z"/><path class="cls-11" d="m648.59,581.83c17.86,114.22-107.37,196.74-238.5,209.4-115.5,11.15-229.75-91.78-238.5-209.4-7.23-97.2,32.76-163.79,96-183.04,31.54-9.6,64.69-.93,109-7.1,51-7.1,77.46-13.55,125-6.08,61.57,9.67,128.61,78.63,147,196.22Z"/><path class="cls-8" d="m648.59,580.56c8.37,111.59-115.13,191.01-238.92,209.23-125.34,18.44-253.01-77.62-252.08-198.23.73-94.59,49.41-169.42,109.58-194.21,30.49-12.56,64.69-.93,109-7.1,51-7.1,76.88-5.59,125-6.08,65.18-.67,138.09,72.07,147.42,196.4Z"/><circle class="cls-8" cx="551.59" cy="621.56" r="15"/><circle class="cls-10" cx="275.59" cy="642.56" r="12"/><path class="cls-7" d="m533.66,452.83c-13.97-15.43-14.8-41.55,8.41-48.02,36.67-10.22,61.29,37.39,68.03,61.58,8.15,29.22-9.63,61.09-37.62,14.03-12.37-20.81-26.83-14.32-38.83-27.59Z"/><path class="cls-5" d="m542.22,429.25c-7.2-8.29.7-19.91,17.54-18.51,26.6,2.21,37.9,22.55,36.99,33.49-1.1,13.22-20.92,20.46-29.01-3.4-3.58-10.55-19.59-4.75-25.52-11.58Z"/><path class="cls-15" d="m425.18,655.02s-7.28,6.54-34.59,6.54c-27.31,0-27.76-6.54-27.76-6.54,0,17.22,13.96,31.17,31.17,31.17,17.22,0,31.17-13.96,31.17-31.17Z"/><path class="cls-4" d="m514.61,575.52c9.61,23.82,4.14,43.89-16.57,49.82-18.37,5.25-41.34,12.54-50.95-11.28-9.61-23.82-.82-59.49,19.15-67.55,19.97-8.06,38.76,5.2,48.37,29.01Z"/><path d="m471.11,634.65c-11.29,0-21.76-4.31-27.72-19.1-4.91-12.17-5.53-27.95-1.67-42.22,4.1-15.15,12.5-26.28,23.03-30.53,10.82-4.36,21.78-3.37,31.7,2.88,9.15,5.76,16.72,15.56,21.88,28.35h0c5.94,14.71,6.45,28.47,1.44,38.73-3.91,8.01-11.04,13.69-20.61,16.43l-1.4.4c-8.16,2.34-17.66,5.07-26.64,5.07Zm6.84-86.49c-3.38,0-6.8.68-10.21,2.06-8.19,3.31-14.87,12.49-18.3,25.2-3.42,12.65-2.91,26.54,1.37,37.14,7.44,18.44,23.23,15.5,44.73,9.33l1.41-.4c7.43-2.13,12.69-6.25,15.62-12.25,4-8.19,3.41-19.64-1.67-32.22-4.46-11.05-11.11-19.78-18.72-24.57-4.53-2.85-9.34-4.29-14.23-4.29Z"/><ellipse cx="485.09" cy="597.56" rx="20.5" ry="21"/><circle class="cls-5" cx="477.09" cy="609.06" r="4.5"/><path d="m477.09,614.06c-2.76,0-5-2.24-5-5s2.24-5,5-5,5,2.24,5,5-2.24,5-5,5Zm0-9c-2.21,0-4,1.79-4,4s1.79,4,4,4,4-1.79,4-4-1.79-4-4-4Z"/><path class="cls-4" d="m368.59,596.56c2.76,22-9.74,38.46-34,40-19.07,1.21-43-4.32-43-30s21.46-55,43-55,30.81,19.52,34,45Z"/><path d="m329.76,643.71c-9.71,0-23.45-1.8-32.77-10.54-6.24-5.85-9.4-13.8-9.4-23.61,0-13.1,5.33-27.89,14.25-39.56,9.44-12.35,21.38-19.44,32.75-19.44,21.16,0,33.94,16.32,37.97,48.5h0c1.52,12.13-1.18,22.77-7.8,30.77-6.75,8.16-17.09,12.9-29.91,13.72-1.51.1-3.22.16-5.08.16Zm4.83-85.15c-18.59,0-39,26.69-39,51,0,7.52,2.31,13.5,6.88,17.78,6.51,6.11,18.12,9.11,31.87,8.23,10.56-.67,18.95-4.42,24.26-10.83,5.18-6.26,7.26-14.79,6.03-24.68-3.5-27.92-13.32-41.5-30.03-41.5Z"/><ellipse cx="334.01" cy="603.98" rx="22.32" ry="22.55" transform="translate(-281.34 916.56) rotate(-87.99)"/><path d="m334.59,626.06c-12.68,0-23-10.43-23-23.25s10.32-23.25,23-23.25,23,10.43,23,23.25-10.32,23.25-23,23.25Zm0-44.64c-11.47,0-20.81,9.6-20.81,21.39s9.34,21.39,20.81,21.39,20.81-9.6,20.81-21.39-9.34-21.39-20.81-21.39Z"/><circle class="cls-5" cx="338.09" cy="617.06" r="4.5"/><path d="m336.35,623.06c-3.72,0-6.74-2.89-6.74-6.45s3.03-6.45,6.74-6.45,6.74,2.89,6.74,6.45-3.03,6.45-6.74,6.45Zm0-11.61c-2.97,0-5.39,2.31-5.39,5.16s2.42,5.16,5.39,5.16,5.39-2.31,5.39-5.16-2.42-5.16-5.39-5.16Z"/><path class="cls-10" d="m415.54,666.35c1.79,5.29-9.75,14.77-22.06,14.43-7.89-.22-22.22-7.07-21.85-12.56.37-5.48,13.96,2.34,21.76,1.36,3.91-.49,20.36-8.53,22.15-3.24Z"/><g class="cls-17"><path class="cls-11" d="m368.59,790.56c-33.76,16.88-121.07-29.15-153.51-62-75.23-76.18-77.92-202.59-25.65-265.27,56.91-68.25,4.24,19.33-1.11,89.07-4.89,63.69-3.72,78.2,33.28,128.2,22.93,30.98,47.72,48.05,96,62,47.91,13.84,59,44,51,48Z"/></g><path class="cls-2" d="m313.09,455.88c5.68-26.68,2.91-51.8,23.51-67.91,22.14-17.3,39.09-1.6,61.86,6.39-20.79,5.73-33.33-1.86-53.16,14-17.73,14.18-17.65,32.62-32.21,47.51Z"/><path class="cls-2" d="m318.98,355.49c9.49-17.88,14.2-37.04,34.54-21.79,21.85,16.38,33.38,42.88,48.71,65.73-20.46-8.76-44.96-40.54-60.69-56.96-14.06-14.67-7.52,17.25-22.56,13.02Z"/><path class="cls-2" d="m401.69,394.62c-2.95,20.96-3.78,13.63-.47,39.46,3.55,27.75-18.89,56.76-12.61,94.27-12.4-24.04-29.99-72.42-16.18-97.93,12.35-22.8,13.61-19.06,29.26-35.8Z"/><path class="cls-2" d="m401.83,399.58s13.47,16.61,18.48,33.64c5.38,18.29,3.12,42.34,3.12,42.34,0,0-13.88-18.68-18.81-36.86-4.4-16.25-2.79-39.12-2.79-39.12Z"/><path class="cls-2" d="m402.63,406.47c13.8,12.93,29.51,26.57,41.33,42.65,12.69,17.27,12.77,37.51,15.68,59.05-12.38-16.65-14.91-31.52-29.35-45.99-12.91-12.93-22.94-34.97-27.65-55.71Z"/><path class="cls-2" d="m394.01,405.11c15.89-13.93,41.06-9.99,59.36-7.43,19.66,2.74,18.32,51.56,37.19,48.73-10.3,1.54-29.43,1.85-47.53-13.59-30.21-25.77-31.85-42.75-49.01-27.71Z"/><path class="cls-2" d="m401.22,403.69c-.49.26-.87-.05-.88-.72-.27-9.63,5.02-30.89,9.26-40.57,4.59-10.46,15.25-26.99,20.87-27.78.23-.03.41.08.52.3,1.14,2.28,1.97,3.64,2.51,4.42.36.52.1,1.75-.53,2.5-7.26,8.72-10.47,11.82-14.72,19.55-5.52,10.04-13.67,41-13.92,40.77l-3.11,1.52Z"/><g class="cls-18"><path class="cls-16" d="m308.43,482.16c6.14-31.62,3.78-61.03,24.71-80.89,22.49-21.33,39.23-3.63,61.93,4.74-20.94,7.67-33.39-.7-53.54,18.85-18.01,17.47-18.25,39.14-33.1,57.3Z"/><path class="cls-16" d="m316.02,363.87c9.82-21.44,14.86-44.18,35-27.17,21.63,18.28,32.76,48.91,47.74,75.09-20.37-9.38-44.4-45.64-59.9-64.24-13.85-16.62-7.83,20.62-22.84,16.32Z"/><path class="cls-16" d="m398.3,406.17c-3.31,24.78-4.02,16.2-1.13,46.41,3.1,32.46-19.89,67.58-14.22,111.39-12.04-27.71-28.87-83.8-14.58-114.41,12.76-27.36,13.96-23.02,29.94-43.4Z"/><path class="cls-16" d="m398.36,411.99s13.23,18.92,17.97,38.72c5.09,21.27,2.42,49.64,2.42,49.64,0,0-13.61-21.34-18.24-42.49-4.14-18.9-2.15-45.87-2.15-45.87Z"/><path class="cls-16" d="m399.05,420.06c13.63,14.59,29.15,29.91,40.73,48.28,12.43,19.74,12.18,43.53,14.73,68.72-12.14-19.02-14.43-36.39-28.67-52.75-12.73-14.62-22.42-40.09-26.79-64.26Z"/><path class="cls-16" d="m390.43,418.85c16.17-17.1,41.34-13.58,59.65-11.4,19.66,2.34,17.5,59.79,36.47,55.62-10.36,2.28-29.54,3.5-47.44-13.84-29.86-28.94-31.22-48.83-48.68-30.37Z"/><path class="cls-16" d="m397.68,416.85c-.5.32-.87-.02-.88-.81-.11-11.31,5.55-36.55,9.96-48.11,4.77-12.5,15.74-32.41,21.39-33.6.23-.05.41.07.52.33,1.1,2.63,1.92,4.19,2.45,5.09.35.6.07,2.05-.57,2.97-7.43,10.58-10.7,14.37-15.09,23.65-5.7,12.05-14.4,48.81-14.64,48.56l-3.14,1.93Z"/></g><circle class="cls-10" cx="539.59" cy="642.56" r="12"/><path class="cls-5" d="m327.45,616.44c-5.13-6.1-6.76-14.16-3.65-18.01,3.11-3.84,9.79-2.02,14.92,4.08"/><path class="cls-5" d="m475.93,600.7c1.67-7.62,6.68-12.38,11.2-10.63,4.52,1.75,6.83,9.34,5.17,16.96"/></svg>