<?xml version="1.0" encoding="UTF-8"?>
<svg id="Layer_2" data-name="Layer 2" xmlns="http://www.w3.org/2000/svg" xmlns:xlink="http://www.w3.org/1999/xlink" viewBox="0 0 364.08 416.78">
  <defs>
    <style>
      .cls-1 {
        fill: none;
      }

      .cls-2 {
        clip-path: url(#clippath);
      }

      .cls-3 {
        fill: #fff;
      }

      .cls-4 {
        fill: #b5947b;
      }

      .cls-5 {
        fill: #cc726a;
      }

      .cls-6 {
        fill: #d9b498;
      }

      .cls-7 {
        opacity: .42;
      }

      .cls-8 {
        opacity: .4;
      }

      .cls-9 {
        opacity: .44;
      }

      .cls-10 {
        opacity: .56;
      }
    </style>
    <clipPath id="clippath">
      <rect class="cls-1" x="26.08" y="226.53" width="196" height="124"/>
    </clipPath>
  </defs>
  <g id="Kjot">
    <g>
      <g>
        <path class="cls-3" d="m253.45,105.44c5.09-3.64,10.19-7.28,15.28-10.92,2.34-1.67,12.84-9.12,14.4-11.5,1.22-1.86,6.82-6.25,7.97-8.14,5.56-9.17,2.29-4.21,7.09-13.5,1.32-2.55,1.54-5.58,1.45-8.43-.16-5.36-3.25-10.13-5.22-15.12-2.17-5.52-2.99-11.56-2.37-17.47.32-3.07,1.04-6.15,2.59-8.85,3.75-6.59,4.6-14.64,19.87-8.15,5.28,2.24,10.09,5.88,12.63,10.69,1.03,1.95,3.39,2.31,4.83.85,4.76-4.79,12.42-7.43,17.53-7.41,2.23,0,6.24-.54,8.06.7,1.83,1.25,2.33,4.23,3.3,6.2,3.68,7.44,1.96,16.72-1.85,24.17-3.8,7.45-10.38,13.32-17.77,17.52-2.98,1.69-6.13,3.15-8.75,5.33-3.92,3.25-6.36,7.84-8.62,12.34-2.79,5.55-4.27,10.95-6.81,16.62-5.69,12.69-10.21,20.47-18.92,32.48"/>
        <path d="m253.38,105.98c8.66-6.19,17.58-12.14,25.87-18.82,1.4-1.13,2.82-2.29,4.05-3.62,1.12-1.21,2.11-2.44,3.33-3.58,1.59-1.48,3.28-2.91,4.7-4.57s2.49-3.81,3.59-5.74c1.3-2.27,2.25-4.73,3.42-7.06.67-1.33,1.4-2.63,1.82-4.06.49-1.67.66-3.41.67-5.15.03-3.05-.66-5.89-1.81-8.71-1.22-2.99-2.76-5.84-3.85-8.88-1.19-3.33-1.89-6.83-2.09-10.36-.18-3.28.02-6.65.81-9.85.63-2.56,1.92-4.74,3.07-7.08,1.07-2.16,2.12-5.26,4.47-6.12,1.89-.68,4.02-.46,5.94-.05,2.95.63,5.85,1.77,8.51,3.18s5.17,3.22,7.22,5.45c.86.94,1.64,1.96,2.31,3.04s1.18,2.22,2.51,2.63c2.46.77,4.26-1.61,5.94-2.95,2.28-1.82,4.99-3.12,7.75-4.02,2.32-.75,4.66-1.16,7.1-1.2,2.29-.04,5.13-.6,7.27.43s2.66,4.11,3.58,6.15c1.27,2.82,2.05,5.64,2.13,8.75.34,12.78-7.87,24-18.36,30.46-2.73,1.68-5.65,3.03-8.34,4.78s-4.96,3.83-6.89,6.33c-3.87,4.98-6.48,10.99-8.69,16.84-4.4,11.64-9.8,22.76-16.72,33.12-1.79,2.68-3.66,5.32-5.55,7.93-.34.47-.1.58.36.42.61-.2,1.26-.86,1.63-1.36,3.69-5.09,7.25-10.28,10.44-15.71,3.07-5.22,5.76-10.65,8.25-16.17,2.87-6.36,4.88-13.05,8.1-19.25,1.48-2.85,3.09-5.71,5.3-8.08,2.36-2.53,5.5-4.04,8.49-5.68,10.66-5.85,19.88-14.75,23.22-26.74.85-3.05,1.29-6.24,1.1-9.41s-1.09-5.68-2.28-8.45c-.87-2.03-1.34-4.89-3.56-5.92s-4.84-.53-7.11-.47c-5.21.12-10.22,1.7-14.65,4.45-1.17.73-2.3,1.54-3.36,2.43-.48.4-.92.85-1.4,1.26l-.26.26c.23-.24.14-.27-.27-.1-.39-.04-.75,0-1.14-.13-1.33-.46-1.8-1.78-2.5-2.87-.8-1.24-1.74-2.38-2.78-3.42-4.1-4.09-9.92-6.98-15.6-8.09-3.86-.75-7.32.07-10.15,2.86-2.3,2.28-3.48,5.29-4.96,8.11-1.4,2.65-2.45,5.24-2.93,8.23-.55,3.43-.57,6.96-.12,10.4s1.32,6.61,2.61,9.72,2.83,5.9,3.87,9.01,1.27,6.33.8,9.54c-.44,3.01-2.07,5.53-3.35,8.23-1.19,2.52-2.37,4.92-3.81,7.32-.57.95-1.09,1.9-1.86,2.71-.81.85-1.68,1.63-2.54,2.43-1.5,1.39-3.13,2.76-4.38,4.4-1.97,2.6-5.44,4.84-8.2,6.89-3.89,2.88-7.85,5.66-11.78,8.47-2.95,2.11-5.9,4.21-8.85,6.32-.23.16-1.41,1.04-1.24,1.4.19.4.88-.14,1.11-.31h0Z"/>
      </g>
      <g>
        <path class="cls-5" d="m106.32,217.72c.41-14.15.81-28.29,1.22-42.44.19-6.59-9.26-6.28-10-.05-.1.85-.2,1.7-.3,2.54l10,.05c.21-3.67,5.99-6.11,8.65-7.8,3.34-2.12,6.68-4.23,10.06-6.27,6.69-4.03,13.66-8.03,21.46-9.33,6.36-1.06,3.78-10.73-2.52-9.68-10.39,1.73-19.82,7.74-28.61,13.22-7.8,4.86-18.46,9.4-19.05,19.81-.37,6.56,9.26,6.29,10,.05.1-.85.2-1.7.3-2.54l-10-.05c-.4,14.15-.81,28.29-1.22,42.44-.19,6.45,9.82,6.48,10,.05h0Z"/>
        <path class="cls-5" d="m107.84,171.08c-1.78,4.53-3.38,9.12-4.8,13.77-1.94,6.32,7.31,8.37,9.66,2.59,1.51-3.71,3.02-7.43,4.53-11.14l-9.66-2.59c-2.05,5.65-3.96,11.26-4.79,17.23-.71,5.11,6.41,9.35,9.17,3.77,1.89-3.81,3.88-7.57,6.03-11.24.92-1.57,1.87-3.13,2.85-4.67.83-1.31,4.04-4.42,1.93-4.68l-4.8-6.29c-3.7,10.53-7.31,21.07-9.35,32.07-1.19,6.4,7.37,8.58,9.66,2.59s4.6-11.79,7.34-17.5c2.51-5.23,5.24-11.95,9.69-15.81-2.8-1.6-5.59-3.2-8.39-4.8-1.73,6.81-5.01,13.23-7.2,19.91s-4.05,13.95-5.48,21.08c-1.25,6.29,7.72,8.78,9.66,2.59,2.36-7.53,5.12-14.91,8.54-22.02,1.54-3.2,3.19-6.36,4.96-9.44.88-1.54,1.8-3.07,2.74-4.58.47-.75,3.56-4.7,2.27-4.42l-5.6-7.32c-6.03,13.59-11.63,27.37-15.04,41.88-1.48,6.29,7.71,8.72,9.66,2.59,2.55-8.02,5.81-15.71,9.88-23.08,1.92-3.48,4.01-6.88,6.24-10.17s4.69-8.03,8.16-9.91l-6.84-6.81c-2.79,5.35-6.52,13.83-12.11,16.68l6.01.77c1.26,1.47,1.11-.63,1.49-1.77.5-1.5,1.05-2.99,1.67-4.45,1.14-2.64,2.5-5.17,3.95-7.66,2.9-4.99-3.83-9.83-7.91-5.99-2.65,2.5-4.28,6.33-7.39,8.27l7.33,5.62c.79-2.06,1.9-3.93,3.29-5.63l-7.12-7.02c-2.58,3.21-5.41,6.16-8.71,8.64l6.84,6.81c1-1.91,2.1-3.38,3.66-4.87,4.64-4.45-2.47-11.48-7.12-7.02-2.13,2.04-3.85,4.33-5.22,6.94-2.09,3.99,2.61,10,6.84,6.81s7.65-6.33,10.83-10.28c3.98-4.95-3.03-12.03-7.12-7.02-2.55,3.12-4.38,6.31-5.83,10.07-1.58,4.1,3.86,7.78,7.33,5.62,4.13-2.56,6.07-6.66,9.51-9.91l-7.91-5.99c-3.88,6.66-11.54,18.85-5.44,25.95,1.47,1.71,4.16,1.71,6.01.77,7.39-3.77,12.13-13.35,15.8-20.39,2.29-4.4-2.42-9.21-6.84-6.81-3.87,2.1-6.33,5.97-8.89,9.44-3.04,4.12-5.83,8.42-8.36,12.86-4.86,8.53-8.71,17.59-11.68,26.94l9.66,2.59c3.22-13.68,8.38-26.69,14.07-39.51,1.73-3.89-1.16-8.29-5.6-7.32-3.76.83-5.56,4.65-7.49,7.65-2.73,4.24-5.21,8.63-7.47,13.13-4.32,8.6-7.82,17.6-10.69,26.78l9.66,2.59c1.42-7.13,3.21-14.17,5.48-21.08s5.47-13.1,7.2-19.91c1.29-5.07-4.73-7.99-8.39-4.8-5.15,4.48-8.35,11.83-11.25,17.88-3.1,6.48-5.75,13.16-8.31,19.87l9.66,2.59c2.04-11,5.65-21.54,9.35-32.07,1.18-3.35-1.88-5.93-4.8-6.29-5.13-.63-7.9,5.4-10.18,8.96-3.44,5.38-6.54,10.95-9.37,16.67,3.06,1.26,6.12,2.51,9.17,3.77.83-5.97,2.74-11.59,4.79-17.23,2.23-6.14-7.29-8.41-9.66-2.59-1.51,3.71-3.02,7.43-4.53,11.14l9.66,2.59c1.43-4.66,3.02-9.24,4.8-13.77,2.35-5.99-7.33-8.52-9.66-2.59h0Z"/>
        <path class="cls-5" d="m105.52,177.66c-.03-.05.2.63.08.57-.08-.04.45-1.52.48-1.6.1-.32.08-.73.35-.83-.36.13-.62.61-1.05.72,2.61-.69,4.26-3.48,3.58-6.1s-3.48-4.27-6.1-3.58c-6.17,1.62-8.79,10.55-5.98,15.81,1.27,2.39,4.55,3.15,6.83,1.83,2.41-1.39,3.1-4.44,1.83-6.83h0Z"/>
        <path class="cls-5" d="m97.35,218.36c-1.95,18.15,5.37,36.75,10.57,53.82l9.68-2.52c-2.74-6.88-5.03-13.89-6.9-21.06-1.62-6.24-11.3-3.71-9.68,2.52,1.87,7.17,4.16,14.18,6.9,21.06,2.31,5.81,11.6,3.79,9.68-2.52-4.96-16.27-12.11-33.95-10.25-51.25.69-6.41-9.32-6.4-10-.05h0Z"/>
        <path class="cls-5" d="m107.41,269.13c1.13,2.51,2.33,4.98,3.61,7.42l6.81-6.84c-.87-.18-1.4-.7-1.58-1.55-1.92-6.11-11.32-3.74-9.68,2.52,1.02,3.9,2.22,7.73,3.7,11.49,1.16,2.96,4.3,7.62,3.86,10.85l9.67.03c-.6-2.1-1.2-4.2-1.8-6.3-1.5-5.24-10.29-4.62-9.84,1.23.55,7.24,2.94,13.93,5.34,20.74,2.58,7.31,5.16,14.62,7.84,21.89,4.84,13.11,10.3,26.05,18.48,37.46,3.71,5.18,12.41.24,8.66-5-7.67-10.7-12.92-22.68-17.46-34.98-2.36-6.39-4.61-12.82-6.9-19.23-2.39-6.71-5.42-13.66-5.96-20.82l-9.84,1.23c.6,2.1,1.2,4.2,1.8,6.3,1.25,4.39,8.95,5.28,9.67.03.63-4.57-.38-7.99-2.21-12.18-2.17-4.98-3.96-10-5.34-15.26l-9.68,2.52c1.09,3.47,3.02,6.07,6.31,7.72,4.45,2.23,9.16-2.36,6.81-6.84-1.28-2.44-2.48-4.9-3.61-7.42-2.64-5.86-11.28-.82-8.66,5h0Z"/>
        <path class="cls-5" d="m150.46,356.75l-.86-.64c-4.26-3.17-8.9,2.86-6.81,6.84,1.1,2.09,2.45,3.92,4.03,5.66l1.01-7.89-.51.38c-1.84,1.36-2.88,3.26-2.34,5.59l.14.62,7.32-5.6c-1.36-.97-2.36-1.36-3.93-1.9-3.48-1.2-7.25,2.63-6.13,6.09,3.4,10.5,12.35,19.81,19.82,27.62,3.65,3.82,6.82,7.47,10.99,10.79s7.9,4.84,13.19,6.08c6.26,1.47,8.87-8.18,2.59-9.66-4.41-1.04-7.08-2.18-10.63-5.04s-6.05-6.1-9.12-9.3c-3.37-3.52-6.62-6.98-9.53-10.9-2.75-3.71-6.2-7.67-7.64-12.12l-6.13,6.09,1.57.93c3.69,2.63,8.21-1.75,7.32-5.6l-.14-.62-2.34,5.59.51-.38c2.69-1.99,3.38-5.28,1.01-7.89-1.03-1.14-1.68-2.18-2.4-3.54l-6.81,6.84.86.64c5.15,3.83,10.07-4.88,4.95-8.69h0Z"/>
        <path class="cls-5" d="m146.44,157.85c12.33-2.65,2.9-19.52-6.48-11.2-4.17,3.7,1.4,11.06,6.06,7.84,3.52-2.43,7.18-4.28,11.35-5.28,3.53-.85,6.39-1.17,9.19-3.68,3.35-3,.52-8.36-3.53-8.51-3.37-.13-6.22.62-9.2,2.18-4.98,2.62-1.66,10.74,3.76,9.17,14.94-4.33,29.51-8.66,43.77-14.9,7.26-3.18,15.67-3.91,23.32-5.89,8-2.07,15.88-4.55,23.66-7.35,6.01-2.17,3.54-11.86-2.52-9.68-7.78,2.8-15.66,5.29-23.66,7.35-7.48,1.93-15.51,2.78-22.72,5.58s-13.89,6.11-21.23,8.42-15.43,4.56-23.15,6.79l3.76,9.17c1.46-.77,2.51-.9,4.14-.84l-3.53-8.51c-.77.69-2.77.6-3.79.83-1.88.42-3.69.98-5.49,1.67-3.27,1.25-6.26,2.83-9.14,4.82l6.06,7.84-4.52-1.59,2.5-4.3-1.15.39c-6.31,1.35-3.76,11.03,2.52,9.68h0Z"/>
        <path class="cls-5" d="m289.76,170.84l.51,2.45,9.67.03.05-1.34-10-.05c-.36,17.31-2.54,34.39-5.03,51.5-.92,6.3,8.73,8.96,9.66,2.59,2.61-17.95,4.99-35.87,5.37-54.04.13-6.52-9.49-6.39-10-.05-.11,1.41.04,2.52.27,3.91.79,4.81,8.92,4.91,9.67.03.59-3.81.26-6.58-1.51-10.04-2.95-5.73-11.6-.71-8.66,5h0Z"/>
        <path class="cls-5" d="m285.17,226.73c-3.98,20.28-6.56,41.62-13.27,61.21-2.09,6.1,7.58,8.65,9.66,2.59,6.71-19.6,9.29-40.93,13.27-61.21,1.24-6.29-8.42-8.92-9.66-2.59h0Z"/>
        <path class="cls-5" d="m273.27,285.49c-3.84,8.52-7.22,17.21-10.09,26.1-1.71,5.3,6.96,9.06,9.17,3.77,2.01-4.79,4.01-9.58,6.02-14.37,2.41-5.76-5.37-10.7-8.69-4.95-2.62,4.54-3.59,9.54-5.27,14.45-1.79,5.22-4.61,10.24-7.38,14.99s-6.41,9.28-9.79,13.77-7.1,9.23-12.07,12.37c-5.42,3.43-.45,12.11,5,8.66,9.89-6.26,17.23-17.17,23.63-26.77,3.35-5.02,6.23-10.61,8.6-16.16s3.05-11.32,5.95-16.35l-8.69-4.95c-2.01,4.79-4.01,9.58-6.02,14.37,3.06,1.26,6.12,2.51,9.17,3.77,2.61-8.08,5.63-15.99,9.12-23.73,2.62-5.81-6.04-10.84-8.69-4.95h0Z"/>
        <path class="cls-5" d="m193.87,407.22c1.49-1.65,3.24-3.22,4.2-5.24s.79-4.34-.83-6.04l-.33-.34c-1.11-1.15-3.22-1.86-4.77-1.28l-.38.14c1.61,2.78,3.21,5.57,4.82,8.35,1.86-1.61,3.76-3.1,5.77-4.51l-6.06-7.84c-1.06,1.34-1.95,2.33-3.4,3.28l6.06,7.84c8.81-8.39,17.61-16.79,26.42-25.18,4.15-3.96,8.19-8.22,12.75-11.72,3.83-2.93,7.7-5.33,9.96-9.76,2.91-5.71-5.76-10.71-8.69-4.95-2.05,4.03-6.83,6.3-10.2,9.16-4.3,3.64-8.27,7.69-12.35,11.58-8.34,7.95-16.69,15.9-25.03,23.85-4.02,3.83,1.3,10.97,6.06,7.84,2.14-1.4,3.94-2.9,5.52-4.92,3.15-4.02-1.02-11.38-6.06-7.84-2.74,1.92-5.37,3.96-7.9,6.15-3.64,3.14.23,10.06,4.82,8.35l.38-.14-4.77-1.28.33.34-.83-6.04c-.55,1.17-1.79,2.24-2.63,3.17-4.29,4.76,2.8,11.82,7.12,7.02h0Z"/>
        <path class="cls-5" d="m103.75,191.91c-.18,18.34,2.25,36.56,7.24,54.21,1.54,5.44,9.72,4.49,9.84-1.23.38-18.56-1.48-37.05-5.49-55.17-1.29-5.81-9.4-4.16-9.84,1.23-1.96,24.17,1.16,48.6,10.07,71.2,1.92,4.86,10.03,4.93,9.84-1.23-.7-22.64-1.41-45.27-2.11-67.91l-10-.05c2.86,25.52,6.59,50.93,11.24,76.19,1.04,5.63,9.89,4.36,9.84-1.23-.23-24.38-.46-48.77-.69-73.15l-9.84,1.23c3.58,27.52,7.16,55.03,10.73,82.55.73,5.63,10.06,4.37,9.84-1.23-1.23-30.99-2.46-61.98-3.68-92.97-.25-6.41-10.06-6.52-10-.05.33,35.44,3.07,70.79,8.07,105.87.81,5.7,9.83,4.29,9.84-1.23.09-33.85,2.16-67.65,6.22-101.26l-10-.05c2.29,33.3,4.58,66.61,6.88,99.91.44,6.36,10.12,6.56,10,.05-.63-35.59-1.26-71.17-1.89-106.76-.11-6.44-10.11-6.5-10-.05.71,42.41,5.67,84.56,10.7,126.63.75,6.3,10.7,6.47,10,.05-4.25-39.33-5.2-78.93-2.85-118.42l-10-.05c-2.3,50.75,11.01,100.3,14.7,150.65l9.84-1.23c-9.15-47.92-7.72-96.9-6.26-145.42.2-6.51-9.49-6.39-10-.05-3.95,49.35-.52,99.07,10.02,147.44,1.19,5.47,10.17,4.47,9.84-1.23-2.83-49.41-4.42-99.37,4.46-148.29l-9.83-1.32c.52,22.16,1.04,44.33,1.56,66.49.26,10.92.51,21.83.77,32.75s1.17,22.02-.84,32.78l9.67.03c-6.07-43.33-4.6-87.57,4.18-130.42l-9.83-1.32c1.32,21.45,2.64,42.9,3.96,64.35.65,10.56,1.3,21.12,1.95,31.68s2.43,21.45-.66,31.56l9.67.03c-8.99-43.62-7.38-88.88,4.54-131.79l-9.83-1.32c2.1,37.07.75,74.31-4.26,111.11l9.67.03c-4.89-36.03-.79-72.8,11.41-107.02l-6.12,3.54c-2.1-.83-.91,3.48-.85,4.77.1,2.3.19,4.61.27,6.91.13,3.95.22,7.91.28,11.86.12,8.9.06,17.79-.2,26.69-.51,17.46-1.78,34.89-3.74,52.24l10,.05c-3.01-37.67.07-75.49,9.26-112.15l-9.83-1.32c2.21,36.67,3.69,73.39,4.44,110.12l9.84-1.23c-5.63-38.69-2.88-77.92-.17-116.73.34-4.84-5.49-6-8.56-3.54-4.3,3.45-6.84,8.26-9.12,13.18s-4.1,9.99-8.75,12.73l6.83,1.83c-3.75-6.58-3.35-14.02-3.09-21.34s.41-14.48-1.65-21.53c-1.08-3.7-5.61-4.94-8.4-2.25-6.54,6.29-9.83,15.41-13.74,23.41-4.64,9.51-9.29,19.01-13.93,28.52l9.34,2.5c.64-16.7,3.53-33.05,8.56-48.98,1.72-5.45-6.41-8.69-9.17-3.77-7.76,13.82-8.76,31.52-19.52,43.58l8.56,3.54c-.4-10.01.39-19.86,2.51-29.65,1.15-5.31-6.49-9.07-9.17-3.77-5.48,10.82-10.95,21.64-16.43,32.46l9.34,2.5c.52-13.32,5.64-25.67,10.82-37.76-3.06-1.26-6.12-2.51-9.17-3.77-2.95,12.35-8.11,23.73-15.4,34.13l9.34,2.5c.53-13.85,6.34-26.62,16.27-36.25l-8.4-2.25c1.45,5.62-.3,10.76-4.58,14.6l8.4,2.25c-1.52-6.4-.29-13.08,3.83-18.3l-7.89-1.01c1.36,2.53.93,4.72-.6,7.01l9.18,1.22c-1.33-3.56-1.2-6.48.83-9.77l-9.18-1.22c.64,1.37.58,2.67-.18,3.91l9.83,1.32c.29-2.41,1.83-4.04,3.84-5.16l-7.34-3.07c.98,2.91,1.44,5.69.95,8.75-1,6.23,8.29,8.99,9.66,2.59,1.13-5.25,2.25-10.49,3.38-15.74l-9.83-1.32c-.65,8-1.31,16-1.96,24.01-.47,5.8,8.3,6.62,9.83,1.32,2-6.9,3.99-13.81,5.99-20.71l-9.83-1.32c.12,6.18.24,12.37.36,18.55.09,4.72,7.07,7.22,9.34,2.5,2.64-5.48,4.63-11.12,5.84-17.09l-9.83-1.32c-.11,7.3-.22,14.59-.33,21.89-.07,4.83,7.09,7.08,9.34,2.5,4.03-8.16,5.84-16.9,4.94-25.98-.34-3.39-4.08-6.74-7.5-4.36-3.74,2.6-6.2,5.81-7.25,10.28-1.5,6.37,7.45,8.54,9.66,2.59,1.88-5.06,3.76-10.12,5.64-15.17,1.71-4.59-5.29-8.63-8.39-4.8-3.32,4.1-6.36,8.36-9.06,12.9,3.06,1.26,6.12,2.51,9.17,3.77,1.02-3.45,2.52-6.57,4.77-9.4-2.8-1.6-5.59-3.2-8.39-4.8-1.22,4.08-2.81,7.83-4.87,11.55-2.63,4.75,4.35,10.64,7.91,5.99,3.37-4.4,7.24-7.99,11.99-10.85l-7.5-4.36c-.25,7.17-2.01,13.9-5.33,20.27,3.06,1.26,6.12,2.51,9.17,3.77,2.18-6.49,4.89-12.68,8.13-18.71l-9.34-2.5c-.15,3.57-.8,7-2.19,10.31,3.06,1.26,6.12,2.51,9.17,3.77,1.67-6.23,4.19-11.9,7.62-17.35-3.06-1.26-6.12-2.51-9.17-3.77-.65,4.08-1.74,7.82-3.59,11.53l9.34,2.5c-.47-4.45,0-8.28,1.58-12.48,1.86-4.95-5.05-7.99-8.39-4.8-2.25,2.14-4.5,4.28-6.75,6.42l7.91,5.99c2.65-4.99,6.64-8.5,12.08-10.17l-6.26-4.87c.22,4.84-1.52,8.62-5.2,11.73l8.56,3.54c-.22-3.85,1.07-6.36,4.08-8.71l-8.56-3.54c-.07,5.95-1.11,11.74-3.42,17.25,3.06,1.26,6.12,2.51,9.17,3.77,2.1-5.88,5.25-11.18,9.37-15.87l-8.4-2.25c1.07,3.11.72,5.41-1.18,8.11l9.34,2.5c-.16-4.08,1.11-6.98,4.14-9.69l-8.4-2.25c.57,3.96-.51,7.45-2.62,10.77l9.34,2.5c.13-4.75,1.4-8.88,3.84-12.95l-8.69-4.95c-1.23,2.37-2.68,4.2-4.9,5.7l7.34,3.07c-.38-1.3-.22-1.96.1-3.2-.03.12,2.28-1.35.58-1.06l6.26,4.87c-.3-3.43.5-6.7,3.41-8.86l-6.83-1.83c1.5,2.84,1.24,5.56-.42,8.28l9.18,1.22c-.5-3.62,1.1-6.61,3.7-8.96l-8.4-2.25c.95,3.83.5,7.19-1.43,10.66,3.06,1.26,6.12,2.51,9.17,3.77.97-5.02,3.07-9.14,6.69-12.75l-8.4-2.25c.57,3.54-.28,7.11-2.49,9.96,2.8,1.6,5.59,3.2,8.39,4.8.88-5.32,3.58-9.17,8.41-11.62l-7.34-3.07c.53,1.98.46,3.7-.89,5.37l8.56,3.54c.48-4.2,2.23-7.87,5.01-11.02l-7.89-1.01c1.75,2.83,1.8,5.32.6,8.4l9.83,1.32c-.14-3.53.64-6.57,2.97-9.32l-8.56-3.54c.09,4.35-.31,8.45-1.32,12.69l9.83,1.32c.04-3.22.74-5.89,2.3-8.69l-9.18-1.22c.82,2.1,1.24,3.87.79,6.13l9.83,1.32c-.2-3.1-.08-6.03.54-9.08l-9.83-1.32c.31,3.07,1.08,5.13,3.24,7.4,2.73,2.87,9.06.84,8.51-3.53-.41-3.29-.82-6.57-1.23-9.86l-9.84,1.23c1.8,10.55,6.26,19.94,12.81,28.36,3.31,4.26,9.15-.54,8.35-4.82-.94-4.99-2.56-9.68-4.7-14.27s-9.28-2.21-9.33,2.47c-.07,6.62,1.52,12.77,4.71,18.56,2.29,4.15,9.75,2.58,9.33-2.47-.31-3.78-.62-7.56-.94-11.35l-9.84,1.23c1.81,6.77,5.08,12.64,9.76,17.85,2.37,2.63,6.08,1.33,7.86-1.08,3.46-4.72,4.32-10.19,3.29-15.87-.88-4.85-8.74-4.86-9.67-.03-1.35,7.03-.21,13.88,4.01,19.76,2.62,3.65,7.58,3,9.16-1.21,1.36-3.63,1.82-7.23,1.4-11.08-.58-5.25-8.39-7.29-9.83-1.32-1.64,6.8-.88,13.16,2.03,19.49,1.54,3.34,7.14,3.27,8.67-.02,2.55-5.47,4.46-11.06,5.6-16.99l-9.83-1.32c-.13,4.76-.26,9.51-.39,14.27-.15,5.6,8.64,6.94,9.83,1.32s2.39-11.26,3.58-16.89c1.33-6.27-7.86-8.81-9.66-2.59-1.44,4.98-2.2,10.05-2.34,15.23-.16,5.86,8.12,6.58,9.83,1.32,1.53-4.71,3.05-9.42,4.58-14.14l-9.66-2.59-1.45,9.1c-1,6.25,7.74,8.87,9.66,2.59,1.11-3.61,2.21-7.22,3.32-10.83l-9.67-.03c.45,2.2.55,4.28.45,6.51-.23,4.85,7.2,7.06,9.34,2.5.63-1.35,1.27-2.69,1.9-4.04-3.06-1.26-6.12-2.51-9.17-3.77-2.55,13.55-6.91,26.51-13.22,38.77l9.18,1.22c-4.31-11.09,1.92-23.22-.94-34.73-1.27-5.11-8.12-4.56-9.67-.03-6.38,18.59-13.99,36.68-22.79,54.26l5.64-2.35c.95,1.09,1.23.99.82-.3,0-1.03.06-2.06.16-3.08.15-2.6.35-5.2.52-7.79.32-4.87.65-9.74.97-14.61.67-10.07,1.34-20.13,2.01-30.2.41-6.1-7.93-6.23-9.83-1.32-7.32,18.91-14.64,37.82-21.96,56.73l9.83,1.32c2.9-21.75,5.8-43.5,8.69-65.26.79-5.92-8.1-6.36-9.83-1.32-6.11,17.83-12.23,35.66-18.34,53.49l9.83,1.32c1.37-16.19,2.74-32.37,4.12-48.56.46-5.46-6.77-6.2-9.34-2.5-13.19,18.95-12.8,43.49-24.94,62.89,3.06,1.26,6.12,2.51,9.17,3.77,3.38-20.59,6.77-41.18,10.15-61.77,1.04-6.3-7.57-8.77-9.66-2.59-6.75,19.97-13.5,39.95-20.25,59.92l6.12-3.54c1.3,1.96,1.81,2.11,1.54.42.23-1.21.47-2.42.71-3.63.37-1.87.75-3.74,1.15-5.6.98-4.66,2.03-9.31,3.13-13.94,2.14-8.96,4.54-17.85,7.14-26.69l-9.66-2.59c-4.47,18-10.37,35.58-17.82,52.57l9.34,2.5c.1-17.65,5.14-34.5,14.63-49.37-3.06-1.26-6.12-2.51-9.17-3.77-4.37,26.52-7.56,53.22-9.52,80.02-.36,4.93,7.19,6.95,9.34,2.5,11.82-24.39,15.45-52.23,30.14-75.27l-9.34-2.5c-.09,14.81,2.26,29.44,7.08,43.45.54,1.56,1.75,3.31,3.55,3.57,10.48,1.54,13.96-8.74,17.16-16.73,4.35-10.87,8.22-21.93,11.68-33.12l-9.66-2.59c-1.36,7.18-2.72,14.35-4.08,21.53l9.83,1.32c.67-9.71-.09-19.34-2.16-28.85-.82-3.78-5.8-4.87-8.4-2.25-4.6,4.64-5.44,11.2-2.23,16.88,1.69,2.99,5.5,3.12,7.89,1.01,4.26-3.75,7.05-8.48,8.43-13.97s-6.19-8.61-9.17-3.77c-3.27,5.3-4.94,10.94-5.35,17.14s7.94,6.25,9.83,1.32c1.45-3.78,3.89-8.03,4.62-12.03,1.45-2.2.83-2.59-1.86-1.16.26.72.41,1.46.44,2.22.33,2.18.4,4.43.6,6.63.78,8.85,1.55,17.71,2.33,26.56.38,4.36,7.18,7.62,9.34,2.5,3.07-7.25,5.34-14.61,6.59-22.39,1.04-6.41-7.3-8.58-9.66-2.59-3.25,8.26-6.51,16.52-9.76,24.78l9.66,2.59c2.03-9.13,5.44-17.58,10.33-25.56-3.06-1.26-6.12-2.51-9.17-3.77-3.69,13.56-7.39,27.12-11.08,40.68-1.44,5.29,6.91,9.14,9.17,3.77,3.2-7.58,7.8-23.32-1.36-28.83s-17.49,6.74-21.57,13.29c-11.34,18.2-15.31,39.8-25.32,58.65,3.06,1.26,6.12,2.51,9.17,3.77,4.03-15.7,7.71-31.49,10.97-47.37,1.63-7.93,3.28-15.89,4.6-23.88,1.03-6.21-4.63-9.81-10.21-7.07-5.15,2.53-9.06,8.62-12.36,13.12-4.15,5.67-7.71,11.73-11.08,17.88-3.14,5.73-6.12,11.56-9.29,17.27-1.58,2.85-3.21,5.68-4.93,8.45-1,1.61-2.02,3.21-3.1,4.77-.47.7-.96,1.39-1.47,2.05-1.14,1.13-1.41,1.36-.81.68l3.71,4.86c-1.93-18.18.22-36.16,6.42-53.37l-9.83-1.32c-1.71,16.99-5.96,33.7-12.62,49.42l9.34,2.5c-.42-14.99,1.49-29.71,5.71-44.1l-9.83-1.32c-1.57,14.89-4.77,29.5-9.37,43.74l9.83,1.32c1.1-13.41,2.2-26.82,3.3-40.23.54-6.53-9.19-6.27-10-.05-2.63,20.16-4.57,40.4-5.74,60.7-.57,9.82-.94,19.65-1.17,29.48-.22,9.53-.41,18.93-3.66,28l4.86-3.71c.4.04-.79-1.52-1.17-2.21-.86-1.58-1.54-3.27-2.29-4.9-1.75-3.78-3.5-7.56-5.26-11.33-3.5-7.56-7.01-15.11-10.51-22.67-.98-2.1-3.54-2.68-5.59-2.34-13.42,2.26-8.94,22.92-7.65,31.79,2.3,15.84,6.75,31.25,11.18,46.6l9.68-2.52c-4.27-14.68-8.55-29.36-12.84-44.04-3.68-12.57-6.58-25.68-14.96-36.1-3.47-4.31-8.95.6-8.35,4.82,3.42,23.99,10.74,47.09,18.15,70.1,1.96,6.1,11.6,3.64,9.68-2.52-8.55-27.39-17.1-54.79-25.64-82.18-1.6-5.11-10.41-4.68-9.84,1.23,2.59,26.78,13.42,51.26,24.49,75.46,2.38,5.2,10.61,1.57,9.17-3.76-6.12-22.72-14.31-44.79-24.4-66.04-2.6-5.47-9.96-1.39-9.17,3.76,4.33,28.22,14.29,55.34,29.15,79.71,2.69,4.41,8.94,2.38,9.33-2.47,2.26-28.39-5.97-56.23-5.3-84.59l-9.84,1.23c4.84,28.71,11.04,57.17,18.58,85.3,1.41,5.27,10.55,4.55,9.84-1.23-2.93-23.83-7.24-47.42-13.07-70.71-1.35-5.38-10.2-4.53-9.84,1.23,1.61,26,6.81,51.58,15.69,76.08,1.8,4.96,10.15,4.83,9.84-1.23-1.45-28.51-4.08-56.94-7.8-85.24-.73-5.57-10.37-4.4-9.84,1.23,2.4,25.78,6.42,51.36,12.14,76.62,1.45,6.4,10.63,3.7,9.68-2.52-4.73-31.03-9.46-62.07-14.19-93.1-.89-5.85-9.52-4.13-9.84,1.23-1.96,33.17,4.33,66.16,17.94,96.43,1.63,3.62,6.88,2.94,8.67-.02,4.22-6.99,5.08-14.92,5.25-22.93.2-9.33.3-18.66.75-27.98.46-9.54,1.13-19.06,2.02-28.57.84-9.02,1.19-18.65,5.78-26.7l-9.18-1.22c9.17,29.6,7.29,61.31,16.77,90.83,1.08,3.36,4.27,4.4,7.34,3.07,5.75-2.49,6.56-9.04,7.46-14.5,1.45-8.77,2.9-17.55,4.36-26.32,2.85-17.22,5.7-34.44,8.55-51.66l-9.83-1.32c-2.52,24.6-4.96,49.26-3.69,74.02.2,3.99,5.56,7.11,8.56,3.54,4.27-5.07,5.77-10.91,7.1-17.28,1.53-7.3,2.99-14.62,4.4-21.95,2.88-14.97,5.52-30,7.93-45.05l-9.83-1.32c-2.9,29.1-7.07,58.04-12.46,86.78l9.83,1.32c1.3-18.55,4.06-36.95,8.36-55.05,2.05-8.63,4.43-17.18,7.15-25.63,2.59-8.05,5.4-16.16,11.18-22.52l-8.56-3.54c-3.33,33.28-10.32,66.07-20.68,97.87l9.66,2.59c7.21-39.13,16.16-78.45,34.98-113.84l-9.34-2.5c-2.51,31.36-10.23,62.22-22.85,91.05l5.64-2.35c.85,1.21,1.05,1.14.61-.2v-1.15c-.05-1.87.24-3.81.37-5.69.27-3.79.59-7.58.97-11.36.81-8.09,1.89-16.14,3.23-24.16,2.56-15.32,6.08-30.45,10.42-45.35l-9.66-2.59c-3.45,23.44-8.93,46.49-16.42,68.97l9.83,1.32c3.23-26.02,10.16-51.59,20.5-75.68-3.06-1.26-6.12-2.51-9.17-3.77-6.2,22.62-11.05,45.56-14.55,68.75-.95,6.29,7.54,8.79,9.66,2.59,7.49-21.94,15.09-43.89,26.5-64.17l-9.18-1.22c1.83,5.3.89,10.45-.17,15.81-1.13,5.68-2.3,11.35-3.52,17.02-2.36,11.01-4.87,21.99-7.52,32.94l9.66,2.59c3.09-22.27,9.74-43.78,19.97-63.81l-9.34-2.5c-1.95,19.77-5.84,39.23-11.5,58.27l9.66,2.59c4.15-20.07,10.35-39.63,18.69-58.35l-9.34-2.5c0,15.87-3.09,31.49-9.41,46.06,3.06,1.26,6.12,2.51,9.17,3.77,3.57-15.37,7.14-30.73,10.71-46.1l-9.83-1.32c.68,10.48-.29,20.7-3.01,30.85l9.66,2.59c1.04-7.08,2.51-14.06,4.42-20.96l-9.66-2.59c-5,23.52-10.87,46.84-17.6,69.93l9.83,1.32c1.91-15.64,6.82-30.7,14.28-44.55l-9.34-2.5c-2.28,19.91-7.96,39.31-16.69,57.34l9.34,2.5c-1.96-17.24,2.3-33.99,12.31-48.17l-9.34-2.5c-.85,20.45-5.26,40.63-13.22,59.5l9.34,2.5c.79-14.98,4.91-29.36,12.1-42.52l-9.34-2.5c-.57,22.05-7.14,43.23-18.99,61.82l5.64-2.35c-2.45-.58-1.82-8.96-1.79-10.82.07-4.47.65-8.87,1.73-13.2,2.16-8.67,6.19-16.74,11.89-23.63l-8.56-3.54c-.06,22.75-6.24,44.79-17.96,64.28l8.67-.02c-3.36-4.53-2.99-9.86-2.4-15.24.63-5.74,1.44-11.48,2.51-17.15,2.07-10.92,5.37-21.81,12.56-30.51l-8.56-3.54c.45,18.9-4.41,37.15-14.21,53.32l3.08-2.36-.95.19,3.74.5c.82.45.11,0,.13-1.05.02-1.13-.13-2.3-.16-3.43-.08-2.57-.04-5.15.09-7.72.26-5.01.94-9.98,2.03-14.88,2.17-9.71,5.87-18.85,10.91-27.41l-5.64,2.35c-.51-.11.21.39.11,1.26-.13,1.11-.05,2.32-.12,3.45-.22,3.27-.57,6.55-1.02,9.8-.85,6.12-2.07,12.2-3.61,18.19s-3.22,11.3-5.27,16.81c-1.48,3.97-3.41,12.32-8.42,13.13l6.1,3.58c-4.8-19.35-1.6-39.62,8.77-56.63l-9.34-2.5c-.76,26.82-7.71,53-20.37,76.65l9.18,1.22c-3.61-16.85.32-34.05,10.36-47.97l-9.34-2.5c-.79,21.94-8.75,43.17-22.77,60.1l6.04-.83c-5.42-3.28-5.36-10.94-5.01-16.53.52-8.17,2.56-16.26,5.8-23.76l-4.37,2.52c-3.56.14-1.43-2.4-1.67.35-.12,1.33.36,2.87.46,4.23.19,2.63.24,5.28.15,7.92-.2,5.67-1.13,11.25-2.68,16.71-3.03,10.69-8.53,20.43-16.06,28.59l7.07-.05c-9.91-12.69-11.54-30.82-4.49-45.2l-9.18-1.22c4.24,18.43.32,37.49-10.45,52.97l4.37-2.52c-2.89-.04-4.9-12.51-5.25-14.57-.99-5.79-1-11.8-.16-17.61-3.05.4-6.11.8-9.16,1.21,6.1,10.24,6.79,22.07,2.36,33.08l4.86-3.71c-2.68.11-5.12-10.51-5.84-12.52-1.97-5.5-3.94-11.01-5.92-16.51s-9.27-4.49-9.84,1.23c-.9,9-.42,17.88,1.21,26.76l9.68-2.52c-3.06-10.27-6.75-20.3-10.97-30.14-1.96-4.58-9.63-2.28-9.33,2.47.52,8.34,3.03,16.04,7.93,22.84,3.72,5.16,11.58.85,8.66-5-4.8-9.61-10.3-18.79-16.51-27.55-2.52-3.55-9.93-2.99-9.33,2.47,1.39,12.81,7.94,23.76,18.79,30.8,3.36,2.18,7.22-.82,7.48-4.32.11-1.49.22-2.99.32-4.48l-9.33,2.47c3.88,9.42,8.84,18.22,14.9,26.41,1.95,2.64,7.04,3.89,8.67-.02,1.95-4.65,2.49-9.2.64-14-2.28-5.89-11.06-3.92-9.68,2.52,1.29,6.03,2.98,11.91,5.06,17.71,2.15,5.97,11.23,3.83,9.68-2.52-1.87-7.65-5.68-14.32-11.28-19.85-3.27-3.22-8.12-.59-8.51,3.53-.9,9.51,3.77,22.63,13.42,26.44,4.75,1.88,9.25-.81,10-5.8.87-5.81-1.63-12.35-4.4-17.31-2.4-4.3-9.4-2.49-9.33,2.47.12,8.42,2.5,16.32,7.3,23.27,2.26,3.27,8.23,3.38,9.16-1.21,1.36-6.74,1.4-13.27.14-20.03-1.08-5.81-9.53-4.18-9.84,1.23-.5,8.59,2.77,16.7,8.96,22.65,3.38,3.25,7.97.55,8.51-3.53,1.59-12.11-.36-23.89-5.13-35.08-1.75-4.09-8.2-2.7-9.16,1.21-2.92,11.94-1.53,23.93,3.88,34.94,1.58,3.22,5.55,2.87,7.89,1.01,6.2-4.93,3.76-16.09,3.54-22.91-.32-9.89-.76-19.78-1.31-29.66-.36-6.52-9.33-6.39-10-.05-1.28,12.03-1.17,24.05.31,36.05.66,5.34,8.12,7.18,9.83,1.32,4.34-14.86,6.25-30.26,5.63-45.72-.26-6.54-9.36-6.38-10-.05-1.35,13.3-2.71,26.59-4.06,39.89l10,.05c-.62-18.3-2.49-36.51-5.57-54.56-.92-5.44-8.1-4.19-9.67-.03-6.42,16.99-7.18,35.5-2.38,53,1.36,4.95,8.17,4.72,9.67.03,5.25-16.39,6.25-33.52,3.27-50.45-.67-3.83-5.9-4.82-8.4-2.25-7.9,8.12-9.58,19.45-5.25,29.75,1.42,3.37,7.24,3.25,8.67-.02,4.05-9.23,7.05-18.72,8.78-28.66l-9.67-.03c5.17,14.53-.8,30.2,5.72,44.63,1.93,4.27,7.91,2.5,9.16-1.21,5.03-14.85,6.03-30.43,3.33-45.85-.85-4.87-8.76-4.85-9.67-.03-3,15.84-3.89,31.88-2.43,47.94.59,6.52,9.16,6.39,10,.05,2.29-17.3,4.57-34.59,6.86-51.89l-10-.05c.6,16.33,1.2,32.67,1.81,49,.24,6.61,9.2,6.29,10,.05s1.85-12.69,3.1-18.98c.32-1.59,2.07-14.69,3.84-14.89-1.6-1.25-3.21-2.49-4.81-3.74,3.44,12.13,5.26,24.57,7,37.04.68,4.85,8.96,4.87,9.67.03,1.71-11.69,4.55-23.1,8.52-34.23l-9.67-.03c1.5,4.45,2,8.68,1.14,13.33-1.17,6.25,8.04,8.91,9.66,2.59,1.31-5.1,3.3-9.74,6.06-14.22l-9.18-1.22c.54,3.6.66,7.18.53,10.81-.23,6.55,9.34,6.32,10,.05.66-6.27,2.06-12.34,4.01-18.33l-9.83-1.32c.16,4.71.32,9.42.47,14.12.19,5.53,8.41,7,9.83,1.32,1.66-6.67,3.33-13.33,4.99-20l-9.67-.03c1.25,4.23,1.64,8.19,1.32,12.59-.48,6.53,9.25,6.3,10,.05.51-4.26,1.69-8.41,3.44-12.32-2.89,0-5.78.02-8.67.02,1.05,1.44,1.49,2.44,1.78,4.21.71,4.27,7.31,4.98,9.18,1.22,1.77-3.56,3.88-6.42,6.78-9.14l-7.12-7.02c-2.63,3.17-5.25,6.34-7.88,9.52l8.56,3.54c0-3.1,1.19-5.5,3.86-7.16l-6.84-6.81c-12.79,19.69-27.08,38.27-42.82,55.7l7.12,7.02c5.27-6.84,10.54-13.68,15.8-20.52,3.83-4.98-2.27-11.52-7.12-7.02-13.21,12.26-25.89,25.05-38.03,38.35l7.91,5.99c7.53-10.25,15.06-20.5,22.59-30.75l-8.69-4.95c-5.69,9.07-12.15,17.51-19.42,25.37l7.91,5.99c4.05-9.32,9.38-17.81,16.17-25.37l-7.91-5.99c-6.85,10.95-14.72,21.07-23.61,30.44,2.8,1.6,5.59,3.2,8.39,4.8,2.79-7.53,6.91-14.41,12.16-20.48l-7.91-5.99c-3.67,5.57-8,10.46-12.97,14.91l8.56,3.54c-.08-1.48-.17-2.96-.25-4.43-.36-6.41-10.36-6.49-10-.05.08,1.48.17,2.96.25,4.43.25,4.46,5.25,6.51,8.56,3.54,5.61-5.02,10.4-10.7,14.54-16.98,3.09-4.68-4.18-10.29-7.91-5.99-6.44,7.44-11.27,15.69-14.7,24.91-1.78,4.79,5.12,8.26,8.39,4.8,9.47-9.97,17.88-20.85,25.17-32.51,2.98-4.76-4.09-10.23-7.91-5.99-7.36,8.19-13.35,17.34-17.74,27.44-2.1,4.83,3.75,10.48,7.91,5.99,7.84-8.48,14.85-17.65,20.99-27.44,3.49-5.57-4.97-10.02-8.69-4.95-7.53,10.25-15.06,20.5-22.59,30.75-3.36,4.57,4.12,10.13,7.91,5.99,12.14-13.31,24.83-26.1,38.03-38.35l-7.12-7.02c-5.27,6.84-10.54,13.68-15.8,20.52-3.81,4.94,2.7,11.92,7.12,7.02,16.3-18.05,31.14-37.37,44.38-57.76,2.71-4.17-2.72-9.37-6.84-6.81-5.64,3.5-8.88,9.09-8.86,15.77,0,4.06,5.67,7.03,8.56,3.54,2.63-3.17,5.25-6.34,7.88-9.52,4.06-4.9-2.36-11.49-7.12-7.02-3.45,3.24-6.24,6.97-8.35,11.21l9.18,1.22c-.42-2.51-1.31-4.64-2.8-6.69-1.99-2.72-6.96-3.81-8.67.02-2.5,5.59-4.02,11.14-4.75,17.22l10,.05c.38-5.16-.18-10.2-1.64-15.16-1.37-4.66-8.42-5.02-9.67-.03-1.66,6.67-3.33,13.33-4.99,20l9.83,1.32c-.16-4.71-.32-9.42-.47-14.12-.19-5.74-8.06-6.74-9.83-1.32-2.22,6.82-3.6,13.74-4.35,20.86l10,.05c.16-4.51-.18-8.92-.85-13.38-.69-4.59-7.1-4.6-9.18-1.22-3.19,5.17-5.52,10.71-7.03,16.59l9.66,2.59c1.18-6.3.95-12.34-1.11-18.43-1.64-4.85-7.97-4.8-9.67-.03-3.97,11.13-6.81,22.54-8.52,34.23l9.67.03c-1.74-12.46-3.56-24.91-7-37.04-.54-1.92-2.62-3.99-4.81-3.74-8.17.94-10.39,7.93-12,15.01-2.16,9.52-3.76,19.13-5,28.81l10,.05c-.6-16.33-1.2-32.67-1.81-49-.24-6.62-9.18-6.28-10-.05-2.29,17.3-4.57,34.59-6.86,51.89l10,.05c-1.38-15.2-.76-30.41,2.08-45.41l-9.67-.03c2.4,13.74,1.15,27.55-3.31,40.74,3.05-.4,6.11-.8,9.16-1.21-5.92-13.11.14-28.55-4.7-42.15-1.5-4.22-8.73-5.43-9.67-.03-1.58,9.06-4.11,17.86-7.81,26.29,2.89,0,5.78-.02,8.67-.02-2.57-6.11-.8-13.09,3.71-17.73l-8.4-2.25c2.68,15.23,1.46,30.63-3.25,45.34l9.67.03c-4.38-15.98-3.49-32.4,2.36-47.89l-9.67-.03c2.93,17.21,4.66,34.55,5.24,51.99.22,6.54,9.36,6.37,10,.05,1.35-13.3,2.71-26.59,4.06-39.89l-10-.05c.59,14.68-1.16,29.09-5.28,43.19l9.83,1.32c-1.48-12-1.58-24.02-.31-36.05l-10-.05c.44,7.97.82,15.94,1.11,23.92.14,3.83.26,7.66.37,11.49.07,2.36,1.25,8.53-.84,10.19l7.89,1.01c-4.21-8.59-5.15-18.08-2.88-27.36-3.05.4-6.11.8-9.16,1.21,4.06,9.53,5.13,19.8,3.79,30.02l8.51-3.53c-4.39-4.22-6.33-9.41-5.98-15.48l-9.84,1.23c.93,5,.88,9.93-.12,14.92,3.05-.4,6.11-.8,9.16-1.21-3.83-5.54-5.86-11.46-5.96-18.21-3.11.82-6.22,1.65-9.33,2.47,1.14,2.04,4.44,8.5,3.12,10.91l3.08-2.36c-1.24.46-4.91-6.25-5.22-6.97-1.39-3.2-1.66-6.4-1.34-9.85l-8.51,3.53c4.37,4.31,7.16,9.29,8.62,15.25l9.68-2.52c-2.08-5.8-3.77-11.69-5.06-17.71l-9.68,2.52c.85,2.21,1.31,4.24.35,6.52,2.89,0,5.78-.02,8.67-.02-6.06-8.19-11.02-16.99-14.9-26.41-2.06-5.01-9.01-1.89-9.33,2.47-.11,1.49-.22,2.99-.32,4.48l7.48-4.32c-7.58-4.92-12.76-13.03-13.74-22.06-3.11.82-6.22,1.65-9.33,2.47,6.21,8.76,11.71,17.94,16.51,27.55l8.66-5c-3.86-5.36-6.18-11.17-6.59-17.79l-9.33,2.47c3.87,9.02,7.15,18.26,9.95,27.66,1.85,6.23,10.84,3.77,9.68-2.52-1.48-8.03-1.7-16.07-.89-24.19l-9.84,1.23c3.06,8.56,5.96,17.2,9.2,25.69,2.1,5.5,5.54,11.1,12.18,10.83,2.47-.1,3.98-1.54,4.86-3.71,5.36-13.3,3.96-28.39-3.36-40.67-2.01-3.38-8.5-3.31-9.16,1.21-1.57,10.79-1.02,21.72,2.53,32.1,1.48,4.32,3.35,9.31,7.63,11.6,4.62,2.48,7.99.49,10.59-3.45,11.29-17.09,14.65-38.6,10.08-58.45-.94-4.1-7.25-5.16-9.18-1.22-9.22,18.81-6.68,40.83,6.16,57.28,1.63,2.09,5.42,1.73,7.07-.05,10.12-10.96,17.2-24.52,20.08-39.19,1.4-7.16,1.94-14.5,1.33-21.78-.46-5.49-1.18-14.15-8.68-13.84-1.65.07-3.66.88-4.37,2.52-6.38,14.76-14.56,43.34,2.94,53.94,1.75,1.06,4.67.82,6.04-.83,15.73-19,24.76-42.39,25.64-67.07.2-5.45-6.64-6.25-9.34-2.5-11.53,15.99-15.47,36.23-11.36,55.44.91,4.25,7.17,4.99,9.18,1.22,13.47-25.16,20.88-53.03,21.69-81.55.15-5.15-6.82-6.65-9.34-2.5-11.7,19.17-15.17,42.32-9.76,64.1.69,2.8,3.46,4.01,6.1,3.58,7.53-1.23,10.81-8.39,13.4-14.72,3.44-8.41,6.25-17.07,8.31-25.92,2.05-8.82,3.49-17.88,4.09-26.92.39-5.81-.65-12.97-7.4-14.42-2.21-.47-4.47.37-5.64,2.35-6.32,10.73-10.8,22.54-12.87,34.83-1.02,6.07-1.58,12.21-1.51,18.37.05,4.88-.31,11.38,4.27,14.48,9.62,6.51,16.58-16.95,18.63-22.98,4.03-11.82,5.81-24.36,5.51-36.83-.1-4.02-5.63-7.08-8.56-3.54-8.71,10.53-13.01,23.23-15.39,36.54-2.08,11.66-6.52,27.99,1.19,38.37,2.22,3,6.56,3.5,8.67-.02,12.57-20.89,19.21-44.8,19.27-69.18.01-4.07-5.68-7.02-8.56-3.54-8.21,9.93-13.75,21.65-15.68,34.44-1.33,8.82-3.39,27.1,8.39,29.89,2.26.53,4.41-.43,5.64-2.35,12.74-19.98,19.69-43.04,20.3-66.72.13-4.99-6.96-6.87-9.34-2.5-8.02,14.67-12.53,30.73-13.41,47.42-.25,4.76,7.37,7.19,9.34,2.5,8.66-20.52,13.61-42.13,14.53-64.4.23-5.42-6.68-6.28-9.34-2.5-10.85,15.36-15.76,34.38-13.63,53.07.5,4.42,6.91,7.52,9.34,2.5,9.52-19.67,15.52-40.53,18.01-62.24.58-5.1-7.1-6.67-9.34-2.5-8.33,15.45-13.47,32.04-15.6,49.45-.71,5.79,8.3,6.58,9.83,1.32,6.73-23.09,12.6-46.41,17.6-69.93,1.33-6.27-7.93-8.84-9.66-2.59-1.91,6.9-3.38,13.88-4.42,20.96-.91,6.2,7.95,8.97,9.66,2.59,2.93-10.91,4.08-22.11,3.35-33.38-.35-5.4-8.48-7.15-9.83-1.32-3.57,15.37-7.14,30.73-10.71,46.1-1.22,5.25,6.82,9.21,9.17,3.77,7.02-16.19,10.73-33.3,10.73-50.96,0-4.69-7.22-7.27-9.34-2.5-8.7,19.52-15.33,39.79-19.66,60.72-1.3,6.28,7.81,8.8,9.66,2.59,5.9-19.86,9.81-40.19,11.85-60.8.49-5.02-7.15-6.8-9.34-2.5-10.61,20.78-17.73,43.06-20.94,66.18-.86,6.18,8.1,9.03,9.66,2.59,2.95-12.2,5.73-24.44,8.32-36.72,2.26-10.74,6.64-23.33,2.9-34.16-1.37-3.97-6.92-5.24-9.18-1.22-11.81,21-19.71,43.81-27.47,66.53l9.66,2.59c3.5-23.19,8.35-46.13,14.55-68.75,1.45-5.3-6.88-9.12-9.17-3.77-11.06,25.79-18.35,52.73-21.81,80.58-.73,5.9,8.14,6.41,9.83,1.32,7.49-22.48,12.97-45.53,16.42-68.97.91-6.22-7.81-8.93-9.66-2.59-5.32,18.26-9.37,36.85-12.01,55.68-1.29,9.21-2.3,18.45-2.95,27.72-.44,6.21-1.29,14.8,6.43,16.75,1.96.49,4.75-.33,5.64-2.35,13.35-30.49,21.5-62.77,24.16-95.95.4-5.05-7.07-6.78-9.34-2.5-19.23,36.16-28.58,76.21-35.95,116.2-1.16,6.3,7.65,8.77,9.66,2.59,10.63-32.63,17.61-66.27,21.02-100.41.44-4.36-5.76-6.62-8.56-3.54-12.14,13.36-16.27,33.69-20.42,50.73-4.75,19.5-7.74,39.41-9.15,59.43-.39,5.61,8.78,6.92,9.83,1.32,5.55-29.57,9.82-59.37,12.81-89.32.56-5.6-8.93-6.93-9.83-1.32-2.21,13.78-4.6,27.52-7.2,41.23-1.27,6.69-2.59,13.38-3.95,20.05-1.21,5.94-1.69,13.75-5.75,18.57l8.56,3.54c-1.27-24.75,1.17-49.42,3.69-74.02.57-5.6-8.9-6.93-9.83-1.32-2.53,15.27-5.06,30.54-7.58,45.81-1.24,7.47-2.47,14.95-3.71,22.42-.65,3.9-1.28,7.8-1.94,11.7-.35,2.08-.34,5.55-2.48,6.47l7.34,3.07c-9.48-29.52-7.6-61.24-16.77-90.83-1.27-4.09-6.95-5.13-9.18-1.22-4.19,7.35-5.4,15.45-6.3,23.73-1.03,9.49-1.8,19.01-2.38,28.54s-.94,19.07-1.09,28.62c-.13,8.56.56,17.67-4.03,25.28l8.67-.02c-12.89-28.65-18.45-60.05-16.6-91.38l-9.84,1.23c4.73,31.03,9.46,62.07,14.19,93.1l9.68-2.52c-5.52-24.41-9.49-49.12-11.81-74.05l-9.84,1.23c3.61,27.44,6.07,55.03,7.48,82.67l9.84-1.23c-8.58-23.68-13.81-48.37-15.36-73.51l-9.84,1.23c5.61,22.43,9.92,45.18,12.75,68.13l9.84-1.23c-7.54-28.13-13.74-56.58-18.58-85.3-.97-5.73-9.71-4.26-9.84,1.23-.66,28.36,7.57,56.2,5.3,84.59l9.33-2.47c-14.44-23.69-23.92-49.81-28.13-77.23l-9.17,3.76c9.71,20.45,17.49,41.7,23.38,63.56l9.17-3.76c-10.28-22.46-20.75-45.52-23.15-70.4l-9.84,1.23c8.55,27.39,17.1,54.79,25.64,82.18l9.68-2.52c-7.4-23-14.72-46.1-18.15-70.1-2.78,1.61-5.57,3.21-8.35,4.82,7.76,9.65,10.01,23.64,13.4,35.24,3.93,13.43,7.84,26.86,11.74,40.29,1.8,6.18,11.47,3.67,9.68-2.52-3.37-11.68-6.75-23.38-9.19-35.29-.81-3.96-6.69-30.02-1.5-30.89l-5.59-2.34c4.45,9.59,8.9,19.18,13.34,28.77,3.2,6.89,5.66,16.54,14.49,17.35,2.33.21,4.15-1.73,4.86-3.71,3.12-8.7,3.69-17.88,3.92-27.04.26-10.35.57-20.68,1.14-31.02,1.16-20.95,3.13-41.85,5.85-62.66l-10-.05c-1.1,13.41-2.2,26.82-3.3,40.23-.48,5.89,8.16,6.49,9.83,1.32,4.87-15.07,8.05-30.53,9.71-46.28.61-5.81-8.29-6.58-9.83-1.32-4.45,15.15-6.49,30.85-6.05,46.63.13,4.56,7.26,7.42,9.34,2.5,7.38-17.42,12.04-35.49,13.93-54.32.6-6.01-8.04-6.3-9.83-1.32-6.45,17.9-8.77,36.98-6.76,55.9.26,2.43,1.42,4.01,3.71,4.86,7.03,2.58,11.63-4.45,14.92-9.47,4.02-6.15,7.5-12.63,10.95-19.11s6.84-12.97,10.71-19.2c2.03-3.28,4.18-6.52,6.56-9.56,1.31-1.67,5.13-7.66,7.22-7.43l-3.48-1.44.81.7-1.32-4.86c-4.36,24.26-9.61,48.34-15.75,72.21-1.39,5.39,6.45,8.89,9.17,3.77,7.16-13.48,11.34-28.16,17.11-42.23,2.82-6.87,6.12-13.62,10.38-19.72,1.06-1.52,2.14-3.17,3.5-4.45.64-.76,1.42-1.34,2.33-1.74-.4.16-.45.47-.15.93,1.69,3.64-.86,10.78-2.3,14.19,3.06,1.26,6.12,2.51,9.17,3.77,3.69-13.56,7.39-27.12,11.08-40.68,1.51-5.56-6.23-8.58-9.17-3.77-5.3,8.64-9.1,18.03-11.3,27.92-1.43,6.43,7.34,8.47,9.66,2.59,3.25-8.26,6.51-16.52,9.76-24.78l-9.66-2.59c-1.11,6.88-2.9,13.59-5.62,20.02l9.34,2.5c-.66-7.59-1.33-15.18-1.99-22.77-.53-6,.05-13.51-3.32-18.79-2.82-4.44-8.79-5.69-12.63-1.7-1.84,1.91-2.63,4.81-3.56,7.23-1.43,3.72-2.86,7.45-4.29,11.17l9.83,1.32c.3-4.54,1.65-8.38,4.04-12.24-3.06-1.26-6.12-2.51-9.17-3.77-1,3.99-2.81,6.83-5.89,9.54l7.89,1.01c-1.05-1.85-.8-3.35.69-4.86l-8.4-2.25c1.89,8.7,2.46,17.4,1.84,26.28-.39,5.61,8.77,6.92,9.83,1.32,1.36-7.18,2.72-14.35,4.08-21.53,1.19-6.28-7.74-8.8-9.66-2.59-2.43,7.86-5.05,15.66-7.92,23.37-.93,2.49-6.35,19.74-8.67,19.4l3.55,3.57c-4.55-13.24-6.84-26.87-6.76-40.87.03-5.18-6.72-6.62-9.34-2.5-14.73,23.11-18.31,50.86-30.14,75.27l9.34,2.5c1.9-25.96,4.95-51.8,9.18-77.49.9-5.49-5.98-8.77-9.17-3.77-10.37,16.23-15.84,35.02-15.95,54.27-.03,4.68,7.25,7.27,9.34,2.5,7.79-17.78,14.11-36.09,18.79-54.94,1.55-6.26-7.84-8.77-9.66-2.59-3.49,11.88-6.61,23.87-9.27,35.97-1.68,7.63-7.54,21.88,2.67,25.71,2.64.99,5.33-1.18,6.12-3.54,6.75-19.97,13.5-39.95,20.25-59.92l-9.66-2.59c-3.38,20.59-6.77,41.18-10.15,61.77-.9,5.46,6.02,8.82,9.17,3.77,12.16-19.43,11.8-44.02,24.94-62.89l-9.34-2.5c-1.37,16.19-2.74,32.37-4.12,48.56-.5,5.95,8.09,6.4,9.83,1.32,6.11-17.83,12.23-35.66,18.34-53.49l-9.83-1.32c-2.9,21.75-5.8,43.5-8.69,65.26-.81,6.07,7.96,6.14,9.83,1.32,7.32-18.91,14.64-37.82,21.96-56.73l-9.83-1.32c-.87,12.99-1.73,25.98-2.6,38.97-.53,7.93-4.77,23.35,5.52,26.73,2,.66,4.69-.46,5.64-2.35,9.18-18.33,17.11-37.24,23.76-56.63l-9.67-.03c2.87,11.54-3.53,23.24.94,34.73,1.45,3.72,6.99,5.48,9.18,1.22,6.68-12.99,11.49-26.78,14.19-41.14.98-5.2-6.6-9.25-9.17-3.77-.63,1.35-1.27,2.69-1.9,4.04l9.34,2.5c.15-3.09-.15-6.06-.77-9.09-1.05-5.12-8.28-4.56-9.67-.03-1.11,3.61-2.21,7.22-3.32,10.83l9.66,2.59c.48-3.03.97-6.07,1.45-9.1,1-6.27-7.64-8.82-9.66-2.59-1.53,4.71-3.05,9.42-4.58,14.14l9.83,1.32c.12-4.4.78-8.48,2-12.7l-9.66-2.59c-1.19,5.63-2.39,11.26-3.58,16.89l9.83,1.32c.13-4.76.26-9.51.39-14.27.15-5.57-8.74-6.98-9.83-1.32-.98,5.08-2.44,9.93-4.63,14.63l8.67-.02c-1.78-3.86-2.02-7.8-1.03-11.9l-9.83-1.32c.34,3.09.03,5.65-1.06,8.55l9.16-1.21c-2.65-3.69-3.89-7.63-3.02-12.18l-9.67-.03c.58,3.21-.41,5.82-2.3,8.4l7.86-1.08c-3.47-3.86-5.76-8.24-7.1-13.24-1.42-5.29-10.32-4.57-9.84,1.23.31,3.78.62,7.56.94,11.35l9.33-2.47c-2.37-4.29-3.42-8.62-3.37-13.51-3.11.82-6.22,1.65-9.33,2.47,1.77,3.8,2.91,7.68,3.68,11.79,2.78-1.61,5.57-3.21,8.35-4.82-5.43-6.98-8.67-15.08-10.15-23.75-.94-5.52-10.54-4.4-9.84,1.23.41,3.29.82,6.57,1.23,9.86l8.51-3.53-.26-.22c-.52-5.21-8.6-7.34-9.83-1.32-.79,3.88-1.14,7.65-.88,11.61.34,5.33,8.66,7.22,9.83,1.32.77-3.89.7-7.52-.77-11.24s-6.87-5.38-9.18-1.22-3.55,8.71-3.61,13.59c-.07,5.61,8.5,6.92,9.83,1.32,1.19-5.02,1.77-10.07,1.66-15.22-.08-4.06-5.61-7.02-8.56-3.54-3.98,4.7-6.09,10.07-5.85,16.28s7.81,6.49,9.83,1.32,1.4-11.11-1.6-15.98c-1.62-2.62-5.67-3.53-7.89-1.01-4.62,5.24-7.09,11.07-7.89,17.99-.49,4.22,5.9,6.81,8.56,3.54,3.57-4.38,4.94-9.37,3.45-14.91-.88-3.27-4.45-4.53-7.34-3.07-6.94,3.52-11.8,10-13.07,17.7-.71,4.29,4.98,9.2,8.39,4.8,4.56-5.87,6.23-12.13,5.05-19.5-.63-3.9-5.91-4.74-8.4-2.25-4.77,4.76-7.95,10.56-9.22,17.18-1.03,5.36,6.28,8.98,9.17,3.77,3.17-5.7,3.98-11.79,2.42-18.13-.96-3.87-5.66-4.74-8.4-2.25-5.38,4.88-7.24,11.45-6.25,18.5.64,4.59,7.12,4.59,9.18,1.22,3.51-5.75,3.52-12.32.39-18.23-1.16-2.19-4.71-3.41-6.83-1.83-5.67,4.22-9.04,10.25-8.41,17.47.3,3.41,2.88,5.45,6.26,4.87,9.58-1.64,10.2-15.18,1.36-18.42-9.8-3.59-16.83,6.73-14.23,15.52.86,2.91,4.55,4.96,7.34,3.07,3.67-2.48,6.54-5.47,8.59-9.41,2.97-5.69-5.36-10.5-8.69-4.95s-4.98,11.44-5.16,17.85c-.15,5.22,6.77,6.56,9.34,2.5,3.58-5.63,4.55-11.71,3.61-18.24-.59-4.07-5.87-4.52-8.4-2.25-4.79,4.29-7.28,10.25-7.02,16.66.21,5.24,6.51,6.54,9.34,2.5,3.22-4.58,3.99-10.29,2.17-15.58-1.15-3.35-5.7-5.33-8.4-2.25-5.31,6.06-9.19,12.72-11.9,20.3-1.88,5.28,6.97,9.03,9.17,3.77,3-7.15,4.64-14.37,4.73-22.15.05-4.81-5.33-6.06-8.56-3.54-4.82,3.76-7.31,9.61-6.96,15.68.26,4.56,5.2,6.38,8.56,3.54,5.52-4.67,8.41-11.5,8.08-18.7-.14-3.08-3.03-5.86-6.26-4.87-7.92,2.44-14.34,7.55-18.24,14.9-2.66,5.01,3.76,9.94,7.91,5.99,2.25-2.14,4.5-4.28,6.75-6.42-2.8-1.6-5.59-3.2-8.39-4.8-1.82,4.86-2.47,9.86-1.92,15.01.47,4.49,6.89,7.45,9.34,2.5,2.21-4.44,3.77-9,4.56-13.9.87-5.46-5.99-8.81-9.17-3.77-3.86,6.13-6.72,12.72-8.6,19.72-1.42,5.29,6.92,9.15,9.17,3.77,2.07-4.95,3.27-9.83,3.5-15.21.21-5-7.01-6.86-9.34-2.5-3.63,6.77-6.65,13.8-9.1,21.08-1.8,5.37,6.56,8.8,9.17,3.77,4.11-7.89,6.33-16.27,6.64-25.17.13-3.77-4.31-6.28-7.5-4.36-5.48,3.3-10.22,7.41-14.12,12.49l7.91,5.99c2.46-4.43,4.39-9.06,5.84-13.91,1.36-4.54-5.21-8.8-8.39-4.8-3.36,4.22-5.78,8.64-7.3,13.83-1.62,5.52,6.3,8.6,9.17,3.77,2.26-3.8,4.71-7.4,7.49-10.83-2.8-1.6-5.59-3.2-8.39-4.8-1.88,5.06-3.76,10.12-5.64,15.17l9.66,2.59c.42-1.8,1.01-3.11,2.59-4.2l-7.5-4.36c.73,7.39-.32,14.4-3.62,21.08l9.34,2.5c.11-7.3.22-14.59.33-21.89.08-5.56-8.68-6.99-9.83-1.32-1.04,5.13-2.6,10.01-4.87,14.72l9.34,2.5c-.12-6.18-.24-12.37-.36-18.55-.11-5.67-8.24-6.84-9.83-1.32-2,6.9-3.99,13.81-5.99,20.71l9.83,1.32c.65-8,1.31-16,1.96-24.01.46-5.65-8.64-6.85-9.83-1.32-1.13,5.25-2.25,10.49-3.38,15.74l9.66,2.59c.77-4.77.62-9.26-.93-13.86-1.04-3.08-4.35-4.74-7.34-3.07-5.36,2.99-8.13,7.79-8.84,13.77-.72,6.04,8,6.22,9.83,1.32,1.13-3.04,1.15-5.92.2-9.02-1.29-4.21-6.85-5-9.18-1.22-3.25,5.27-3.99,11.42-1.83,17.25,1.55,4.15,6.64,5.01,9.18,1.22,3.51-5.25,3.52-11.47.57-16.96-1.41-2.63-5.88-3.56-7.89-1.01-6.36,8.07-8.77,17.77-6.38,27.84.93,3.91,5.67,4.7,8.4,2.25,6.8-6.1,9.41-15.34,7.14-24.14-.97-3.76-5.69-4.88-8.4-2.25-11.79,11.44-18.53,26.82-19.15,43.22-.21,5.4,6.68,6.31,9.34,2.5,7.73-11.04,13.24-23.39,16.37-36.49,1.25-5.26-6.85-9.2-9.17-3.77-5.89,13.73-11.55,27.54-12.14,42.66-.19,4.92,7.08,6.97,9.34,2.5,5.48-10.82,10.95-21.64,16.43-32.46-3.06-1.26-6.12-2.51-9.17-3.77-2.3,10.6-3.29,21.34-2.85,32.18.17,4.11,5.51,6.96,8.56,3.54,11.64-13.06,12.77-30.84,21.08-45.65-3.06-1.26-6.12-2.51-9.17-3.77-5.28,16.71-8.24,34-8.9,51.52-.19,4.87,7.13,7.03,9.34,2.5,4.35-8.91,8.71-17.82,13.06-26.74,3.73-7.63,6.84-17.15,13.05-23.12l-8.4-2.25c4.4,15.02-2.39,31.04,5.76,45.35,1.33,2.33,4.51,3.2,6.83,1.83,10.81-6.37,10.76-20.13,20-27.54l-8.56-3.54c-2.78,39.76-5.27,79.68.49,119.3.82,5.65,9.96,4.34,9.84-1.23-.76-36.73-2.24-73.44-4.44-110.12-.33-5.46-8.39-7.08-9.83-1.32-9.38,37.44-12.67,76.21-9.6,114.69.52,6.49,9.28,6.42,10,.05,2.29-20.3,3.63-40.7,3.93-61.14.15-9.88.05-19.77-.27-29.65-.24-7.38,1.48-18.12-6.83-21.4-2.65-1.05-5.3,1.23-6.12,3.54-12.82,35.94-16.56,74.35-11.43,112.12.66,4.84,9.01,4.89,9.67.03,5.13-37.68,6.75-75.67,4.6-113.65-.31-5.54-8.26-6.99-9.83-1.32-12.38,44.57-13.9,91.59-4.56,136.9,1.05,5.11,8.29,4.56,9.67.03,3-9.82,1.86-20.06,1.24-30.14-.69-11.22-1.38-22.44-2.07-33.66-1.36-22.11-2.72-44.22-4.08-66.33-.33-5.35-8.63-7.2-9.83-1.32-9.15,44.66-10.53,90.4-4.2,135.53.69,4.94,8.78,4.78,9.67.03,1.95-10.39,1.52-20.83,1.28-31.34-.27-11.58-.54-23.16-.82-34.74-.54-22.83-1.07-45.65-1.61-68.48-.13-5.44-8.78-7.12-9.83-1.32-9.05,49.81-7.69,100.5-4.8,150.82l9.84-1.23c-10.36-47.55-13.58-96.36-9.69-144.87l-10-.05c-1.48,49.42-2.73,99.19,6.59,147.99,1.05,5.51,10.26,4.43,9.84-1.23-3.69-50.34-17-99.91-14.7-150.65.29-6.46-9.62-6.45-10-.05-2.36,39.49-1.4,79.09,2.85,118.42l10,.05c-5.02-42.07-9.99-84.22-10.7-126.63l-10-.05c.63,35.59,1.26,71.17,1.89,106.76l10,.05c-2.29-33.3-4.58-66.61-6.88-99.91-.45-6.54-9.24-6.37-10-.05-4.06,33.61-6.13,67.41-6.22,101.26l9.84-1.23c-4.88-34.22-7.43-68.74-7.75-103.3l-10-.05c1.23,30.99,2.46,61.98,3.68,92.97l9.84-1.23c-3.58-27.52-7.16-55.03-10.73-82.55-.74-5.68-9.89-4.32-9.84,1.23.23,24.38.46,48.77.69,73.15l9.84-1.23c-4.49-24.41-8.15-48.95-10.92-73.62-.7-6.23-10.21-6.64-10-.05.7,22.64,1.41,45.27,2.11,67.91l9.84-1.23c-8.64-21.9-11.65-45.2-9.75-68.63l-9.84,1.23c3.83,17.31,5.54,34.87,5.17,52.6l9.84-1.23c-4.77-16.86-7.09-34.11-6.92-51.63.06-6.45-9.94-6.49-10-.05h0Z"/>
        <path class="cls-5" d="m251.54,116.57l.04-.78c.14-2.9-3.29-6.08-6.26-4.87l-.61.25,6.09,6.13.4-1.15-2.33,3.04c.4-.29,3.93-2.09,3.02-1.98,2.89-.36,4.73-1.99,5.03-4.97l.07-.71c-3.11.82-6.22,1.65-9.33,2.47,2.73,6.26,4.91,12.8,7.63,19.01,1.88,4.29,6.88,9.47,11.37,11,6.11,2.07,8.66-7.6,2.59-9.66-.46-.16-2.3-2.55-3.05-3.33-2.1-2.2-2.32-4.21-3.39-6.97-1.96-5.09-4.32-10.05-6.5-15.05s-8.9-1.85-9.33,2.47l-.07.71,5.03-4.97c-4.57.57-9.22,3-10.81,7.5-1.16,3.29,2.66,7.54,6.09,6.13l.61-.25-6.26-4.87-.04.78c-.31,6.45,9.7,6.47,10,.05h0Z"/>
        <path class="cls-5" d="m275.6,145.56c4.26-1.04,7.92-2.98,11.3-5.75,1.57-1.29,2.95-2.65,4.77-3.6,1.92-1,3.95-1.73,5.82-2.85l-7.33-5.62c-.93,5.18-.41,10.26-1.02,15.43-.75,6.39,9.26,6.38,10,.05.51-4.31-.1-8.59.68-12.89.73-4.07-3.37-7.99-7.33-5.62-3.22,1.92-6.7,2.99-9.63,5.42-3.13,2.6-5.73,4.77-9.78,5.76-6.26,1.53-3.73,11.21,2.52,9.68h0Z"/>
        <path class="cls-5" d="m298.41,170.17c-.21-1.77.63-3.38.9-5.12s.26-3.4.32-5.1c.15-4.32.3-8.65.45-12.97.22-6.45-9.78-6.48-10-.05-.15,4.32-.3,8.65-.45,12.97-.12,3.43-1.62,6.86-1.23,10.23.73,6.33,10.74,6.44,10,.05h0Z"/>
        <path class="cls-5" d="m283.52,170.11c-.38,8.92-.76,17.83-1.14,26.75-.25,5.84,8.19,6.61,9.83,1.32l.33-1.05c1.91-6.16-7.75-8.73-9.66-2.59l-.33,1.05,9.83,1.32c.38-8.92.76-17.83,1.14-26.75.28-6.45-9.73-6.47-10-.05h0Z"/>
        <path class="cls-5" d="m266.86,177.59c-.43,4.5-.55,9-.36,13.51.27,6.42,10.28,6.49,10,.05-.19-4.52-.07-9.01.36-13.51.26-2.69-2.45-5.01-4.97-5.03-2.91-.02-4.77,2.28-5.03,4.97h0Z"/>
        <path class="cls-5" d="m226.56,142.04c-.1,6.86-.61,13.67-1.52,20.47-.85,6.37,9.16,6.35,10,.05.91-6.8,1.42-13.61,1.52-20.47.1-6.45-9.91-6.49-10-.05h0Z"/>
        <path class="cls-5" d="m211.71,144.53c-.32,5.64.01,11.18.77,16.77.36,2.68,3.71,4.2,6.1,3.58,2.88-.75,3.94-3.41,3.58-6.1-.64-4.7-.71-9.46-.45-14.19.36-6.44-9.64-6.46-10-.05h0Z"/>
        <path class="cls-5" d="m135.93,203.87c-.21,7.28-.08,14.54.39,21.8.41,6.4,10.42,6.48,10,.05-.47-7.26-.6-14.53-.39-21.8.19-6.45-9.82-6.48-10-.05h0Z"/>
        <path class="cls-5" d="m162.6,168.02c-2.07,8.96-3.82,17.98-5.25,27.06-.99,6.3,8.66,8.95,9.66,2.59,1.43-9.09,3.18-18.1,5.25-27.06,1.45-6.27-8.21-8.87-9.66-2.59h0Z"/>
        <path class="cls-5" d="m153.13,145.03c-3.7,4.24-6.79,8.9-9.06,14.06-1.09,2.47-.65,5.39,1.87,6.82,2.16,1.23,5.73.62,6.82-1.87,1.92-4.36,4.36-8.39,7.49-11.99,4.21-4.82-2.88-11.89-7.12-7.02h0Z"/>
        <path class="cls-5" d="m120.99,159.82c-2.23,4.58-4.08,9.33-5.45,14.23-1.75,6.21,7.91,8.79,9.66,2.59,1.15-4.1,2.62-8.03,4.48-11.86,2.81-5.75-5.86-10.76-8.69-4.95h0Z"/>
        <path class="cls-5" d="m142.69,156.04c2.28-2.1,3.31-5.91.52-8.19l1.33,2.3-.14-.38v2.55c-1.86,1.83-2.26,2.46-1.22,1.88.19-.09.37-.17.56-.26.48-.22.96-.44,1.44-.66.2-.09.4-.18.6-.27-.62.25-.58.26.1.05.66-.12,1.32-.32,1.96-.5,2.51-.71,4.39-3.48,3.58-6.1s-3.41-4.34-6.1-3.58c-2.43.69-4.73,1.47-7,2.6-1.47.73-2.65,1.82-3.27,3.35-.46,1.11-.61,2.26-.32,3.46.2.55.41,1.09.65,1.63,1.02,1.34,1.09,1.42.22.24l-.5-3.79-.04.16,1.27-2.22c-.23.26-.5.49-.76.72-1.92,1.78-1.89,5.32.05,7.07,2.09,1.89,5.01,1.85,7.07-.05h0Z"/>
        <path class="cls-5" d="m247.86,351.59l-.44-.27-3.48-1.44-.48-.84,1.28-4.77c-.88,1.07-1.92,1.9-2.96,2.81l7.12,7.02c1.84-2.29,3.77-4.46,5.83-6.56-2.8-1.6-5.59-3.2-8.39-4.8l-.3.42c-2.95,4.69,4.38,10.52,7.91,5.99,5.38-6.9,10.18-14.11,14.33-21.82-3.06-1.26-6.12-2.51-9.17-3.77-.32,1.84-.8,3.02-1.85,4.56l8.69,4.95c3.63-6.54,7.2-13.13,9.64-20.22,1.2-3.5,1.84-7.15,3.2-10.6,1.29-3.24,2.53-5.91,2.16-9.5-.65-6.35-10.66-6.45-10-.05.31,2.98-1.34,5.36-2.32,8.09-1.11,3.09-1.64,6.36-2.71,9.46-2.16,6.26-5.47,12.08-8.67,17.85s5.1,10.22,8.69,4.95c1.47-2.16,2.37-4.36,2.82-6.93.94-5.29-6.31-9.09-9.17-3.77-3.72,6.92-7.93,13.55-12.77,19.75l7.91,5.99c.56-.89.91-1.8,1.28-2.79,1.79-4.85-5.08-8.17-8.39-4.8-2.06,2.09-3.99,4.26-5.83,6.56-4,4.98,2.2,11.3,7.12,7.02,3.21-2.79,6.41-6.72,2.8-10.75-3.26-3.63-8.24-2.08-10.96,1.21-4.06,4.92,3.01,12,7.12,7.02h0Z"/>
        <path class="cls-5" d="m170.55,315.49l-2.5-3.35c-1.34-1.79-3.28-2.94-5.59-2.34-1.99.52-3.95,2.64-3.74,4.81.38,3.9,2.05,7.37,3.48,10.98s2.24,8.18,6.43,9.17c3.35.79,5.98-1.56,6.29-4.8.29-2.99.25-5.93-.1-8.91-.32-2.68-2.04-5.01-4.97-5.03-2.44-.01-5.35,2.28-5.03,4.97.36,2.98.39,5.92.1,8.91l6.29-4.8-.58-.14,3.04,2.33c-1.2-1.87-1.83-4.32-2.64-6.38-.74-1.87-2.11-4.23-2.31-6.26-3.11.82-6.22,1.65-9.33,2.47l2.5,3.35c1.62,2.16,4.29,3.3,6.83,1.83,2.13-1.23,3.46-4.65,1.83-6.83h0Z"/>
        <path class="cls-5" d="m161.15,321.95c-2.99,9.14-4.48,18.6-4.53,28.22-.03,6.6,9.28,6.29,10,.05.37-3.17.74-6.35,1.11-9.52l-9.84,1.23c.66,4.73,1.32,9.47,1.98,14.2.81,5.78,9.66,4.21,9.84-1.23.39-11.64.84-23.27,3.33-34.69l-9.67-.03.18,1.37,9.83,1.32c.16-4.25.08-8.45-.26-12.69-.37-4.73-6.75-7.17-9.34-2.5-1.99,3.59-4.43,9.68-1.76,13.48,1.14,1.61,3.48,3.2,5.59,2.34l.31-.13c5.89-2.39,3.43-12.09-2.52-9.68l-.31.13,5.59,2.34c.12.17,1.88-3.69,1.78-3.53l-9.34-2.5c.33,4.24.42,8.44.26,12.69-.21,5.59,8.73,6.96,9.83,1.32.45-2.3.49-4.21-.16-6.48-1.31-4.6-8.57-5.09-9.67-.03-2.67,12.25-3.25,24.73-3.68,37.22l9.84-1.23c-.66-4.73-1.32-9.47-1.98-14.2-.85-6.07-9.25-3.89-9.84,1.23l-1.11,9.52,10,.05c.04-8.83,1.45-17.29,4.19-25.68,2-6.13-7.66-8.69-9.66-2.59h0Z"/>
        <path class="cls-5" d="m108.05,215.13c-.67-.57-1.4-1.03-2.21-1.38-2.04-1.06-4.37-.73-6.04.83-5.32,4.99-2.92,12.33-1.62,18.54,1.78,8.48,3.89,16.96,5.31,25.51.63,3.82.65,7.59,1.64,11.37,1.04,3.96,2.35,7.86,3.54,11.78,2.14,7.03,4.31,13.75,9.33,19.3,4.32,4.77,11.34-2.36,7.02-7.12s-5.47-10.73-7.2-16.43c-1.89-6.21-3.45-11.99-4.22-18.43s-2.47-12.88-3.81-19.26c-.64-3.08-1.29-6.15-1.93-9.23-.39-1.87-2.58-7.45-.93-9l-6.04.83c.81.35,1.54.81,2.21,1.38,5.17,3.8,10.09-4.91,4.95-8.69h0Z"/>
        <path class="cls-5" d="m156.26,388.85c.77,2.98,2.6,5.08,5.15,6.71,1.88,1.2,2.92,1.94,4.61,3.74,1.85,1.97,5.23,1.82,7.07-.05,1.96-1.99,1.81-5.1-.05-7.07-1.44-1.53-3.05-2.86-4.76-4.07-.65-.46-1.43-1.14-2.18-1.4s.21-.1.1.21l-.26-.43c.17.48.17.43,0-.16-.68-2.61-3.49-4.26-6.1-3.58s-4.26,3.48-3.58,6.1h0Z"/>
        <path class="cls-5" d="m179.78,405.54c.86,1.64,1.9,2.98,3.32,4.17,2.34,1.97,6.29,1.99,7.86-1.08l.22-.43-3.08,2.36c2.37-.48,4.13-.63,5.39-3.09,2.13-4.15-2.47-9.67-6.84-6.81-1.18.77-2.04,1.41-2.95,2.49l7.12,7.02c1.99-2.48,4.14-4.17,6.57-6.16,2.19-1.8,3.43-4.37,5.65-6.12,1.8-1.42,3.78-2.54,5.37-4.22,1.75-1.86,2.81-4.16,5.21-5.24l-6.06-7.84c-.57.73-1.29,1.22-2.18,1.47l6.06,7.84c3.54-3.55,7.47-6.65,11.09-10.12,3.28-3.15,5.51-7.43,8.93-10.32l-7.91-5.99c-.81,1.4-1.63,2.57-2.72,3.77-4.3,4.76,2.42,11.46,7.12,7.02,2.18-2.06,4.36-4.12,6.54-6.18,4.7-4.44-2.35-11.3-7.12-7.02l-1.43,1.28c-4.12,3.7,1.54,11.28,6.06,7.84l.67-.51-6.84-6.81c-.85,1.86-5.25,3.9-6.91,5.44-3.19,2.94-6.22,6.06-9.32,9.08-4.61,4.49,2.5,11.52,7.12,7.02,3.39-3.3,6.68-7.32,10.46-10.16,2.78-2.08,5.79-3.04,7.33-6.43,1.79-3.94-2.46-10.13-6.84-6.81l-.67.51,6.06,7.84,1.43-1.28-7.12-7.02c-2.18,2.06-4.36,4.12-6.54,6.18l7.12,7.02c1.64-1.82,3.06-3.72,4.29-5.84,2.98-5.15-3.74-9.51-7.91-5.99-3.44,2.91-5.64,7.16-8.93,10.32-3.61,3.47-7.55,6.57-11.09,10.12-4.18,4.2,1.14,10.12,6.06,7.84,1.68-.78,3.01-1.79,4.31-3.11,4.15-4.25-1.11-10.08-6.06-7.84-2.59,1.17-4.24,3.12-6,5.28s-3.54,3.37-5.67,4.98c-2.42,1.83-3.72,4.36-5.93,6.36-2.58,2.33-5.08,3.98-7.32,6.77-3.95,4.93,2.92,11.99,7.12,7.02l.83-.85-6.84-6.81-.22.43,3.08-2.36c-2.37.48-4.13.63-5.39,3.09l7.86-1.08c-.81-.48-1.38-1.16-1.68-2.05-3-5.7-11.65-.69-8.66,5h0Z"/>
      </g>
      <path d="m300.32,131.18c-.14-2.73-.31-5.47-.5-8.2,0-.02-.01-.04-.03-.05.01-.08-.01-.13-.11-.11-3.79.53-7.55,1.77-11.06,3.25-1.69.71-3.35,1.54-4.82,2.64-1.82,1.37-3.37,3.06-5.22,4.39-4.39,3.15-9.34.9-12.07-3.24-2.26-3.41-3.25-7.74-4.5-11.59-1.66-5.1-3.76-9.69-7.64-13.53-.2-.19-.73.08-1.24.49-9.29,5.6-19.96,8.75-30.43,11.27-5.43,1.31-10.86,2.39-16.18,4.1-5.42,1.74-10.74,3.79-16.07,5.79-5.18,1.94-10.38,3.87-15.71,5.35-5.52,1.54-11.01,3.11-16.42,5.04-10.24,3.65-20.17,8.14-29.75,13.28-10,5.37-19.6,11.41-28.97,17.79-.31.15-.62.39-.89.66-.35.3-.71.67-.71.9-4.45,6.81-3.18,15.26-3.05,22.98.16,9.67-.81,19.33-.58,29.01.46,18.85,5.77,37.13,11.36,55,5.69,18.19,11.02,36.54,17.54,54.46,6.05,16.64,13.33,32.93,23.19,47.68,4.74,7.08,10.06,13.79,16.04,19.86,5.6,5.69,12.04,11.45,19.97,13.48,1.95.5,3.94.72,5.94.66.16.1.49-.08.81-.32.3-.2.57-.45.77-.66,16.56-15.9,33.12-31.81,49.69-47.71,6.2-5.96,12.74-11.71,18-18.54,5.81-7.55,10.84-15.74,14.82-24.4,4.2-9.16,7.1-18.81,9.84-28.49,2.95-10.44,5.55-20.98,7.8-31.59,4.5-21.22,7.6-42.74,9.29-64.37,1.7-21.71,1.99-43.53.86-65.28Zm-2.58,57.99c-1.29,21.4-3.95,42.71-7.98,63.76-2.01,10.49-4.35,20.91-7.04,31.24-2.64,10.16-5.4,20.4-9.14,30.22-3.45,9.07-7.93,17.7-13.42,25.71-2.35,3.43-4.79,6.82-7.57,9.92-2.7,3.02-5.68,5.78-8.6,8.58-16.35,15.7-32.71,31.41-49.06,47.11-1.66,1.59-3.32,3.19-4.98,4.78-8.14-.01-15.23-4.79-21.05-10.09-6.17-5.62-11.67-12.01-16.58-18.74-10.17-13.94-17.81-29.57-24.05-45.61-6.84-17.58-12.08-35.71-17.74-53.69-5.63-17.89-11.57-35.92-13.32-54.7-.88-9.42-.28-18.82,0-28.25.14-4.56.11-9.11-.06-13.67-.15-3.96-.29-8,.6-11.89.42-1.84,1.12-3.59,2.11-5.19,17.19-11.67,35.31-22.07,54.86-29.26,5.32-1.96,10.73-3.68,16.21-5.16,5.33-1.43,10.53-3.21,15.7-5.13,5.35-1.98,10.66-4.06,16.07-5.88,5.28-1.78,10.63-3.02,16.06-4.27,11.52-2.65,23.26-6.04,33.47-12.16,3.37,3.39,5.51,7.42,7.02,11.93,1.3,3.91,2.31,8.08,4.22,11.75,2.01,3.87,6.09,7.12,10.66,5.91,2.19-.58,4.12-1.97,5.84-3.4,1.6-1.32,3.05-2.95,4.88-3.97,3.76-2.09,8.37-3.58,12.64-4.19,1.45,21.4,1.54,42.9.25,64.31Z"/>
      <g>
        <g>
          <path class="cls-4" d="m88.97,178.49c3.29-4.66,24.27-23.02,47.43-25.13,23.16-2.1,47.06,8.69,60.7,27.41,9.09,12.48,13.58,27.61,17.9,42.42,3.77,12.9,7.54,25.82,10.03,39.02,9.27,49.21-.2,101.71-26.09,144.69-2.5,4.14-5.83,6.63-10.47,8.07-5.17,1.6-10.32.93-15.04-1.7-27.95-15.53-53.83-37.15-85.44-42.26-23.35-3.77-49.87,1.31-68.75-12.86C5.6,347.93-.08,329.62,1.33,312.66c1.41-16.95,8.18-32.3,16.77-47.02,16.52-28.3,47.93-62.68,69.9-85.83"/>
          <path d="m89.96,178.02c1.42-1.98,3.8-4.01,5.83-5.69,3.72-3.1,7.71-5.87,11.88-8.33,10.26-6.04,21.66-9.93,33.65-9.89,24.02.07,46.81,13.32,58.81,34.08,6.8,11.76,10.51,24.98,14.29,37.94,4.14,14.2,8.21,28.47,10.49,43.11,4.04,25.92,2.96,52.59-2.89,78.15-2.96,12.95-7.16,25.62-12.55,37.77-2.69,6.07-5.68,12.01-8.95,17.79-1.51,2.67-2.94,5.66-5.19,7.8-2.1,1.99-5.02,3.15-7.82,3.72-3.36.69-6.86.37-10.07-.82s-6.05-3.11-8.93-4.8c-5.56-3.27-11.03-6.7-16.5-10.13-10.87-6.81-21.78-13.65-33.41-19.13-11.39-5.36-23.36-9.13-35.92-10.4-12.26-1.24-24.64-.76-36.86-2.49s-23.08-5.76-31.14-14.72-11.62-20.14-12.29-31.55c-.76-13.08,2.73-26.2,7.9-38.11s11.68-22.49,18.96-32.83c14.49-20.57,31.26-39.52,48.33-57.96,3.71-4,7.45-7.98,11.2-11.94.27-.28.61-.73.07-.76s-1.34.87-1.66,1.21c-17.44,18.39-34.58,37.15-50.13,57.18-7.42,9.56-14.5,19.43-20.56,29.91-6.94,12.01-12.83,24.83-15.32,38.56-2.19,12.03-1.54,24.59,3.38,35.91,4.78,10.98,13.41,19.31,24.62,23.56,11.6,4.41,24.3,4.61,36.54,5.12,6.33.26,12.68.55,18.97,1.41s12.8,2.48,18.96,4.62c12.5,4.35,24.11,10.84,35.38,17.7,5.71,3.48,11.35,7.07,17.02,10.59s11.17,7.13,17.05,10.08,12.65,2.73,18.45-.36c2.42-1.29,4.6-3.03,6.37-5.13,2.03-2.4,3.51-5.28,5.05-8.01,6.62-11.75,12.04-24.16,16.24-36.98,8.4-25.63,11.84-52.9,9.94-79.81-1.01-14.25-3.69-28.23-7.33-42.03-1.93-7.33-4.07-14.6-6.2-21.88-1.92-6.56-3.89-13.11-6.33-19.49-4.67-12.23-11.25-23.62-21.29-32.21-9.09-7.78-20.25-13.13-31.98-15.43s-24-1.31-35.31,3.11c-9.73,3.81-18.89,9.52-26.76,16.38-2.13,1.85-4.34,3.81-5.99,6.11-.34.47-.1.58.36.42.6-.2,1.26-.86,1.63-1.36h0Z"/>
        </g>
        <g>
          <path class="cls-6" d="m93.68,201.95c2.85-3.74,20.86-18.58,40.58-20.48,19.72-1.9,39.95,6.47,51.37,21.25,7.61,9.85,11.28,21.87,14.82,33.63,3.08,10.24,6.16,20.5,8.15,30.99,7.41,39.12-1.15,81.04-23.59,115.53-2.16,3.33-5.03,5.34-8.98,6.53-4.42,1.33-8.78.84-12.78-1.21-23.63-12.1-45.43-29.08-72.27-32.85-19.83-2.78-42.43,1.53-58.36-9.58-11.5-8.02-16.15-22.56-14.78-36.08,1.36-13.52,7.9-26.23,15.35-38.04,14.32-22.71,39.42-48.92,58.33-67.58"/>
          <path d="m94.67,201.48s.04-.05.22-.26c.12-.13.24-.26.36-.39.14-.15.73-.72,1.05-1.02,1-.94,2.07-1.82,3.15-2.67,2.99-2.35,6.19-4.46,9.49-6.35,8.57-4.91,18.08-8.23,28.01-8.55,19.47-.61,39.27,8.49,50.04,24.97,5.9,9.03,9.11,19.45,12.19,29.7,3.47,11.52,6.96,23.09,8.9,34.99,3.38,20.7,2.31,42.05-2.74,62.38-2.58,10.39-6.2,20.51-10.78,30.18-2.32,4.91-4.89,9.7-7.7,14.35-1.32,2.18-2.59,4.62-4.35,6.48-1.61,1.69-3.84,2.65-6.06,3.26-2.77.76-5.69.78-8.47.05s-5.19-2.18-7.65-3.5c-4.62-2.48-9.16-5.1-13.69-7.73-9.05-5.24-18.09-10.55-27.64-14.84-9.46-4.25-19.39-7.41-29.73-8.53s-20.2-.66-30.27-1.5c-9.55-.8-19.38-2.87-27.01-9.03-7.21-5.83-11.47-14.6-12.75-23.68-1.47-10.34.97-20.74,5.03-30.23,4.2-9.8,9.95-18.96,16.17-27.59,12.38-17.18,26.89-32.82,41.7-47.9,3.29-3.35,6.6-6.66,9.94-9.96.2-.2.87-.8.49-1.04-.33-.21-1.42.81-1.59.98-15.29,15.09-30.26,30.63-43.74,47.38-6.54,8.12-12.67,16.56-17.99,25.53-5.82,9.8-10.85,20.44-12.37,31.85-1.24,9.32.21,19.15,4.96,27.34,4.91,8.48,13.08,13.84,22.43,16.33,10.02,2.66,20.56,2.46,30.84,2.79,5.24.17,10.49.43,15.68,1.22s10.54,2.14,15.62,3.88c10.3,3.52,19.95,8.63,29.39,14,4.75,2.7,9.45,5.47,14.19,8.18,2.3,1.32,4.62,2.62,6.95,3.88s4.76,2.73,7.3,3.67c4.98,1.84,10.5,1.11,15.09-1.46s7.07-6.7,9.67-11.01c5.71-9.45,10.45-19.48,14.14-29.89,7.22-20.41,10.39-42.25,8.89-63.87-.8-11.56-3.11-22.87-6.19-34.03-1.64-5.94-3.42-11.85-5.22-17.75-1.63-5.35-3.35-10.68-5.54-15.83-4.09-9.6-9.99-18.14-18.43-24.4-7.96-5.9-17.47-9.68-27.26-11.08-10.08-1.44-20.09-.18-29.54,3.57-7.95,3.15-15.47,7.67-22.05,13.12-1.81,1.49-3.64,3.07-5.08,4.93-.36.47-.09.57.36.42.62-.21,1.24-.86,1.63-1.36h0Z"/>
        </g>
        <path class="cls-10" d="m194.27,246.33c-2.97,3.18-9.33,7.05-13.13,11.36,2.67-2.49,5.95-4.11,8.81-6.33,4.23-3.2,7.5-7.64,8.49-13.02-1.53,4-2.24,6.06-4.17,7.99Z"/>
        <path class="cls-7" d="m107.98,205.73c-.91-2-1.67-4.57-.73-6.88-2.35,4.39-.9,9.25.43,13.62,2.15,7.14,5.38,13.78,8.55,20.63-1.99-9.32-4.08-18.7-8.26-27.37Z"/>
        <path class="cls-8" d="m26.08,311.57c2.02-1.6,4.43-2.67,6.46-3.8,4.77-2.51,9.75-5.53,14.46-8.41-7.41,3.26-14.94,6.87-20.92,12.21Z"/>
        <path class="cls-9" d="m186.88,341.2c-3.71-6.53-7.29-13.14-11.5-19.36,2.78,7.04,5.92,14.13,11.5,19.36Z"/>
        <g id="Sad">
          <g class="cls-2">
            <g>
              <path d="m62.91-182.35c1.78,5.09,3.26,9.44,9.89,10.12,5.98.61,9.88,11.01,12.49,16.54,4.46,9.45,5.06,21.15,14.38,28.06,2.39,1.78,2.02,3.98,1.52,6.2-1.87,8.32-2.55,16.58-.83,25.09.5,2.49-.74,5.6-1.86,8.12-9.47,21.26-19.86,42.01-34.05,60.61-1.24,1.63-2.39,3.66-4.08,4.55-11.73,6.15-16.59,17.77-22.16,28.5-2.42,4.66-5.27,6.36-10.16,6.89-1.31-2.18.44-7.51-5.29-5.7-.76.24-2.51-1.6-3.34-2.79C10.97-8.29-1.19-16.17-14.8-19.36c-21.13-4.95-34.42-18.79-47.09-34.55-8.59-10.69-18.02-20.76-21.73-34.43-3.79-13.95-5.74-27.36,1.7-41.49,7.05-13.4,14.75-26.23,23.54-38.45,7.8-10.85,19.44-16.41,31.35-21.35,8.5-3.53,9.17-4.89,5.3-12.98-.66-1.37-1.39-2.74-1.85-4.18-2.48-7.7-3.91-16.34-15.7-15.55,5.43-1.45,9.06-5.53,14.71-5.06.3-6.41,1.65-12.23,4.15-17.89,2.14,6.08,2.55,13.02.51,18.27-3.45,8.88-.03,15.5,3.67,22.44,2.26,4.24,5.31,8.05,5.91,12.85,12.05.06,15.37-3.69,12.44-15.99-2.73-11.44-2.34-22.9-2.56-34.41-.03-1.68-.46-3.59,2.47-5.39,1.62,15.76,3.29,30.88,4.66,46.02.33,3.72.81,7,5.29,6.79,13.58-.62,25.92,4.46,38.59,8.05.95.27,1.96.33,2.71.46,3.12-2.08-1.08-4.52,1.08-6.56.17-.04.63-.15,1.09-.27.8,4.73,9.49,3.55,7.48,10.68ZM45.06-29.66c4.07-4.6,7.61-9.81,12.78-13.2,11.25-7.36,17.67-18.15,22.11-30.32,4.99-13.67,9.6-27.48,14.43-41.21.67-1.9.55-3.58-.76-5.02-3.1-3.41-3.9-7.76-4.81-11.97-5.98-27.64-26.91-42.02-50-52.11-15.77-6.89-33.97-6.55-51.1-1.34-28.55,8.69-48.2,28.25-61.4,54.01-4.8,9.38-5.93,20.13-.16,31.63,5.1,10.15,10.1,20.58,14.54,31.11,2.35,5.57,4.16,8.97,10.71,7.38,4.2,14.16,15.78,13.5,27.96,12.84-3.06,3.47-7.65.81-8.64,5.77,5.16,3.63,10.19,8.15,16.06,10.89,3.11,1.46,5.88,4,9.01,4.65,9.82,2.02,19.74,3.58,29.26,6.86,2.89.99,1.99,3.14.84,4.99-1.03,1.67-4.33.58-4.45,3.97,2.07,3.37,4.52,6.84,8.43,9.52,7.63-8.04,7.92-19.53,15.18-28.46Z"/>
              <path d="m-4.46,69.28c13.01-6.55,25.64-11.28,40.22-8.37,6.02,1.2,11.97-2.37,17.8-4.1,12.17-3.61,22.39-.28,32.59,6.37,18.16,11.83,27.44,28.25,28.52,49.83.32,6.37.75,12.59.21,19.02-1.22,14.68-1.6,15.71-15.45,19.77-16.78,4.92-31.63,12.69-42.5,27.06-3.6,4.76-6.11,10.04-8.97,15.16-3.37,6.03-8.89,11.17-14.47,12.33-6.47,1.34-14.46-.91-19.71-6.42-3.54-3.72-7.47-6.22-12.34-6.65-7.62-.67-10.66-8.07-17.11-10.78-10.92-4.57-20.13-11.89-27.37-21.58-2.41-3.22-4.36-6.57-4.71-10.33-2.92-30.7,2.26-56.72,32.46-74.34,3.54-2.07,6.88-4.47,10.83-6.96Zm7.43,95.85c-.95.98-1.9,1.95-3.96,2.89-8.14-1.73-11.66-11.5-20.99-11.91,2.89,5.84,8.56,8.2,13.37,10.97,27.35,15.74,38.46,18.91,53.4-5.26.53-.86,1.34-1.54,2.03-2.29,8.56-9.42,14.62-19.62,11.35-32.76,4.42,3.36,3.2,8.85,4.87,13.28,3.12.47,5.53-.98,7.9-2.48,4.22-2.67,8.76-3.77,13.8-3.96,17.06-.65,23.76-6.17,23.96-24.85.21-19.96-11.29-33.59-28.59-42.79-14.21-7.55-23.16-4.22-28,10.91-.58,1.82-1.06,3.59.64,4.9,2.15,1.65,3.94.19,5.36-1.27,1.6-1.63,2.84-3.6,4.32-5.36,3.47-4.11,6.02-5.06,11.99-4.22-10.21,5.71-16.3,13.16-18.2,25.02-1.69,10.52-8.05,20.52-.14,30.3-4.32-1.14-6.28-5.68-9.67-7.5-3.24,2.35-3.44,6.39-7.05,8.02-1.04-.65-2.2-1.16-3.11-1.96-6.87-6-11.22-14.76-20.46-18.23-2.09-.78-1.75-3.33-1.44-5.5,2.03-14.36,1.99-14.37-12.22-15.49-1.02-.08-2.03-.27-3.03-.47-12.71-2.46-29.79,5.79-34.73,17.75-2.06,5-4.14,10.05-1.75,16.7,2.12,5.9,6.4,11.1,5.73,17.27-3.65-2.08-4.32-6.77-8.73-10.96,2.24,11.23,6.78,18.37,14.78,24.25.75-3.77-1.58-4.98-2.86-6.68-1.39-1.84-2.86-3.61-1.15-5.91,9.79,10.56,19.62,21.06,32.61,27.59Zm68.05-7.09c8.85-5.14,16.44-11.65,28.12-12.14,8.9-.37,12.77-5.27,8.63-16.23-4.84,6.46-11.33,7.86-18.8,8.7-13.05,1.47-24.34,7.36-32.78,17.96-6.05,7.6-12.14,15.17-18.48,22.51-3.43,3.97-8.16,7.68-13.33,6.27-13.18-3.59-27.19-5.31-38.23-14.68-7.19-6.1-15.34-11.1-21.24-18.71-1.17-1.5-2.36-3.56-5.08-2.52-1.66,2.82.23,4.81,1.83,6.72,10.07,12.05,25.5,17.25,36.28,28.61,5.91,6.23,16.21,5.42,22.78,10.37,6.44,4.85,10.6,3.21,15.43-1.03,3.07-2.69,5.9-5.56,8.44-8.86,7.5-9.72,15.17-19.38,26.44-26.99ZM1.72,81.35c7.79,1.25,15.66,2.13,23.06,5.08,2.23.89,4.36,1.29,6.66.33,11.11-4.65,19.73-11.74,23.95-24.65-10.22,4.3-20.2,3-30.08,3.19-13.79.26-25.32,5.88-35.9,15.16,4.12,1.9,7.69-.06,12.31.9Zm23.39,9.85c-4.13-1.19-6.58.88-7.42,4.56-.73,3.24-1.07,7.21,2.73,8.76,7.21,2.93,11.45,8.28,14.42,15.14.7,1.61,2.1,2.97,5.06,2.02,1.19-4.87,5.95-8.3,7.84-13.22,2-5.19,2.72-10.89,3.88-16.4.67-3.19.18-6.36-2.36-8.48-2.73-2.28-4.62.87-6.79,1.82-5.29,2.31-9.65,7.11-17.37,5.8Z"/>
              <path d="m245.38-147.35c-11.24,11.24-24.97,19.4-36.87,30.01,11.13-3.9,21.99-8.33,33.14-12.03,14.1-4.68,35.82-.09,46.25,10.38,8.91,8.94,18.2,17.6,19.77,30.93,4.8,40.63,6.49,81.11-5.46,121.06-4.96,16.6-10.25,32.92-17,48.98-3.25,7.73-7.78,11.37-13.45,14.74-6.67,3.97-14.73,5.19-22.26,3.39-7.8-1.87-13.68-7.79-19.36-13.23-12.7-12.16-26.76-21.84-43.54-27.68-12.46-4.34-25.35-8.02-36.01-16.45-3.83-3.04-9.43-1.53-13.11-5.68-6.39-7.22-10.75-15.94-11.01-24.88-1.04-36.05,8.76-68.61,34.47-95.21,12.91-13.35,28.75-23.04,42.97-34.75,12.06-9.93,24.41-19.49,36.67-29.17.77-.61,1.84-.85,3.54-1.08.77.18,1.25.69,1.25.69Zm-91.06,85.29c-14.77,21.96-23,45.83-17.99,72.42,2.33,12.38,8.08,23.53,20.54,29.84,13.27,6.72,26.96,11.72,41.27,15.95,18.96,5.61,33.7,18.92,47.85,32.43,1.47,1.4,2.59,3.2,4.91,3.41,10.43.93,19.36-1.21,26.73-9.74,13.93-16.15,16.86-36.73,21.62-55.96,6-24.25,7.81-49.52,6.82-74.74-.77-19.58-3.98-38.29-14.57-55.56-8.84-14.42-22.21-19.18-37.34-21.7-1.61-.27-3.4.98-5.14,1.08-11.23.64-19.8,7.63-29.41,12.14-25.17,11.8-47.11,27.78-65.29,50.45Z"/>
              <path d="m148.94,253.68c8.51,12.18,21.21,16.55,34.05,20.04,6.14,1.67,8.1,3.25,5.7,9.73-4.83,13.01-22.63,20.78-35.82,14.38-6.26-3.04-13.31-5.68-16.22-13.16-2.92-7.5-1.65-14.45,4.18-19.66,4.51-4.03,6.5-7.63,2.36-12.66,2.78-2.52,3.96-.23,5.75,1.33Zm18.58,27.84c2.56-.65,4.83-1.61,5.22-4.93-2.32-3.2-6.09-4.18-9.59-5.41-4.22-1.48-6.27,1.77-7.42,4.73-1.46,3.74,1.97,4.75,4.6,5.44,1.91.5,4.02.22,7.18.17Z"/>
              <path d="m64.78,275.72c-1.12-2.98-2-5.35-5.32-5.37-2.26-.02-5.08,2.27-7.19-2.6,14.75-2.76,25.61-11.8,35.08-22.46,3.71,2.99-.36,5.36,1.12,8.18,4.85,4.13,13.14,5.44,14.71,13.84.86,4.58,1.43,9.31-.12,13.67-2.29,6.42-14.01,9.4-26.92,7.21-.83,14.22,2.57,28.54-1.17,42.59-.19.73-1.41,1.18-3.6,2.89-.24-12.86-3.14-24.19-1.57-35.8,1.07-7.92,2.35-15.65-5.03-22.15Zm13.8-15.33c-.79.65-1.61,1.27-2.35,1.96-2.17,2.02-4.14,4.2-1.65,7.19,1.62,1.95,3.56,4.26,6.36,3.31,3.62-1.23,3.49-4.7,3.26-7.8-.22-2.96.13-6.71-5.62-4.67Z"/>
              <path d="m178.92,385.37c5.31,2.52,10.18,4.7,15.62,7.14-1.79,3.2-2.91,6.55-3.37,10.27-.9,7.3-7.38,9.71-12.76,13.18-2.1,1.36-7.91-.66-6,5.33-.95.23-1.93.71-2.85.62-1.8-.17-3.3-.97-4.66-2.35-13.24-13.39-20.36-20.15.09-36.57,2.24-1.8,1.63-4.69,3.97-6.68,3.21,2.94,6.36,5.83,9.96,9.05Zm-.4,13.16c1.91-2.19,4.02-4.35.87-7.15-1.8-1.6-3.67-1.89-5.41-.03-1.91,2.04-4.58,4.27-3.06,7.24,1.49,2.9,4.37,1.71,7.6-.06Z"/>
              <path d="m108.94,417.29c-5.11.87-9.62-.89-14.61.38-3.94,1-6.19-4.47-7.8-7.27-4.04-7.02-4.7-16.18-16.49-19.07,7.56-4.39,13.83-1.75,19.04-4.58,5.26-2.87,8.81-7.63,13.43-11.12,2.35,1.4,1.8,4,3.74,5.64,12.38,10.46,13.28,17.49,4.87,31.44-.78,1.29-1.18,2.81-2.17,4.58Zm-12.82-21.39c1.88-1.8,2.76-3.83.63-5.91-1.8-1.76-3.77-.85-5.54.32-1.27.85-2.79,1.86-2.07,3.59,1.12,2.69,3.19,3.87,6.98,2Z"/>
              <path d="m134.81,411.42c7.96-.8,14.8-.24,20.68,8.28-12.65-1.9-23.79-.8-36.47,2.29,4.59-6.41,9.7-8.68,15.79-10.56Z"/>
              <path d="m134.3,309.28c-10.88-9.58-20.47-2.75-30.12,2.77,5.09-13.69,29.42-13.59,34.62-1.52-1.74,1.32-2.74-.5-4.5-1.25Z"/>
              <path d="m3.31,164.74c8.83,7.72,17.86,1.44,28.55-.72-12.1,8.61-20.37,12.3-31.39,4.49.61-1.42,1.56-2.4,2.84-3.77Z"/>
              <path d="m174.06,31.21c-19.6-4.97-27.99-12.35-29.02-26.77-.58-8.1,1.27-16.07,3.82-24.02,5.53-17.2,15.69-31.6,27-44.99,4.03-4.77,11.12-7.7,16.77-11.55,14.11-9.6,28.26-19.14,42.44-28.64,3.48-2.33,7.63-2.91,11.6-3.84,3.96-.93,4.21,1.57,3.76,4.48-21,3.33-35.3,18.55-52.12,29.25-10.37,6.6-20.1,13.83-27.87,23.71-12.76,16.22-19.6,34.64-21.67,54.87-.94,9.13,6.24,17.43,15.82,20.21,10.78,3.13,21.82,5.36,32.58,8.35,16.65,4.62,28.39,16.81,38.85,30.04,14.22,17.99,28.97,8.03,35.12-6.69,4.61-11.02,9.3-21.99,14.28-33.75,1.51,3.51.49,6.25-.41,8.63-4.08,10.76-7.87,21.7-12.88,32.03-5.99,12.36-21.6,15.35-32.87,7.2-5.04-3.64-8.82-8.44-12.93-13.01-10.67-11.85-22.95-21.13-39.74-22.49-4.02-.33-7.94-1.93-12.52-3.04Z"/>
            </g>
          </g>
        </g>
      </g>
    </g>
  </g>
</svg>