<?xml version="1.0" encoding="UTF-8"?>
<svg id="Layer_2" data-name="Layer 2" xmlns="http://www.w3.org/2000/svg" xmlns:xlink="http://www.w3.org/1999/xlink" viewBox="0 0 233.23 702.11">
  <defs>
    <style>
      .cls-1 {
        fill: none;
      }

      .cls-2 {
        clip-path: url(#clippath);
      }

      .cls-3 {
        fill: #b1f25c;
      }

      .cls-4 {
        fill: #ffb685;
        stroke: #000;
        stroke-miterlimit: 10;
        stroke-width: 2px;
      }

      .cls-5 {
        opacity: .3;
      }

      .cls-6 {
        opacity: .76;
      }
    </style>
    <clipPath id="clippath">
      <rect class="cls-1" x="35.31" y="202.43" width="170" height="209.03"/>
    </clipPath>
  </defs>
  <g id="Carrot">
    <g>
      <path class="cls-4" d="m163.67,660.57l68.03-454.95c4.3-28.76-17.97-54.61-47.05-54.61H48.58c-29.08,0-51.35,25.85-47.05,54.61l68.03,454.95c8.08,54.05,86.02,54.05,94.1,0Z"/>
      <g class="cls-6">
        <path class="cls-3" d="m99.31,149.5c-10.67-5.32-21.45-10.72-30.76-18.95s-17.16-19.68-19.68-33.27c-1.64-8.84-.95-18.14,1.07-26.86,1.69-7.3,4.57-14.68,9.82-18.84,5.97-4.74,14-4.34,20.57-.92,6.56,3.42,11.93,9.45,16.89,15.66,4.1,5.13,12.22,17.93,17.74,26.15,1.55,2.31,5.15,1.21,5.13-1.58-.17-22.07,4.9-48.08,14.27-65.58,5.82-10.89,13.07-22.87,23.76-24.18,10.99-1.35,20.25,9.25,27.58,19.23,7.87,10.71,6.96,25.82,6.96,40.14,0,5.43-1.23,15.92-2.69,21.06-4.75,16.66-8.58,26.84-13.64,36.78-6.28,12.32-18.97,19.91-25.49,32.68"/>
        <path d="m100.46,148.54c-15.41-7.69-30.93-16-41.08-30.43-4.79-6.8-8.2-14.59-9.54-22.82-1.5-9.25-.59-18.88,1.81-27.9,1.08-4.03,2.53-8.09,4.87-11.59s5.33-5.67,9.4-6.44c8.47-1.61,16.31,3.26,22.15,8.9,5.27,5.09,9.63,11,13.73,17.05,2.15,3.18,4.26,6.39,6.37,9.59,1.08,1.64,2.15,3.28,3.24,4.91.87,1.32,1.69,3.08,2.87,4.15,2.16,1.95,5.58-.29,6.63-2.44.73-1.48.35-3.51.38-5.11.04-2.12.12-4.25.25-6.37.5-8.52,1.66-17,3.47-25.34s4.12-16.13,7.43-23.76c3.07-7.06,6.91-14.15,11.68-20.22,2.15-2.73,4.65-5.35,7.76-6.96s6.78-2.14,10.27-1.44c7.75,1.56,13.77,8.07,18.53,13.94,2.53,3.12,5.07,6.32,6.78,9.98s2.65,7.53,3.22,11.46c1.17,8.11.99,16.52.79,24.69-.17,6.79-.95,13.91-2.82,20.46-2.27,7.94-4.72,15.85-7.77,23.54-2.54,6.42-5.32,13.04-9.47,18.6-4.65,6.23-10.55,11.38-15.47,17.39-2.37,2.9-4.51,5.96-6.23,9.29-.3.58.59.16.76.06.56-.32,1.18-.84,1.48-1.43,3.71-7.19,9.53-12.84,14.99-18.69,2.69-2.88,5.3-5.85,7.55-9.09,2.03-2.93,3.61-6.11,5.12-9.33,3.07-6.56,5.59-13.36,7.82-20.25,1.39-4.3,2.79-8.64,3.91-13.02.87-3.4,1.37-6.92,1.78-10.4.92-7.72.88-15.55.68-23.32-.21-8.01-1.01-16.43-4.9-23.6-1.96-3.61-4.71-6.9-7.37-10.02s-5.65-6.19-9.08-8.57c-2.95-2.05-6.33-3.64-9.94-3.97-3.41-.32-6.79.54-9.79,2.15-6.67,3.59-11.41,9.99-15.27,16.33-4.13,6.79-7.61,13.89-10.22,21.4-5.6,16.15-8.31,33.52-8.32,50.59,0,.49.05,1,0,1.49-.02.17-.14.5-.13.62.04.55-.51-.23.21-.05-.22-.06-.66.11-.91.09-.42-.03-.83-.17-1.18-.41-.59-.39-.94-1.04-1.33-1.61-.55-.83-1.1-1.65-1.65-2.48-2.19-3.31-4.36-6.64-6.56-9.95-3.98-6.01-7.98-11.95-12.72-17.39-5.43-6.24-12.17-12.43-20.69-13.61-8.05-1.11-15.29,3.16-19.6,9.81-4.66,7.2-6.53,16.37-7.28,24.8-.81,9.06.24,18.18,3.69,26.63,3.11,7.63,7.92,14.51,13.76,20.3,6.37,6.33,13.96,11.27,21.8,15.56,3.91,2.14,7.89,4.13,11.87,6.11.73.37,2.5-1.83,2.3-1.93h0Z"/>
      </g>
      <path class="cls-5" d="m202.45,197.05c-8.78-1.72-17.72-3.01-26.69-2.95-7.9,0-15.62,1.9-23.34,3.4,5.28.01,10.55-.41,15.82-.44,11.26.4,22.52.59,33.78.31.59,0,1.17-.02,1.76-.03-.45-.09-.89-.19-1.34-.28Z"/>
      <path class="cls-5" d="m169.21,480.52c-8.6-1.73-17.4-1.52-26.12-1.75,9.47,4.2,20.02,3.65,30.1,2.8.3-.02.59-.05.89-.08-1.62-.35-3.24-.68-4.87-.97Z"/>
      <g id="Happy">
        <g class="cls-2">
          <g>
            <path d="m153.12,330.82c-5.34,10.69-10.33,12.38-20.45,7.31-4.84-2.42-9.31-4.96-15.2-4.77-9.79.32-18.65-8.72-20.29-20.22,8.7,3.81,13.97,14.27,25.13,11.7,10.08-2.32,14.62-10.84,21.01-18.2-3.82,11.19,10.49,14.01,9.8,24.17Z"/>
            <path d="m-1.14,177.73c-1.43-1.9-2.46-3.38-3.66-4.71-15.19-16.77-29.75-16.1-43.1,1.93-1.73,2.34-2.51,7.55-6.92,4.15-3.47-2.68.41-5.33,1.83-7.61,11.24-18.08,25.81-22.67,43.09-13.33,6.98,3.77,9.95,10.9,12.57,17.87.89,2.36.21,5.45-3.8,1.7Z"/>
            <path d="m172.23,275.2c-12.42-7.98-17.45-6.78-22.93,5.16-.97,2.11-1.78,3.83-4.39,3.61-3.42-.29-3.31-2.94-3.42-5.35-.29-6.46,10.19-15.98,18.57-16.92,12.58-1.41,22.76,9.08,20.73,21.55-5-.09-4.89-5.66-8.55-8.05Z"/>
            <path d="m61.34,284.38c-.44-11.46,8.56-22,17.94-22.09,8.59-.08,20.05,8.73,20.5,15.91-3.76.84-6.02-1.87-8.7-3.61-9.69-6.3-19.5-3.66-24.59,6.76-1.04,2.13-1.05,5.05-5.15,3.03Z"/>
            <path d="m9.76,109.24c13.29-3.49,21.87,1.99,21.47,14.25-4.79-4.92-9.02-8.22-16.44-6.47-7.3,1.72-9.62,7.3-13.51,12.08-3.7-6.79-.93-13.42,8.48-19.87Z"/>
            <path d="m81.43,235.1c-10.83,1.36-14.62,10.18-19.26,17.42-4.65-2.57-5.12-6.09-3.46-9.06,3.24-5.79,7.21-11.6,13.76-13.74,3.6-1.18,10.34-4.25,8.97,5.38Z"/>
            <path d="m58.19,311.91c4.17-5.13,8.96-7.65,15.12-6.76,3.24.47,6.31,1.95,5.31,5.63-1.72,6.36-8.02,6.44-12.99,7.6-4.16.97-7.84-.31-7.44-6.48Z"/>
            <path d="m174.03,297.72c3.09-.39,5.48-1.04,7.8-.84,2.58.23,4.2,2.22,4.9,4.68.86,3.01-1.2,4.41-3.46,5.45-1.9.87-3.87,1.69-5.89,2.14-3.1.69-7.03,2.3-8.35-2.17-1.12-3.78-1.14-7.97,5-9.26Z"/>
            <path d="m155.58,236.24c1.45-7.82,6.99-6.12,11.23-4.74,6.8,2.2,12.51,6.01,9.55,17.4-5.01-9.17-13.11-9.8-20.79-12.66Z"/>
          </g>
        </g>
      </g>
      <path class="cls-5" d="m100.02,384.87c-13.38-2.14-26.96-1.28-40.41-.43,15.26,4.47,31.3,3.66,46.91,1.77.26-.03.51-.06.77-.09-2.41-.47-4.83-.89-7.26-1.25Z"/>
      <path class="cls-5" d="m21.3,176.32c5.87,1.65,12,1.77,18.06,1.43-5.89-1.55-12-1.88-18.06-1.43Z"/>
      <path class="cls-5" d="m132.79,628.57c6.11,3,12.89,3.93,19.63,4.15-6.18-2.76-12.88-4-19.63-4.15Z"/>
      <path class="cls-5" d="m57.9,521.66c6.9,2.02,14.13,2.07,21.25,1.55-6.92-1.9-14.13-2.19-21.25-1.55Z"/>
    </g>
  </g>
</svg>