<?xml version="1.0" encoding="UTF-8"?>
<svg id="Layer_2" data-name="Layer 2" xmlns="http://www.w3.org/2000/svg" viewBox="0 0 346.5 174.5">
  <defs>
    <style>
      .cls-1 {
        fill: #fff;
      }
    </style>
  </defs>
  <g id="Layer_1-2" data-name="Layer 1">
    <path class="cls-1" d="m346.5,113.1c0,11.03-4.23,21.26-11.47,29.73-.9,1.11-2.57,2.93-5.05,5.11-5.89,5.21-12.74,9.18-20.09,11.79-7.93,2.82-16.52,4.64-25.98,6.07-27.62,5.4-64.23,8.69-104.38,8.69-56,0-105.1-6.4-132.56-16.01C19.82,151.46,0,129.45,0,103.41c0-31.73,29.4-57.45,65.67-57.45,10.65,0,20.71,2.22,29.61,6.15C108.83,21.57,141.91,0,180.59,0c42.36,0,78.03,25.89,88.64,61.09,3.65-.51,7.42-.77,11.25-.77,36.46,0,66.02,23.63,66.02,52.78Z"/>
  </g>
</svg>