<?xml version="1.0" encoding="UTF-8"?>
<svg id="Layer_2" data-name="Layer 2" xmlns="http://www.w3.org/2000/svg" viewBox="0 0 141.04 140.91">
  <defs>
    <style>
      .cls-1 {
        fill: #ffd6a5;
      }

      .cls-2 {
        fill: #fdffb6;
      }
    </style>
  </defs>
  <g id="Layer_1-2" data-name="Layer 1">
    <g>
      <path class="cls-1" d="m95.82,139.87l-32.59-24.16c-1.39-1.03-3.2-1.31-4.84-.75l-38.38,13.15c-4.13,1.41-8.08-2.52-6.7-6.65l12.91-38.47c.55-1.64.26-3.45-.78-4.84L1.06,45.71c-2.62-3.49-.1-8.47,4.26-8.42l40.57.39c1.73.02,3.36-.82,4.36-2.24L73.58,2.24c2.51-3.57,8.02-2.71,9.33,1.45l12.17,38.71c.52,1.65,1.82,2.94,3.47,3.45l38.78,11.92c4.17,1.28,5.06,6.79,1.51,9.32l-33.05,23.53c-1.41,1-2.24,2.64-2.21,4.37l.65,40.57c.07,4.36-4.89,6.91-8.4,4.31Z"/>
      <ellipse class="cls-2" cx="67.52" cy="74.18" rx="39.08" ry="39.1" transform="translate(-25.93 110.64) rotate(-69)"/>
    </g>
  </g>
</svg>