<?xml version="1.0" encoding="UTF-8"?><svg id="busk" xmlns="http://www.w3.org/2000/svg" width="105" height="270" viewBox="0 0 105 270"><defs><style>.cls-1{fill:#f2f2f2;}.cls-2{fill:#027333;}.cls-3{fill:#e6e6e6;}.cls-4{fill:#fff;}.cls-5{fill:#ffb2d3;}.cls-6{fill:#9e0f69;}.cls-7{fill:#b3b3b3;}.cls-8{fill:#b20b0b;}.cls-9{fill:#d94e8f;}.cls-10{fill:#d90d0d;}</style></defs><rect class="cls-1" x="31.31" width="47.48" height="26.89" rx="2.36" ry="2.36"/><path class="cls-1" d="m75.5,33.21c.43,0,.78-.29.78-.65v-5.02c0-.36-.35-.65-.78-.65h-41.17c-.43,0-.78.29-.78.65v5.02c0,.36.35.65.78.65h41.17Z"/><path class="cls-4" d="m77.69,36.08c-1.72-1.96-2.98-2.87-4.44-2.87h-37.83c-1.52,0-2.81.97-3.02,2.28-1.12,4.84-2.1,9.46-2.05,12.47-1.34,4-1.37,6.33,2.33,5.72l4.18-17.77,1.1.1-4.11,17.44c13.73,1.57,27.95,1.84,42.63.85,2.04-.41,3.48-1.93,4.57-2.86l-3.36-15.38Zm-38.45,17.46l-1.1-.1,4.11-17.45,1.1.1-4.11,17.45Zm6.75.16l-1.11-.06,2.22-17.57,1.11.06-2.22,17.57Zm6.67,0h-1.11v-17.62h1.11v17.62Zm7.41-.02l-3.69-17.48,1.1-.09,3.69,17.48-1.1.09Zm7.43-.05l-5.22-17.35,1.09-.13,5.22,17.35-1.09.13Zm7.78,0l-5.22-17.35,1.09-.13,5.22,17.35-1.09.13Z"/><polygon class="cls-7" points="36.86 35.92 32.68 53.69 32.42 54.79 33.52 54.9 33.86 53.47 37.96 36.03 36.86 35.92"/><polygon class="cls-7" points="38.14 53.43 39.24 53.54 43.35 36.08 42.25 35.98 38.14 53.43"/><polygon class="cls-7" points="44.89 53.65 46 53.7 48.22 36.13 47.11 36.08 44.89 53.65"/><rect class="cls-7" x="51.55" y="36.08" width="1.11" height="17.62"/><polygon class="cls-7" points="56.37 36.19 60.07 53.68 61.17 53.58 57.47 36.1 56.37 36.19"/><polygon class="cls-7" points="62.28 36.28 67.5 53.63 68.59 53.5 63.37 36.15 62.28 36.28"/><polygon class="cls-7" points="70.05 36.28 75.28 53.63 76.37 53.5 71.14 36.15 70.05 36.28"/><path class="cls-10" d="m53.62,269.93c-10.96-1.06-49.51.03-51.71-11.21-2.08-10.6-4.1-115.83,3.39-128.78,5.53-9.56,24.87-62.68,24.87-64.96,9.04,1.14,49.75-.98,50.88,1.22s17.25,63.41,20.35,68.3c4.17,6.58,5.38,122.98,0,125.17-4.78,1.94-37.9,11.22-47.78,10.26Z"/><path class="cls-3" d="m82.78,72.75c-18.15,1.13-35.73.82-52.71-.99-6.23-.66-6.66-1.12-4.44-6.65,1.11-4.15,1.35-8.42,2.73-13.98-.77-1.29-2.87-1.63,5.95,1.53h46.69c-.41-4.15.92-2.82,1.26-1.38l4.37,17.38c.44,1.88-1.34,3.63-3.86,4.1Z"/><path class="cls-8" d="m26.66,72.17c.82.24,13.44,1.43,30.02,1.43s30.02-.64,30.02-1.43-13.44-1.4-30.02-1.43c-43.85-.07-32.76.63-30.02,1.43Z"/><path class="cls-8" d="m1.68,258.26c-2.07,4.2,21.13,10.94,49.86,10.63,26.55-.29,45.98-7.4,49.86-10.63,3.39-2.82-22.39,3.69-49.75.54-48.62-5.6-47.48-5.6-49.98-.54Z"/><path class="cls-4" d="m76.69,242.3c-9.54,6.4-44.29,4.9-48.49-.85-3.66-5.02-26.26-76.84-15.5-79.48,9.87-2.42,13.36,2.75,14.59-2.09s-.32-11.85,3.37-16.69c3.82-5.02,11.28-4.17,22.45-4.17s23.6-1.12,26.94,4.17c3.44,5.44-.06,18.47,4.87,19.67s8.63-3.63,13.57,1.21c3.7,3.63-15.28,73.84-21.81,78.22Z"/><path class="cls-7" d="m51.4,258.8c-7.68,0-15.15-.65-20.49-1.79-5.84-1.24-9.33-2.99-10.68-5.33-2.09-3.64-7.82-25.32-11.79-44.62-3.89-18.95-7.79-43.26-4.23-51.48,1.06-2.44,2.63-3.28,3.77-3.56,6.44-1.57,10.76.6,13.34,1.91.3.15.67.34.98.48.01-.05.03-.11.05-.17.5-1.93-.42-4.51-1.4-7.24-1.52-4.23-3.24-9.02-.17-13.34,4.99-7.02,21.72-10.86,34.37-10.38,14.27.54,28.53,1.71,32.36,9.45,1.96,3.95,1.21,8.7.56,12.9-.4,2.55-.94,6.05,0,6.36,1.42.46,2.86.09,4.52-.34,3-.77,7.11-1.83,11.15,3.13.71.88,1.91,2.35.03,16.41-2.84,21.2-14.47,76.83-21.47,81.88h0c-5.6,4.04-18.53,5.72-30.89,5.72ZM12.35,155.96c-1,0-2.1.12-3.3.42-.12.03-.41.31-.69.98-5.7,13.16,12.72,86.77,15.8,92.11.1.18,1.19,1.78,7.7,3.16,14.31,3.05,40.54,2.03,47.77-3.18,2.19-1.69,7.68-18.11,13.54-45.23,5.47-25.32,7.83-43.83,6.92-46.76-2.14-2.55-3.66-2.16-6.37-1.46-1.96.5-4.39,1.13-7.08.26-4.59-1.5-3.78-6.71-3.06-11.3.55-3.54,1.18-7.56-.15-10.24-2.96-5.99-20.19-6.63-28.47-6.95-12.48-.47-27.01,3.57-30.5,8.48-1.6,2.26-.79,5,.73,9.26,1.16,3.25,2.37,6.6,1.52,9.86-.3,1.15-.88,2.76-2.43,3.46-1.72.77-3.32-.04-5.02-.9-1.71-.86-3.89-1.96-6.91-1.96Zm67.28,93.49h0Zm20.43-92.09h0Z"/><path class="cls-9" d="m23.58,213.37c-8.44-13.08-1.71-32.15,7.43-38.28,4.79-3.21,3.39-.49,12.7-3.85,12.46-4.49,10.76-6.36,17.3-7.91,9.99-2.36,29.93,11.11,29.1,31-1.21,28.93-48.42,47.11-66.53,19.03Z"/><path class="cls-2" d="m71.41,174.77c-3.48-8.14-11.39-10.01-21.02-5.15,9.84-1.18,14,.48,21.02,5.15Z"/><path class="cls-2" d="m66.21,163c-7.18-7.32-13.46,3.01-16.44,7.33,4.12-1.56,8.22-5.95,11.01-8.3,2.49-2.1,2.31,1.86,5.43.98Z"/><path class="cls-2" d="m49.7,169.74c1.46,2.42,1.36,1.52,1.64,4.68.31,3.39,6.33,6.26,6.43,10.88,4.14-6.75,2.34-13.17-8.07-15.55Z"/><path class="cls-2" d="m49.86,170.33c-2.54,1.42-3.52,7.91-1.75,9.57,2.1-1.23,3.57-7.77,1.75-9.57Z"/><path class="cls-2" d="m49.96,171.17c-5.42,3.63-10.48,7.85-8.46,13.52,2.44-4.76,8.14-8.17,8.46-13.52Z"/><path class="cls-2" d="m51.78,170.79c-21.4-2.46-12.9,5.93-19.44,7.35,9.45.99,14.12-9.62,19.44-7.35Z"/><path class="cls-2" d="m50.16,170.8c-.05-2.47-5.66-7.1-9.07-7.46-1.44,1.47,3.12,1.9,3.71,2.87,2.18,1.38,4.21,4.79,5.36,4.59Z"/><path class="cls-6" d="m29.81,177.29c2.97-2.74-10.72,19.5-3.14,34.72,7.11,14.29,17.75,12.95,19.52,13.74,2.93,1.3-17.34-1.57-22.99-11.54-7.93-13.97.54-31.76,6.62-36.93Z"/><path class="cls-4" d="m72.07,169.9c-.05-3.2,7.41,4.88,10.95,10.39,2.65,4.13,4.13,11.41,2.95,15.28-1.08,3.54-1.86,2.82-3.79.96-.88-.85.24-5.46-.05-8.69-.21-2.35-3.02-8.29-5.68-10.52-2.83-2.37-4.3-2.81-4.38-7.42Z"/><path class="cls-6" d="m34.87,112.17c-.08.22-.21.42-.38.59-.18.17-.36.3-.54.4-.21-.17-.46-.33-.74-.46-.28-.13-.67-.19-1.18-.16-.91.06-1.76.41-2.58,1.07-.82.65-1.5,1.56-2.03,2.73-.54,1.19-.64,2.06-.29,2.6.35.55,1.07.79,2.13.72.55-.04,1.05-.13,1.51-.3.45-.16.87-.35,1.25-.56.13.09.22.22.26.39.05.17.03.36-.05.58-.07.19-.18.36-.35.53-.16.16-.41.31-.7.45-.29.14-.69.29-1.18.44-.49.14-1.07.24-1.74.28-.81.05-1.52,0-2.12-.18-.6-.17-1.05-.46-1.35-.86-.3-.41-.43-.93-.39-1.58.04-.65.29-1.43.74-2.34.43-.88.94-1.66,1.52-2.35.58-.69,1.2-1.28,1.85-1.76.65-.49,1.31-.87,2-1.14.68-.28,1.34-.43,1.98-.48.44-.03.83-.01,1.16.05.33.06.6.16.81.29.21.13.35.29.41.47.07.18.07.38,0,.59Z"/><path class="cls-6" d="m39.28,112.62c1.06-.05,1.84.15,2.37.59.53.44.7,1.15.48,2.12-.34,1.53-.51,2.3-.84,3.83-.06.27-.18.48-.36.64-.18.16-.39.3-.64.43-.39.2-.86.37-1.41.5-.56.13-1.17.21-1.85.24-1.23.05-2.14-.11-2.7-.5-.56-.39-.69-1.02-.4-1.87.25-.74.69-1.33,1.31-1.75.62-.42,1.4-.7,2.35-.83.96-.14,1.44-.2,2.4-.33.03-.12.05-.18.08-.3.11-.42.03-.72-.22-.91-.25-.19-.66-.27-1.21-.24-.43.02-.87.09-1.31.22-.44.13-.85.27-1.22.45-.09-.08-.16-.2-.19-.34-.03-.15-.02-.31.04-.49.07-.22.18-.41.33-.55.15-.14.36-.29.62-.4.35-.15.74-.27,1.16-.35.42-.09.83-.14,1.24-.15Zm-1.81,6.76c.35-.02.68-.06.98-.13.3-.07.53-.16.69-.25.19-.74.28-1.11.47-1.84-.69.09-1.04.13-1.73.22-.48.07-.86.18-1.15.34-.29.16-.49.4-.58.72-.1.32-.05.57.16.73.2.17.6.23,1.17.21Z"/><path class="cls-6" d="m46.2,118.77c.21.15.53.22.95.21.2,0,.41-.03.63-.08.22-.05.41-.11.59-.18.09.09.15.19.21.32.05.13.07.27.05.44-.04.33-.23.61-.58.83-.36.22-.91.34-1.65.35-.97.02-1.71-.15-2.2-.53-.49-.38-.64-1.02-.47-1.92.56-3.04.84-4.56,1.41-7.6.09-.02.21-.06.38-.09.17-.04.34-.06.53-.06.36,0,.62.06.77.19.15.14.2.39.14.76-.08.55-.12.82-.21,1.37.96-.02,1.44-.03,2.39-.05.04.09.08.2.11.34.03.14.03.3.02.46-.03.29-.12.5-.27.63-.15.13-.33.2-.56.21-.78.01-1.17.02-1.94.04-.22,1.44-.33,2.16-.54,3.61-.05.35.02.6.24.75Z"/><path class="cls-6" d="m54.78,113.94c-.33,0-.64.06-.93.17-.29.11-.54.27-.75.48-.22.21-.39.47-.53.78-.14.31-.22.67-.24,1.08-.04.82.15,1.43.6,1.84.45.41,1.05.61,1.79.61.42,0,.78-.05,1.09-.16.31-.1.58-.22.81-.34.17.11.31.24.41.38.1.14.16.31.17.5,0,.37-.23.68-.71.92-.49.24-1.15.36-1.99.36-.7,0-1.34-.08-1.92-.25-.57-.17-1.06-.42-1.45-.76-.39-.34-.67-.77-.85-1.29-.18-.52-.23-1.11-.17-1.8.06-.69.23-1.3.5-1.83.27-.53.6-.97,1-1.32.4-.35.85-.61,1.36-.79.51-.17,1.04-.26,1.6-.26.72,0,1.3.13,1.74.39.44.26.66.58.67.95,0,.18-.04.34-.13.48-.09.14-.2.26-.32.35-.23-.12-.48-.23-.75-.34-.27-.1-.6-.16-.99-.16Z"/><path class="cls-6" d="m61.04,120.43c-.18.03-.39.04-.62.04-.43,0-.76-.08-.97-.22-.22-.14-.33-.4-.35-.76-.21-3.95-.32-5.93-.53-9.88.08-.03.2-.06.36-.09.16-.03.33-.04.53-.04.36,0,.63.08.82.22.19.15.3.4.33.76.08.91.12,1.37.2,2.28.23-.12.49-.22.79-.3.3-.08.64-.12,1.01-.11.98.02,1.8.3,2.47.83.67.53,1.11,1.33,1.3,2.37.35,1.97.52,2.96.87,4.94-.09.02-.23.04-.42.07-.18.03-.39.04-.61.03-.44-.01-.78-.09-1.01-.24-.23-.15-.37-.4-.42-.77-.22-1.6-.34-2.39-.56-3.99-.08-.55-.28-.95-.6-1.21-.32-.25-.72-.39-1.18-.39-.3,0-.57.04-.82.13-.25.09-.47.2-.67.33.21,2.37.32,3.55.53,5.92-.11.02-.25.05-.44.08Z"/><path class="cls-6" d="m77.23,119.99c-.04.17-.17.31-.38.43-.29.18-.69.33-1.19.43-.51.11-1.11.15-1.82.11-.64-.03-1.24-.11-1.78-.26-.55-.15-1.04-.36-1.46-.64-.43-.28-.78-.63-1.06-1.04-.28-.42-.48-.9-.6-1.47-.41-1.93-.61-2.89-1.02-4.82.08-.03.2-.06.36-.08s.34-.03.55-.02c.38.01.68.09.89.24.22.15.37.41.47.78.39,1.58.58,2.37.97,3.95.14.58.4.99.78,1.26.38.26.87.4,1.45.43.37.02.68,0,.92-.06.24-.05.41-.12.52-.19-.72-2.44-1.09-3.66-1.81-6.11.08-.03.19-.05.35-.07.16-.02.34-.03.53-.02.39.02.69.1.92.25.22.15.4.41.52.79.72,2.19,1.09,3.28,1.81,5.47.08.26.11.47.07.63Z"/><path class="cls-6" d="m84.23,121.53c-.36-.02-.7-.08-1.03-.16-.33-.08-.63-.17-.91-.28.49,1.23.74,1.85,1.23,3.08-.11.01-.25.03-.43.05-.18.02-.39.02-.64,0-.45-.03-.81-.12-1.08-.28-.27-.16-.47-.42-.61-.79-1.24-3.39-1.85-5.08-3.09-8.47-.1-.27-.12-.48-.08-.64.04-.16.15-.31.33-.44.24-.17.57-.31.98-.42.41-.11.9-.15,1.48-.11.59.04,1.17.16,1.75.36.58.2,1.13.48,1.66.85.53.37,1.03.83,1.5,1.37.47.54.88,1.18,1.24,1.91.35.71.54,1.32.58,1.83.04.51-.04.93-.26,1.26-.21.33-.55.57-1,.71-.45.14-1,.19-1.64.15Zm-1.06-1.72c.72.05,1.19-.12,1.41-.5.22-.39.12-1.01-.27-1.89-.41-.91-.9-1.57-1.46-1.97-.56-.41-1.14-.63-1.75-.67-.3-.02-.55,0-.74.07-.2.06-.36.13-.49.21.69,1.72,1.03,2.58,1.72,4.3.23.12.48.23.74.31.26.08.54.13.84.15Z"/><path class="cls-5" d="m35.83,111.49c-.08.22-.21.42-.38.59-.18.17-.36.3-.54.4-.21-.17-.46-.33-.74-.46-.28-.13-.67-.19-1.18-.16-.91.06-1.76.41-2.58,1.07-.82.65-1.5,1.56-2.03,2.73-.54,1.19-.64,2.06-.29,2.6.35.55,1.07.79,2.13.72.55-.04,1.05-.13,1.51-.3.45-.16.87-.35,1.25-.56.13.09.22.22.26.39.05.17.03.36-.05.58-.07.19-.18.36-.35.53-.16.16-.41.31-.7.45-.29.14-.69.29-1.18.44-.49.14-1.07.24-1.74.28-.81.05-1.52,0-2.12-.18-.6-.17-1.05-.46-1.35-.86-.3-.41-.43-.93-.39-1.58.04-.65.29-1.43.74-2.34.43-.88.94-1.66,1.52-2.35.58-.69,1.2-1.28,1.85-1.76.65-.49,1.31-.87,2-1.14.68-.28,1.34-.43,1.98-.48.44-.03.83-.01,1.16.05.33.06.6.16.81.29.21.13.35.29.41.47.07.18.07.38,0,.59Z"/><path class="cls-5" d="m40.24,111.94c1.06-.05,1.84.15,2.37.59.53.44.7,1.15.48,2.12-.34,1.53-.51,2.3-.84,3.83-.06.27-.18.48-.36.64-.18.16-.39.3-.64.43-.39.2-.86.37-1.41.5-.56.13-1.17.21-1.85.24-1.23.05-2.14-.11-2.7-.5-.56-.39-.69-1.02-.4-1.87.25-.74.69-1.33,1.31-1.75.62-.42,1.4-.7,2.35-.83.96-.14,1.44-.2,2.4-.33.03-.12.05-.18.08-.3.11-.42.03-.72-.22-.91-.25-.19-.66-.27-1.21-.24-.43.02-.87.09-1.31.22-.44.13-.85.27-1.22.45-.09-.08-.16-.2-.19-.34-.03-.15-.02-.31.04-.49.07-.22.18-.41.33-.55.15-.14.36-.29.62-.4.35-.15.74-.27,1.16-.35.42-.09.83-.14,1.24-.15Zm-1.81,6.76c.35-.02.68-.06.98-.13.3-.07.53-.16.69-.25.19-.74.28-1.11.47-1.84-.69.09-1.04.13-1.73.22-.48.07-.86.18-1.15.34-.29.16-.49.4-.58.72-.1.32-.05.57.16.73.2.17.6.23,1.17.21Z"/><path class="cls-5" d="m47.16,118.08c.21.15.53.22.95.21.2,0,.41-.03.63-.08.22-.05.41-.11.59-.18.09.09.15.19.21.32.05.13.07.27.05.44-.04.33-.23.61-.58.83-.36.22-.91.34-1.65.35-.97.02-1.71-.15-2.2-.53-.49-.38-.64-1.02-.47-1.92.56-3.04.84-4.56,1.41-7.6.09-.02.21-.06.38-.09.17-.04.34-.06.53-.06.36,0,.62.06.77.19.15.14.2.39.14.76-.08.55-.12.82-.21,1.37.96-.02,1.44-.03,2.39-.05.04.09.08.2.11.34.03.14.03.3.02.46-.03.29-.12.5-.27.63-.15.13-.33.2-.56.21-.78.01-1.17.02-1.94.04-.22,1.44-.33,2.16-.54,3.61-.05.35.02.6.24.75Z"/><path class="cls-5" d="m55.74,113.25c-.33,0-.64.06-.93.17-.29.11-.54.27-.75.48-.22.21-.39.47-.53.78-.14.31-.22.67-.24,1.08-.04.82.15,1.43.6,1.84.45.41,1.05.61,1.79.61.42,0,.78-.05,1.09-.16.31-.1.58-.22.81-.34.17.11.31.24.41.38.1.14.16.31.17.5,0,.37-.23.68-.71.92-.49.24-1.15.36-1.99.36-.7,0-1.34-.08-1.92-.25-.57-.17-1.06-.42-1.45-.76-.39-.34-.67-.77-.85-1.29-.18-.52-.23-1.11-.17-1.8.06-.69.23-1.3.5-1.83.27-.53.6-.97,1-1.32.4-.35.85-.61,1.36-.79.51-.17,1.04-.26,1.6-.26.72,0,1.3.13,1.74.39.44.26.66.58.67.95,0,.18-.04.34-.13.48-.09.14-.2.26-.32.35-.23-.12-.48-.23-.75-.34-.27-.1-.6-.16-.99-.16Z"/><path class="cls-5" d="m62,119.75c-.18.03-.39.04-.62.04-.43,0-.76-.08-.97-.22-.22-.14-.33-.4-.35-.76-.21-3.95-.32-5.93-.53-9.88.08-.03.2-.06.36-.09.16-.03.33-.04.53-.04.36,0,.63.08.82.22.19.15.3.4.33.76.08.91.12,1.37.2,2.28.23-.12.49-.22.79-.3.3-.08.64-.12,1.01-.11.98.02,1.8.3,2.47.83.67.53,1.11,1.33,1.3,2.37.35,1.97.52,2.96.87,4.94-.09.02-.23.04-.42.07-.18.03-.39.04-.61.03-.44-.01-.78-.09-1.01-.24-.23-.15-.37-.4-.42-.77-.22-1.6-.34-2.39-.56-3.99-.08-.55-.28-.95-.6-1.21-.32-.25-.72-.39-1.18-.39-.3,0-.57.04-.82.13-.25.09-.47.2-.67.33.21,2.37.32,3.55.53,5.92-.11.02-.25.05-.44.08Z"/><path class="cls-5" d="m78.19,119.31c-.04.17-.17.31-.38.43-.29.18-.69.33-1.19.43-.51.11-1.11.15-1.82.11-.64-.03-1.24-.11-1.78-.26-.55-.15-1.04-.36-1.46-.64-.43-.28-.78-.63-1.06-1.04-.28-.42-.48-.9-.6-1.47-.41-1.93-.61-2.89-1.02-4.82.08-.03.2-.06.36-.08s.34-.03.55-.02c.38.01.68.09.89.24.22.15.37.41.47.78.39,1.58.58,2.37.97,3.95.14.58.4.99.78,1.26.38.26.87.4,1.45.43.37.02.68,0,.92-.06.24-.05.41-.12.52-.19-.72-2.44-1.09-3.66-1.81-6.11.08-.03.19-.05.35-.07.16-.02.34-.03.53-.02.39.02.69.1.92.25.22.15.4.41.52.79.72,2.19,1.09,3.28,1.81,5.47.08.26.11.47.07.63Z"/><path class="cls-5" d="m85.19,120.84c-.36-.02-.7-.08-1.03-.16-.33-.08-.63-.17-.91-.28.49,1.23.74,1.85,1.23,3.08-.11.01-.25.03-.43.05-.18.02-.39.02-.64,0-.45-.03-.81-.12-1.08-.28-.27-.16-.47-.42-.61-.79-1.24-3.39-1.85-5.08-3.09-8.47-.1-.27-.12-.48-.08-.64.04-.16.15-.31.33-.44.24-.17.57-.31.98-.42.41-.11.9-.15,1.48-.11.59.04,1.17.16,1.75.36.58.2,1.13.48,1.66.85.53.37,1.03.83,1.5,1.37.47.54.88,1.18,1.24,1.91.35.71.54,1.32.58,1.83.04.51-.04.93-.26,1.26-.21.33-.55.57-1,.71-.45.14-1,.19-1.64.15Zm-1.06-1.72c.72.05,1.19-.12,1.41-.5.22-.39.12-1.01-.27-1.89-.41-.91-.9-1.57-1.46-1.97-.56-.41-1.14-.63-1.75-.67-.3-.02-.55,0-.74.07-.2.06-.36.13-.49.21.69,1.72,1.03,2.58,1.72,4.3.23.12.48.23.74.31.26.08.54.13.84.15Z"/></svg>