<?xml version="1.0" encoding="UTF-8"?><svg id="green_tomat" xmlns="http://www.w3.org/2000/svg" width="1920" height="1080" viewBox="0 0 1920 1080"><defs><style>.cls-1{fill:#333a2c;}</style></defs><path class="cls-1" d="m1343.47,995.69c.26-1.52.53-2.97.91-4.46,11.9-46.93,75.43-103.52,143-108.19,28.2-1.95,54.93,39.7,54.93,33.27,0-39.82,68.8-52.76,99.45-52.76,11.4,0-8.82-70.58,0-62.92,23,37.38,72.02-5.38,32.53-5.35-5.18,0-9.73-3.61-10.7-8.69-4.57-24.04-29.3-44.35,8.9-26.46,3.53,1.65,7.63,1.08,10.76-1.25,13.35-9.92,25.68,15.72,48.21,18.62.83.11,1.68.12,2.51,0,15.6-2.21,31.37-37.27,42.24-30.9,1.94,1.13,4.15,1.74,6.39,1.55,21.45-1.82,41.56,7.05,57.72,23.14,1.93,1.92,4.5,3.07,7.22,3.19,53.04,2.47,71.94,37.05,68.91,85.7-.19,2.99.86,5.91,2.89,8.1,26.8,28.99,29.81,97.09,7.23,131.08-1.56,2.34-2.05,5.23-1.51,7.99,4.12,21.19,6.58,43.21,7.2,65.83.17,6.12-4.71,11.18-10.83,11.18h-242.3s-236.49,0-236.49,0c-10.71,0-14.93-13.89-6.03-19.85,7.76-5.19,3.6,11.47-8.07,16.77-118.47,53.78-90.2-55.23-85.07-85.62Z"/><path class="cls-1" d="m566.23,965.53c-13.03-44.35-79.37-16.81-70.34-65.83,1.64-47.3-62.29-75.54-101.5-49.37-18.58-7.46-38.18-13.26-58.56-17.23-8.65-8.79-20.7-14.25-34.03-14.25-54.1,19.59-37.09-23.08-95.35-22.62-20.23,0-38.53,7.15-51.7,18.68-27.34-3.04-55.63,5.31-76.19,21.19-59.33,1.93-90.89,20.48-85.61,74.69-35.63,22.52-40.77,84.49-9.47,113.38-6.34,21.45-9.72,43.97-9.72,67.19,148.53-.08,447.43.06,595.92,0,0-24.97-3.91-49.14-11.2-72.04,12.54-12.69,16.23-34.1,7.75-53.79Z"/></svg>