<?xml version="1.0" encoding="UTF-8"?><svg id="ekstra_tomater" xmlns="http://www.w3.org/2000/svg" width="135" height="115" viewBox="0 0 135 115"><defs><style>.cls-1{fill:#f27d72;}.cls-2{fill:#fff;}.cls-3{fill:#cb242b;}.cls-4{fill:#313a26;}.cls-5{opacity:.79;}</style></defs><path class="cls-1" d="m132.96,58.11c-4.21,33.3-30.2,55.34-65.33,53.04C32.26,108.84-3.72,85.56,1.52,56.88,12.76-4.63,42.17,19.46,66.59,15.18c29.5-5.16,71.58,1.68,66.37,42.93Z"/><path class="cls-3" d="m75.32,111.45c-31.96,3.69-60.3-7.64-70.4-32.53-1.25-3.07-10.39-23.1-.3-43.47,1.42-2.87,9.59-19.37,25.44-23.07,15.44-3.6,23.48,8.39,39.64,2.96,8.4-2.82,8.26-6.75,17.16-8.87,14.39-3.44,26.96,3.93,27.8,4.44,19.19,11.62,18.98,38.13,18.93,40.22-.65,28.44-27.36,56.76-58.27,60.33Z"/><g class="cls-5"><path class="cls-4" d="m85.31,37.93c0,.11,0,.22,0,.33,0-.11,0-.22,0-.33Z"/><path class="cls-4" d="m80.36,17.64c6.36-1.09,12.25,6.51,16.25,9.99,0,0-1.18-2.17-1.48-6.93-.3-4.76-7.71-4.58-15.39-6.31-7.01-1.58-7.82,7.22-12.86,5.24.12-.13.2-.3.21-.49-.46-5.8-2.45-12.07,4-14.82.19-.14-.44-.23-.6-.39.07-.15.13-.3.19-.46-.1-.23,0-.66-.35-.52-6.03,3.6-4.7,9.91-4.88,15.9-.06-.04-.11-.08-.17-.12-2.83-3.47-1.88-.87-.47,1.52-1.18,1.68,0,0-3.82-6.51-3.82-6.51-11.02-4.56-13.14-5.43-2.12-.87-5.42.65-6.36,5.43l-.25.55s.25-.55,3.31-3.15c3.06-2.61,9.71,2.61,16.44,7.82-1.46-.65-7.96-1.52-13.85,0-5.89,1.52-6.83,11.51-5.18,16.72,0,0,5.89-6.95,7.77-9.77s12.72-4.34,13.43-4.12,1.65,1.74,1.41,3.26c.11,3.04-3.48,8.9-3.53,10.64-.05,1.74,2.59,8.9,4.3,11.67.53-.06,4.73-6.33,3.48-12.32-2.83-13.46,1.65-13.24,1.65-13.24l2.94,1.28s1.3.24,2,4.58c.23,1.42,9.88,3.92,9.9,10.31.27-9.48-7.87-11.63-7.93-14.89,2.21.2,1.56-.41,6.04,1.54,4.48,1.95,5.18,1.95,3.64,1.74-1.54-.22,6.72,3.69,4.84,0-1.88-3.69-10.13-6.08-18.61-8.03.24-1.09.71.44,7.07-.65Z"/></g><path class="cls-2" d="m17.2,84.49c-2.01,4.8-8.34-11.82-10.24-22.19-1.42-7.77,1.05-19.51,5.41-24.54,4-4.61,4.75-3.06,6.53.9.81,1.8-3.94,7.97-5.61,12.96-1.21,3.63-.73,14.18,1.94,19.13,2.84,5.27,4.86,6.82,1.96,13.73Z"/></svg>