<?xml version="1.0" encoding="UTF-8"?><svg xmlns="http://www.w3.org/2000/svg" width="609" height="507" xmlns:xlink="http://www.w3.org/1999/xlink" viewBox="0 0 609 507"><defs><style>.cls-1{fill:none;}.cls-2{fill:#f27d72;}.cls-3{fill:#fff;}.cls-4{fill:#f2aa52;}.cls-5{fill:#9e0f44;}.cls-6{fill:#5c7346;}.cls-7{fill:#313a26;}.cls-8{opacity:.79;}</style><symbol id="New_Symbol" viewBox="0 0 545.38 512.76"><rect class="cls-1" width="545.38" height="512.76"/><path class="cls-4" d="m1.98,401.24c8.07,30.16,28.4,51.7,54.47,51.93,3.21.03,24.55,1.14,39.35-15.24,2.08-2.3,14.07-15.57,11.75-31.19-2.26-15.22-15.95-18.2-16.81-34.72-.45-8.59,3.14-9.87,1.89-18.65-2.03-14.21-13.16-22.93-13.92-23.51-17.33-13.18-41.19-3.53-43.06-2.74-25.44,10.73-41.48,44.95-33.68,74.11Z"/><g class="cls-8"><path class="cls-7" d="m64.64,367.42c-.1.04-.2.08-.3.12.1-.04.2-.09.3-.12Z"/><path class="cls-7" d="m84.73,364.65c-1.28-6.13-10.25-8.73-14.81-11.11,0,0,2.38.29,6.78-1.14s6.88,5.32,11.19,11.64c3.93,5.76-3.73,9.64-.14,13.48.08-.16.2-.29.37-.37,5.4-1.65,11.77-2.09,11.95-8.9.06-.22.36.32.57.4.11-.11.23-.23.34-.34.24,0,.59-.23.59.13-1.1,6.73-7.27,7.78-12.61,10.08.06.04.11.08.17.11,4.14,1.31,1.46,1.39-1.2.97-1.1,1.66,0,0,7.24,1.12,7.24,1.12,8.05,8.32,9.59,9.92s1.34,5.12-2.63,7.68l-.4.42s.4-.42,1.66-4.12-5.81-7.83-12.92-12.05c1.11,1.09,4.21,6.64,4.94,12.5.73,5.86-7.95,10.27-13.24,10.64,0,0,4.17-7.79,6.05-10.5s-.62-13.03-1.06-13.59-2.16-.87-3.44-.11c-2.78.99-6.79,6.32-8.34,6.98s-8.96.84-12.06.28c-.14-.5,4.02-6.53,9.88-7.53,13.16-2.25,11.37-6.21,11.37-6.21l-2.21-2.2s-.68-1.09-4.85-.17c-1.36.3-7.06-7.52-12.84-5.26,8.47-3.62,13.3,2.95,16.27,1.85-.96-1.92-.18-1.56-3.54-4.9-3.36-3.34-3.61-3.98-2.87-2.67.74,1.31-5.73-4.75-1.73-4.37s9.1,6.98,13.89,13.94c.9-.6-.65-.48-1.93-6.61Z"/></g><path class="cls-3" d="m61.56,443.42c-2.87,4.16,14.02.63,23.49-3.25,7.09-2.9,15.39-11.07,17.22-17.27,1.67-5.68.01-5.48-4.16-4.86-1.9.28-4.45,7.4-7.65,11.37-2.33,2.89-11.21,8.02-16.66,8.43-5.79.43-8.12-.4-12.25,5.58Z"/><path class="cls-1" d="m437.45,137.64c5.16,33.87-32.03,62.12-71.54,62.12s-79.53-30.11-73.69-63.86c12.53-72.39,45.41-43.49,72.53-49.07,27.6-5.68,60.66-28.19,72.7,50.81Z"/><path class="cls-5" d="m374.48,200.11c-35.62,4.34-67.21-8.98-78.47-38.28-1.39-3.61-11.58-27.18-.33-51.16,1.58-3.37,10.69-22.8,28.35-27.14,17.21-4.24,26.17,9.88,44.18,3.48,9.36-3.32,9.21-7.94,19.12-10.44,16.04-4.04,30.05,4.62,30.99,5.22,21.39,13.67,21.15,44.87,21.1,47.33-.73,33.46-30.5,66.8-64.95,70.99Z"/><g class="cls-8"><path class="cls-7" d="m385.62,112.21c0,.13,0,.26,0,.39,0-.13,0-.26,0-.39Z"/><path class="cls-7" d="m380.1,88.33c7.08-1.29,13.65,7.66,18.12,11.75,0,0-1.31-2.55-1.65-8.15s-8.59-5.39-17.16-7.43c-7.81-1.86-8.72,8.5-14.34,6.16.13-.15.22-.35.24-.58-.52-6.83-2.73-14.2,4.46-17.44.21-.16-.49-.27-.67-.46.07-.18.14-.36.22-.54-.11-.27,0-.77-.39-.61-6.72,4.24-5.24,11.66-5.45,18.71-.06-.05-.13-.09-.19-.14-3.15-4.09-2.1-1.02-.53,1.79-1.32,1.98,0,0-4.26-7.66-4.26-7.66-12.28-5.37-14.65-6.39-2.36-1.02-6.04.77-7.09,6.39l-.28.64s.28-.64,3.69-3.71c3.41-3.07,10.82,3.07,18.32,9.2-1.63-.77-8.87-1.79-15.44,0-6.56,1.79-7.61,13.54-5.78,19.67,0,0,6.56-8.18,8.66-11.5s14.18-5.11,14.96-4.85,1.84,2.04,1.58,3.83c.12,3.57-3.88,10.47-3.94,12.52s2.89,10.47,4.79,13.73c.59-.07,5.28-7.45,3.88-14.49-3.15-15.84,1.84-15.58,1.84-15.58l3.28,1.51s1.44.28,2.23,5.39c.26,1.67,11.01,4.61,11.03,12.13.3-11.16-8.77-13.68-8.84-17.52,2.46.23,1.74-.49,6.73,1.81,4.99,2.3,5.78,2.3,4.06,2.04-1.71-.26,7.49,4.34,5.4,0-2.09-4.34-11.3-7.15-20.75-9.45.26-1.28.79.52,7.88-.77Z"/></g><path class="cls-3" d="m309.69,167c-2.24,5.64-9.3-13.9-11.41-26.11-1.59-9.14,1.17-22.95,6.04-28.88,4.46-5.42,5.29-3.6,7.28,1.06.9,2.12-4.4,9.38-6.25,15.25-1.35,4.27-.82,16.68,2.17,22.52,3.17,6.2,5.42,8.02,2.19,16.15Z"/><path class="cls-4" d="m152.32,174.17c29.21-11.03,48.62-33.4,46.25-59.37-.29-3.2-1.31-24.54-19.08-37.64-2.5-1.84-16.89-12.45-32.2-8.59-14.92,3.76-16.52,17.68-32.87,20.18-8.5,1.3-10.13-2.15-18.74-.02-13.94,3.43-21.51,15.38-22.01,16.19-11.39,18.55.59,41.33,1.56,43.12,13.21,24.24,48.85,36.8,77.1,26.14Z"/><g class="cls-8"><path class="cls-7" d="m112.43,115.19c.05.09.1.19.15.28-.05-.09-.1-.19-.15-.28Z"/><path class="cls-7" d="m107.68,95.48c-5.97,1.88-7.67,11.07-9.58,15.84,0,0,.05-2.4-1.81-6.63-1.86-4.24,4.61-7.38,10.47-12.29,5.34-4.48,9.96,2.75,13.43-1.2-.16-.06-.3-.17-.4-.33-2.18-5.21-3.26-11.5-10.05-11.01-.22-.04.28-.39.34-.61-.12-.1-.25-.21-.37-.31-.02-.24-.29-.57.07-.6,6.8.43,8.46,6.46,11.29,11.55.03-.06.06-.12.1-.18.89-4.25,1.24-1.59,1.08,1.1,1.77.93,0,0,.4-7.32.4-7.32,7.48-8.83,8.92-10.53s4.96-1.85,7.9,1.85l.46.36s-.46-.36-4.26-1.24c-3.8-.89-7.21,6.56-10.7,14.05.97-1.21,6.19-4.85,11.95-6.16,5.76-1.31,11.01,6.89,11.91,12.12,0,0-8.17-3.38-11.05-4.97s-12.9,1.91-13.42,2.41-.65,2.23.23,3.44c1.26,2.67,6.96,6.13,7.78,7.61s1.72,8.83,1.48,11.98c-.48.18-6.9-3.35-8.48-9.08-3.55-12.87-7.31-10.69-7.31-10.69l-1.97,2.41s-1.01.78.31,4.84c.43,1.32-6.78,7.78-3.95,13.3-4.45-8.06,1.61-13.53.22-16.37-1.81,1.15-1.53.34-4.52,4.01-2.99,3.68-3.6,3.99-2.37,3.12,1.23-.87-4.15,6.17-4.18,2.15s6.04-9.75,12.48-15.21c-.69-.83-.42.7-6.39,2.58Z"/></g><path class="cls-3" d="m188.36,110.69c4.42,2.44-.77-14.02-5.57-23.05-3.6-6.77-12.54-14.22-18.9-15.42-5.82-1.1-5.45.53-4.43,4.62.47,1.86,7.8,3.69,12.08,6.49,3.11,2.03,9.1,10.35,10.04,15.73,1.01,5.72.41,8.12,6.78,11.63Z"/><path class="cls-2" d="m283.04,280.97c-12.26,26.46-53.35,27.7-82.74,7.88-29.39-19.82-44.84-61.11-24.46-81.97,43.72-44.72,54.45-7.86,77.27,1.81,23.22,9.84,58.52,10.57,29.92,72.27Z"/><path class="cls-2" d="m206.51,293.39c-28.56-14.81-45.72-40.05-40.17-66.34.68-3.24,4.31-24.96,24.07-36.21,2.78-1.58,18.79-10.7,33.99-4.9,14.82,5.65,14.77,20.09,31.21,24.62,8.54,2.35,10.63-.97,19.18,2.24,13.85,5.2,20.16,18.33,20.57,19.23,9.41,20.36-5.59,42.23-6.8,43.94-16.44,23.22-54.43,31.77-82.05,17.44Z"/><g class="cls-8"><path class="cls-7" d="m255.91,238.02c-.06.09-.12.18-.19.27.07-.09.13-.18.19-.27Z"/><path class="cls-7" d="m263.16,218.42c5.88,2.65,6.51,12.25,7.89,17.37,0,0,.24-2.46,2.65-6.57,2.41-4.11-3.83-8.11-9.23-13.84-4.92-5.23-10.53,1.62-13.59-2.85.17-.04.33-.14.45-.29,2.86-5.07,4.72-11.37,11.61-10.05.23-.01-.24-.43-.28-.66.14-.09.28-.18.42-.27.05-.25.37-.54,0-.62-7.01-.39-9.44,5.59-12.94,10.45-.03-.07-.05-.13-.08-.2-.4-4.46-1.08-1.77-1.24,1-1.92.73,0,0,.48-7.54.48-7.54-6.59-9.94-7.86-11.85-1.27-1.91-4.86-2.49-8.31.94l-.51.31s.51-.31,4.51-.76,6.59,7.59,9.26,15.67c-.85-1.36-5.75-5.71-11.48-7.74-5.73-2.03-12.1,5.72-13.65,10.96,0,0,8.77-2.47,11.91-3.75s12.97,3.51,13.44,4.09.4,2.36-.65,3.49c-1.61,2.58-7.87,5.43-8.88,6.85s-2.83,8.83-2.96,12.08c.47.25,7.46-2.6,9.77-8.27,5.19-12.74,8.77-10.06,8.77-10.06l1.72,2.71s.94.92-.9,4.92c-.6,1.3,6,8.78,2.44,14.08,5.53-7.71-.02-14.04,1.75-16.78,1.72,1.4,1.53.53,4.14,4.65,2.62,4.12,3.2,4.52,2.05,3.48-1.15-1.04,3.51,6.82,4.01,2.71s-5-10.71-10.94-17.07c.8-.77.34.76,6.22,3.41Z"/></g><path class="cls-3" d="m173.4,238.54c-4.35,2.85-.31-14.46,3.92-24.12,3.16-7.24,11.78-15.59,18.21-17.32,5.89-1.58,5.65.12,4.91,4.4-.34,1.95-7.73,4.4-11.9,7.61-3.04,2.33-8.54,11.35-9.09,16.95-.59,5.96.21,8.37-6.05,12.48Z"/><path class="cls-1" d="m289.85,48.63c3.97,24.72-24.67,45.33-55.11,45.33s-61.26-21.97-56.76-46.6c9.65-52.82,34.98-31.73,55.87-35.81,21.26-4.14,46.73-20.57,55.99,37.08Z"/><path class="cls-6" d="m243.12,94.21c-27.44,3.17-51.77-6.56-60.44-27.93-1.07-2.64-8.92-19.83-.25-37.33,1.22-2.46,8.23-16.63,21.84-19.81,13.26-3.09,20.16,7.21,34.03,2.54,7.21-2.43,7.1-5.8,14.73-7.62,12.35-2.95,23.15,3.37,23.87,3.81,16.47,9.97,16.29,32.74,16.25,34.54-.56,24.42-23.49,48.74-50.03,51.8Z"/><g class="cls-8"><path class="cls-7" d="m249.93,30.07c0,.1,0,.19,0,.28,0-.1,0-.19,0-.28Z"/><path class="cls-7" d="m245.67,12.64c5.46-.94,10.52,5.59,13.95,8.58,0,0-1.01-1.86-1.27-5.95s-6.62-3.93-13.22-5.42c-6.01-1.36-6.72,6.2-11.04,4.5.1-.11.17-.26.18-.42-.4-4.98-2.1-10.36,3.44-12.73.16-.12-.38-.19-.51-.34.06-.13.11-.26.17-.39-.08-.2,0-.56-.3-.44-5.18,3.09-4.04,8.51-4.19,13.65-.05-.03-.1-.07-.15-.1-2.43-2.98-1.62-.75-.4,1.31-1.01,1.44,0,0-3.28-5.59-3.28-5.59-9.46-3.92-11.28-4.66s-4.65.56-5.46,4.66l-.22.47s.22-.47,2.85-2.71,8.33,2.24,14.11,6.71c-1.26-.56-6.83-1.31-11.89,0-5.06,1.31-5.86,9.88-4.45,14.36,0,0,5.06-5.97,6.67-8.39s10.92-3.73,11.53-3.54,1.42,1.49,1.21,2.8c.09,2.61-2.99,7.64-3.03,9.14s2.22,7.64,3.69,10.02c.45-.05,4.06-5.43,2.99-10.58-2.43-11.56,1.42-11.37,1.42-11.37l2.53,1.1s1.11.2,1.72,3.93c.2,1.22,8.48,3.37,8.5,8.85.23-8.14-6.75-9.98-6.81-12.78,1.89.17,1.34-.35,5.18,1.32s4.45,1.68,3.13,1.49c-1.32-.19,5.77,3.17,4.16,0-1.61-3.17-8.7-5.22-15.98-6.9.2-.93.61.38,6.07-.56Z"/></g><path class="cls-3" d="m191.44,70.05c-1.73,4.12-7.16-10.15-8.79-19.05-1.22-6.67.9-16.75,4.65-21.07,3.43-3.96,4.08-2.62,5.61.78.7,1.55-3.39,6.84-4.82,11.13-1.04,3.12-.63,12.17,1.67,16.43,2.44,4.52,4.17,5.86,1.68,11.79Z"/><path class="cls-2" d="m430.2,479.36c-12.26,26.46-53.35,27.7-82.74,7.88-29.39-19.82-44.84-61.11-24.46-81.97,43.72-44.72,54.45-7.86,77.27,1.81,23.22,9.84,58.52,10.57,29.92,72.27Z"/><path class="cls-2" d="m353.67,491.78c-28.56-14.81-45.72-40.05-40.17-66.34.68-3.24,4.31-24.96,24.07-36.21,2.78-1.58,18.79-10.7,33.99-4.9,14.82,5.65,14.77,20.09,31.21,24.62,8.54,2.35,10.63-.97,19.18,2.24,13.85,5.2,20.16,18.33,20.57,19.23,9.41,20.36-5.59,42.23-6.8,43.94-16.44,23.22-54.43,31.77-82.05,17.44Z"/><g class="cls-8"><path class="cls-7" d="m403.08,436.41c-.06.09-.12.18-.19.27.07-.09.13-.18.19-.27Z"/><path class="cls-7" d="m410.32,416.82c5.88,2.65,6.51,12.25,7.89,17.37,0,0,.24-2.46,2.65-6.57,2.41-4.11-3.83-8.11-9.23-13.84-4.92-5.23-10.53,1.62-13.59-2.85.17-.04.33-.14.45-.29,2.86-5.07,4.72-11.37,11.61-10.05.23-.01-.24-.43-.28-.66.14-.09.28-.18.42-.27.05-.25.37-.54,0-.62-7.01-.39-9.44,5.59-12.94,10.45-.03-.07-.05-.13-.08-.2-.4-4.46-1.08-1.77-1.24,1-1.92.73,0,0,.48-7.54.48-7.54-6.59-9.94-7.86-11.85s-4.86-2.49-8.31.94l-.51.31s.51-.31,4.51-.76,6.59,7.59,9.26,15.67c-.85-1.36-5.75-5.71-11.48-7.74-5.73-2.03-12.1,5.72-13.65,10.96,0,0,8.77-2.47,11.91-3.75,3.14-1.29,12.97,3.51,13.44,4.09s.4,2.36-.65,3.49c-1.61,2.58-7.87,5.43-8.88,6.85s-2.83,8.83-2.96,12.08c.47.25,7.46-2.6,9.77-8.27,5.19-12.74,8.77-10.06,8.77-10.06l1.72,2.71s.94.92-.9,4.92c-.6,1.3,6,8.78,2.44,14.08,5.53-7.71-.02-14.04,1.75-16.78,1.72,1.4,1.53.53,4.14,4.65,2.62,4.12,3.2,4.52,2.05,3.48-1.15-1.04,3.51,6.82,4.01,2.71s-5-10.71-10.94-17.07c.8-.77.34.76,6.22,3.41Z"/></g><path class="cls-3" d="m320.56,436.93c-4.35,2.85-.31-14.46,3.92-24.12,3.16-7.24,11.78-15.59,18.21-17.32,5.89-1.58,5.65.12,4.91,4.4-.34,1.95-7.73,4.4-11.9,7.61-3.04,2.33-8.54,11.35-9.09,16.95-.59,5.96.21,8.37-6.05,12.48Z"/><path class="cls-1" d="m244.07,480.44c-10.68,32.56-56.62,40.98-91.88,23.15-35.26-17.83-57.38-62.76-36.93-90.24,43.85-58.94,60.15-18.31,86.87-11.05,27.19,7.39,66.86,2.22,41.94,78.15Z"/><path class="cls-5" d="m159.69,507.77c-33.75-12.2-55.92-38.35-52.74-69.57.39-3.85,1.94-29.48,22.79-45.8,2.93-2.3,19.83-15.52,37.55-11.43,17.27,3.99,18.9,20.62,37.85,23.04,9.85,1.26,11.8-2.93,21.78-.69,16.14,3.63,24.73,17.68,25.3,18.64,12.92,21.85-1.37,49.58-2.53,51.76-15.75,29.53-57.36,45.84-90,34.04Z"/><g class="cls-8"><path class="cls-7" d="m209.3,434.35c-.06.11-.12.23-.18.34.06-.11.12-.23.18-.34Z"/><path class="cls-7" d="m215.15,410.55c6.9,2.05,8.72,13,10.86,18.66,0,0-.02-2.87,2.21-8.02s-5.24-8.69-11.96-14.37c-6.13-5.18-11.62,3.65-15.58-.97.19-.08.36-.21.47-.41,2.62-6.33,3.97-13.9,11.86-13.55.26-.05-.32-.46-.39-.71.15-.13.29-.26.44-.38.03-.29.35-.69-.07-.72-7.91.75-9.94,8.04-13.3,14.24-.04-.07-.07-.14-.11-.21-.97-5.07-1.41-1.86-1.28,1.36-2.07,1.17,0,0-.34-8.76-.34-8.76-8.54-10.33-10.19-12.31s-5.73-2.04-9.21,2.5l-.54.45s.54-.45,4.97-1.64,8.27,7.62,12.2,16.48c-1.11-1.42-7.11-5.6-13.77-6.97-6.66-1.37-12.91,8.65-14.03,14.95,0,0,9.55-4.33,12.92-6.35,3.37-2.02,14.96,1.84,15.54,2.42s.72,2.65-.32,4.13c-1.51,3.24-8.19,7.59-9.16,9.39s-2.15,10.65-1.92,14.41c.56.2,8.07-4.26,10-11.19,4.34-15.56,8.67-13.08,8.67-13.08l2.25,2.83s1.16.9-.44,5.82c-.52,1.6,7.74,9.09,4.37,15.8,5.3-9.83-1.65-16.17.02-19.62,2.09,1.32,1.77.35,5.19,4.66,3.41,4.3,4.12,4.66,2.7,3.66-1.41-1,4.72,7.26,4.82,2.44.09-4.82-6.85-11.48-14.25-17.8.81-1.02.47.82,7.37,2.87Z"/></g><path class="cls-3" d="m116.82,448.98c-4.55,4.02-2.02-16.6,1.6-28.45,2.71-8.87,11.4-19.96,18.42-23.04,6.42-2.83,6.35-.82,6.02,4.23-.15,2.3-8.16,6.39-12.46,10.79-3.14,3.2-8.26,14.52-8.23,21.07.03,6.96,1.21,9.6-5.34,15.4Z"/><path class="cls-1" d="m177.93,318.56c1.52,8.15-9.43,14.95-21.07,14.95s-23.42-7.25-21.7-15.37c3.69-17.42,13.37-10.47,21.36-11.81,8.13-1.37,17.86-6.78,21.41,12.23Z"/><path class="cls-5" d="m159.38,333.59c-10.49,1.04-19.79-2.16-23.11-9.21-.41-.87-3.41-6.54-.1-12.31.47-.81,3.15-5.49,8.35-6.53,5.07-1.02,7.71,2.38,13.01.84,2.76-.8,2.71-1.91,5.63-2.51,4.72-.97,8.85,1.11,9.13,1.26,6.3,3.29,6.23,10.8,6.21,11.39-.21,8.05-8.98,16.08-19.13,17.09Z"/><g class="cls-8"><path class="cls-7" d="m162.67,312.43s0,.06,0,.09c0-.03,0-.06,0-.09Z"/><path class="cls-7" d="m161.04,306.69c2.09-.31,4.02,1.84,5.33,2.83,0,0-.39-.61-.48-1.96s-2.53-1.3-5.05-1.79c-2.3-.45-2.57,2.05-4.22,1.48.04-.04.07-.08.07-.14-.15-1.64-.8-3.42,1.31-4.2.06-.04-.15-.06-.2-.11.02-.04.04-.09.06-.13-.03-.07,0-.19-.11-.15-1.98,1.02-1.54,2.81-1.6,4.5-.02-.01-.04-.02-.06-.03-.93-.98-.62-.25-.15.43-.39.48,0,0-1.25-1.84s-3.62-1.29-4.31-1.54-1.78.18-2.09,1.54l-.08.15s.08-.15,1.09-.89,3.19.74,5.4,2.21c-.48-.18-2.61-.43-4.55,0s-2.24,3.26-1.7,4.73c0,0,1.93-1.97,2.55-2.77s4.17-1.23,4.41-1.17.54.49.46.92c.04.86-1.14,2.52-1.16,3.01s.85,2.52,1.41,3.3c.17-.02,1.55-1.79,1.14-3.49-.93-3.81.54-3.75.54-3.75l.97.36s.43.07.66,1.3c.08.4,3.24,1.11,3.25,2.92.09-2.69-2.58-3.29-2.6-4.22.72.06.51-.12,1.98.44s1.7.55,1.2.49c-.5-.06,2.21,1.05,1.59,0s-3.33-1.72-6.11-2.28c.08-.31.23.13,2.32-.18Z"/></g><path class="cls-3" d="m140.31,325.62c-.66,1.36-2.74-3.35-3.36-6.28-.47-2.2.34-5.52,1.78-6.95,1.31-1.3,1.56-.87,2.14.26.27.51-1.29,2.26-1.84,3.67-.4,1.03-.24,4.02.64,5.42.93,1.49,1.59,1.93.64,3.89Z"/><path class="cls-1" d="m122.28,232.26c3.32,24.77-20.61,45.42-46.04,45.42s-51.18-22.02-47.42-46.7c8.06-52.93,29.22-31.8,46.67-35.88,17.76-4.15,39.04-20.61,46.78,37.15Z"/><path class="cls-5" d="m81.76,277.94c-22.92,3.17-43.25-6.57-50.49-27.99-.89-2.64-7.45-19.87-.21-37.41,1.02-2.47,6.88-16.67,18.25-19.85,11.08-3.1,16.84,7.22,28.43,2.54,6.02-2.43,5.93-5.81,12.31-7.63,10.32-2.96,19.34,3.38,19.94,3.82,13.76,10,13.61,32.81,13.58,34.61-.47,24.47-19.63,48.84-41.79,51.91Z"/><g class="cls-8"><path class="cls-7" d="m88.93,213.66c0,.1,0,.19,0,.28,0-.1,0-.19,0-.28Z"/><path class="cls-7" d="m85.38,196.2c4.56-.94,8.79,5.6,11.66,8.59,0,0-.84-1.87-1.06-5.96s-5.53-3.94-11.04-5.43c-5.02-1.36-5.61,6.22-9.23,4.51.09-.11.14-.26.15-.42-.33-4.99-1.76-10.38,2.87-12.75.13-.12-.32-.19-.43-.34.05-.13.09-.26.14-.39-.07-.2,0-.56-.25-.44-4.32,3.1-3.37,8.52-3.5,13.68-.04-.03-.08-.07-.12-.1-2.03-2.99-1.35-.75-.34,1.31-.85,1.45,0,0-2.74-5.6s-7.91-3.92-9.43-4.67-3.89.56-4.56,4.67l-.18.47s.18-.47,2.38-2.71,6.96,2.24,11.79,6.73c-1.05-.56-5.71-1.31-9.93,0-4.22,1.31-4.9,9.9-3.72,14.39,0,0,4.22-5.98,5.58-8.41s9.12-3.74,9.63-3.55,1.18,1.49,1.01,2.8c.08,2.61-2.5,7.66-2.53,9.15s1.86,7.66,3.08,10.04c.38-.05,3.4-5.45,2.49-10.6-2.03-11.58,1.18-11.4,1.18-11.4l2.11,1.1s.93.2,1.44,3.94c.17,1.22,7.09,3.37,7.1,8.87.19-8.16-5.64-10.01-5.69-12.81,1.58.17,1.12-.36,4.33,1.33,3.21,1.68,3.72,1.68,2.61,1.49-1.1-.19,4.82,3.18,3.47,0s-7.27-5.23-13.35-6.91c.17-.93.51.38,5.07-.56Z"/></g><path class="cls-3" d="m40.07,253.73c-1.44,4.13-5.98-10.17-7.34-19.09-1.02-6.68.75-16.78,3.88-21.12,2.87-3.96,3.41-2.63,4.68.78.58,1.55-2.83,6.86-4.02,11.15-.87,3.12-.52,12.2,1.39,16.46,2.04,4.53,3.49,5.87,1.41,11.81Z"/><path class="cls-1" d="m536.99,281.17c21.02,27.32.2,70.94-36.32,90.77-36.51,19.83-87.94,13.33-98.73-19.41-23.14-70.21,21.11-61.2,43.49-79.74,22.78-18.87,42.54-55.34,91.55,8.38Z"/><path class="cls-6" d="m510.89,366.79c-30.84,21.71-66.42,25.8-90.88,5.58-3.01-2.49-23.73-18.19-24.84-45.01-.16-3.77-1.05-25.5,13.18-38.2,13.87-12.38,28.92-4.42,42.5-19.1,7.05-7.63,4.7-11.64,12.66-18.82,12.88-11.62,29.99-11.01,31.14-10.95,26.32,1.33,41.07,29,42.2,31.2,15.38,29.92,3.85,74.3-25.97,95.3Z"/><g class="cls-8"><path class="cls-7" d="m476.89,284.73c.06.12.12.23.18.35-.06-.12-.12-.23-.18-.35Z"/><path class="cls-7" d="m460.33,266.41c5.93-4.69,16.29-.08,22.38,1.29,0,0-2.44-1.6-5.43-6.37-2.99-4.78-10.53-.45-19.42,2.05-8.11,2.28-3.98,11.88-10.29,12.64.05-.2.04-.42-.06-.63-3.75-5.77-9.33-11.17-4.24-17.64.11-.25-.58.01-.84-.07-.02-.19-.04-.39-.06-.58-.23-.19-.37-.68-.65-.34-4.18,7.11.75,12.92,3.94,19.26-.08,0-.16-.02-.25-.03-4.87-2.03-2.43.15.37,1.84-.27,2.41,0,0-7.61-4.63-7.61-4.63-13.93,1.43-16.6,1.71s-5.21,3.71-3.49,9.2l.05.71s-.05-.71,1.64-5.13,11.47-2.72,21.35-1.08c-1.87.14-9.06,2.87-14.26,7.75-5.21,4.87-.54,15.78,4.1,20.27,0,0,2.14-10.51,2.49-14.5s10.65-11.63,11.5-11.8,2.68.88,3.29,2.59c1.83,3.1,1.44,11.2,2.37,13.03s7.69,7.8,11.01,9.72c.51-.36,1.3-9.23-3.37-14.75-10.51-12.41-5.78-14.69-5.78-14.69l3.76-.31s1.47-.48,4.65,3.64c1.04,1.34,12.39-1.45,16.02,5.17-5.08-10.01-14.67-7.68-16.57-11.03,2.38-1.03,1.38-1.3,7.09-1.78s6.44-.87,4.73-.23c-1.71.63,9,.08,4.99-2.71-4.02-2.78-13.87-.65-23.71,2.07-.37-1.26.98.06,6.91-4.63Z"/></g><path class="cls-3" d="m433.01,371.22c.63,6.11-15.26-7.61-23.07-17.32-5.85-7.28-9.93-20.85-8.27-28.53,1.52-7.02,3.17-5.83,7.24-2.72,1.85,1.42.44,10.49,1.53,16.61.8,4.45,7.25,15.14,12.8,18.79,5.9,3.88,8.85,4.37,9.77,13.17Z"/><path class="cls-1" d="m455.68,227.9c1.52,8.15-9.43,14.95-21.07,14.95s-23.42-7.25-21.7-15.37c3.69-17.42,13.37-10.47,21.36-11.81,8.13-1.37,17.86-6.78,21.41,12.23Z"/><path class="cls-5" d="m437.13,242.93c-10.49,1.04-19.79-2.16-23.11-9.21-.41-.87-3.41-6.54-.1-12.31.47-.81,3.15-5.49,8.35-6.53,5.07-1.02,7.71,2.38,13.01.84,2.76-.8,2.71-1.91,5.63-2.51,4.72-.97,8.85,1.11,9.13,1.26,6.3,3.29,6.23,10.8,6.21,11.39-.21,8.05-8.98,16.08-19.13,17.09Z"/><g class="cls-8"><path class="cls-7" d="m440.41,221.78s0,.06,0,.09c0-.03,0-.06,0-.09Z"/><path class="cls-7" d="m438.79,216.03c2.09-.31,4.02,1.84,5.33,2.83,0,0-.39-.61-.48-1.96s-2.53-1.3-5.05-1.79c-2.3-.45-2.57,2.05-4.22,1.48.04-.04.07-.08.07-.14-.15-1.64-.8-3.42,1.31-4.2.06-.04-.15-.06-.2-.11.02-.04.04-.09.06-.13-.03-.07,0-.19-.11-.15-1.98,1.02-1.54,2.81-1.6,4.5-.02-.01-.04-.02-.06-.03-.93-.98-.62-.25-.15.43-.39.48,0,0-1.25-1.84s-3.62-1.29-4.31-1.54-1.78.18-2.09,1.54l-.08.15s.08-.15,1.09-.89,3.19.74,5.4,2.21c-.48-.18-2.61-.43-4.55,0s-2.24,3.26-1.7,4.73c0,0,1.93-1.97,2.55-2.77s4.17-1.23,4.41-1.17.54.49.46.92c.04.86-1.14,2.52-1.16,3.01s.85,2.52,1.41,3.3c.17-.02,1.55-1.79,1.14-3.49-.93-3.81.54-3.75.54-3.75l.97.36s.43.07.66,1.3c.08.4,3.24,1.11,3.25,2.92.09-2.69-2.58-3.29-2.6-4.22.72.06.51-.12,1.98.44s1.7.55,1.2.49c-.5-.06,2.21,1.05,1.59,0s-3.33-1.72-6.11-2.28c.08-.31.23.13,2.32-.18Z"/></g><path class="cls-3" d="m418.06,234.96c-.66,1.36-2.74-3.35-3.36-6.28-.47-2.2.34-5.52,1.78-6.95,1.31-1.3,1.56-.87,2.14.26.27.51-1.29,2.26-1.84,3.67-.4,1.03-.24,4.02.64,5.42.93,1.49,1.59,1.93.64,3.89Z"/><path class="cls-1" d="m306.42,350.27c11.96,16.59,3.61,40.37-13.85,49.85-17.45,9.48-43.73,3.24-50.8-15.92-15.15-41.09,7.63-33.78,18.01-43.22,10.57-9.61,18.74-29.39,46.63,9.29Z"/><path class="cls-6" d="m297.48,397.69c-14.49,10.83-32.25,11.4-45.6-1.32-1.65-1.57-12.88-11.52-14.77-26.84-.27-2.15-1.79-14.56,4.77-21.09,6.39-6.36,14.38-1.08,20.51-8.77,3.18-3.99,1.8-6.39,5.46-10.08,5.93-5.98,14.59-4.78,15.18-4.69,13.35,2.06,22.17,18.53,22.85,19.84,9.24,17.78,5.62,42.47-8.4,52.94Z"/><g class="cls-8"><path class="cls-7" d="m276.26,349.32c.04.07.07.14.11.21-.03-.07-.07-.14-.11-.21Z"/><path class="cls-7" d="m266.99,338.07c2.76-2.38,8.22.76,11.36,1.84,0,0-1.31-1.03-3.06-3.89s-5.34-.77-9.7.21c-3.98.89-1.42,6.57-4.57,6.68.02-.11,0-.24-.06-.36-2.18-3.47-5.26-6.82-3.01-10.25.04-.14-.29-.02-.43-.08-.02-.11-.04-.22-.06-.33-.13-.12-.22-.41-.35-.23-1.76,3.84,1.02,7.39,2.94,11.15-.04,0-.08-.02-.13-.03-2.56-1.4-1.22-.03.28,1.07-.02,1.36,0,0-4.07-3.01-4.07-3.01-6.96.12-8.3.15s-2.45,1.85-1.31,5.06l.06.41s-.06-.41.57-2.84,5.66-.98,10.72.44c-.94-.01-4.43,1.19-6.82,3.7s.51,8.95,3.07,11.74c0,0,.56-5.88.54-8.13s4.8-6.09,5.22-6.14,1.4.63,1.79,1.64c1.08,1.85,1.28,6.44,1.84,7.53s4.27,4.82,6.04,6.07c.24-.18.2-5.18-2.43-8.56-5.92-7.58-3.64-8.64-3.64-8.64h1.88s.72-.19,2.53,2.31c.59.82,6.18-.21,8.34,3.74-3.06-5.94-7.78-5.1-8.91-7.1,1.15-.47.63-.67,3.49-.66s3.21-.18,2.38.1c-.83.28,4.55.49,2.38-1.29-2.17-1.78-7.03-1.05-11.87,0-.25-.74.5.08,3.26-2.29Z"/></g><path class="cls-3" d="m258.38,396.36c.62,3.51-8.08-5.09-12.5-11-3.31-4.43-6.04-12.36-5.59-16.64.42-3.92,1.31-3.16,3.52-1.19,1.01.9.74,5.99,1.6,9.53.62,2.57,4.41,8.97,7.39,11.33,3.17,2.5,4.69,2.92,5.58,7.98Z"/></symbol></defs><g id="ekstra_tomater"><path class="cls-5" d="m383.41,399.12c-35.62,4.34-67.21-8.98-78.47-38.28-1.39-3.61-11.58-27.18-.33-51.16,1.58-3.37,10.69-22.8,28.35-27.14,17.21-4.24,26.17,9.88,44.18,3.48,9.36-3.32,9.21-7.94,19.12-10.44,16.04-4.04,30.05,4.62,30.99,5.22,21.39,13.67,21.15,44.87,21.1,47.33-.73,33.46-30.5,66.8-64.95,70.99Z"/><g class="cls-8"><path class="cls-7" d="m394.55,311.22c0,.13,0,.26,0,.39,0-.13,0-.26,0-.39Z"/><path class="cls-7" d="m389.03,287.34c7.08-1.29,13.65,7.66,18.12,11.75,0,0-1.31-2.55-1.65-8.15-.33-5.6-8.59-5.39-17.16-7.43-7.81-1.86-8.72,8.5-14.34,6.16.13-.15.22-.35.24-.58-.52-6.83-2.73-14.2,4.46-17.44.21-.16-.49-.27-.67-.46.07-.18.14-.36.22-.54-.11-.27,0-.77-.39-.61-6.72,4.24-5.24,11.66-5.45,18.71-.06-.05-.13-.09-.19-.14-3.15-4.09-2.1-1.02-.53,1.79-1.32,1.98,0,0-4.26-7.66-4.26-7.66-12.28-5.37-14.65-6.39-2.36-1.02-6.04.77-7.09,6.39l-.28.64s.28-.64,3.69-3.71c3.41-3.07,10.82,3.07,18.32,9.2-1.63-.77-8.87-1.79-15.44,0s-7.61,13.54-5.78,19.67c0,0,6.56-8.18,8.66-11.5s14.18-5.11,14.96-4.85,1.84,2.04,1.58,3.83c.12,3.57-3.88,10.47-3.94,12.52-.05,2.04,2.89,10.47,4.79,13.73.59-.07,5.28-7.45,3.88-14.49-3.15-15.84,1.84-15.58,1.84-15.58l3.28,1.51s1.44.28,2.23,5.39c.26,1.67,11.01,4.61,11.03,12.13.3-11.16-8.77-13.68-8.84-17.52,2.46.23,1.74-.49,6.73,1.81s5.78,2.3,4.06,2.04c-1.71-.26,7.49,4.34,5.4,0-2.09-4.34-11.3-7.15-20.75-9.45.26-1.28.79.52,7.88-.77Z"/></g><path class="cls-3" d="m318.63,366.01c-2.24,5.64-9.3-13.9-11.41-26.11-1.59-9.14,1.17-22.95,6.04-28.88,4.46-5.42,5.29-3.6,7.28,1.06.9,2.12-4.4,9.38-6.25,15.25-1.35,4.27-.82,16.68,2.17,22.52,3.17,6.2,5.42,8.02,2.19,16.15Z"/><path class="cls-4" d="m142.12,331.1c-27.43,14.92-57.04,15.01-75.17-3.73-2.23-2.31-17.73-17.02-16.05-39.03.24-3.1,1.6-20.92,14.52-30,12.59-8.85,24.18-.97,36.75-11.72,6.53-5.59,4.99-9.08,12.22-14.21,11.7-8.32,25.69-6.25,26.64-6.1,21.49,3.49,30.92,27.43,31.64,29.34,9.74,25.84-4.02,61.03-30.54,75.46Z"/><g class="cls-8"><path class="cls-7" d="m123.49,262.38c.04.1.08.2.11.3-.04-.1-.07-.2-.11-.3Z"/><path class="cls-7" d="m111.67,245.91c5.32-3.29,13.39,1.42,18.25,3.09,0,0-1.85-1.53-3.84-5.7-2-4.17-8.6-1.32-16.15-.1-6.88,1.12-4.42,9.34-9.68,9.38.06-.16.07-.34.01-.52-2.52-5.05-6.58-9.97-1.78-14.8.12-.19-.48-.04-.68-.14,0-.16,0-.32,0-.48-.17-.17-.24-.59-.5-.34-4.12,5.43-.63,10.62,1.38,16.09-.07-.01-.13-.03-.2-.05-3.81-2.1-2.01-.1.13,1.54-.45,1.94,0,0-5.8-4.48-5.8-4.48-11.58-.1-13.8-.12s-4.64,2.55-3.75,7.19l-.03.58s.03-.58,1.84-4.04c1.81-3.46,9.68-1.18,17.63,1.07-1.55-.06-7.72,1.52-12.46,5.03-4.75,3.51-1.97,12.84,1.4,16.93,0,0,2.78-8.39,3.45-11.62.67-3.22,9.87-8.53,10.59-8.59s2.11.97,2.45,2.42c1.2,2.7.1,9.28.68,10.86s5.56,7.07,8.1,8.94c.45-.24,1.96-7.42-1.34-12.35-7.43-11.09-3.32-12.52-3.32-12.52l3.11.09s1.25-.26,3.47,3.4c.72,1.19,10.32-.06,12.65,5.69-3.2-8.63-11.3-7.61-12.54-10.52,2.06-.62,1.26-.94,5.99-.8s5.37-.12,3.91.24c-1.46.36,7.39.88,4.36-1.76-3.03-2.64-11.33-1.79-19.67-.48-.18-1.06.8.14,6.12-3.15Z"/></g><path class="cls-3" d="m70.51,316.95c-1.04,4.94-10.11-9.73-13.82-19.27-2.78-7.14-2.58-18.78.66-24.38,2.97-5.12,3.96-3.78,6.39-.34,1.1,1.57-2.3,8.32-2.97,13.38-.49,3.68,1.9,13.65,5.36,17.88,3.68,4.5,5.88,5.61,4.38,12.72Z"/><path class="cls-2" d="m191.97,139.98c-12.26,26.46-53.35,27.7-82.74,7.88-29.39-19.82-44.84-61.11-24.46-81.97,43.72-44.72,54.45-7.86,77.27,1.81,23.22,9.84,58.52,10.57,29.92,72.27Z"/><path class="cls-2" d="m115.44,152.4c-28.56-14.81-45.72-40.05-40.17-66.34.68-3.24,4.31-24.96,24.07-36.21,2.78-1.58,18.79-10.7,33.99-4.9,14.82,5.65,14.77,20.09,31.21,24.62,8.54,2.35,10.63-.97,19.18,2.24,13.85,5.2,20.16,18.33,20.57,19.23,9.41,20.36-5.59,42.23-6.8,43.94-16.44,23.22-54.43,31.77-82.05,17.44Z"/><g class="cls-8"><path class="cls-7" d="m164.85,97.03c-.06.09-.12.18-.19.27.07-.09.13-.18.19-.27Z"/><path class="cls-7" d="m172.09,77.44c5.88,2.65,6.51,12.25,7.89,17.37,0,0,.24-2.46,2.65-6.57,2.41-4.11-3.83-8.11-9.23-13.84-4.92-5.23-10.53,1.62-13.59-2.85.17-.04.33-.14.45-.29,2.86-5.07,4.72-11.37,11.61-10.05.23-.01-.24-.43-.28-.66.14-.09.28-.18.42-.27.05-.25.37-.54,0-.62-7.01-.39-9.44,5.59-12.94,10.45-.03-.07-.05-.13-.08-.2-.4-4.46-1.08-1.77-1.24,1-1.92.73,0,0,.48-7.54.48-7.54-6.59-9.94-7.86-11.85s-4.86-2.49-8.31.94l-.51.31s.51-.31,4.51-.76c4-.45,6.59,7.59,9.26,15.67-.85-1.36-5.75-5.71-11.48-7.74-5.73-2.03-12.1,5.72-13.65,10.96,0,0,8.77-2.47,11.91-3.75s12.97,3.51,13.44,4.09.4,2.36-.65,3.49c-1.61,2.58-7.87,5.43-8.88,6.85-1.01,1.41-2.83,8.83-2.96,12.08.47.25,7.46-2.6,9.77-8.27,5.19-12.74,8.77-10.06,8.77-10.06l1.72,2.71s.94.92-.9,4.92c-.6,1.3,6,8.78,2.44,14.08,5.53-7.71-.02-14.04,1.75-16.78,1.72,1.4,1.53.53,4.14,4.65s3.2,4.52,2.05,3.48c-1.15-1.04,3.51,6.82,4.01,2.71.51-4.11-5-10.71-10.94-17.07.8-.77.34.76,6.22,3.41Z"/></g><path class="cls-3" d="m82.33,97.55c-4.35,2.85-.31-14.46,3.92-24.12,3.16-7.24,11.78-15.59,18.21-17.32,5.89-1.58,5.65.12,4.91,4.4-.34,1.95-7.73,4.4-11.9,7.61-3.04,2.33-8.54,11.35-9.09,16.95-.59,5.96.21,8.37-6.05,12.48Z"/><path class="cls-6" d="m259.05,216.23c-27.44,3.17-51.77-6.56-60.44-27.93-1.07-2.64-8.92-19.83-.25-37.33,1.22-2.46,8.23-16.63,21.84-19.81,13.26-3.09,20.16,7.21,34.03,2.54,7.21-2.43,7.1-5.8,14.73-7.62,12.35-2.95,23.15,3.37,23.87,3.81,16.47,9.97,16.29,32.74,16.25,34.54-.56,24.42-23.49,48.74-50.03,51.8Z"/><g class="cls-8"><path class="cls-7" d="m265.86,152.08c0,.1,0,.19,0,.28,0-.1,0-.19,0-.28Z"/><path class="cls-7" d="m261.61,134.66c5.46-.94,10.52,5.59,13.95,8.58,0,0-1.01-1.86-1.27-5.95s-6.62-3.93-13.22-5.42c-6.01-1.36-6.72,6.2-11.04,4.5.1-.11.17-.26.18-.42-.4-4.98-2.1-10.36,3.44-12.73.16-.12-.38-.19-.51-.34.06-.13.11-.26.17-.39-.08-.2,0-.56-.3-.44-5.18,3.09-4.04,8.51-4.19,13.65-.05-.03-.1-.07-.15-.1-2.43-2.98-1.62-.75-.4,1.31-1.01,1.44,0,0-3.28-5.59-3.28-5.59-9.46-3.92-11.28-4.66-1.82-.75-4.65.56-5.46,4.66l-.22.47s.22-.47,2.85-2.71,8.33,2.24,14.11,6.71c-1.26-.56-6.83-1.31-11.89,0s-5.86,9.88-4.45,14.36c0,0,5.06-5.97,6.67-8.39,1.62-2.42,10.92-3.73,11.53-3.54s1.42,1.49,1.21,2.8c.09,2.61-2.99,7.64-3.03,9.14-.04,1.49,2.22,7.64,3.69,10.02.45-.05,4.06-5.43,2.99-10.58-2.43-11.56,1.42-11.37,1.42-11.37l2.53,1.1s1.11.2,1.72,3.93c.2,1.22,8.48,3.37,8.5,8.85.23-8.14-6.75-9.98-6.81-12.78,1.89.17,1.34-.35,5.18,1.32,3.84,1.68,4.45,1.68,3.13,1.49-1.32-.19,5.77,3.17,4.16,0-1.61-3.17-8.7-5.22-15.98-6.9.2-.93.61.38,6.07-.56Z"/></g><path class="cls-3" d="m207.38,192.06c-1.73,4.12-7.16-10.15-8.79-19.05-1.22-6.67.9-16.75,4.65-21.07,3.43-3.96,4.08-2.62,5.61.78.7,1.55-3.39,6.84-4.82,11.13-1.04,3.12-.63,12.17,1.67,16.43,2.44,4.52,4.17,5.86,1.68,11.79Z"/><path class="cls-5" d="m268.12,378.04c-6.79,8.13-16.7,11.05-25.79,5.96-1.12-.63-8.68-4.5-11.66-12.71-.42-1.16-2.83-7.81.04-12.39,2.8-4.46,7.95-2.71,10.43-7.87,1.29-2.68.21-3.81,1.81-6.39,2.58-4.18,7.6-4.79,7.94-4.83,7.76-.82,14.77,7.02,15.32,7.65,7.42,8.5,8.47,22.72,1.91,30.58Z"/><g class="cls-8"><path class="cls-7" d="m250.64,353.88s.06.06.09.1c-.03-.03-.06-.07-.09-.1Z"/><path class="cls-7" d="m244.03,349c1.25-1.72,4.71-.79,6.61-.65,0,0-.86-.38-2.21-1.71s-3.09.35-5.43,1.54c-2.12,1.08.02,3.85-1.73,4.38,0-.07-.03-.13-.08-.19-1.66-1.6-3.81-3.01-2.98-5.24,0-.08-.17.03-.25.02-.02-.06-.05-.12-.07-.18-.09-.05-.17-.19-.22-.07-.51,2.39,1.5,3.95,3.05,5.75-.02,0-.05,0-.07,0-1.61-.4-.69.16.29.55.16.75,0,0-2.66-1.07s-3.89,1.09-4.64,1.3c-.75.21-1.14,1.39-.1,3l.08.22s-.08-.22-.03-1.66,3.05-1.37,6.08-1.33c-.53.13-2.34,1.31-3.37,3.05s1.41,4.89,3.19,6.06c0,0-.42-3.34-.71-4.59s1.94-4.08,2.17-4.17.86.15,1.21.65c.84.87,1.52,3.38,1.98,3.91s3,2.05,4.15,2.48c.11-.13-.54-2.9-2.44-4.39-4.27-3.33-3.13-4.26-3.13-4.26l1.06-.27s.38-.22,1.71.9c.43.37,3.45-1.03,5.15.85-2.46-2.85-5.01-1.68-5.9-2.63.59-.43.27-.47,1.88-.88,1.61-.41,1.78-.57,1.35-.29-.43.28,2.62-.4,1.18-1.07-1.44-.67-4.08.45-6.67,1.74-.23-.37.29-.03,1.54-1.75Z"/></g><path class="cls-3" d="m246.48,382.58c.79,1.85-5.18-1.63-8.4-4.26-2.42-1.97-4.94-5.96-5.22-8.41-.26-2.23.34-1.94,1.83-1.17.68.35,1.16,3.21,2.09,5.05.67,1.33,3.6,4.33,5.57,5.19,2.09.92,3,.93,4.13,3.6Z"/><path class="cls-4" d="m487.75,396.8c-14.52-6.41-24.17-19.4-23-34.48.14-1.86.65-14.25,9.49-21.86,1.24-1.07,8.4-7.23,16.01-4.99,7.42,2.18,8.21,10.27,16.34,11.72,4.23.75,5.04-1.25,9.32-.01,6.93,1.99,10.69,8.93,10.94,9.4,5.66,10.78-.29,24.01-.78,25.04-6.57,14.08-24.29,21.37-38.33,15.18Z"/><g class="cls-8"><path class="cls-7" d="m507.58,362.54c-.03.05-.05.11-.08.16.03-.05.05-.11.08-.16Z"/><path class="cls-7" d="m509.94,351.1c2.97,1.09,3.81,6.43,4.76,9.2,0,0-.02-1.39.9-3.85.92-2.46-2.29-4.29-5.21-7.14-2.65-2.6-4.95,1.6-6.67-.7.08-.03.15-.1.2-.19,1.08-3.03,1.62-6.68,5-6.39.11-.02-.14-.23-.17-.35.06-.06.12-.12.18-.18.01-.14.14-.33-.04-.35-3.38.25-4.21,3.75-5.61,6.71-.02-.03-.03-.07-.05-.1-.44-2.47-.62-.92-.54.64-.88.54,0,0-.2-4.25-.2-4.25-3.72-5.13-4.44-6.11s-2.47-1.07-3.93,1.08l-.23.21s.23-.21,2.12-.72c1.89-.51,3.59,3.81,5.32,8.16-.48-.7-3.08-2.82-5.94-3.58-2.86-.76-5.47,4-5.92,7.04,0,0,4.06-1.96,5.49-2.89s6.41,1.11,6.67,1.4.32,1.3-.11,2c-.63,1.55-3.46,3.56-3.87,4.42s-.86,5.13-.74,6.96c.24.11,3.43-1.95,4.21-5.27,1.76-7.47,3.64-6.21,3.64-6.21l.98,1.4s.5.45-.15,2.81c-.21.77,3.37,4.52,1.97,7.72,2.21-4.68-.8-7.86-.11-9.51.9.67.76.2,2.25,2.33,1.49,2.14,1.79,2.32,1.18,1.81-.61-.51,2.07,3.58,2.08,1.25.01-2.33-3-5.66-6.21-8.83.34-.48.21.4,3.17,1.5Z"/></g><path class="cls-3" d="m469.83,359.93c-2.2,1.42.38-8.14,2.77-13.39,1.79-3.93,6.24-8.26,9.4-8.95,2.89-.64,2.71.31,2.2,2.68-.23,1.08-3.88,2.14-6,3.77-1.55,1.18-4.52,6.01-4.99,9.14-.5,3.32-.2,4.71-3.37,6.75Z"/></g><g id="green_tomat"><use width="545.38" height="512.76" transform="translate(237.33 71.05) rotate(-7.54) scale(.46 .43)" xlink:href="#New_Symbol"/></g></svg>