<?xml version="1.0" encoding="UTF-8"?><svg id="ekstra_tomater" xmlns="http://www.w3.org/2000/svg" width="1278.3" height="364.78" viewBox="0 0 1278.3 364.78"><defs><style>.cls-1{fill:#ffb2d3;}.cls-2{fill:#9e0f44;}</style></defs><path class="cls-2" d="m127.44,177.77c1.91,3.2,2.47,6.69,1.72,10.44-.75,3.76-2.16,7.23-4.22,10.4-6.18.57-12.62,1.74-19.3,3.53-6.68,1.79-13.85,5.22-21.42,10.35-14.43,9.77-23.16,21.17-26.12,33.53-2.97,12.39.32,24.55,9.47,36.51,9.45,12.36,20.43,18.66,32.74,19.32,12.34.66,25.01-3.66,38.53-12.77,7-4.72,12.53-9.41,16.58-14.21,4.05-4.79,7.58-9.62,10.61-14.51,3.54.11,6.87.99,10.01,2.6,3.13,1.62,5.64,4.04,7.55,7.24,1.66,2.79,2.34,5.91,2.08,9.38-.26,3.47-2,7.3-5.18,11.55-2.38,3.38-5.93,7.36-10.6,12-4.68,4.64-10.94,9.57-18.77,14.92-10.5,7.18-21.04,12.86-31.8,17.06-10.77,4.21-21.36,6.52-31.9,6.87-10.54.36-20.85-1.55-30.97-5.86-10.11-4.3-19.61-11.47-28.34-21.69-8.21-9.6-13.5-19.8-15.64-30.7-2.15-10.88-1.67-21.87,1.54-32.86,3.21-10.98,8.83-21.72,16.89-32.01,8.05-10.28,18.06-19.61,29.92-27.77,16.86-11.59,31.48-18.07,43.36-19.93,11.9-1.84,19.63.49,23.27,6.6Z"/><path class="cls-2" d="m211.49,139.97c10.01-4.76,19.54-8.14,28.48-10.19,8.94-2.05,17.03-2.58,24.2-1.67,7.18.92,13.36,3.35,18.54,7.24,5.19,3.89,9.08,9.34,11.76,16.29,6.59,17.08,13.17,34.17,19.76,51.25,1.52,3.93,1.53,7.53.08,10.79-1.45,3.27-3.5,6.38-6.12,9.36-4.23,5.02-9.86,9.89-16.89,14.69-7.03,4.8-15.33,9.4-24.9,13.93-17.3,8.19-32.28,12.42-45.48,12.28-13.18-.13-23.11-5.65-29.6-17.07-5.52-9.71-6.2-19.14-1.76-28.25,4.42-9.08,13.99-18.41,28.79-27.4,11.58-7.02,23.31-13.77,35.17-20.27-.36-.81-.72-1.63-1.08-2.44-2.1-4.74-6.07-7.16-11.95-7.16-5.88,0-13.45,2.14-22.6,6.55-7.09,3.43-13.69,7.54-19.76,12.3-6.07,4.76-11.26,9.45-15.61,14.02-2.8.04-5.62-.68-8.45-2.17-2.84-1.49-5.01-3.57-6.51-6.26-3.46-6.22-1.69-13.08,5.51-20.44,4.61-4.49,10.38-9.02,17.32-13.53,6.93-4.51,13.98-8.46,21.11-11.85Zm43.17,86.85c3.82-1.8,7.44-3.89,10.9-6.26,3.45-2.37,5.92-4.49,7.4-6.38-3.02-6.82-6.03-13.63-9.05-20.45-7.16,3.79-14.28,7.68-21.34,11.66-5.5,3.15-9.55,6.45-12.16,9.83-2.61,3.38-3.06,6.74-1.38,10.07,1.75,3.47,4.7,5.43,8.82,5.91,4.12.49,9.7-1,16.81-4.37Z"/><path class="cls-2" d="m388.48,171.11c3.85,1.02,8.68.72,14.55-.84,2.75-.73,5.61-1.76,8.6-3.11,2.99-1.34,5.49-2.67,7.52-4,2.05,1.17,3.87,2.65,5.46,4.43,1.59,1.79,2.7,4.02,3.34,6.7,1.31,5.52-.11,10.63-4.16,15.38-4.05,4.76-12.07,8.63-24.08,11.98-14.83,4.15-27.19,4.78-37.44,1.56-10.23-3.21-17.76-11.35-22.35-24.68-11.82-34.4-23.64-68.8-35.47-103.2,2.09-1.23,4.9-2.74,8.42-4.51,3.52-1.77,7.45-3.35,11.79-4.73,9.09-2.89,16.05-3.66,20.79-2.45,4.75,1.22,8.03,5.04,9.87,11.42,1.46,5.06,2.93,10.12,4.39,15.17,13.86-4.01,27.79-7.7,41.79-11.07,1.39,1.33,2.89,3.1,4.48,5.3,1.59,2.21,2.7,4.65,3.33,7.33,1.19,5.05.6,9.01-1.73,11.9-2.33,2.9-5.74,4.9-10.26,6.04-9.91,2.52-19.79,5.2-29.64,8.04,4.37,15.1,8.74,30.19,13.11,45.29,1.26,4.36,3.83,7.03,7.68,8.04Z"/><path class="cls-2" d="m514.23,82.49c-10.87,1.32-19.76,5.4-26.46,12.07-6.72,6.68-9.08,15.42-7.31,26.12,1.77,10.72,6.58,18.11,14.25,22.35,7.68,4.24,16.66,5.66,27.15,4.38,5.99-.73,11.2-1.99,15.67-3.84,4.46-1.84,8.24-3.62,11.33-5.36,3.4,1.81,6.08,3.82,8.06,6.02,1.98,2.2,3.08,5,3.35,8.39.48,6.15-2.84,11.34-9.8,15.7-6.97,4.38-16.82,7.23-29.65,8.86-10.85,1.38-20.9,1.56-30.27.47-9.37-1.09-17.72-3.53-25.09-7.4-7.37-3.86-13.63-9.15-18.75-15.94-5.12-6.79-8.83-15.14-10.99-25.12-2.23-10.29-2.15-19.68.41-28.16,2.56-8.48,6.98-15.99,13.3-22.47,6.32-6.47,14.23-11.85,23.69-16.01,9.46-4.15,19.74-6.98,30.73-8.39,14.31-1.84,25.83-.96,34.37,2.3,8.54,3.28,12.99,8.07,13.48,14.2.23,2.91-.42,5.64-1.93,8.2-1.52,2.56-3.39,4.84-5.64,6.83-3.75-1.29-8.16-2.33-13.22-3.12-5.07-.78-10.63-.81-16.66-.08Z"/><path class="cls-2" d="m621.29,167.86c-3.28.43-6.93.68-10.94.76-8.21.17-14.17-.77-17.93-2.97-3.76-2.19-5.82-6.67-6.15-13.47-2.29-47.49-4.58-94.98-6.88-142.48,2.36-.6,5.48-1.23,9.37-1.87,3.89-.64,8.22-1.03,13-1.15,9.78-.25,16.81.91,21.04,3.32,4.24,2.41,6.33,7.04,6.32,13.84-.01,9.31-.02,18.63-.03,27.94,4.36-1.61,9.31-2.91,14.85-3.88,5.54-.96,11.55-1.34,18.02-1.12,20.04.71,35.52,5.77,46.07,14.53,10.56,8.78,14.83,21.11,13.23,36.73-2.46,24.26-4.92,48.51-7.39,72.77-1.87.3-4.46.49-7.77.59-3.31.1-6.97-.01-10.97-.33-8.19-.65-14.03-2.18-17.55-4.73-3.52-2.55-5.13-7.22-4.78-14.01.96-18.52,1.92-37.05,2.88-55.57.38-7.28-1.59-12.58-5.99-15.86-4.39-3.27-10.16-5.04-17.24-5.23-4.66-.12-8.92.33-12.77,1.34-3.85,1.01-7.4,2.24-10.61,3.7-.03,28.59-.06,57.19-.1,85.78-1.83.48-4.39.93-7.67,1.36Z"/><path class="cls-2" d="m913.93,208.93c-6.71,1.07-14.46,1.1-23.28.19-8.83-.91-18.21-2.84-28.27-5.73-9.52-2.74-17.94-5.95-25.33-9.74-7.38-3.79-13.45-8.26-18.25-13.51-4.8-5.24-8.19-11.19-10.14-17.9-1.96-6.7-2.11-14.34-.35-22.91,4.74-23.09,9.49-46.18,14.23-69.27,2.34-.02,5.41.12,9.19.44,3.78.32,7.92.98,12.41,2,9.19,2.1,15.47,4.91,18.82,8.25,3.36,3.35,4.16,8.33,2.46,14.92-4.59,17.81-9.18,35.61-13.77,53.42-1.82,7.06-.98,12.66,2.45,16.84,3.43,4.18,8.95,7.31,16.61,9.51,4.74,1.37,8.8,2.2,12.2,2.47,3.4.27,6.04.29,7.92.02,8.72-27.83,17.44-55.66,26.16-83.49,2.15.16,5.1.58,8.85,1.28,3.75.7,7.83,1.78,12.22,3.27,8.98,3.03,15.03,6.49,18.16,10.21,3.13,3.72,3.49,8.78,1.13,15.16-8.86,24.02-17.73,48.03-26.59,72.05-2.64,7.15-8.3,11.25-16.85,12.52Z"/><path class="cls-2" d="m1011.03,261.89c-4.33-2.2-8.17-4.51-11.53-6.96-3.37-2.45-6.33-4.9-8.89-7.36-6.18,13.12-12.37,26.23-18.55,39.35-1.81-.32-4.26-.93-7.35-1.82-3.09-.89-6.41-2.13-9.95-3.7-7.25-3.22-12.04-6.56-14.36-10.17-2.32-3.61-2.21-8.55.37-14.84,15.25-37.09,30.51-74.17,45.76-111.26,1.6-3.89,3.96-6.65,7.11-8.24,3.14-1.59,7.05-2.54,11.75-2.83,7-.35,15.48.56,25.4,2.87,9.91,2.31,20.38,6.16,31.28,11.61,11.09,5.55,20.65,11.92,28.64,18.94,7.98,7.03,13.92,14.66,17.82,22.74,3.89,8.08,5.54,16.54,4.98,25.29-.56,8.76-3.7,17.68-9.31,26.78-5.35,8.7-11.67,15.41-18.84,20.24-7.18,4.84-14.82,7.9-22.93,9.26-8.11,1.36-16.48,1.15-25.18-.58-8.71-1.73-17.4-4.85-26.22-9.32Zm7.36-29.22c9.32,4.64,17.7,5.95,25.39,3.8,7.66-2.15,14.24-8.05,19.6-17.87,5.51-10.09,6.93-18.75,4.1-25.96-2.82-7.2-8.99-13.28-18.45-18.02-4.27-2.14-8.19-3.55-11.73-4.28-3.55-.73-6.88-1.19-9.96-1.39-8.11,17.22-16.22,34.45-24.34,51.67,1.89,2.33,4.07,4.48,6.53,6.48,2.46,2,5.41,3.85,8.87,5.57Z"/><path class="cls-2" d="m1151.99,326.87c3.52-4.64,8.18-7.12,14.01-7.32,5.83-.2,11.86,2.14,17.98,7.07,6.12,4.94,9.72,10.36,10.79,16.12,1.06,5.77-.34,10.86-4.13,15.29-3.79,4.43-8.61,6.65-14.4,6.75-5.8.09-11.57-2.23-17.41-6.94-5.84-4.71-9.31-9.83-10.42-15.5-1.11-5.66.05-10.83,3.58-15.47Zm122.37-72.13c-2.94,3.46-7.15,8.17-12.64,14.13-5.49,5.96-11.47,12.26-17.93,18.89-6.46,6.63-12.92,13.21-19.38,19.74-6.46,6.53-12.13,12.08-17.02,16.64-1.89-.31-4.38-1.34-7.49-3.05-3.11-1.72-5.61-3.33-7.53-4.87-3.98-3.21-6.92-6.41-8.81-9.64-1.89-3.23-2-6.43-.31-9.63,2.41-4.48,6.11-10.48,11.09-17.99,4.97-7.52,10.29-15.43,15.96-23.74,5.67-8.31,11.28-16.31,16.85-23.97,5.57-7.67,10.17-13.89,13.8-18.66,4.07,1.07,8.31,2.81,12.71,5.23,4.39,2.42,8.49,5.15,12.26,8.2,12.96,10.49,15.67,20.26,8.43,28.74Z"/><path class="cls-1" d="m116.29,171.1c1.91,3.2,2.47,6.69,1.72,10.44-.75,3.76-2.16,7.23-4.22,10.4-6.18.57-12.62,1.74-19.3,3.53-6.68,1.79-13.85,5.22-21.42,10.35-14.43,9.77-23.16,21.17-26.12,33.53-2.97,12.39.32,24.55,9.47,36.51,9.45,12.36,20.43,18.66,32.74,19.32,12.34.66,25.01-3.66,38.53-12.77,7-4.72,12.53-9.41,16.58-14.21,4.05-4.79,7.58-9.62,10.61-14.51,3.54.11,6.87.99,10.01,2.6,3.13,1.62,5.64,4.04,7.55,7.24,1.66,2.79,2.34,5.91,2.08,9.38-.26,3.47-2,7.3-5.18,11.55-2.38,3.38-5.93,7.36-10.6,12-4.68,4.64-10.94,9.57-18.77,14.92-10.5,7.18-21.04,12.86-31.8,17.06-10.77,4.21-21.36,6.52-31.9,6.87-10.54.36-20.85-1.55-30.97-5.86-10.11-4.31-19.61-11.47-28.34-21.69-8.21-9.6-13.5-19.8-15.64-30.7-2.15-10.88-1.67-21.87,1.54-32.86,3.21-10.98,8.83-21.72,16.89-32.01,8.05-10.28,18.06-19.61,29.92-27.77,16.86-11.59,31.48-18.07,43.36-19.93,11.9-1.84,19.63.49,23.27,6.6Z"/><path class="cls-1" d="m200.34,133.31c10.01-4.76,19.54-8.14,28.48-10.19,8.94-2.05,17.03-2.58,24.2-1.67,7.18.92,13.36,3.35,18.54,7.24,5.19,3.89,9.08,9.34,11.76,16.29,6.59,17.08,13.17,34.17,19.76,51.25,1.52,3.93,1.53,7.53.08,10.79-1.45,3.27-3.5,6.38-6.12,9.36-4.23,5.02-9.86,9.89-16.89,14.69-7.03,4.8-15.33,9.4-24.9,13.93-17.3,8.19-32.28,12.42-45.48,12.28-13.18-.13-23.11-5.65-29.6-17.07-5.52-9.71-6.2-19.14-1.76-28.25,4.42-9.08,13.99-18.41,28.79-27.4,11.58-7.02,23.31-13.77,35.17-20.27-.36-.81-.72-1.63-1.08-2.44-2.09-4.74-6.07-7.16-11.95-7.16-5.88,0-13.45,2.14-22.6,6.55-7.09,3.43-13.69,7.54-19.76,12.3-6.07,4.76-11.26,9.45-15.61,14.02-2.8.04-5.62-.68-8.45-2.17-2.84-1.49-5.01-3.57-6.51-6.26-3.46-6.22-1.69-13.08,5.51-20.44,4.61-4.49,10.38-9.02,17.32-13.53,6.93-4.51,13.98-8.46,21.11-11.85Zm43.17,86.85c3.81-1.8,7.44-3.89,10.9-6.26,3.45-2.37,5.92-4.49,7.4-6.38-3.02-6.82-6.03-13.63-9.05-20.45-7.16,3.79-14.28,7.68-21.34,11.66-5.5,3.15-9.55,6.45-12.16,9.83-2.61,3.38-3.06,6.74-1.38,10.07,1.75,3.47,4.7,5.43,8.82,5.91,4.12.49,9.7-1,16.81-4.37Z"/><path class="cls-1" d="m377.33,164.45c3.85,1.02,8.68.72,14.55-.84,2.75-.73,5.61-1.76,8.6-3.11,2.98-1.34,5.49-2.67,7.52-4,2.05,1.17,3.87,2.65,5.46,4.43,1.59,1.79,2.7,4.02,3.34,6.7,1.31,5.52-.11,10.63-4.16,15.38-4.05,4.76-12.07,8.63-24.08,11.98-14.83,4.15-27.19,4.78-37.44,1.56-10.23-3.21-17.76-11.35-22.35-24.68-11.82-34.4-23.64-68.8-35.47-103.2,2.09-1.23,4.9-2.74,8.42-4.51,3.52-1.77,7.45-3.35,11.79-4.73,9.09-2.89,16.05-3.66,20.79-2.45,4.75,1.22,8.03,5.04,9.87,11.42,1.46,5.06,2.93,10.12,4.39,15.17,13.86-4.01,27.79-7.7,41.79-11.07,1.39,1.33,2.89,3.1,4.48,5.3,1.59,2.21,2.7,4.65,3.33,7.33,1.19,5.05.6,9.01-1.73,11.9-2.33,2.9-5.74,4.9-10.26,6.04-9.91,2.52-19.79,5.2-29.64,8.04,4.37,15.1,8.74,30.19,13.11,45.29,1.26,4.36,3.83,7.03,7.68,8.04Z"/><path class="cls-1" d="m503.08,75.82c-10.87,1.32-19.76,5.4-26.46,12.07-6.72,6.68-9.08,15.42-7.31,26.12,1.77,10.72,6.58,18.11,14.25,22.35,7.68,4.24,16.66,5.66,27.15,4.38,5.99-.73,11.2-1.99,15.67-3.84,4.46-1.84,8.24-3.62,11.33-5.36,3.4,1.81,6.08,3.82,8.06,6.02,1.97,2.2,3.08,5,3.35,8.39.48,6.15-2.84,11.34-9.8,15.71-6.97,4.38-16.82,7.23-29.65,8.86-10.85,1.38-20.9,1.56-30.27.47-9.37-1.09-17.72-3.53-25.09-7.4-7.37-3.86-13.63-9.15-18.75-15.94-5.12-6.79-8.83-15.14-10.99-25.12-2.23-10.29-2.15-19.68.41-28.16,2.56-8.48,6.98-15.99,13.3-22.47,6.32-6.47,14.23-11.85,23.69-16.01,9.46-4.15,19.74-6.98,30.73-8.39,14.31-1.84,25.83-.96,34.37,2.3,8.54,3.28,12.99,8.07,13.48,14.2.23,2.91-.42,5.64-1.93,8.2-1.51,2.56-3.39,4.84-5.64,6.83-3.75-1.29-8.16-2.33-13.22-3.12-5.06-.78-10.63-.81-16.66-.08Z"/><path class="cls-1" d="m610.14,161.19c-3.28.43-6.93.68-10.94.76-8.21.17-14.17-.77-17.93-2.97-3.76-2.19-5.82-6.67-6.15-13.47-2.29-47.49-4.58-94.98-6.88-142.48,2.36-.6,5.48-1.23,9.37-1.87,3.89-.64,8.22-1.03,13-1.15,9.78-.25,16.81.91,21.04,3.32,4.24,2.41,6.33,7.04,6.32,13.84-.01,9.31-.02,18.63-.03,27.94,4.36-1.61,9.31-2.91,14.85-3.88,5.54-.96,11.55-1.34,18.02-1.12,20.04.71,35.52,5.77,46.07,14.53,10.56,8.78,14.83,21.11,13.23,36.73-2.46,24.26-4.92,48.51-7.39,72.77-1.87.3-4.46.49-7.77.59-3.31.1-6.97-.01-10.97-.33-8.19-.65-14.03-2.18-17.55-4.73-3.52-2.55-5.13-7.22-4.78-14.01.96-18.52,1.92-37.05,2.88-55.57.38-7.28-1.59-12.58-5.99-15.86-4.39-3.27-10.16-5.04-17.24-5.23-4.66-.12-8.92.33-12.77,1.34-3.85,1.01-7.4,2.24-10.61,3.69-.03,28.59-.06,57.19-.1,85.78-1.83.48-4.39.93-7.67,1.36Z"/><path class="cls-1" d="m902.78,202.26c-6.71,1.07-14.46,1.1-23.28.19-8.83-.91-18.21-2.84-28.27-5.73-9.52-2.74-17.95-5.95-25.33-9.74-7.38-3.79-13.45-8.26-18.25-13.51-4.8-5.24-8.19-11.19-10.14-17.9-1.96-6.7-2.11-14.34-.35-22.91,4.74-23.09,9.49-46.18,14.23-69.27,2.34-.02,5.41.12,9.19.44,3.78.32,7.92.98,12.41,2,9.19,2.1,15.47,4.91,18.82,8.25,3.36,3.35,4.16,8.33,2.46,14.92-4.59,17.81-9.18,35.61-13.77,53.42-1.82,7.06-.98,12.66,2.45,16.84,3.43,4.18,8.95,7.31,16.61,9.51,4.74,1.37,8.8,2.2,12.2,2.47,3.4.27,6.04.29,7.92.02,8.72-27.83,17.44-55.66,26.16-83.49,2.15.16,5.1.58,8.85,1.28,3.75.7,7.83,1.78,12.22,3.27,8.98,3.03,15.03,6.49,18.16,10.21,3.13,3.72,3.49,8.78,1.13,15.16-8.86,24.02-17.73,48.03-26.59,72.05-2.64,7.15-8.3,11.25-16.85,12.52Z"/><path class="cls-1" d="m999.88,255.22c-4.33-2.2-8.17-4.51-11.53-6.96-3.37-2.45-6.33-4.9-8.89-7.36-6.18,13.12-12.37,26.23-18.55,39.35-1.81-.32-4.26-.93-7.35-1.82-3.09-.89-6.41-2.13-9.95-3.7-7.25-3.22-12.04-6.56-14.36-10.17-2.32-3.61-2.21-8.55.37-14.84,15.25-37.09,30.51-74.17,45.76-111.26,1.6-3.89,3.96-6.65,7.11-8.24,3.14-1.59,7.05-2.54,11.75-2.83,7-.35,15.48.56,25.4,2.87,9.91,2.31,20.38,6.16,31.28,11.61,11.09,5.55,20.65,11.92,28.64,18.94,7.98,7.03,13.92,14.66,17.82,22.74,3.89,8.08,5.54,16.54,4.98,25.29-.55,8.76-3.7,17.68-9.31,26.78-5.35,8.7-11.67,15.41-18.84,20.24-7.18,4.84-14.82,7.9-22.93,9.26-8.11,1.36-16.48,1.15-25.18-.58-8.71-1.73-17.41-4.85-26.22-9.32Zm7.36-29.22c9.32,4.64,17.71,5.95,25.39,3.8,7.66-2.15,14.24-8.05,19.6-17.87,5.51-10.09,6.93-18.75,4.1-25.96-2.82-7.2-8.99-13.28-18.45-18.02-4.27-2.14-8.19-3.55-11.73-4.28-3.56-.73-6.88-1.19-9.96-1.39-8.11,17.22-16.22,34.45-24.34,51.67,1.89,2.33,4.07,4.48,6.53,6.48,2.46,2,5.41,3.85,8.87,5.57Z"/><path class="cls-1" d="m1140.84,320.2c3.53-4.64,8.18-7.12,14.01-7.32,5.83-.2,11.86,2.14,17.98,7.07,6.12,4.94,9.72,10.36,10.79,16.12,1.07,5.77-.34,10.86-4.13,15.29-3.79,4.43-8.61,6.65-14.4,6.75-5.8.09-11.57-2.23-17.41-6.94-5.84-4.71-9.31-9.83-10.42-15.5-1.11-5.66.05-10.83,3.58-15.47Zm122.37-72.13c-2.94,3.46-7.15,8.17-12.64,14.13-5.49,5.96-11.47,12.25-17.93,18.89-6.46,6.63-12.92,13.21-19.38,19.74-6.46,6.53-12.13,12.08-17.02,16.64-1.89-.31-4.38-1.34-7.49-3.05-3.11-1.72-5.61-3.33-7.53-4.87-3.98-3.21-6.92-6.41-8.81-9.64-1.89-3.23-2-6.43-.31-9.63,2.41-4.48,6.11-10.48,11.09-17.99,4.97-7.52,10.29-15.43,15.96-23.74,5.67-8.31,11.28-16.31,16.85-23.97,5.57-7.67,10.17-13.89,13.8-18.66,4.07,1.07,8.31,2.81,12.71,5.23,4.39,2.42,8.49,5.15,12.26,8.2,12.96,10.49,15.67,20.26,8.43,28.74Z"/></svg>