<?xml version="1.0" encoding="UTF-8"?><svg id="ekstra_tomater" xmlns="http://www.w3.org/2000/svg" width="229" height="153.07" viewBox="0 0 229 153.07"><defs><style>.cls-1{fill:#f6dded;}.cls-2{fill:#ffb2d3;}.cls-3{fill:#fcf7f9;}.cls-4{fill:#9e0f69;}.cls-5{fill:#d9298a;}.cls-6{fill:#231f20;}.cls-7{fill:#0d0d0d;}</style></defs><path class="cls-6" d="m4,28.46v108.28c0,19.26,5,21.26,32.82,21.26h163.22c18,1,32.64-8.84,32.82-21.04C234.56,25.7,223.68,7.79,37.24,6.2c-18.28-.16-33.24,9.86-33.24,22.26Z"/><rect class="cls-5" x="12" y="5" width="221" height="145" rx="12" ry="12"/><path class="cls-1" d="m224.66,55.83h0c.34-28.83.64-43.57-25.66-44.83-21-1-52,0-52,0-17,1-16.69,12,0,12,65,0,70.36-3,71.94,32.78.13,2.87,4.76,2.75,5.72.04Z"/><path class="cls-3" d="m223.26,133.66c1.55-.13,2.73-1.47,2.7-3.03-.19-10.15-.94-49.46-.96-49.63-.85-9.04-6-10-6-1,0,18.42-.32,44.18,0,50,.18,3.28,2.37,3.81,4.26,3.66Z"/><path class="cls-7" d="m102.3,57.27c0,6.87-3.01,12.9-9.04,18.08-6.03,5.19-13.96,8.15-23.79,8.89l-1.82,14.44c-.94,7.47-2.56,13.15-4.85,17.02-2.29,3.87-6.09,5.81-11.41,5.81s-9.23-3.06-11.72-9.19c-2.49-6.13-3.74-14.07-3.74-23.84,0-14.54,2.83-26.71,8.48-36.51,5.66-9.8,13.87-15.3,24.64-16.51,2.02-.2,3.94-.3,5.76-.3,8.28,0,14.93,2.02,19.95,6.06,5.02,4.04,7.52,9.39,7.52,16.06Zm-25.86,2.22c0,.94-.83,3.08-2.47,6.41-1.65,3.33-2.85,6.78-3.59,10.35,5.79-.87,10.42-2.96,13.89-6.26,3.47-3.3,5.2-7.09,5.2-11.36s-1.46-7.61-4.39-10c-2.93-2.39-7.29-3.59-13.08-3.59s-10.64,1.75-14.54,5.25c-3.03,2.76-5.35,6.26-6.97,10.5-3.03,7.88-4.54,16.87-4.54,26.97,0,16.83,2.29,25.25,6.87,25.25,1.14,0,2.09-.39,2.83-1.16.74-.77,1.33-2.17,1.77-4.19.44-2.02.76-3.99.96-5.91.2-1.92.47-4.81.81-8.69.34-3.87.71-7.29,1.11-10.25-.47-.2-1.38-.54-2.73-1.01-1.35-.47-2.49-1.01-3.43-1.62-1.62-.94-2.42-2.56-2.42-4.85s.61-3.33,1.82-3.33c.34,0,1.26.42,2.78,1.26,1.52.84,3.25,1.53,5.2,2.07,1.62-7.74,3.08-12.91,4.39-15.5,1.31-2.59,3.4-3.89,6.26-3.89s4.29,1.18,4.29,3.54Z"/><path class="cls-7" d="m104.83,108.98c-3.64,0-6.53-1.5-8.69-4.49-2.16-3-3.23-6.88-3.23-11.67,0-1.14.03-2.02.1-2.63,1.01-9.96,3.7-20.1,8.08-30.4,2.15-5.12,4.85-9.31,8.08-12.57,3.23-3.27,6.7-4.9,10.4-4.9,4.78,0,7.17,2.63,7.17,7.88s-2.54,12.17-7.63,20.76c-5.08,8.58-10.69,15.3-16.82,20.15-.14.81-.2,1.62-.2,2.42,0,5.12,1.41,7.68,4.24,7.68,3.16,0,6.7-2.22,10.6-6.67.61-.67,1.35-1.01,2.22-1.01s1.7.35,2.47,1.06c.77.71,1.16,1.58,1.16,2.63s-.47,2.04-1.41,2.98c-5.12,5.86-10.64,8.79-16.56,8.79Zm11.72-56.86c-2.63,0-5.2,3.33-7.73,10s-4.33,13.37-5.4,20.1c3.43-4.11,6.68-9.16,9.75-15.15,3.06-5.99,4.63-10.33,4.7-13.03,0-1.28-.44-1.92-1.31-1.92Z"/><path class="cls-7" d="m138.86,77.47l2.73-.3h.61c1.95,0,2.93.94,2.93,2.83,0,.47-.03.81-.1,1.01l-2.83,16.26c-.07.2-.1.5-.1.91,0,1.21.5,1.82,1.52,1.82s2.34-.59,3.99-1.77c1.65-1.18,3.15-2.71,4.49-4.6.74-.74,1.48-1.11,2.22-1.11s1.38.59,1.92,1.77c.54,1.18.81,2.21.81,3.08s-.1,1.62-.3,2.22c-1.68,2.22-3.79,4.24-6.31,6.06-2.52,1.82-4.97,2.73-7.32,2.73s-4.19-.61-5.5-1.82-2.04-2.66-2.17-4.34l-1.31,1.82c-2.36,3.3-5.27,4.95-8.74,4.95s-6.15-1.13-8.03-3.38c-1.89-2.26-2.83-5.13-2.83-8.64,0-6.4,2.2-11.75,6.62-16.06,4.41-4.31,8.97-6.46,13.69-6.46,2.76,0,4.14.74,4.14,2.22l-.1.81Zm-11.62,23.03c1.62,0,3.15-.72,4.6-2.17s2.51-3.72,3.18-6.82l2.32-10.91c-3.97.2-7.32,1.99-10.05,5.35-2.73,3.37-4.09,6.63-4.09,9.8s1.35,4.75,4.04,4.75Z"/><path class="cls-7" d="m154.72,140.19c-2.96,0-5.2-.49-6.72-1.46-1.51-.98-2.27-2.63-2.27-4.95s.54-4.33,1.62-6.01c.61-.88,1.13-1.6,1.57-2.17.44-.57,1.09-1.33,1.97-2.27.87-.94,1.45-1.58,1.72-1.92,2.22-2.42,5.72-5.22,10.5-8.38,2.36-1.55,4.07-2.69,5.15-3.43l3.33-8.89c-1.41,2.49-3.28,4.41-5.61,5.76-2.32,1.35-4.16,2.02-5.5,2.02-2.63,0-4.88-.87-6.77-2.63-1.89-1.75-2.83-4.04-2.83-6.87,0-6.19,1.51-12.15,4.54-17.88.47-.94,1.3-1.77,2.47-2.47,1.18-.71,2.24-1.06,3.18-1.06s1.8.27,2.58.81c.77.54,1.16,1.31,1.16,2.32s-.51,2.36-1.52,4.04c-.4.74-.71,1.31-.91,1.72-1.21,4.85-1.82,8.57-1.82,11.16s1.11,3.89,3.33,3.89h.71c2.76-.61,5.02-3.74,6.77-9.39l2.73-9.29c.87-3.23,2.39-4.85,4.54-4.85.94,0,1.82.22,2.63.66.81.44,1.21,1.06,1.21,1.87,0,1.82-.52,5.1-1.57,9.85-1.04,4.75-1.97,9.58-2.78,14.49,10.1-6.33,16.06-10.17,17.88-11.51.81-.61,1.6-.91,2.37-.91s1.5.34,2.17,1.01c.67.67,1.01,1.67,1.01,2.98s-.91,2.58-2.73,3.79c-3.17,2.29-10.54,6.63-22.12,13.03-1.08,5.79-2.53,10.67-4.34,14.65-1.15,2.63-2.44,4.76-3.89,6.41-1.45,1.65-3.37,3.05-5.76,4.19-2.39,1.14-5.07,1.72-8.03,1.72Zm1.21-6.97c2.29,0,4.46-1.68,6.51-5.05,2.05-3.37,3.42-6.83,4.09-10.4-1.48.81-3.82,3.1-7.02,6.87-3.2,3.77-4.8,6.33-4.8,7.68,0,.54.17.81.5.81l.71.1Z"/><path class="cls-2" d="m106.26,55.82c0,6.87-3.01,12.9-9.04,18.08-6.03,5.19-13.96,8.15-23.79,8.89l-1.82,14.44c-.94,7.47-2.56,13.15-4.85,17.02-2.29,3.87-6.09,5.81-11.41,5.81s-9.23-3.06-11.72-9.19c-2.49-6.13-3.74-14.07-3.74-23.84,0-14.54,2.83-26.71,8.48-36.51,5.66-9.8,13.87-15.3,24.64-16.51,2.02-.2,3.94-.3,5.76-.3,8.28,0,14.93,2.02,19.95,6.06,5.02,4.04,7.52,9.39,7.52,16.06Zm-25.86,2.22c0,.94-.83,3.08-2.47,6.41-1.65,3.33-2.85,6.78-3.59,10.35,5.79-.87,10.42-2.96,13.89-6.26,3.47-3.3,5.2-7.09,5.2-11.36s-1.46-7.61-4.39-10c-2.93-2.39-7.29-3.59-13.08-3.59s-10.64,1.75-14.54,5.25c-3.03,2.76-5.35,6.26-6.97,10.5-3.03,7.88-4.54,16.87-4.54,26.97,0,16.83,2.29,25.25,6.87,25.25,1.14,0,2.09-.39,2.83-1.16.74-.77,1.33-2.17,1.77-4.19.44-2.02.76-3.99.96-5.91.2-1.92.47-4.81.81-8.69.34-3.87.71-7.29,1.11-10.25-.47-.2-1.38-.54-2.73-1.01-1.35-.47-2.49-1.01-3.43-1.62-1.62-.94-2.42-2.56-2.42-4.85s.61-3.33,1.82-3.33c.34,0,1.26.42,2.78,1.26,1.52.84,3.25,1.53,5.2,2.07,1.62-7.74,3.08-12.91,4.39-15.5,1.31-2.59,3.4-3.89,6.26-3.89s4.29,1.18,4.29,3.54Z"/><path class="cls-2" d="m108.79,107.53c-3.64,0-6.53-1.5-8.69-4.49-2.16-3-3.23-6.88-3.23-11.67,0-1.14.03-2.02.1-2.63,1.01-9.96,3.7-20.1,8.08-30.4,2.15-5.12,4.85-9.31,8.08-12.57,3.23-3.27,6.7-4.9,10.4-4.9,4.78,0,7.17,2.63,7.17,7.88s-2.54,12.17-7.63,20.76c-5.08,8.58-10.69,15.3-16.82,20.15-.14.81-.2,1.62-.2,2.42,0,5.12,1.41,7.68,4.24,7.68,3.16,0,6.7-2.22,10.6-6.67.61-.67,1.35-1.01,2.22-1.01s1.7.35,2.47,1.06c.77.71,1.16,1.58,1.16,2.63s-.47,2.04-1.41,2.98c-5.12,5.86-10.64,8.79-16.56,8.79Zm11.72-56.86c-2.63,0-5.2,3.33-7.73,10s-4.33,13.37-5.4,20.1c3.43-4.11,6.68-9.16,9.75-15.15,3.06-5.99,4.63-10.33,4.7-13.03,0-1.28-.44-1.92-1.31-1.92Z"/><path class="cls-2" d="m142.82,76.02l2.73-.3h.61c1.95,0,2.93.94,2.93,2.83,0,.47-.03.81-.1,1.01l-2.83,16.26c-.07.2-.1.5-.1.91,0,1.21.5,1.82,1.52,1.82s2.34-.59,3.99-1.77c1.65-1.18,3.15-2.71,4.49-4.6.74-.74,1.48-1.11,2.22-1.11s1.38.59,1.92,1.77c.54,1.18.81,2.21.81,3.08s-.1,1.62-.3,2.22c-1.68,2.22-3.79,4.24-6.31,6.06-2.52,1.82-4.97,2.73-7.32,2.73s-4.19-.61-5.5-1.82-2.04-2.66-2.17-4.34l-1.31,1.82c-2.36,3.3-5.27,4.95-8.74,4.95s-6.15-1.13-8.03-3.38c-1.89-2.26-2.83-5.13-2.83-8.64,0-6.4,2.2-11.75,6.62-16.06,4.41-4.31,8.97-6.46,13.69-6.46,2.76,0,4.14.74,4.14,2.22l-.1.81Zm-11.62,23.03c1.62,0,3.15-.72,4.6-2.17s2.51-3.72,3.18-6.82l2.32-10.91c-3.97.2-7.32,1.99-10.05,5.35-2.73,3.37-4.09,6.63-4.09,9.8s1.35,4.75,4.04,4.75Z"/><path class="cls-2" d="m158.68,138.74c-2.96,0-5.2-.49-6.72-1.46-1.51-.98-2.27-2.63-2.27-4.95s.54-4.33,1.62-6.01c.61-.88,1.13-1.6,1.57-2.17.44-.57,1.09-1.33,1.97-2.27.87-.94,1.45-1.58,1.72-1.92,2.22-2.42,5.72-5.22,10.5-8.38,2.36-1.55,4.07-2.69,5.15-3.43l3.33-8.89c-1.41,2.49-3.28,4.41-5.61,5.76-2.32,1.35-4.16,2.02-5.5,2.02-2.63,0-4.88-.87-6.77-2.63-1.89-1.75-2.83-4.04-2.83-6.87,0-6.19,1.51-12.15,4.54-17.88.47-.94,1.3-1.77,2.47-2.47,1.18-.71,2.24-1.06,3.18-1.06s1.8.27,2.58.81c.77.54,1.16,1.31,1.16,2.32s-.51,2.36-1.52,4.04c-.4.74-.71,1.31-.91,1.72-1.21,4.85-1.82,8.57-1.82,11.16s1.11,3.89,3.33,3.89h.71c2.76-.61,5.02-3.74,6.77-9.39l2.73-9.29c.87-3.23,2.39-4.85,4.54-4.85.94,0,1.82.22,2.63.66.81.44,1.21,1.06,1.21,1.87,0,1.82-.52,5.1-1.57,9.85-1.04,4.75-1.97,9.58-2.78,14.49,10.1-6.33,16.06-10.17,17.88-11.51.81-.61,1.6-.91,2.37-.91s1.5.34,2.17,1.01c.67.67,1.01,1.67,1.01,2.98s-.91,2.58-2.73,3.79c-3.17,2.29-10.54,6.63-22.12,13.03-1.08,5.79-2.53,10.67-4.34,14.65-1.15,2.63-2.44,4.76-3.89,6.41-1.45,1.65-3.37,3.05-5.76,4.19-2.39,1.14-5.07,1.72-8.03,1.72Zm1.21-6.97c2.29,0,4.46-1.68,6.51-5.05,2.05-3.37,3.42-6.83,4.09-10.4-1.48.81-3.82,3.1-7.02,6.87-3.2,3.77-4.8,6.33-4.8,7.68,0,.54.17.81.5.81l.71.1Z"/><path class="cls-4" d="m11,99.02v37.23c0,8.15,6.6,14.75,14.75,14.75h140.33c-85.79-.71-152.23-2.88-155.08-51.98Z"/></svg>