<?xml version="1.0" encoding="UTF-8"?>
<svg id="Layer_2" data-name="Layer 2" xmlns="http://www.w3.org/2000/svg" viewBox="0 0 515.04 310.21">
  <defs>
    <style>
      .cls-1 {
        fill: aqua;
        stroke: #000;
        stroke-miterlimit: 10;
        stroke-width: 14px;
      }
    </style>
  </defs>
  <g id="Layer_1-2" data-name="Layer 1">
    <g>
      <path class="cls-1" d="m258.02,112.08S344.96-27.79,492.25,15.21c48.66,14.21-30.68,97-30.68,97,0,0-21.48,81-90.01,72,0,0,99.21,50,43.98,81,0,0-12.27,5-32.73,15-19.23,9.4-63.33,36.37-83.87,14-17.88-19.48-32.73-39.9-40.91-58.45"/>
      <path class="cls-1" d="m258.01,112.42S170.72-27.45,22.85,15.55c-48.85,14.21,30.81,97,30.81,97,0,0,21.56,81,90.37,72,0,0-99.61,50-44.16,81,0,0,12.32,5,32.86,15,19.31,9.4,63.59,36.37,84.21,14,17.95-19.48,32.86-39.9,41.08-58.45"/>
    </g>
  </g>
</svg>