<svg xmlns="http://www.w3.org/2000/svg" xmlns:xlink="http://www.w3.org/1999/xlink" width="1920" height="1080" viewBox="0 0 1920 1080">
  <defs>
    <filter id="Path_1">
      <feOffset dy="10" input="SourceAlpha"/>
      <feGaussianBlur stdDeviation="3" result="blur"/>
      <feFlood flood-opacity="0.161" result="color"/>
      <feComposite operator="out" in="SourceGraphic" in2="blur"/>
      <feComposite operator="in" in="color"/>
      <feComposite operator="in" in2="SourceGraphic"/>
    </filter>
    <clipPath id="clip-Web_1920_1">
      <rect width="1920" height="1080"/>
    </clipPath>
  </defs>
  <g id="Web_1920_1" data-name="Web 1920 – 1" clip-path="url(#clip-Web_1920_1)">
    <rect width="1920" height="1080" fill="#fff"/>
    <g data-type="innerShadowGroup">
      <path id="Path_1-2" data-name="Path 1" d="M1382.965,2151.539c-145.378-104.229-37.261-203.154-37.261-203.154h704.867v-185.25s-513.192,39.931-575.484,0-30.587-82.238-17.558-134.724,178.979-73.822,188.939-76.088,22.524-28.542,23.593-47.283-76.03-82.209-119.306-84.665-183.355-25.613-303.438,47.75S980.029,1478.6,980.029,1478.6s-301.258-164.571-488.12-90.545S301.88,1858.991,301.88,1858.991s-10.27,369.913,97.265,437.19,286.555,59.4,315.776,52.143,243.478-125.678,265.107-131.5,97.267-5.181,130.278,0,109.3,54.516,137.01,59.38,91.553,6.416,154.859,0,91.961-26.54,88.754-71.2-107.965-53.46-107.965-53.46" transform="translate(-90.116 -1279)" fill="#fffefa" opacity="0.468"/>
      <g transform="matrix(1, 0, 0, 1, 0, 0)" filter="url(#Path_1)">
        <path id="Path_1-3" data-name="Path 1" d="M1382.965,2151.539c-145.378-104.229-37.261-203.154-37.261-203.154h704.867v-185.25s-513.192,39.931-575.484,0-30.587-82.238-17.558-134.724,178.979-73.822,188.939-76.088,22.524-28.542,23.593-47.283-76.03-82.209-119.306-84.665-183.355-25.613-303.438,47.75S980.029,1478.6,980.029,1478.6s-301.258-164.571-488.12-90.545S301.88,1858.991,301.88,1858.991s-10.27,369.913,97.265,437.19,286.555,59.4,315.776,52.143,243.478-125.678,265.107-131.5,97.267-5.181,130.278,0,109.3,54.516,137.01,59.38,91.553,6.416,154.859,0,91.961-26.54,88.754-71.2-107.965-53.46-107.965-53.46" transform="translate(-90.12 -1279)" fill="#fff" opacity="0.468"/>
      </g>
      <path id="Path_1-4" data-name="Path 1" d="M1382.965,2151.539c-145.378-104.229-37.261-203.154-37.261-203.154h704.867v-185.25s-513.192,39.931-575.484,0-30.587-82.238-17.558-134.724,178.979-73.822,188.939-76.088,22.524-28.542,23.593-47.283-76.03-82.209-119.306-84.665-183.355-25.613-303.438,47.75S980.029,1478.6,980.029,1478.6s-301.258-164.571-488.12-90.545S301.88,1858.991,301.88,1858.991s-10.27,369.913,97.265,437.19,286.555,59.4,315.776,52.143,243.478-125.678,265.107-131.5,97.267-5.181,130.278,0,109.3,54.516,137.01,59.38,91.553,6.416,154.859,0,91.961-26.54,88.754-71.2-107.965-53.46-107.965-53.46" transform="translate(-90.116 -1279)" fill="none" stroke="#707070" stroke-width="1" opacity="0.468"/>
    </g>
  </g>
</svg>
