<svg xmlns="http://www.w3.org/2000/svg" xmlns:xlink="http://www.w3.org/1999/xlink" width="484.321" height="965.332" viewBox="0 0 484.321 965.332">
  <defs>
    <filter id="Path_1">
      <feOffset dy="10" input="SourceAlpha"/>
      <feGaussianBlur stdDeviation="3" result="blur"/>
      <feFlood flood-opacity="0.161" result="color"/>
      <feComposite operator="out" in="SourceGraphic" in2="blur"/>
      <feComposite operator="in" in="color"/>
      <feComposite operator="in" in2="SourceGraphic"/>
    </filter>
  </defs>
  <g data-type="innerShadowGroup">
    <g transform="matrix(1, 0, 0, 1, 0, 0)" filter="url(#Path_1)">
      <path id="Path_1-2" data-name="Path 1" d="M897.833,1753.164c-80.156-51.174-20.544-99.743-20.544-99.743h388.639v-90.953s-282.956,19.6-317.3,0-16.865-40.377-9.681-66.146,98.683-36.245,104.174-37.357,12.419-14.013,13.008-23.215-41.92-40.362-65.781-41.568-101.1-12.575-167.305,23.444-147.373,5.145-147.373,5.145-166.1-80.8-269.132-44.455-104.775,231.216-104.775,231.216S296.1,1791.148,355.39,1824.18s158,29.165,174.108,25.6,134.245-61.7,146.171-64.565,53.63-2.544,71.831,0,60.267,26.766,75.542,29.154,50.479,3.15,85.383,0,50.7-13.03,48.936-34.958-59.528-26.248-59.528-26.248" transform="translate(-1368.26 1266.43) rotate(-90)" fill="#fff" opacity="0.468"/>
    </g>
    <path id="Path_1-3" data-name="Path 1" d="M897.833,1753.164c-80.156-51.174-20.544-99.743-20.544-99.743h388.639v-90.953s-282.956,19.6-317.3,0-16.865-40.377-9.681-66.146,98.683-36.245,104.174-37.357,12.419-14.013,13.008-23.215-41.92-40.362-65.781-41.568-101.1-12.575-167.305,23.444-147.373,5.145-147.373,5.145-166.1-80.8-269.132-44.455-104.775,231.216-104.775,231.216S296.1,1791.148,355.39,1824.18s158,29.165,174.108,25.6,134.245-61.7,146.171-64.565,53.63-2.544,71.831,0,60.267,26.766,75.542,29.154,50.479,3.15,85.383,0,50.7-13.03,48.936-34.958-59.528-26.248-59.528-26.248" transform="translate(-1368.26 1266.427) rotate(-90)" fill="none" stroke="#707070" stroke-width="1" opacity="0.468"/>
  </g>
</svg>
