<?xml version="1.0" encoding="UTF-8"?>
<svg xmlns="http://www.w3.org/2000/svg" viewBox="0 0 630.41 248.86">
  <defs>
    <style>
      .cls-1 {
        fill: #ed1c24;
      }

      .cls-2 {
        fill: red;
      }

      .cls-3 {
        fill: #fff;
        font-family: MyriadPro-Regular, 'Myriad Pro';
        font-size: 199px;
        letter-spacing: .07em;
        stroke: #fff;
        stroke-miterlimit: 10;
        stroke-width: 11px;
      }
    </style>
  </defs>
  <g id="Layer_1" data-name="Layer 1">
    <path class="cls-2" d="m143.71,241.67c4.78-1.8,8.39-4.89,10.87-9.37,1.67-3.01,2.72-6.31,4.49-9.28.48-.79.98-1.57,1.52-2.32.36-.5,1.58-1.75-.04.02.3-.32.56-.69.84-1.02,1.25-1.46,2.61-2.83,4.06-4.1.34-.3.69-.6,1.05-.89.2-.17.41-.33.61-.49-1,.77-1.19.92-.58.45.81-.58,1.62-1.16,2.46-1.7,1.77-1.14,3.63-2.14,5.54-3.04,1.61-.75,2.99-2.83,3.45-4.48.49-1.8.27-4.19-.76-5.78-2.37-3.67-6.45-4.47-10.26-2.69-7.94,3.71-14.81,9.52-19.75,16.76-1.91,2.8-3.14,5.88-4.56,8.94-.37.79-.75,1.58-1.19,2.34-.16.28-.33.56-.5.83-.38.59-1.41,1.58.24-.2-.52.56-1,1.11-1.56,1.63-.88.81,1.74-1.15.18-.2-.39.24-.81.44-1.22.63l1.79-.76c-.22.1-.44.18-.67.26-1.87.7-3.44,1.67-4.48,3.45-.94,1.61-1.34,3.98-.76,5.78,1.16,3.58,5.29,6.72,9.23,5.24h0Z"/>
    <path class="cls-2" d="m109.46,216.42c.8-1.51,1.68-2.98,2.64-4.4.24-.36.49-.71.75-1.06.11-.15.22-.3.33-.45.68-.94-.45.6-.49.63.63-.42,1.17-1.45,1.68-2.03,1.21-1.39,2.5-2.72,3.86-3.98.62-.57,1.25-1.13,1.89-1.67.35-.29.7-.58,1.06-.87.15-.12.31-.24.46-.37-1.68,1.4-.83.64-.42.33,3.01-2.25,6.23-4.2,9.61-5.84,3.19-1.55,6.56-2.72,9.64-4.47,4.15-2.35,8.36-6.12,9.2-11.07.34-2.04.33-3.93-.76-5.78-.91-1.56-2.69-3.04-4.48-3.45-3.63-.83-8.53,1.1-9.23,5.24-.08.49-.21.95-.38,1.41l.76-1.79c-.13.31-.28.61-.45.91s-.86,1.21,0,.09.01-.09-.23.15c-.27.26-.56.48-.83.74-.49.46.87-.78.87-.67,0,.05-.57.4-.55.38-.29.19-.58.37-.87.55-.71.43-1.45.82-2.19,1.19-3.07,1.53-6.29,2.7-9.34,4.27-6.69,3.44-12.97,8.17-17.96,13.81-2.87,3.25-5.47,6.8-7.5,10.63-1.83,3.47-.99,8.32,2.69,10.26,3.47,1.83,8.3,1.01,10.26-2.69h0Z"/>
    <path class="cls-2" d="m41.27,176.83c.8-.5,1.62-.93,2.49-1.31l-1.79.76c1.71-.71,3.48-1.15,5.32-1.4l-1.99.27c9.2-1.11,18.27,2.29,27.47,1.42,5.33-.5,10.45-1.99,14.82-5.17,3.85-2.8,7.07-6.13,10.35-9.54,1.55-1.61,3.12-3.2,4.83-4.64.2-.17.41-.34.62-.51.94-.77-1.56,1.13-.51.4.43-.3.86-.61,1.31-.89.98-.62,2-1.16,3.07-1.61l-1.79.76c.9-.36,1.81-.66,2.75-.88,3.82-.92,6.46-5.46,5.24-9.23-1.29-3.97-5.14-6.22-9.23-5.24-6.7,1.61-12.01,6.16-16.67,11-1.99,2.07-3.93,4.19-6.05,6.12-.56.52-1.15,1-1.73,1.5-1.01.86,1.57-1.14.49-.37-.26.19-.52.38-.79.57-1.25.86-2.56,1.6-3.95,2.2l1.79-.76c-1.77.73-3.6,1.19-5.49,1.46l1.99-.27c-6.42.82-12.84-.54-19.21-1.19-7.15-.73-14.66-.28-20.92,3.63-3.32,2.08-4.93,6.79-2.69,10.26s6.7,4.91,10.26,2.69h0Z"/>
    <path class="cls-2" d="m11.27,141.73c.31-.14.62-.28.93-.41l-1.79.76c2.85-1.18,5.85-1.87,8.89-2.29l-1.99.27c11.07-1.46,22.29.1,33.41-.16,6.1-.14,12.24-.85,18.13-2.48,5.24-1.45,10.25-3.56,15.3-5.56,5.82-2.31,11.72-4.35,17.95-5.23l-1.99.27c.86-.11,1.72-.21,2.58-.28,2.02-.18,3.82-.72,5.3-2.2,1.3-1.3,2.28-3.44,2.2-5.3-.17-3.77-3.31-7.87-7.5-7.5-4.54.4-9.03,1.19-13.4,2.51-3.53,1.06-6.97,2.41-10.39,3.77-7.14,2.85-14.27,5.65-21.93,6.68l1.99-.27c-14.56,1.86-29.25-1.04-43.81,1.04-4.02.57-7.74,1.74-11.43,3.43-1.61.74-2.99,2.84-3.45,4.48-.49,1.8-.27,4.19.76,5.78s2.57,3.01,4.48,3.45c2.07.47,3.85.13,5.78-.76h0Z"/>
    <path class="cls-1" d="m21.48,99.75c.61-.11,1.23-.21,1.84-.3l-1.99.27c4.79-.64,9.6-.45,14.39.19l-1.99-.27c9.14,1.27,17.91,4.19,26.97,5.9s17.74,2.37,26.6.79c4.3-.76,8.74-2.33,12.26-4.96,1.62-1.21,2.89-2.45,3.45-4.48.49-1.8.27-4.19-.76-5.78s-2.57-3.01-4.48-3.45-4.19-.42-5.78.76c-1.3.97-2.7,1.75-4.18,2.39l1.79-.76c-2.48,1.03-5.08,1.66-7.73,2.04l1.99-.27c-5.5.74-11.08.47-16.56-.27l1.99.27c-7.88-1.09-15.49-3.42-23.24-5.13-9.47-2.08-18.96-3.15-28.57-1.41-1.75.32-3.61,1.96-4.48,3.45-.94,1.61-1.34,3.98-.76,5.78,1.34,4.15,5.08,5.99,9.23,5.24h0Z"/>
    <path class="cls-1" d="m41.16,70.13c1.1-.5,2.21-.99,3.32-1.46l-1.79.76c3.4-1.42,6.88-2.64,10.54-3.16l-1.99.27c1.81-.22,3.61-.26,5.43-.06l-1.99-.27c2.4.33,4.64,1.12,6.86,2.05l-1.79-.76c3.46,1.46,6.86,2.97,10.54,3.79s7.32,1.25,11,1.25c7.36,0,14.55-1.69,21.15-4.9,3.54-1.72,4.77-7.04,2.69-10.26-2.34-3.63-6.48-4.53-10.26-2.69-.6.29-1.2.56-1.81.83l1.79-.76c-3.14,1.31-6.42,2.17-9.78,2.65l1.99-.27c-3.84.51-7.71.51-11.55,0l1.99.27c-3.59-.52-7-1.52-10.34-2.93l1.79.76c-2.77-1.17-5.54-2.52-8.49-3.19s-6.15-.9-9.22-.52c-6.29.78-11.9,3.05-17.64,5.65-1.61.73-3,2.85-3.45,4.48-.49,1.8-.27,4.19.76,5.78s2.57,3.01,4.48,3.45c2.08.47,3.85.12,5.78-.76h0Z"/>
    <path class="cls-1" d="m116.75,23.65l-.44.06,1.99-.27c-6.35.84-12.79,1.38-19.18.55l1.99.27c-2.84-.4-5.63-1.06-8.29-2.15l1.79.76c-1.15-.49-2.26-1.06-3.31-1.73-.34-.22-1.83-1.31-.75-.47s.14.11-.09-.09-.45-.39-.67-.6c-.39-.36-.76-.74-1.12-1.13-.2-.21-.38-.44-.57-.66-.58-.66,1.1,1.55.44.57-.62-.92-1.18-1.84-1.62-2.86l.76,1.79c-.4-.97-.68-1.97-.82-3.01l.27,1.99c-.09-.82-.09-1.62,0-2.44l-.27,1.99c.12-.84.34-1.63.66-2.41l-.76,1.79c.08-.2.18-.4.27-.59.89-1.84,1.31-3.75.76-5.78-.48-1.74-1.82-3.63-3.45-4.48-3.36-1.78-8.44-1.08-10.26,2.69-2,4.14-2.67,8.72-1.25,13.19,1.27,4,3.72,7.68,6.9,10.42,7.08,6.1,16.19,8.23,25.37,8.34,5.25.06,10.45-.59,15.65-1.29,1.72-.23,3.65-2.03,4.48-3.45.94-1.61,1.34-3.98.76-5.78s-1.71-3.57-3.45-4.48c-1.91-1.01-3.66-1.04-5.78-.76h0Z"/>
    <text class="cls-3" transform="translate(186.48 193.6) rotate(-.14)"><tspan x="0" y="0">VD</tspan></text>
  </g>
  <g id="Layer_2" data-name="Layer 2">
    <path class="cls-2" d="m532.66.02c-4.68.37-9.32,1.57-13.17,4.37-2.96,2.15-5.32,4.74-7.84,7.35-.55.57-1.12,1.13-1.71,1.66-.31.28-.62.55-.94.82-.16.14-.33.27-.49.4-.78.65.92-.67.33-.25-1.51,1.09-3.03,2.12-4.64,3.04s-3.42,1.8-5.18,2.6c-.93.42.28-.12.39-.16-.24.09-.47.19-.71.29-.48.19-.96.38-1.44.56-1.11.42-2.23.81-3.36,1.17-5.04,1.62-10.23,2.71-15.47,3.42-1.38.19-2.92,1.62-3.59,2.76-.75,1.29-1.07,3.18-.6,4.62s1.37,2.85,2.76,3.59c1.53.81,2.93.83,4.62.6,9.15-1.24,18.19-3.7,26.44-7.91,3.6-1.83,6.97-4.11,10.01-6.77,2.37-2.07,4.31-4.56,6.63-6.68.33-.3.67-.58,1-.87.19-.16.76-.6-.02,0-.84.65-.08.07.12-.07.77-.54,1.57-1.03,2.42-1.44.17-.08.43-.17.59-.28-1.07.76-.84.33-.18.1.5-.18,1.01-.34,1.52-.48.55-.15,1.1-.26,1.66-.37.84-.17-.21-.15-.41.04.18-.17,1.05-.1,1.26-.12,3.12-.25,6.15-2.58,6-6-.14-3.04-2.65-6.26-6-6h0Z"/>
    <path class="cls-2" d="m575.75,45.28c-.78.7-1.61,1.34-2.41,2.01,1.55-1.29.02-.03-.34.22-.54.39-1.08.76-1.63,1.13-1.92,1.28-3.92,2.43-5.97,3.49-1.08.56-2.17,1.08-3.27,1.59-.53.24-1.23.43-1.71.75,1-.67.84-.35.39-.17s-.94.38-1.42.57c-2.46.96-4.95,1.81-7.48,2.57-5.61,1.67-11.35,2.88-17.15,3.71-.3.04-.59.09-.89.12,1.65-.18.1-.02-.2.02-.67.08-1.35.16-2.02.24-1.27.15-2.54.29-3.81.44-3.05.36-6.1.74-9.11,1.33-5.03.99-11.8,2.96-14.01,8.18-.66,1.55-1.07,2.92-.6,4.62.38,1.39,1.46,2.9,2.76,3.59,2.57,1.36,6.9.93,8.21-2.15.13-.31.42-.64.52-.95-.33,1.1-.97,1.1-.44.61.14-.13.29-.27.42-.4.67-.69-1.15.76-.54.41.18-.1.36-.24.54-.35.43-.26.89-.46,1.34-.7.67-.36-1.53.58-.48.21.19-.07.38-.14.58-.21.5-.18,1.02-.34,1.53-.48,1.23-.35,2.49-.63,3.74-.87,1.17-.22,2.34-.41,3.52-.58.41-.06,1.4-.17-.26.03.26-.03.51-.07.77-.1.77-.1,1.54-.19,2.31-.28,3.12-.36,6.23-.71,9.34-1.16,11.25-1.61,22.34-4.68,32.54-9.74,4.95-2.46,9.6-5.54,13.74-9.22,2.35-2.09,2.29-6.38,0-8.49-2.51-2.31-5.97-2.23-8.49,0h0Z"/>
    <path class="cls-2" d="m598.62,86.64c-.57.16-1.14.3-1.72.41-.34.06-.72.08-1.05.18.1-.03,1.55-.15.54-.09-1.32.09-2.64.16-3.96.11-.61-.02-1.23-.06-1.84-.12-.47-.04-2.59-.36-.64-.04-1.33-.22-2.65-.42-3.97-.69-5.39-1.1-10.66-2.7-16.06-3.76-5.98-1.18-11.96-1.72-17.97-.51-5.18,1.04-9.95,3.58-14.57,6.04-1.23.66-2.47,1.31-3.73,1.92-.63.31-1.27.59-1.9.88-.44.2-.8.11.47-.2-.33.08-.66.26-.98.38-1.34.5-2.71.91-4.1,1.21-.3.06-.6.12-.9.17-1.52.26,1.17-.07-.07.02-.77.06-1.54.12-2.32.13-3.14.05-6.15,2.72-6,6s2.64,6.06,6,6c6.01-.1,11.49-2.02,16.8-4.71,2.19-1.11,4.33-2.31,6.52-3.42.52-.26,1.05-.52,1.58-.77.42-.2,2.31-.96.51-.26,1.23-.48,2.46-.95,3.73-1.32.59-.17,1.19-.32,1.79-.45.24-.05.49-.1.74-.15.58-.11,1.42.07-.09-.02,1.26.08,2.63-.23,3.91-.22,1.2.01,2.41.08,3.6.21.34.03.81.17,1.15.13-1.06.13-1.01-.15-.44-.06.77.13,1.55.25,2.31.39,5.47,1.02,10.81,2.64,16.26,3.79,6.45,1.36,13.15,2.12,19.6.36,3.03-.83,5.19-4.3,4.19-7.38s-4.14-5.08-7.38-4.19h0Z"/>
    <path class="cls-2" d="m622.81,133.1c-1.32.51-2.67.91-4.06,1.19-.35.07-.7.13-1.05.19-1,.19.43-.06.53-.06-.84.01-1.69.18-2.53.22-3.05.15-6.08-.09-9.1-.45-1.4-.17,1.43.22.03,0-.26-.04-.53-.08-.79-.12-.8-.12-1.59-.25-2.38-.39-1.61-.28-3.22-.59-4.83-.9-3.26-.64-6.51-1.32-9.77-1.9-6.66-1.18-13.48-2.09-20.24-1.28s-13.44,2.86-20.07,4.97c-3.32,1.06-6.67,2.07-10.09,2.79-.93.19-1.86.37-2.8.51-.24.04-1.36-.02-.42.06.53-.07.52-.07-.02,0-.27.03-.55.06-.82.08-1.97.18-3.94.22-5.91.14-3.14-.14-6.14,2.86-6,6,.15,3.37,2.64,5.85,6,6,6.98.32,13.9-1.15,20.55-3.17,6.19-1.88,12.3-4.15,18.7-5.23.27-.05.97-.28,1.22-.19l-.77.1c.21-.03.41-.05.62-.08.77-.09,1.53-.16,2.3-.21,1.74-.11,3.48-.11,5.22-.03,1.47.07,2.95.2,4.41.36.28.03.98,0,1.21.15l-.78-.11c.27.04.54.08.81.12.82.12,1.63.25,2.44.39,6.48,1.09,12.88,2.65,19.39,3.58,7.34,1.04,15.1,1.57,22.17-1.16,1.5-.58,2.75-1.32,3.59-2.76.75-1.29,1.07-3.18.6-4.62-.92-2.84-4.25-5.4-7.38-4.19h0Z"/>
    <path class="cls-2" d="m580.62,175.98c-2.28.6-4.56,1.19-6.87,1.64-.59.11-1.17.22-1.76.32-.24.04-.62.15-.88.14.16,0,1.39-.16.27-.04s-2.36.23-3.54.25c-.59.01-1.18,0-1.76-.02-.29-.01-1.52-.27-1.75-.13.09-.05,1.46.25.29.04-.29-.05-.58-.1-.87-.16-.58-.12-1.15-.26-1.71-.42s-1.12-.36-1.68-.56c-1.12-.4.21.02.24.1-.02-.06-.66-.31-.78-.37-1.09-.53-2.13-1.14-3.17-1.76-4.13-2.47-8.27-4.68-12.88-6.16s-9.35-2.24-14.1-2.44c-5.26-.23-10.66.39-15.71,1.87-3.01.88-5.2,4.26-4.19,7.38s4.16,5.14,7.38,4.19c1.01-.3,2.02-.56,3.05-.78.52-.11,1.04-.21,1.56-.3.2-.03.39-.07.59-.1.92-.14.39.01-.2.02,2.16-.02,4.31-.37,6.49-.32,1.1.02,2.19.08,3.28.18.54.05,1.1.17,1.64.18-.14,0-1.44-.22-.37-.05.27.04.54.08.81.13,2.23.38,4.43.91,6.58,1.6.97.31,1.92.67,2.87,1.03,1.03.39-.22-.13-.31-.14.18,0,.61.27.74.33.55.25,1.09.51,1.63.79,2,1.02,3.88,2.24,5.82,3.38,4.78,2.79,9.86,4.39,15.42,4.48s11.53-1.26,17.08-2.73c3.03-.8,5.18-4.32,4.19-7.38s-4.13-5.05-7.38-4.19h0Z"/>
    <path class="cls-2" d="m512.35,215.5c1.99.02,3.98.07,5.97.2,1,.07,1.99.17,2.99.27,1.26.13-1.29-.2.31.04.49.08.98.16,1.46.25,1.92.36,3.83.86,5.66,1.54l.39.15c.61.24.52.2-.28-.13.42.06.94.43,1.31.62.82.42,1.62.87,2.39,1.39.15.1.3.2.44.31.51.38.38.28-.37-.28.11.24.59.51.81.7.61.56,1.16,1.17,1.7,1.8.39.49.3.36-.29-.39.14.19.27.38.4.57.19.29.38.58.55.88.2.34.39.69.56,1.05.64,1.3-.36-1.14,0-.05.24.73.44,1.45.61,2.2.26,1.14-.07-1.41-.05-.33,0,.42.04.83.02,1.25-.04.79-.39.81.08-.36-.15.37-.17.82-.3,1.21l-.1.3c-.22.58-.14.4.24-.56-.26.28-.43.8-.64,1.13-1.7,2.65-.63,6.74,2.15,8.21,2.97,1.57,6.4.67,8.21-2.15,5.36-8.36.89-19.05-6.33-24.63-7.88-6.08-18.24-7.09-27.87-7.17-3.14-.03-6.14,2.78-6,6s2.64,5.97,6,6h0Z"/>
  </g>
</svg>