<?xml version="1.0" encoding="UTF-8"?>
<svg xmlns="http://www.w3.org/2000/svg" viewBox="0 0 824.62 553.83">
  <defs>
    <style>
      .cls-1 {
        letter-spacing: .02em;
      }

      .cls-2 {
        letter-spacing: .02em;
      }

      .cls-3 {
        letter-spacing: .03em;
      }

      .cls-4 {
        letter-spacing: .02em;
      }

      .cls-5 {
        letter-spacing: .02em;
      }

      .cls-6 {
        letter-spacing: .02em;
      }

      .cls-7 {
        fill: #ee8012;
        font-size: 241px;
      }

      .cls-7, .cls-8, .cls-9 {
        font-family: MyriadPro-Regular, 'Myriad Pro';
      }

      .cls-10 {
        fill: #fff;
      }

      .cls-8 {
        fill: #0095a3;
      }

      .cls-8, .cls-9 {
        font-size: 242.05px;
      }

      .cls-11 {
        letter-spacing: -.05em;
      }

      .cls-12 {
        letter-spacing: -.05em;
      }

      .cls-13 {
        letter-spacing: -.05em;
      }

      .cls-14 {
        letter-spacing: .03em;
      }

      .cls-15 {
        letter-spacing: .03em;
      }

      .cls-16 {
        letter-spacing: .03em;
      }

      .cls-17 {
        letter-spacing: .03em;
      }

      .cls-18 {
        letter-spacing: .03em;
      }

      .cls-19 {
        letter-spacing: .03em;
      }
    </style>
  </defs>
  <g id="Layer_2" data-name="Layer 2">
    <text class="cls-8" transform="translate(0 202.85) scale(1.12 1)"><tspan class="cls-4" x="0" y="0">VE</tspan><tspan class="cls-14" x="266.26" y="0">R</tspan><tspan class="cls-4" x="403.74" y="0">A</tspan><tspan class="cls-4" x="0" y="290.47">DE</tspan><tspan class="cls-18" x="292.4" y="290.47">C</tspan><tspan class="cls-12" x="439.8" y="290.47">A</tspan><tspan class="cls-4" x="574.87" y="290.47">Y</tspan></text>
    <path class="cls-10" d="m452.12,348.44c7.91-.68,16-.58,23.5,2.33,1.8.7,2.58-2.2.8-2.89-7.72-2.99-16.14-3.13-24.29-2.43-1.91.16-1.93,3.17,0,3h0Z"/>
    <path class="cls-10" d="m448.69,349.02c1.63-.1,3.27-.21,4.9-.31.78-.05,1.54-.65,1.5-1.5-.03-.77-.66-1.55-1.5-1.5-1.63.1-3.27.21-4.9.31-.78.05-1.54.65-1.5,1.5.03.77.66,1.55,1.5,1.5h0Z"/>
    <path class="cls-10" d="m450.54,348.61c5.42-.66,10.89-.64,16.31.05.81.1,1.5-.76,1.5-1.5,0-.9-.69-1.4-1.5-1.5-5.42-.69-10.89-.71-16.31-.05-.8.1-1.5.62-1.5,1.5,0,.74.69,1.6,1.5,1.5h0Z"/>
    <path class="cls-10" d="m465.38,348.03c6.86-.03,13.63,1.05,20.14,3.2,1.84.61,2.63-2.29.8-2.89-6.75-2.22-13.83-3.33-20.94-3.31-1.93,0-1.93,3.01,0,3h0Z"/>
    <path class="cls-10" d="m479.03,349.11c3.73.72,7.37,1.83,10.87,3.3.75.31,1.65-.34,1.85-1.05.24-.87-.3-1.53-1.05-1.85-3.5-1.48-7.14-2.58-10.87-3.3-.79-.15-1.62.22-1.85,1.05-.2.74.25,1.69,1.05,1.85h0Z"/>
    <path class="cls-10" d="m486.32,351.4c1.93,0,1.93-3,0-3s-1.93,3,0,3h0Z"/>
    <path class="cls-10" d="m488.97,349.4c-3.4-1.03-6.92-1.62-10.46-1.79-.81-.04-1.5.72-1.5,1.5,0,.84.69,1.46,1.5,1.5,3.29.16,6.49.72,9.67,1.68.78.23,1.63-.28,1.85-1.05s-.27-1.61-1.05-1.85h0Z"/>
    <path class="cls-10" d="m476.52,349.32c1.01-.13,2.02-.13,3.03,0l-.4-.05c.54.08,1.08.19,1.61.34.75.21,1.67-.26,1.85-1.05s-.24-1.62-1.05-1.85c-1.62-.46-3.36-.61-5.04-.4-.41.05-.75.13-1.06.44-.26.26-.46.69-.44,1.06s.14.79.44,1.06c.27.25.68.49,1.06.44h0Z"/>
    <path class="cls-10" d="m491.88,350.17c-1.76-.16-3.47-.77-5.21-1.08-1.87-.34-3.76-.53-5.66-.57-.81-.02-1.5.7-1.5,1.5s.69,1.48,1.5,1.5c1.77.04,3.53.2,5.27.54,1.87.36,3.69.94,5.6,1.11.81.07,1.5-.74,1.5-1.5,0-.87-.69-1.43-1.5-1.5h0Z"/>
    <path class="cls-10" d="m472.01,349.35c-1.44-.06-3.06-.56-4.61-1.03-1.66-.5-3.34-.95-5.08-.98-.78-.01-1.54.7-1.5,1.5s.66,1.49,1.5,1.5c.9.01,1.37.09,2.25.3.8.19,1.58.43,2.36.67,1.66.51,3.33.97,5.08,1.04.78.03,1.54-.71,1.5-1.5-.04-.84-.66-1.46-1.5-1.5h0Z"/>
    <path class="cls-10" d="m451.21,348.78c2.9-.37,5.82-.6,8.74-.69.78-.02,1.54-.67,1.5-1.5s-.66-1.53-1.5-1.5c-2.92.09-5.84.32-8.74.69-.78.1-1.54.62-1.5,1.5.03.73.67,1.61,1.5,1.5h0Z"/>
    <path class="cls-10" d="m451.87,348.71c.5-.17,1.02-.29,1.54-.36l-.4.05c.59-.07,1.18-.09,1.76-.03.36.03.81-.19,1.06-.44s.46-.69.44-1.06-.14-.79-.44-1.06-.64-.4-1.06-.44c-1.24-.11-2.53.05-3.7.45-.37.13-.69.34-.9.69-.19.32-.27.8-.15,1.16s.34.71.69.9.77.28,1.16.15h0Z"/>
    <path class="cls-10" d="m450.81,348.48c4.88-.33,9.8-.81,14.68-.24,1.66.2,2.06-2.66.4-2.95-.61-.1-1.21-.21-1.82-.31-.8-.14-1.62.21-1.85,1.05-.2.72.24,1.71,1.05,1.85.61.1,1.21.21,1.82.31l.4-2.95c-4.88-.57-9.8-.09-14.68.24-.81.05-1.5.65-1.5,1.5,0,.77.69,1.55,1.5,1.5h0Z"/>
    <path class="cls-10" d="m444.96,476.7l3.85-.26c.4-.03.77-.15,1.06-.44.26-.26.46-.69.44-1.06s-.14-.79-.44-1.06-.67-.47-1.06-.44l-3.85.26c-.4.03-.77.15-1.06.44-.26.26-.46.69-.44,1.06s.14.79.44,1.06.67.47,1.06.44h0Z"/>
    <path class="cls-10" d="m443.75,476.66c9.64.89,19.32,1.27,29,1.14,1.93-.03,1.93-3.03,0-3-9.68.13-19.36-.26-29-1.14-1.92-.18-1.91,2.82,0,3h0Z"/>
    <path class="cls-10" d="m456.12,476.4c6.47.55,13.02-.3,19.13-2.49l-1.16-2.74c-1.49.86-3.16.91-4.84.89-1.76-.02-3.49-.06-5.24.2l1.85,1.85c.12-.53,1.82-1.19,2.29-1.44,1.01-.52,2.04-.98,3.11-1.35,2.07-.73,4.22-1.19,6.41-1.37l-1.06-2.56c-2.15,1.7-5.34,2.14-7.91,2.86-3.06.85-6.12,1.67-9.21,2.42l.8,2.89c6.04-1.65,12.21-2.55,18.47-2.68l-.4-2.95c-5.61,2.24-11.72,3.03-17.63,4.13-1.9.35-1.09,3.25.8,2.89,5.9-1.1,12.02-1.89,17.63-4.13,1.47-.59,1.42-2.98-.4-2.95-6.51.13-12.99,1.06-19.27,2.78-1.86.51-1.08,3.35.8,2.89,3.37-.82,6.72-1.73,10.06-2.66,2.93-.82,5.94-1.47,8.38-3.39,1.01-.79.18-2.66-1.06-2.56-2.86.23-5.66.83-8.32,1.9-1.29.52-2.55,1.11-3.76,1.81-1.11.64-2.31,1.31-2.62,2.65-.28,1.2.72,2.01,1.85,1.85,3.67-.55,7.39.56,10.79-1.4,1.44-.82.48-3.33-1.16-2.74-5.89,2.11-12.09,2.91-18.33,2.38-1.92-.16-1.91,2.84,0,3h0Z"/>
  </g>
  <g id="Layer_3" data-name="Layer 3">
    <text class="cls-7" transform="translate(21 201.85) scale(1.12 1)"><tspan class="cls-3" x="0" y="0">VE</tspan><tspan class="cls-15" x="265.1" y="0">R</tspan><tspan class="cls-5" x="401.98" y="0">A</tspan><tspan class="cls-3" x="0" y="289.2">DE</tspan><tspan class="cls-17" x="291.12" y="289.2">C</tspan><tspan class="cls-11" x="437.89" y="289.2">A</tspan><tspan class="cls-6" x="572.37" y="289.2">Y</tspan></text>
    <path class="cls-10" d="m466.71,348.35c8.16.03,16.21,1.43,23.92,4.14,1.83.64,2.61-2.26.8-2.89-7.94-2.79-16.3-4.21-24.71-4.25-1.93,0-1.93,2.99,0,3h0Z"/>
    <path class="cls-10" d="m465.25,348.19c.89.01,1.79.06,2.68.15.23.02.45.05.68.07.1.01.21.03.31.04.31.04-.32-.05.02,0,.45.07.9.14,1.35.22.4.07.79.06,1.16-.15.31-.18.61-.54.69-.9.17-.74-.22-1.69-1.05-1.85-1.92-.36-3.88-.56-5.84-.59-.78-.01-1.54.7-1.5,1.5s.66,1.49,1.5,1.5h0Z"/>
    <path class="cls-10" d="m485.13,350.82c1.7.34,3.39.76,5.05,1.28.75.23,1.67-.28,1.85-1.05.19-.82-.25-1.59-1.05-1.85-1.66-.52-3.34-.95-5.05-1.28-.4-.08-.8-.06-1.16.15-.31.18-.61.54-.69.9-.17.74.22,1.68,1.05,1.85h0Z"/>
    <path class="cls-10" d="m492.43,469.82c-7.19-1.01-13.99,1.49-20.92,3-1.89.41-1.09,3.3.8,2.89,6.3-1.37,12.77-3.92,19.32-3,.81.11,1.6-.2,1.85-1.05.2-.7-.25-1.73-1.05-1.85h0Z"/>
    <path class="cls-10" d="m444.56,476.61c.76,0,1.53.05,2.28.15l-.4-.05c.28.04.56.08.83.14.4.08.79.06,1.16-.15.31-.18.61-.54.69-.9.09-.38.07-.81-.15-1.16-.2-.31-.52-.62-.9-.69-1.16-.22-2.34-.34-3.51-.34-.39,0-.79.17-1.06.44s-.46.69-.44,1.06c.04.81.66,1.5,1.5,1.5h0Z"/>
    <path class="cls-10" d="m447.68,476.97c1.93,0,1.93-3,0-3s-1.93,3,0,3h0Z"/>
    <path class="cls-10" d="m446.55,476.97c1.93,0,1.93-3,0-3s-1.93,3,0,3h0Z"/>
    <path class="cls-10" d="m446.03,476.88c1.93,0,1.93-3,0-3s-1.93,3,0,3h0Z"/>
    <path class="cls-10" d="m445.42,476.71c1.93,0,1.93-3,0-3s-1.93,3,0,3h0Z"/>
    <path class="cls-10" d="m445.42,476.79c1.93,0,1.93-3,0-3s-1.93,3,0,3h0Z"/>
    <path class="cls-10" d="m445.89,476.84c4.72.8,9.48,1.35,14.27,1.6,2.36.12,4.73.17,7.1.15,1.66-.02,4.24.28,4.75-1.83.46-1.87-2.43-2.67-2.89-.8.49-.35.58-.49.27-.41h-.47c-.55.03-1.1.03-1.66.04-.95,0-1.89,0-2.84,0-1.97-.03-3.94-.11-5.91-.24-3.96-.26-7.9-.73-11.82-1.4-1.89-.32-2.7,2.57-.8,2.89h0Z"/>
    <path class="cls-10" d="m469.7,477.73c4.23-.38,8.46-.85,12.67-1.41,2.06-.28,4.12-.57,6.18-.89,1.62-.25,3.95-.19,4.52-2.09s-2.34-2.65-2.89-.8c.51-.42.55-.56.14-.41l-.43.07c-.5.09-1,.16-1.49.24-.85.13-1.71.26-2.56.39-1.79.26-3.59.51-5.38.74-3.57.45-7.16.84-10.74,1.16-1.91.17-1.93,3.17,0,3h0Z"/>
    <path class="cls-10" d="m480.43,474.23c2.77.21,5.53.08,8.29-.3.78-.11,1.27-1.14,1.05-1.85-.28-.86-1.01-1.16-1.85-1.05-.35.05.1,0-.22.03-.18.02-.36.04-.54.06-.31.03-.62.06-.93.09-.64.05-1.29.09-1.94.11-1.29.04-2.58,0-3.87-.1-.78-.06-1.53.73-1.5,1.5.04.86.66,1.44,1.5,1.5h0Z"/>
    <path class="cls-10" d="m437.26,474.87c.62-.1,1.42,0,2.06.29.84.37,1.58.95,2.4,1.37,1.8.91,3.7,1.42,5.7,1.59.81.07,1.5-.74,1.5-1.5,0-.87-.69-1.43-1.5-1.5-1.71-.15-3.49-.73-5.01-1.64-.88-.52-1.72-1.07-2.71-1.36-1.07-.32-2.15-.32-3.24-.14-.8.13-1.25,1.13-1.05,1.85.23.85,1.04,1.18,1.85,1.05h0Z"/>
    <path class="cls-10" d="m460.62,347.86c12.01-.81,24.03,1.06,35.23,5.47,1.8.71,2.58-2.19.8-2.89-11.42-4.5-23.79-6.4-36.03-5.58-1.92.13-1.93,3.13,0,3h0Z"/>
    <path class="cls-10" d="m471.04,473.35c-3.24-.15-6.49-.09-9.72.18-.78.07-1.54.64-1.5,1.5.03.76.66,1.57,1.5,1.5,3.23-.27,6.48-.33,9.72-.18.78.04,1.54-.72,1.5-1.5-.04-.84-.66-1.46-1.5-1.5h0Z"/>
    <path class="cls-10" d="m490.23,471.34h.75c.21,0,.4-.04.58-.13.19-.06.35-.16.48-.31.15-.14.25-.3.31-.48.09-.18.14-.37.13-.58l-.05-.4c-.07-.25-.2-.47-.39-.66l-.3-.23c-.23-.14-.49-.2-.76-.2h-.75c-.21,0-.4.04-.58.13-.19.06-.35.16-.48.31-.15.14-.25.3-.31.48-.09.18-.14.37-.13.58l.05.4c.07.25.2.47.39.66l.3.23c.23.14.49.2.76.2h0Z"/>
    <path class="cls-10" d="m441.14,473.96c-3.19-.28-6.41-.93-9.53-1.9-.75-.23-1.67.27-1.85,1.05-.19.81.24,1.6,1.05,1.85,3.36,1.04,6.83,1.7,10.33,2,.78.07,1.53-.74,1.5-1.5-.04-.87-.66-1.43-1.5-1.5h0Z"/>
  </g>
  <g id="Layer_1" data-name="Layer 1">
    <text class="cls-9" transform="translate(27.27 202.6) scale(1.12 1)"><tspan class="cls-2" x="0" y="0">VE</tspan><tspan class="cls-19" x="265.77" y="0">R</tspan><tspan class="cls-2" x="403.01" y="0">A</tspan><tspan class="cls-1" x="0" y="290.47">DE</tspan><tspan class="cls-16" x="291.91" y="290.47">C</tspan><tspan class="cls-13" x="439.08" y="290.47">A</tspan><tspan class="cls-2" x="573.9" y="290.47">Y</tspan></text>
  </g>
</svg>