<?xml version="1.0" encoding="UTF-8"?>
<svg id="Layer_1" data-name="Layer 1" xmlns="http://www.w3.org/2000/svg" xmlns:xlink="http://www.w3.org/1999/xlink" viewBox="0 0 117.58 164.59">
  <defs>
    <style>
      .cls-1 {
        letter-spacing: .02em;
      }

      .cls-2 {
        fill: #0095a3;
      }

      .cls-3 {
        fill: #707070;
      }

      .cls-4 {
        fill: #292828;
        font-family: Veneer-Regular, Veneer;
        font-size: 20.51px;
      }

      .cls-4, .cls-5 {
        isolation: isolate;
      }

      .cls-6 {
        filter: url(#drop-shadow-1);
      }

      .cls-7 {
        letter-spacing: -.03em;
      }
    </style>
    <filter id="drop-shadow-1" filterUnits="userSpaceOnUse">
      <feOffset dx="0" dy="59"/>
      <feGaussianBlur result="blur" stdDeviation="5"/>
      <feFlood flood-color="#000" flood-opacity=".68"/>
      <feComposite in2="blur" operator="in"/>
      <feComposite in="SourceGraphic"/>
    </filter>
  </defs>
  <g class="cls-6">
    <g id="sea-2">
      <path class="cls-2" d="m58.79,164.45c-3.98,0-7.96-.4-11.82-1.18-3.77-.77-7.47-1.91-11.01-3.39-3.48-1.46-6.83-3.27-9.96-5.37-3.11-2.08-6.03-4.48-8.68-7.11-2.65-2.64-5.06-5.54-7.16-8.62-2.12-3.11-3.94-6.44-5.41-9.89-1.5-3.52-2.65-7.19-3.42-10.93-.79-3.84-1.19-7.79-1.19-11.74s.69-8.49,2.06-13.77c1.27-4.91,3.14-10.41,5.54-16.35,2.24-5.54,4.94-11.45,8.04-17.56,2.91-5.76,6.12-11.62,9.54-17.42,6.56-11.11,13.54-21.39,19.66-28.94,3.07-3.79,5.81-6.75,8.14-8.81,1.19-1.05,2.27-1.85,3.2-2.39.95-.54,1.77-.82,2.42-.82.01,0,.03,0,.04,0,2.58.04,7.46,4.34,13.74,12.09,6.13,7.58,13.12,17.85,19.68,28.93,3.43,5.79,6.65,11.65,9.56,17.39,3.1,6.11,5.81,12.01,8.05,17.54,2.41,5.94,4.28,11.43,5.55,16.34,1.37,5.28,2.07,9.91,2.07,13.78s-.4,7.9-1.19,11.74c-.77,3.74-1.92,7.42-3.42,10.93-1.47,3.45-3.29,6.78-5.41,9.89-2.1,3.08-4.51,5.98-7.16,8.62-2.65,2.64-5.57,5.03-8.68,7.11-3.14,2.1-6.49,3.91-9.96,5.37-3.54,1.49-7.24,2.63-11.01,3.39-3.86.79-7.84,1.18-11.82,1.18Z"/>
      <path class="cls-3" d="m58.75.27c-.63,0-1.43.27-2.36.8-.93.53-2,1.33-3.18,2.37-2.32,2.05-5.05,5-8.12,8.79-6.12,7.55-13.1,17.82-19.65,28.93-3.42,5.8-6.63,11.65-9.54,17.41-3.09,6.11-5.79,12.02-8.03,17.55-2.4,5.94-4.26,11.43-5.54,16.34-1.37,5.27-2.06,9.89-2.06,13.74s.4,7.88,1.19,11.71c.77,3.73,1.92,7.4,3.41,10.91,1.47,3.44,3.28,6.76,5.4,9.87,2.09,3.08,4.5,5.97,7.15,8.6,2.65,2.63,5.56,5.02,8.66,7.1,3.13,2.1,6.47,3.9,9.94,5.36,3.53,1.48,7.23,2.62,10.98,3.39,3.86.78,7.82,1.18,11.79,1.18s7.94-.4,11.79-1.18c3.76-.76,7.45-1.9,10.98-3.39,3.47-1.46,6.81-3.26,9.94-5.36,3.1-2.08,6.01-4.47,8.66-7.1,2.65-2.63,5.05-5.52,7.15-8.6,2.11-3.11,3.93-6.43,5.4-9.87,1.49-3.51,2.64-7.18,3.41-10.91.79-3.83,1.19-7.77,1.19-11.71s-.69-8.48-2.06-13.74c-1.27-4.9-3.14-10.39-5.55-16.32-2.24-5.53-4.95-11.42-8.05-17.53-2.91-5.74-6.13-11.59-9.56-17.38-6.55-11.07-13.54-21.34-19.67-28.91-3.07-3.79-5.8-6.75-8.12-8.81-1.18-1.05-2.25-1.85-3.17-2.39-.93-.54-1.72-.82-2.35-.83-.01,0-.02,0-.04,0m0-.27s.03,0,.04,0c11.04.19,58.79,73.96,58.79,106.2s-26.32,58.38-58.79,58.38S0,138.45,0,106.2,47.63,0,58.75,0Z"/>
    </g>
  </g>
  <g id="Facebook" class="cls-5">
    <text class="cls-4" transform="translate(65.22 102) rotate(-90)"><tspan class="cls-7" x="0" y="0">F</tspan><tspan class="cls-1" x="7.57" y="0">acebook</tspan></text>
  </g>
</svg>