<svg viewBox="0 0 24 24" xmlns="http://www.w3.org/2000/svg" height="48" width="48"><path d="M12.83,17.484c.193,0,7.791,0,7.841,0a2.829,2.829,0,1,0-1.094-5.439,4.992,4.992,0,0,0-6.78-4.21c-.215.082-.272.167-.274.332V17.15A.333.333,0,0,0,12.83,17.484Z" fill="none" stroke="#000000" stroke-linecap="round" stroke-linejoin="round"></path><path d="M10.523 8.478L10.523 17.484" fill="none" stroke="#000000" stroke-linecap="round" stroke-linejoin="round"></path><path d="M8.523 9.478L8.523 17.484" fill="none" stroke="#000000" stroke-linecap="round" stroke-linejoin="round"></path><path d="M6.523 9.978L6.523 17.484" fill="none" stroke="#000000" stroke-linecap="round" stroke-linejoin="round"></path><path d="M4.523 11.978L4.523 17.484" fill="none" stroke="#000000" stroke-linecap="round" stroke-linejoin="round"></path><path d="M2.523 11.978L2.523 17.484" fill="none" stroke="#000000" stroke-linecap="round" stroke-linejoin="round"></path><path d="M0.523 12.981L0.523 16.972" fill="none" stroke="#000000" stroke-linecap="round" stroke-linejoin="round"></path></svg>