<svg xmlns="http://www.w3.org/2000/svg" viewBox="0 0 24 24" height="48" width="48"><g><circle cx="12" cy="12" r="11.5" fill="none" stroke="#000000" stroke-linecap="round" stroke-linejoin="round"></circle><path d="M20,10.2a1.29,1.29,0,0,1-1.71.3,14.47,14.47,0,0,0-5.64-2.07,15.12,15.12,0,0,0-6.08.41,1.4,1.4,0,0,1-1.72-.92h0a1.4,1.4,0,0,1,.92-1.77,16.88,16.88,0,0,1,7.21-.6,15.55,15.55,0,0,1,6.76,2.8A1.29,1.29,0,0,1,20,10.2Z" fill="none" stroke="#000000" stroke-linecap="round" stroke-linejoin="round"></path><path d="M17.74,14.1a1.27,1.27,0,0,1-1.62.46,14.49,14.49,0,0,0-3.85-1.36A12.44,12.44,0,0,0,7,13.61a1.1,1.1,0,0,1-1.36-.78l0-.18a1.18,1.18,0,0,1,.73-1.48,13.11,13.11,0,0,1,6-.58,16.74,16.74,0,0,1,5,1.71,1.26,1.26,0,0,1,.48,1.8Z" fill="none" stroke="#000000" stroke-linecap="round" stroke-linejoin="round"></path><path d="M16.25,18.38a1,1,0,0,1-1.34.37,12.47,12.47,0,0,0-3.39-1.2,12.8,12.8,0,0,0-3.66.16,1.1,1.1,0,0,1-1.25-.8h0a1.12,1.12,0,0,1,.87-1.4,10.5,10.5,0,0,1,4.28-.24A11.09,11.09,0,0,1,16,16.86a1.1,1.1,0,0,1,.3,1.52Z" fill="none" stroke="#000000" stroke-linecap="round" stroke-linejoin="round"></path></g></svg>