<?xml version="1.0" encoding="UTF-8"?>
<svg id="Layer_1" data-name="Layer 1" xmlns="http://www.w3.org/2000/svg" xmlns:xlink="http://www.w3.org/1999/xlink" viewBox="0 0 430 601.88">
  <defs>
    <style>
      .cls-1 {
        fill: #0095a3;
      }

      .cls-2 {
        fill: #707070;
      }

      .cls-3 {
        filter: url(#drop-shadow-1);
      }

      .cls-4 {
        fill: #292828;
        font-family: TamilMN, 'Tamil MN';
        font-size: 71px;
      }

      .cls-4, .cls-5 {
        isolation: isolate;
      }
    </style>
    <filter id="drop-shadow-1" filterUnits="userSpaceOnUse">
      <feOffset dx="0" dy="59"/>
      <feGaussianBlur result="blur" stdDeviation="5"/>
      <feFlood flood-color="#000" flood-opacity=".68"/>
      <feComposite in2="blur" operator="in"/>
      <feComposite in="SourceGraphic"/>
    </filter>
  </defs>
  <g class="cls-3">
    <g id="sea-2">
      <path class="cls-1" d="m215,601.38c-14.55,0-29.1-1.46-43.23-4.33-13.77-2.8-27.32-6.97-40.26-12.41-12.71-5.34-24.97-11.95-36.44-19.64-11.36-7.62-22.04-16.37-31.75-26.01-9.71-9.64-18.52-20.24-26.19-31.52-7.75-11.39-14.4-23.56-19.78-36.18-5.48-12.85-9.68-26.31-12.5-39.98-2.89-14.03-4.36-28.47-4.36-42.93s2.54-31.06,7.55-50.37c4.66-17.95,11.47-38.07,20.27-59.8,8.19-20.25,18.08-41.86,29.39-64.23,10.64-21.06,22.38-42.48,34.9-63.69,23.99-40.63,49.52-78.22,71.9-105.85,11.23-13.87,21.25-24.7,29.76-32.21,4.35-3.83,8.29-6.77,11.71-8.73,3.48-1.99,6.46-3,8.87-3,.05,0,.1,0,.15,0,9.45.16,27.3,15.86,50.25,44.21,22.43,27.7,47.99,65.27,71.97,105.78,12.54,21.19,24.31,42.59,34.96,63.6,11.33,22.35,21.24,43.93,29.45,64.15,8.81,21.71,15.65,41.81,20.31,59.76,5.02,19.3,7.57,36.26,7.57,50.39s-1.47,28.89-4.36,42.93c-2.82,13.68-7.02,27.13-12.5,39.98-5.38,12.62-12.03,24.79-19.78,36.18-7.67,11.28-16.49,21.88-26.19,31.52-9.71,9.64-20.39,18.39-31.75,26.01-11.47,7.69-23.73,14.3-36.44,19.64-12.94,5.44-26.49,9.61-40.26,12.41-14.13,2.87-28.68,4.33-43.23,4.33Z"/>
      <path class="cls-2" d="m214.85,1c-2.32,0-5.22.99-8.62,2.94-3.39,1.95-7.31,4.86-11.63,8.67-8.49,7.49-18.49,18.3-29.7,32.15-22.37,27.61-47.89,65.17-71.86,105.78-12.51,21.19-24.25,42.61-34.89,63.66-11.3,22.36-21.18,43.96-29.37,64.2-8.78,21.71-15.6,41.81-20.25,59.74-5,19.27-7.53,36.18-7.53,50.25s1.46,28.83,4.35,42.83c2.81,13.64,7.01,27.06,12.47,39.89,5.36,12.59,12,24.74,19.73,36.1,7.66,11.25,16.45,21.83,26.13,31.45,9.68,9.62,20.34,18.35,31.67,25.95,11.44,7.68,23.67,14.27,36.35,19.59,12.91,5.42,26.43,9.59,40.17,12.38,14.1,2.86,28.61,4.32,43.13,4.32s29.03-1.45,43.13-4.32c13.74-2.79,27.25-6.96,40.17-12.38,12.68-5.33,24.91-11.92,36.35-19.59,11.33-7.6,21.99-16.33,31.67-25.95,9.68-9.62,18.48-20.2,26.13-31.45,7.73-11.36,14.37-23.5,19.73-36.1,5.46-12.82,9.66-26.24,12.47-39.89,2.88-14,4.35-28.41,4.35-42.83s-2.54-31-7.55-50.26c-4.66-17.92-11.49-38-20.29-59.69-8.2-20.21-18.1-41.78-29.43-64.11-10.65-21-22.41-42.39-34.95-63.57-23.97-40.49-49.51-78.03-71.93-105.72-11.21-13.85-21.2-24.69-29.68-32.23-4.31-3.83-8.22-6.78-11.6-8.75-3.39-1.98-6.28-3-8.58-3.04-.05,0-.09,0-.14,0m0-1c.05,0,.1,0,.15,0,40.38.69,215,270.47,215,388.38s-96.26,213.5-215,213.5S0,506.3,0,388.38,174.18,0,214.85,0Z"/>
    </g>
  </g>
  <g id="Facebook" class="cls-5">
    <text class="cls-4" transform="translate(236.5 429) rotate(-90)"><tspan x="0" y="0">Facebook</tspan></text>
  </g>
</svg>