<svg width="24" height="20" viewBox="-6 -6 36 36" xmlns="http://www.w3.org/2000/svg"><path d="M0 10v9c0 1 .5 1 1 1h2V8H1.5C.75 8 0 9 0 10zm13-2h-1V6.5c0-.45-.2-.5-.5-.5s-.5.05-.5.5V8c0 .5 0 1 1 1h1c.371 0 .496-.129.5-.5.004-.379-.121-.5-.5-.5zm6-3.049l-6.334-4a1.2 1.2 0 0 0-1.332 0L5 4.951C4.666 5.174 4 5.6 4 6v14h6v-5.5c0-.331 0-1.5 1-1.5h2c1 0 1 1.169 1 1.5V20h6V6c0-.401-.666-.826-1-1.049zM12 10.5a3 3 0 1 1 0-6 3 3 0 0 1 0 6zM22.5 8H21v12h2c.5 0 1 0 1-1v-9c0-1-.5-2-1.5-2z" fill="#A393A1"/></svg>